<?xml version="1.0" encoding="UTF-8" standalone="no"?>
<!-- Created with Inkscape (http://www.inkscape.org/) -->

<svg
   xmlns:dc="http://purl.org/dc/elements/1.1/"
   xmlns:cc="http://creativecommons.org/ns#"
   xmlns:rdf="http://www.w3.org/1999/02/22-rdf-syntax-ns#"
   xmlns:svg="http://www.w3.org/2000/svg"
   xmlns="http://www.w3.org/2000/svg"
   xmlns:sodipodi="http://sodipodi.sourceforge.net/DTD/sodipodi-0.dtd"
   xmlns:inkscape="http://www.inkscape.org/namespaces/inkscape"
   width="800"
   height="400"
   viewBox="0 0 211.66666 105.83333"
   version="1.1"
   id="svg8"
   inkscape:version="0.92.1 r"
   sodipodi:docname="3colorgraphs-proof.svg">
  <defs
     id="defs2" />
  <sodipodi:namedview
     id="base"
     pagecolor="#ffffff"
     bordercolor="#666666"
     borderopacity="1.0"
     inkscape:pageopacity="0.0"
     inkscape:pageshadow="2"
     inkscape:zoom="0.7"
     inkscape:cx="846.78395"
     inkscape:cy="181.70066"
     inkscape:document-units="mm"
     inkscape:current-layer="layer1"
     showgrid="false"
     units="px"
     inkscape:snap-grids="true"
     inkscape:snap-bbox="true"
     inkscape:bbox-nodes="true"
     inkscape:snap-bbox-edge-midpoints="true"
     inkscape:snap-bbox-midpoints="true"
     inkscape:object-paths="true"
     inkscape:snap-intersection-paths="true"
     inkscape:snap-smooth-nodes="false"
     inkscape:object-nodes="true"
     inkscape:snap-object-midpoints="true"
     inkscape:window-width="1916"
     inkscape:window-height="1022"
     inkscape:window-x="0"
     inkscape:window-y="56"
     inkscape:window-maximized="0">
    <inkscape:grid
       type="xygrid"
       id="grid4485" />
  </sodipodi:namedview>
  <metadata
     id="metadata5">
    <rdf:RDF>
      <cc:Work
         rdf:about="">
        <dc:format>image/svg+xml</dc:format>
        <dc:type
           rdf:resource="http://purl.org/dc/dcmitype/StillImage" />
        <dc:title />
      </cc:Work>
    </rdf:RDF>
  </metadata>
  <g
     inkscape:label="Layer 1"
     inkscape:groupmode="layer"
     id="layer1"
     transform="translate(0,-191.16664)">
    <path
       style="fill:none;fill-rule:evenodd;stroke:#616161;stroke-width:1.32291663;stroke-linecap:round;stroke-linejoin:bevel;stroke-miterlimit:4;stroke-dasharray:none;stroke-opacity:1"
       d="m 44.449998,205.98332 -23.812499,26.45833 7.9375,42.33333"
       id="path4487"
       inkscape:connector-curvature="0" />
    <path
       style="fill:none;fill-rule:evenodd;stroke:#616161;stroke-width:1.32291663;stroke-linecap:round;stroke-linejoin:bevel;stroke-miterlimit:4;stroke-dasharray:none;stroke-opacity:1"
       d="m 44.449998,205.98332 15.875,26.45833"
       id="path4489"
       inkscape:connector-curvature="0" />
    <path
       style="fill:none;fill-rule:evenodd;stroke:#616161;stroke-width:1.32291663;stroke-linecap:round;stroke-linejoin:bevel;stroke-miterlimit:4;stroke-dasharray:none;stroke-opacity:1"
       d="m 60.324998,232.44165 21.166666,-5.29167"
       id="path4491"
       inkscape:connector-curvature="0" />
    <path
       style="fill:none;fill-rule:evenodd;stroke:#616161;stroke-width:1.32291663;stroke-linecap:round;stroke-linejoin:bevel;stroke-miterlimit:4;stroke-dasharray:none;stroke-opacity:1"
       d="M 81.491664,227.14998 62.970831,280.06665"
       id="path4493"
       inkscape:connector-curvature="0" />
    <path
       style="fill:none;fill-rule:evenodd;stroke:#616161;stroke-width:1.32291663;stroke-linecap:round;stroke-linejoin:bevel;stroke-miterlimit:4;stroke-dasharray:none;stroke-opacity:1"
       d="m 28.574998,274.77498 34.395833,5.29167"
       id="path4495"
       inkscape:connector-curvature="0" />
    <path
       style="fill:none;fill-rule:evenodd;stroke:#616161;stroke-width:1.32291663;stroke-linecap:round;stroke-linejoin:bevel;stroke-miterlimit:4;stroke-dasharray:none;stroke-opacity:1"
       d="m 44.449998,205.98332 -15.875,68.79166"
       id="path4497"
       inkscape:connector-curvature="0" />
    <path
       style="fill:none;fill-rule:evenodd;stroke:#616161;stroke-width:1.32291663;stroke-linecap:round;stroke-linejoin:bevel;stroke-miterlimit:4;stroke-dasharray:none;stroke-opacity:1"
       d="m 81.491664,227.14998 -52.916666,47.625"
       id="path4499"
       inkscape:connector-curvature="0" />
    <ellipse
       style="opacity:1;fill:#bdbdbd;fill-opacity:1;stroke:#000000;stroke-width:1.32291663;stroke-linecap:round;stroke-linejoin:round;stroke-miterlimit:4;stroke-dasharray:none;stroke-dashoffset:35.4368515;stroke-opacity:1;paint-order:normal"
       id="path4501"
       cx="20.637497"
       cy="232.44162"
       rx="3.96875"
       ry="3.968749" />
    <ellipse
       ry="3.968749"
       rx="3.96875"
       cy="205.98329"
       cx="44.449997"
       id="ellipse4503"
       style="opacity:1;fill:#0288d1;fill-opacity:1;stroke:#000000;stroke-width:1.32291663;stroke-linecap:round;stroke-linejoin:round;stroke-miterlimit:4;stroke-dasharray:none;stroke-dashoffset:35.4368515;stroke-opacity:1;paint-order:normal" />
    <ellipse
       style="opacity:1;fill:#f5f5f5;fill-opacity:1;stroke:#000000;stroke-width:1.32291663;stroke-linecap:round;stroke-linejoin:round;stroke-miterlimit:4;stroke-dasharray:none;stroke-dashoffset:35.4368515;stroke-opacity:1;paint-order:normal"
       id="ellipse4505"
       cx="44.449997"
       cy="205.98329"
       rx="3.96875"
       ry="3.968749" />
    <ellipse
       ry="3.968749"
       rx="3.96875"
       cy="227.14995"
       cx="81.491653"
       id="ellipse4507"
       style="opacity:1;fill:#bdbdbd;fill-opacity:1;stroke:#000000;stroke-width:1.32291663;stroke-linecap:round;stroke-linejoin:round;stroke-miterlimit:4;stroke-dasharray:none;stroke-dashoffset:35.4368515;stroke-opacity:1;paint-order:normal" />
    <ellipse
       style="opacity:1;fill:#424242;fill-opacity:1;stroke:#000000;stroke-width:1.32291663;stroke-linecap:round;stroke-linejoin:round;stroke-miterlimit:4;stroke-dasharray:none;stroke-dashoffset:35.4368515;stroke-opacity:1;paint-order:normal"
       id="ellipse4509"
       cx="28.574999"
       cy="274.77499"
       rx="3.96875"
       ry="3.968749" />
    <ellipse
       ry="3.968749"
       rx="3.96875"
       cy="280.72958"
       cx="63.641602"
       id="ellipse4511"
       style="opacity:1;fill:#f5f5f5;fill-opacity:1;stroke:#000000;stroke-width:1.32291663;stroke-linecap:round;stroke-linejoin:round;stroke-miterlimit:4;stroke-dasharray:none;stroke-dashoffset:35.4368515;stroke-opacity:1;paint-order:normal" />
    <ellipse
       style="opacity:1;fill:#424242;fill-opacity:1;stroke:#000000;stroke-width:1.32291663;stroke-linecap:round;stroke-linejoin:round;stroke-miterlimit:4;stroke-dasharray:none;stroke-dashoffset:35.4368515;stroke-opacity:1;paint-order:normal"
       id="ellipse4513"
       cx="60.324997"
       cy="232.44162"
       ry="3.968749"
       rx="3.96875" />
    <g
       id="g6300"
       transform="translate(2.0517578e-6,2.2497559e-5)">
      <rect
         y="226.47058"
         x="14.557888"
         height="11.942088"
         width="12.159218"
         id="rect6130"
         style="opacity:1;fill:#bdbdbd;fill-opacity:1;stroke:none;stroke-width:1.32291651;stroke-linecap:round;stroke-linejoin:round;stroke-miterlimit:4;stroke-dasharray:none;stroke-dashoffset:35.4368515;stroke-opacity:1;paint-order:normal" />
      <path
         inkscape:connector-curvature="0"
         id="rect6282"
         d="m 20.382003,228.73819 c -1.198479,0 -2.175535,0.97705 -2.175535,2.17553 v 0.39563 H 17.77427 c -0.148842,0 -0.268461,0.11961 -0.268461,0.26846 v 0.8324 c -0.207758,0.0543 -0.361135,0.24062 -0.361135,0.46585 0,0.22527 0.153333,0.41202 0.361135,0.46628 v 0.0349 c -0.207802,0.0543 -0.361135,0.24101 -0.361135,0.46628 0,0.22522 0.153377,0.41157 0.361135,0.46585 v 0.0353 c -0.207758,0.0543 -0.361135,0.24063 -0.361135,0.46586 0,0.22526 0.153333,0.41202 0.361135,0.46628 v 0.59967 c 0,0.14884 0.119619,0.26887 0.268461,0.26887 h 5.726207 c 0.148842,0 0.268461,-0.12003 0.268461,-0.26887 v -0.59967 c 0.02244,-0.006 0.04505,-0.0115 0.06608,-0.0204 0.173689,-0.0732 0.295059,-0.24497 0.295059,-0.4459 0,-0.22524 -0.153377,-0.41158 -0.361135,-0.46587 v -0.0353 c 0.207758,-0.0543 0.361135,-0.24063 0.361135,-0.46586 0,-0.22527 -0.153333,-0.41202 -0.361135,-0.46628 v -0.0349 c 0.207802,-0.0543 0.361135,-0.241 0.361135,-0.46627 0,-0.22524 -0.153377,-0.41158 -0.361135,-0.46586 v -0.8324 c 0,-0.14884 -0.119619,-0.26846 -0.268462,-0.26846 h -0.432614 v -0.39563 c 0,-1.19848 -0.977056,-2.17553 -2.175534,-2.17553 z m 0,0.84984 h 0.510326 c 0.741692,0 1.325684,0.584 1.325684,1.32569 v 0.39563 h -3.160032 v -0.39563 c 0,-0.74169 0.582329,-1.32569 1.324022,-1.32569 z"
         style="opacity:1;fill:#000000;fill-opacity:1;stroke:none;stroke-width:1.32291651;stroke-linecap:round;stroke-linejoin:round;stroke-miterlimit:4;stroke-dasharray:none;stroke-dashoffset:35.4368515;stroke-opacity:1;paint-order:normal" />
      <flowRoot
         xml:space="preserve"
         id="flowRoot4830"
         style="fill:black;stroke:none;stroke-opacity:1;stroke-width:1px;stroke-linejoin:miter;stroke-linecap:butt;fill-opacity:1;font-family:'open sans';font-style:normal;font-weight:normal;font-size:40px;line-height:125%;letter-spacing:0px;word-spacing:0px;-inkscape-font-specification:'open sans';font-stretch:normal;font-variant:normal"><flowRegion
           id="flowRegion4832"><rect
             id="rect4834"
             width="377.14285"
             height="225.71428"
             x="331.42856"
             y="-222.85715" /></flowRegion><flowPara
           id="flowPara4836" /></flowRoot>    </g>
    <g
       transform="translate(60.854301,-5.291795)"
       id="g6316">
      <rect
         y="226.47058"
         x="14.557888"
         height="11.942088"
         width="12.159218"
         id="rect6310"
         style="opacity:1;fill:#bdbdbd;fill-opacity:1;stroke:none;stroke-width:1.32291651;stroke-linecap:round;stroke-linejoin:round;stroke-miterlimit:4;stroke-dasharray:none;stroke-dashoffset:35.4368515;stroke-opacity:1;paint-order:normal" />
      <path
         inkscape:connector-curvature="0"
         id="path6314"
         d="m 20.382003,228.73819 c -1.198479,0 -2.175535,0.97705 -2.175535,2.17553 v 0.39563 H 17.77427 c -0.148842,0 -0.268461,0.11961 -0.268461,0.26846 v 0.8324 c -0.207758,0.0543 -0.361135,0.24062 -0.361135,0.46585 0,0.22527 0.153333,0.41202 0.361135,0.46628 v 0.0349 c -0.207802,0.0543 -0.361135,0.24101 -0.361135,0.46628 0,0.22522 0.153377,0.41157 0.361135,0.46585 v 0.0353 c -0.207758,0.0543 -0.361135,0.24063 -0.361135,0.46586 0,0.22526 0.153333,0.41202 0.361135,0.46628 v 0.59967 c 0,0.14884 0.119619,0.26887 0.268461,0.26887 h 5.726207 c 0.148842,0 0.268461,-0.12003 0.268461,-0.26887 v -0.59967 c 0.02244,-0.006 0.04505,-0.0115 0.06608,-0.0204 0.173689,-0.0732 0.295059,-0.24497 0.295059,-0.4459 0,-0.22524 -0.153377,-0.41158 -0.361135,-0.46587 v -0.0353 c 0.207758,-0.0543 0.361135,-0.24063 0.361135,-0.46586 0,-0.22527 -0.153333,-0.41202 -0.361135,-0.46628 v -0.0349 c 0.207802,-0.0543 0.361135,-0.241 0.361135,-0.46627 0,-0.22524 -0.153377,-0.41158 -0.361135,-0.46586 v -0.8324 c 0,-0.14884 -0.119619,-0.26846 -0.268462,-0.26846 h -0.432614 v -0.39563 c 0,-1.19848 -0.977056,-2.17553 -2.175534,-2.17553 z m 0,0.84984 h 0.510326 c 0.741692,0 1.325684,0.584 1.325684,1.32569 v 0.39563 h -3.160032 v -0.39563 c 0,-0.74169 0.582329,-1.32569 1.324022,-1.32569 z"
         style="opacity:1;fill:#000000;fill-opacity:1;stroke:none;stroke-width:1.32291651;stroke-linecap:round;stroke-linejoin:round;stroke-miterlimit:4;stroke-dasharray:none;stroke-dashoffset:35.4368515;stroke-opacity:1;paint-order:normal" />
    </g>
    <g
       id="g6324"
       transform="translate(39.687633,-1.5512695e-4)">
      <rect
         style="opacity:1;fill:#bdbdbd;fill-opacity:1;stroke:none;stroke-width:1.32291651;stroke-linecap:round;stroke-linejoin:round;stroke-miterlimit:4;stroke-dasharray:none;stroke-dashoffset:35.4368515;stroke-opacity:1;paint-order:normal"
         id="rect6318"
         width="12.159218"
         height="11.942088"
         x="14.557888"
         y="226.47058" />
      <path
         style="opacity:1;fill:#000000;fill-opacity:1;stroke:none;stroke-width:1.32291651;stroke-linecap:round;stroke-linejoin:round;stroke-miterlimit:4;stroke-dasharray:none;stroke-dashoffset:35.4368515;stroke-opacity:1;paint-order:normal"
         d="m 20.382003,228.73819 c -1.198479,0 -2.175535,0.97705 -2.175535,2.17553 v 0.39563 H 17.77427 c -0.148842,0 -0.268461,0.11961 -0.268461,0.26846 v 0.8324 c -0.207758,0.0543 -0.361135,0.24062 -0.361135,0.46585 0,0.22527 0.153333,0.41202 0.361135,0.46628 v 0.0349 c -0.207802,0.0543 -0.361135,0.24101 -0.361135,0.46628 0,0.22522 0.153377,0.41157 0.361135,0.46585 v 0.0353 c -0.207758,0.0543 -0.361135,0.24063 -0.361135,0.46586 0,0.22526 0.153333,0.41202 0.361135,0.46628 v 0.59967 c 0,0.14884 0.119619,0.26887 0.268461,0.26887 h 5.726207 c 0.148842,0 0.268461,-0.12003 0.268461,-0.26887 v -0.59967 c 0.02244,-0.006 0.04505,-0.0115 0.06608,-0.0204 0.173689,-0.0732 0.295059,-0.24497 0.295059,-0.4459 0,-0.22524 -0.153377,-0.41158 -0.361135,-0.46587 v -0.0353 c 0.207758,-0.0543 0.361135,-0.24063 0.361135,-0.46586 0,-0.22527 -0.153333,-0.41202 -0.361135,-0.46628 v -0.0349 c 0.207802,-0.0543 0.361135,-0.241 0.361135,-0.46627 0,-0.22524 -0.153377,-0.41158 -0.361135,-0.46586 v -0.8324 c 0,-0.14884 -0.119619,-0.26846 -0.268462,-0.26846 h -0.432614 v -0.39563 c 0,-1.19848 -0.977056,-2.17553 -2.175534,-2.17553 z m 0,0.84984 h 0.510326 c 0.741692,0 1.325684,0.584 1.325684,1.32569 v 0.39563 h -3.160032 v -0.39563 c 0,-0.74169 0.582329,-1.32569 1.324022,-1.32569 z"
         id="path6322"
         inkscape:connector-curvature="0" />
    </g>
    <g
       transform="translate(43.452336,48.363154)"
       id="g6332">
      <rect
         y="226.47058"
         x="14.557888"
         height="11.942088"
         width="12.159218"
         id="rect6326"
         style="opacity:1;fill:#bdbdbd;fill-opacity:1;stroke:none;stroke-width:1.32291651;stroke-linecap:round;stroke-linejoin:round;stroke-miterlimit:4;stroke-dasharray:none;stroke-dashoffset:35.4368515;stroke-opacity:1;paint-order:normal" />
      <path
         inkscape:connector-curvature="0"
         id="path6330"
         d="m 20.382003,228.73819 c -1.198479,0 -2.175535,0.97705 -2.175535,2.17553 v 0.39563 H 17.77427 c -0.148842,0 -0.268461,0.11961 -0.268461,0.26846 v 0.8324 c -0.207758,0.0543 -0.361135,0.24062 -0.361135,0.46585 0,0.22527 0.153333,0.41202 0.361135,0.46628 v 0.0349 c -0.207802,0.0543 -0.361135,0.24101 -0.361135,0.46628 0,0.22522 0.153377,0.41157 0.361135,0.46585 v 0.0353 c -0.207758,0.0543 -0.361135,0.24063 -0.361135,0.46586 0,0.22526 0.153333,0.41202 0.361135,0.46628 v 0.59967 c 0,0.14884 0.119619,0.26887 0.268461,0.26887 h 5.726207 c 0.148842,0 0.268461,-0.12003 0.268461,-0.26887 v -0.59967 c 0.02244,-0.006 0.04505,-0.0115 0.06608,-0.0204 0.173689,-0.0732 0.295059,-0.24497 0.295059,-0.4459 0,-0.22524 -0.153377,-0.41158 -0.361135,-0.46587 v -0.0353 c 0.207758,-0.0543 0.361135,-0.24063 0.361135,-0.46586 0,-0.22527 -0.153333,-0.41202 -0.361135,-0.46628 v -0.0349 c 0.207802,-0.0543 0.361135,-0.241 0.361135,-0.46627 0,-0.22524 -0.153377,-0.41158 -0.361135,-0.46586 v -0.8324 c 0,-0.14884 -0.119619,-0.26846 -0.268462,-0.26846 h -0.432614 v -0.39563 c 0,-1.19848 -0.977056,-2.17553 -2.175534,-2.17553 z m 0,0.84984 h 0.510326 c 0.741692,0 1.325684,0.584 1.325684,1.32569 v 0.39563 h -3.160032 v -0.39563 c 0,-0.74169 0.582329,-1.32569 1.324022,-1.32569 z"
         style="opacity:1;fill:#000000;fill-opacity:1;stroke:none;stroke-width:1.32291651;stroke-linecap:round;stroke-linejoin:round;stroke-miterlimit:4;stroke-dasharray:none;stroke-dashoffset:35.4368515;stroke-opacity:1;paint-order:normal" />
    </g>
    <g
       id="g6340"
       transform="translate(7.9376345,42.333205)">
      <rect
         style="opacity:1;fill:#bdbdbd;fill-opacity:1;stroke:none;stroke-width:1.32291651;stroke-linecap:round;stroke-linejoin:round;stroke-miterlimit:4;stroke-dasharray:none;stroke-dashoffset:35.4368515;stroke-opacity:1;paint-order:normal"
         id="rect6334"
         width="12.159218"
         height="11.942088"
         x="14.557888"
         y="226.47058" />
      <path
         style="opacity:1;fill:#000000;fill-opacity:1;stroke:none;stroke-width:1.32291651;stroke-linecap:round;stroke-linejoin:round;stroke-miterlimit:4;stroke-dasharray:none;stroke-dashoffset:35.4368515;stroke-opacity:1;paint-order:normal"
         d="m 20.382003,228.73819 c -1.198479,0 -2.175535,0.97705 -2.175535,2.17553 v 0.39563 H 17.77427 c -0.148842,0 -0.268461,0.11961 -0.268461,0.26846 v 0.8324 c -0.207758,0.0543 -0.361135,0.24062 -0.361135,0.46585 0,0.22527 0.153333,0.41202 0.361135,0.46628 v 0.0349 c -0.207802,0.0543 -0.361135,0.24101 -0.361135,0.46628 0,0.22522 0.153377,0.41157 0.361135,0.46585 v 0.0353 c -0.207758,0.0543 -0.361135,0.24063 -0.361135,0.46586 0,0.22526 0.153333,0.41202 0.361135,0.46628 v 0.59967 c 0,0.14884 0.119619,0.26887 0.268461,0.26887 h 5.726207 c 0.148842,0 0.268461,-0.12003 0.268461,-0.26887 v -0.59967 c 0.02244,-0.006 0.04505,-0.0115 0.06608,-0.0204 0.173689,-0.0732 0.295059,-0.24497 0.295059,-0.4459 0,-0.22524 -0.153377,-0.41158 -0.361135,-0.46587 v -0.0353 c 0.207758,-0.0543 0.361135,-0.24063 0.361135,-0.46586 0,-0.22527 -0.153333,-0.41202 -0.361135,-0.46628 v -0.0349 c 0.207802,-0.0543 0.361135,-0.241 0.361135,-0.46627 0,-0.22524 -0.153377,-0.41158 -0.361135,-0.46586 v -0.8324 c 0,-0.14884 -0.119619,-0.26846 -0.268462,-0.26846 h -0.432614 v -0.39563 c 0,-1.19848 -0.977056,-2.17553 -2.175534,-2.17553 z m 0,0.84984 h 0.510326 c 0.741692,0 1.325684,0.584 1.325684,1.32569 v 0.39563 h -3.160032 v -0.39563 c 0,-0.74169 0.582329,-1.32569 1.324022,-1.32569 z"
         id="path6338"
         inkscape:connector-curvature="0" />
    </g>
    <path
       inkscape:connector-curvature="0"
       id="path6342"
       d="m 150.28336,205.98332 -23.81251,26.45833 7.93751,42.33333"
       style="fill:none;fill-rule:evenodd;stroke:#616161;stroke-width:1.32291663;stroke-linecap:round;stroke-linejoin:bevel;stroke-miterlimit:4;stroke-dasharray:none;stroke-opacity:1" />
    <path
       inkscape:connector-curvature="0"
       id="path6344"
       d="m 150.28336,205.98332 15.87501,26.45833"
       style="fill:none;fill-rule:evenodd;stroke:#616161;stroke-width:1.32291663;stroke-linecap:round;stroke-linejoin:bevel;stroke-miterlimit:4;stroke-dasharray:none;stroke-opacity:1" />
    <path
       inkscape:connector-curvature="0"
       id="path6346"
       d="m 166.15837,232.44165 21.16668,-5.29167"
       style="fill:none;fill-rule:evenodd;stroke:#616161;stroke-width:1.32291663;stroke-linecap:round;stroke-linejoin:bevel;stroke-miterlimit:4;stroke-dasharray:none;stroke-opacity:1" />
    <path
       inkscape:connector-curvature="0"
       id="path6348"
       d="m 187.32505,227.14998 -18.52084,52.91667"
       style="fill:none;fill-rule:evenodd;stroke:#616161;stroke-width:1.32291663;stroke-linecap:round;stroke-linejoin:bevel;stroke-miterlimit:4;stroke-dasharray:none;stroke-opacity:1" />
    <path
       inkscape:connector-curvature="0"
       id="path6350"
       d="m 134.40836,274.77498 34.39585,5.29167"
       style="fill:none;fill-rule:evenodd;stroke:#616161;stroke-width:1.32291663;stroke-linecap:round;stroke-linejoin:bevel;stroke-miterlimit:4;stroke-dasharray:none;stroke-opacity:1" />
    <path
       inkscape:connector-curvature="0"
       id="path6352"
       d="m 150.28336,205.98332 -15.875,68.79166"
       style="fill:none;fill-rule:evenodd;stroke:#000000;stroke-width:1.32291667;stroke-linecap:round;stroke-linejoin:bevel;stroke-miterlimit:4;stroke-dasharray:none;stroke-opacity:1;stroke-dashoffset:0" />
    <path
       inkscape:connector-curvature="0"
       id="path6354"
       d="m 187.32505,227.14998 -52.91669,47.625"
       style="fill:none;fill-rule:evenodd;stroke:#616161;stroke-width:1.32291663;stroke-linecap:round;stroke-linejoin:bevel;stroke-miterlimit:4;stroke-dasharray:none;stroke-opacity:1" />
    <ellipse
       ry="3.968749"
       rx="3.96875"
       cy="274.77499"
       cx="134.40836"
       id="ellipse6356"
       style="opacity:1;fill:#bdbdbd;fill-opacity:1;stroke:#000000;stroke-width:1.32291663;stroke-linecap:round;stroke-linejoin:round;stroke-miterlimit:4;stroke-dasharray:none;stroke-dashoffset:35.4368515;stroke-opacity:1;paint-order:normal" />
    <ellipse
       style="opacity:1;fill:#0288d1;fill-opacity:1;stroke:#000000;stroke-width:1.32291663;stroke-linecap:round;stroke-linejoin:round;stroke-miterlimit:4;stroke-dasharray:none;stroke-dashoffset:35.4368515;stroke-opacity:1;paint-order:normal"
       id="ellipse6358"
       cx="150.28336"
       cy="205.98329"
       rx="3.96875"
       ry="3.968749" />
    <ellipse
       style="opacity:1;fill:#bdbdbd;fill-opacity:1;stroke:#000000;stroke-width:1.32291663;stroke-linecap:round;stroke-linejoin:round;stroke-miterlimit:4;stroke-dasharray:none;stroke-dashoffset:35.4368515;stroke-opacity:1;paint-order:normal"
       id="ellipse6362"
       cx="187.32501"
       cy="227.14995"
       rx="3.96875"
       ry="3.968749" />
    <ellipse
       ry="3.968749"
       rx="3.96875"
       cy="280.06665"
       cx="168.80418"
       id="ellipse6364"
       style="opacity:1;fill:#424242;fill-opacity:1;stroke:#000000;stroke-width:1.32291663;stroke-linecap:round;stroke-linejoin:round;stroke-miterlimit:4;stroke-dasharray:none;stroke-dashoffset:35.4368515;stroke-opacity:1;paint-order:normal" />
    <ellipse
       rx="3.96875"
       ry="3.968749"
       cy="205.98332"
       cx="150.28336"
       id="ellipse6368"
       style="opacity:1;fill:#424242;fill-opacity:1;stroke:#000000;stroke-width:1.32291663;stroke-linecap:round;stroke-linejoin:round;stroke-miterlimit:4;stroke-dasharray:none;stroke-dashoffset:35.4368515;stroke-opacity:1;paint-order:normal" />
    <g
       id="g6376"
       transform="translate(105.83334)">
      <rect
         style="opacity:1;fill:#bdbdbd;fill-opacity:1;stroke:none;stroke-width:1.32291651;stroke-linecap:round;stroke-linejoin:round;stroke-miterlimit:4;stroke-dasharray:none;stroke-dashoffset:35.4368515;stroke-opacity:1;paint-order:normal"
         id="rect6370"
         width="12.159218"
         height="11.942088"
         x="14.557888"
         y="226.47058" />
      <path
         style="opacity:1;fill:#000000;fill-opacity:1;stroke:none;stroke-width:1.32291651;stroke-linecap:round;stroke-linejoin:round;stroke-miterlimit:4;stroke-dasharray:none;stroke-dashoffset:35.4368515;stroke-opacity:1;paint-order:normal"
         d="m 20.382003,228.73819 c -1.198479,0 -2.175535,0.97705 -2.175535,2.17553 v 0.39563 H 17.77427 c -0.148842,0 -0.268461,0.11961 -0.268461,0.26846 v 0.8324 c -0.207758,0.0543 -0.361135,0.24062 -0.361135,0.46585 0,0.22527 0.153333,0.41202 0.361135,0.46628 v 0.0349 c -0.207802,0.0543 -0.361135,0.24101 -0.361135,0.46628 0,0.22522 0.153377,0.41157 0.361135,0.46585 v 0.0353 c -0.207758,0.0543 -0.361135,0.24063 -0.361135,0.46586 0,0.22526 0.153333,0.41202 0.361135,0.46628 v 0.59967 c 0,0.14884 0.119619,0.26887 0.268461,0.26887 h 5.726207 c 0.148842,0 0.268461,-0.12003 0.268461,-0.26887 v -0.59967 c 0.02244,-0.006 0.04505,-0.0115 0.06608,-0.0204 0.173689,-0.0732 0.295059,-0.24497 0.295059,-0.4459 0,-0.22524 -0.153377,-0.41158 -0.361135,-0.46587 v -0.0353 c 0.207758,-0.0543 0.361135,-0.24063 0.361135,-0.46586 0,-0.22527 -0.153333,-0.41202 -0.361135,-0.46628 v -0.0349 c 0.207802,-0.0543 0.361135,-0.241 0.361135,-0.46627 0,-0.22524 -0.153377,-0.41158 -0.361135,-0.46586 v -0.8324 c 0,-0.14884 -0.119619,-0.26846 -0.268462,-0.26846 h -0.432614 v -0.39563 c 0,-1.19848 -0.977056,-2.17553 -2.175534,-2.17553 z m 0,0.84984 h 0.510326 c 0.741692,0 1.325684,0.584 1.325684,1.32569 v 0.39563 h -3.160032 v -0.39563 c 0,-0.74169 0.582329,-1.32569 1.324022,-1.32569 z"
         id="path6374"
         inkscape:connector-curvature="0" />
    </g>
    <g
       id="g6392"
       transform="translate(146.18733,0.66942063)">
      <rect
         style="opacity:1;fill:#bdbdbd;fill-opacity:1;stroke:none;stroke-width:1.32291651;stroke-linecap:round;stroke-linejoin:round;stroke-miterlimit:4;stroke-dasharray:none;stroke-dashoffset:35.4368515;stroke-opacity:1;paint-order:normal"
         id="rect6386"
         width="12.159218"
         height="11.942088"
         x="14.557888"
         y="226.47058" />
      <path
         style="opacity:1;fill:#000000;fill-opacity:1;stroke:none;stroke-width:1.32291651;stroke-linecap:round;stroke-linejoin:round;stroke-miterlimit:4;stroke-dasharray:none;stroke-dashoffset:35.4368515;stroke-opacity:1;paint-order:normal"
         d="m 20.382003,228.73819 c -1.198479,0 -2.175535,0.97705 -2.175535,2.17553 v 0.39563 H 17.77427 c -0.148842,0 -0.268461,0.11961 -0.268461,0.26846 v 0.8324 c -0.207758,0.0543 -0.361135,0.24062 -0.361135,0.46585 0,0.22527 0.153333,0.41202 0.361135,0.46628 v 0.0349 c -0.207802,0.0543 -0.361135,0.24101 -0.361135,0.46628 0,0.22522 0.153377,0.41157 0.361135,0.46585 v 0.0353 c -0.207758,0.0543 -0.361135,0.24063 -0.361135,0.46586 0,0.22526 0.153333,0.41202 0.361135,0.46628 v 0.59967 c 0,0.14884 0.119619,0.26887 0.268461,0.26887 h 5.726207 c 0.148842,0 0.268461,-0.12003 0.268461,-0.26887 v -0.59967 c 0.02244,-0.006 0.04505,-0.0115 0.06608,-0.0204 0.173689,-0.0732 0.295059,-0.24497 0.295059,-0.4459 0,-0.22524 -0.153377,-0.41158 -0.361135,-0.46587 v -0.0353 c 0.207758,-0.0543 0.361135,-0.24063 0.361135,-0.46586 0,-0.22527 -0.153333,-0.41202 -0.361135,-0.46628 v -0.0349 c 0.207802,-0.0543 0.361135,-0.241 0.361135,-0.46627 0,-0.22524 -0.153377,-0.41158 -0.361135,-0.46586 v -0.8324 c 0,-0.14884 -0.119619,-0.26846 -0.268462,-0.26846 h -0.432614 v -0.39563 c 0,-1.19848 -0.977056,-2.17553 -2.175534,-2.17553 z m 0,0.84984 h 0.510326 c 0.741692,0 1.325684,0.584 1.325684,1.32569 v 0.39563 h -3.160032 v -0.39563 c 0,-0.74169 0.582329,-1.32569 1.324022,-1.32569 z"
         id="path6390"
         inkscape:connector-curvature="0" />
    </g>
    <g
       transform="translate(167.35228,-5.9621489)"
       id="g6400">
      <path
         inkscape:connector-curvature="0"
         id="path6396"
         d="m 14.735825,226.47127 c -0.06843,0.054 -0.127833,0.11581 -0.178179,0.18602 v 0.45245 c 0.0047,-0.002 0.01,-0.004 0.01444,-0.009 0.01538,-0.0125 0.02769,-0.0385 0.03795,-0.0797 0.04272,-0.15892 0.136866,-0.29243 0.282118,-0.40008 0.108006,-0.08 0.228037,-0.1301 0.359659,-0.15055 z m 0.779536,0 c 0.157549,0.0229 0.296456,0.089 0.414927,0.2021 0.148671,0.14184 0.222724,0.30503 0.222724,0.48958 0,0.0683 -0.01349,0.13623 -0.04083,0.20458 -0.02563,0.0667 -0.07424,0.14458 -0.146008,0.23344 -0.07177,0.0889 -0.204091,0.22814 -0.397192,0.41781 -0.328801,0.32338 -0.667449,0.64132 -1.011333,0.95608 v 0.28006 c 0.310821,-0.27195 0.700113,-0.63691 1.180438,-1.11074 0.201645,-0.19823 0.340917,-0.34599 0.417815,-0.4434 0.07861,-0.0991 0.133751,-0.19019 0.166219,-0.27222 0.03246,-0.0838 0.04908,-0.17516 0.04908,-0.27428 0,-0.23582 -0.09685,-0.44643 -0.289954,-0.63269 -0.01992,-0.0192 -0.04197,-0.0332 -0.06269,-0.0504 z m 1.865523,0 c -0.108892,0.0676 -0.208878,0.14536 -0.298617,0.23509 -0.136708,0.13501 -0.246287,0.29242 -0.328311,0.47185 -0.107657,0.23241 -0.161682,0.48356 -0.161682,0.75355 0,0.35886 0.05749,0.68642 0.171992,0.98205 0.09227,0.23753 0.218825,0.41345 0.379457,0.52794 0.05421,0.0383 0.11015,0.0673 0.167043,0.0929 -0.08213,0.0567 -0.158139,0.12017 -0.228499,0.19054 -0.136708,0.135 -0.246287,0.29242 -0.328311,0.47186 -0.107657,0.23239 -0.161682,0.48313 -0.161682,0.75314 0,0.35886 0.05749,0.6864 0.171992,0.98204 0.09227,0.23753 0.218825,0.41345 0.379457,0.52795 0.05425,0.0381 0.110125,0.0678 0.167043,0.0932 -0.08206,0.0567 -0.158186,0.1198 -0.228499,0.19015 -0.136708,0.13498 -0.246287,0.2924 -0.328311,0.47184 -0.107657,0.23239 -0.161682,0.48397 -0.161682,0.75396 0,0.35886 0.05749,0.68601 0.171992,0.98164 0.09227,0.23753 0.218825,0.41344 0.379457,0.52793 0.05421,0.0383 0.11015,0.0673 0.167043,0.0927 -0.08213,0.0567 -0.158139,0.12017 -0.228499,0.19054 -0.136708,0.13501 -0.246287,0.29242 -0.328311,0.47185 -0.107657,0.23241 -0.161682,0.48355 -0.161682,0.75355 0,0.35887 0.05749,0.68601 0.171992,0.98165 0.07245,0.18648 0.166669,0.33356 0.281294,0.4442 h 0.391417 c -0.09418,-0.0328 -0.181247,-0.0844 -0.259845,-0.1592 -0.138417,-0.1333 -0.240279,-0.35551 -0.305215,-0.66653 0.128164,-0.24266 0.243516,-0.41086 0.346047,-0.50484 0.153797,-0.14184 0.313511,-0.21282 0.47927,-0.21282 0.172594,0 0.327301,0.0732 0.464009,0.22024 0.04652,0.0501 0.08192,0.10646 0.112594,0.1654 -0.01508,0.0763 -0.02433,0.15354 -0.02433,0.23221 0,0.14549 0.02711,0.28751 0.07961,0.42688 -0.03301,0.1203 -0.08686,0.22725 -0.167869,0.31636 -0.07948,0.0875 -0.169915,0.14638 -0.268918,0.1823 h 0.392654 c 0.01824,-0.0197 0.03589,-0.0403 0.05279,-0.0623 0.04622,-0.0608 0.08448,-0.12379 0.117543,-0.18809 0.06245,0.0962 0.136022,0.17905 0.219425,0.25037 h 0.442561 c -0.137919,-0.045 -0.26452,-0.12017 -0.376156,-0.23386 -0.0832,-0.0855 -0.144861,-0.18035 -0.190553,-0.28254 0.01831,-0.0813 0.03093,-0.16427 0.03093,-0.25035 0,-0.1531 -0.02905,-0.29135 -0.08208,-0.41742 0.04111,-0.16279 0.118951,-0.30847 0.241697,-0.43348 0.184556,-0.18798 0.405246,-0.2817 0.661574,-0.2817 0.254619,0 0.47413,0.0937 0.658687,0.2817 0.184555,0.18798 0.277167,0.41867 0.277167,0.69211 0,0.27169 -0.09261,0.50199 -0.277167,0.69168 -0.111622,0.11369 -0.237711,0.18883 -0.37492,0.23386 h 0.420702 c 0.08235,-0.0697 0.16009,-0.15146 0.231385,-0.24912 v 0.24912 h 0.621979 c -0.0017,-10e-4 -0.0026,-0.004 -0.0045,-0.006 -0.02221,-0.0205 -0.05963,-0.0304 -0.112594,-0.0304 h -0.287066 v -3.00185 h -0.167457 c -0.02168,-0.01 -0.04769,-0.0173 -0.08372,-0.0173 h -0.946167 v -1.78633 h 1.007621 c 0.05126,0 0.0875,-0.01 0.109714,-0.0309 0.02222,-0.0204 0.03341,-0.046 0.03341,-0.0767 0,-0.0325 -0.01122,-0.0587 -0.03341,-0.0792 -0.02221,-0.0205 -0.05844,-0.0309 -0.109714,-0.0309 h -1.007621 v -0.32584 c 0,-0.11793 0.05055,-0.22283 0.15137,-0.31511 0.04823,-0.0434 0.106497,-0.0759 0.173642,-0.099 0.04372,-0.009 0.08617,-0.0178 0.127448,-0.0305 5.2e-4,-1.6e-4 0.0011,-2.1e-4 0.0016,-4.1e-4 0.04165,-0.006 0.08623,-0.009 0.133223,-0.009 0.17772,0 0.395287,0.0197 0.653324,0.059 0.03247,0.005 0.05562,0.007 0.0693,0.007 0.03418,0 0.06157,-0.01 0.08208,-0.0284 0.02051,-0.0204 0.03093,-0.046 0.03093,-0.0768 0,-0.0308 -0.0097,-0.0555 -0.02846,-0.0743 -0.01709,-0.0188 -0.06917,-0.0354 -0.15632,-0.0491 -0.141785,-0.0232 -0.276458,-0.036 -0.407915,-0.0449 0.01924,-0.0173 0.0381,-0.0345 0.05651,-0.0537 0.205062,-0.21188 0.307689,-0.48889 0.307689,-0.83067 0,-0.3093 -0.09144,-0.5585 -0.274281,-0.74818 -0.181137,-0.18968 -0.406423,-0.28501 -0.676421,-0.28501 -0.104242,0 -0.214586,0.0136 -0.330788,0.0408 -0.116196,0.0256 -0.23774,0.065 -0.364195,0.11793 v -1.053 h 1.286829 c 0.03844,0 0.06616,-0.007 0.08826,-0.0194 h 0.02228 c 0.04293,0 0.07313,-0.009 0.09569,-0.0236 v 0.0236 h 0.979575 c -0.08107,0.0562 -0.156459,0.11892 -0.226024,0.1885 -0.136708,0.13499 -0.246288,0.29201 -0.328312,0.47144 -0.107657,0.2324 -0.161269,0.48355 -0.161269,0.75355 0,0.35886 0.05708,0.68599 0.17158,0.98163 0.09227,0.23753 0.218824,0.41386 0.379456,0.52836 0.05425,0.0383 0.110125,0.0678 0.167043,0.0933 -0.08197,0.0567 -0.158261,0.11992 -0.228498,0.19014 -0.136708,0.13498 -0.246288,0.29199 -0.328312,0.47143 -0.107657,0.23239 -0.161269,0.48396 -0.161269,0.75396 0,0.35885 0.05708,0.68641 0.17158,0.98204 0.09227,0.23754 0.218824,0.41345 0.379456,0.52795 0.05438,0.0383 0.1104,0.0677 0.167456,0.0932 -0.08206,0.0567 -0.158598,0.1198 -0.228911,0.19015 -0.136708,0.13499 -0.246288,0.2924 -0.328312,0.47184 -0.107657,0.2324 -0.161269,0.48313 -0.161269,0.75314 0,0.35884 0.05708,0.6864 0.17158,0.98205 0.07254,0.1867 0.166888,0.33393 0.281705,0.44463 h 0.391004 c -0.09422,-0.0328 -0.18122,-0.0844 -0.259844,-0.15922 -0.138417,-0.1333 -0.240279,-0.35551 -0.305214,-0.66652 0.128163,-0.24267 0.243516,-0.41086 0.346047,-0.50484 0.153796,-0.14184 0.313511,-0.21282 0.47927,-0.21282 0.172594,0 0.3273,0.0732 0.464008,0.22023 0.136708,0.14698 0.204989,0.33255 0.204989,0.55641 0,0.23924 -0.06828,0.43406 -0.204989,0.58444 -0.07948,0.0875 -0.169915,0.14639 -0.268918,0.18232 h 0.391829 c 0.01851,-0.0199 0.03689,-0.0403 0.05403,-0.0627 0.162341,-0.21359 0.243347,-0.44895 0.243347,-0.70528 0,-0.28026 -0.08872,-0.5148 -0.266444,-0.70447 -0.17772,-0.19139 -0.381031,-0.28707 -0.610017,-0.28707 -0.172594,0 -0.330011,0.047 -0.471846,0.14105 -0.140126,0.094 -0.276687,0.23862 -0.409977,0.43515 -0.01022,-0.11968 -0.01567,-0.20758 -0.01567,-0.26397 0,-0.39475 0.136974,-0.73421 0.41039,-1.01959 0.12497,-0.13041 0.256522,-0.22991 0.393479,-0.3011 0.01846,0.001 0.03615,0.004 0.05485,0.004 0.18415,0 0.34264,-0.045 0.475559,-0.13321 0.09892,0.001 0.182604,0.0174 0.249946,0.0504 0.03075,0.0171 0.05738,0.0256 0.07961,0.0256 0.02905,0 0.05297,-0.009 0.07177,-0.0281 0.0011,-0.001 0.0011,-0.002 0.0021,-0.004 0.02042,0.007 0.04435,0.0125 0.07548,0.0125 h 0.296133 c -0.0143,0.0164 -0.02892,0.0323 -0.04248,0.0504 -0.162341,0.21532 -0.243347,0.4545 -0.243347,0.71767 0,0.18114 0.0413,0.35475 0.123327,0.52051 0.08203,0.16406 0.192369,0.28865 0.330786,0.3741 0.140127,0.0854 0.284405,0.12827 0.433076,0.12827 0.160632,0 0.31687,-0.0494 0.468958,-0.14848 0.153797,-0.0991 0.286116,-0.24687 0.397191,-0.44339 0.0069,0.12987 0.01035,0.23056 0.01035,0.30232 0,0.39475 -0.130787,0.72343 -0.392241,0.98659 -0.180399,0.18041 -0.385768,0.29712 -0.614967,0.35307 h 0.522993 c 0.09541,-0.0634 0.184464,-0.13562 0.266033,-0.21943 0.126455,-0.12816 0.222543,-0.2609 0.287479,-0.39761 0.09741,-0.20165 0.14642,-0.45432 0.14642,-0.75849 0,-0.39133 -0.05749,-0.73468 -0.171992,-1.03031 -0.06849,-0.17781 -0.159028,-0.3223 -0.270156,-0.43513 h 0.136521 c 0.05126,0 0.08832,-0.01 0.110537,-0.0305 0.02221,-0.0204 0.03341,-0.0465 0.03341,-0.077 0,-0.0325 -0.01122,-0.058 -0.03341,-0.0767 -0.02222,-0.0205 -0.05928,-0.0309 -0.110537,-0.0309 h -0.461531 c -0.09888,-0.0384 -0.202921,-0.0598 -0.312638,-0.0598 -0.06006,0 -0.116384,0.006 -0.171168,0.0165 v -1.74302 h 1.007208 c 0.05126,0 0.08791,-0.01 0.110125,-0.0309 0.02221,-0.0205 0.03341,-0.046 0.03341,-0.0767 0,-0.0325 -0.01122,-0.0591 -0.03341,-0.0797 -0.02221,-0.0204 -0.05885,-0.0309 -0.110125,-0.0309 H 23.43163 v -0.32541 c 0,-0.11793 0.05014,-0.22284 0.150958,-0.31512 0.102533,-0.0923 0.247575,-0.13858 0.435548,-0.13858 0.177722,0 0.396114,0.0197 0.654151,0.059 0.03246,0.005 0.05521,0.007 0.06887,0.007 0.03417,0 0.06157,-0.01 0.08208,-0.0284 0.02051,-0.0205 0.03052,-0.046 0.03052,-0.0768 0,-0.0308 -0.0092,-0.0555 -0.02805,-0.0743 -0.01709,-0.0188 -0.06916,-0.0354 -0.15632,-0.049 -0.05794,-0.01 -0.112482,-0.014 -0.168694,-0.0211 -0.0049,-0.007 -0.009,-0.0153 -0.01608,-0.0214 -0.02221,-0.0205 -0.05962,-0.0305 -0.112593,-0.0305 h -0.179418 v -0.68427 h 0.179416 c 0.05298,0 0.09038,-0.0112 0.112594,-0.0313 0.02221,-0.0204 0.03341,-0.0456 0.03341,-0.0763 0,-0.0325 -0.01122,-0.0583 -0.03341,-0.077 -0.02222,-0.0204 -0.05963,-0.0309 -0.112594,-0.0309 h -0.179417 v -2.10185 h -0.0037 c 0.01371,-0.015 0.02888,-0.0263 0.04207,-0.0425 0.220443,-0.26999 0.330788,-0.63649 0.330788,-1.09959 v -0.53332 c 0,-0.19822 -0.01891,-0.37065 -0.05651,-0.51761 -0.02734,-0.10247 -0.07017,-0.21635 -0.128272,-0.3411 -0.05811,-0.12475 -0.112482,-0.21619 -0.163745,-0.27429 -0.01855,-0.0214 -0.04109,-0.0379 -0.06146,-0.057 h -0.465653 c 0.07668,0.0131 0.148256,0.0388 0.214062,0.0792 0.06835,0.0426 0.124324,0.0936 0.167043,0.15343 0.07177,0.10422 0.135811,0.24429 0.192203,0.4203 0.0581,0.1743 0.08703,0.36335 0.08703,0.5667 v 0.4739 c 0,0.32811 -0.06828,0.61631 -0.204989,0.8641 -0.0821,0.14777 -0.183253,0.25031 -0.302328,0.30933 h -0.09528 l -0.02474,0.0425 c -0.04519,0.01 -0.09187,0.0173 -0.141471,0.0173 -0.12304,0 -0.233381,-0.0308 -0.330786,-0.0924 -0.06835,-0.0426 -0.122729,-0.0929 -0.163744,-0.15095 -0.07347,-0.10422 -0.139876,-0.24428 -0.197977,-0.42029 -0.0564,-0.17602 -0.08456,-0.36624 -0.08456,-0.5696 v -0.47391 c 0,-0.32809 0.06869,-0.61553 0.205401,-0.86161 0.114775,-0.20658 0.266683,-0.32493 0.454935,-0.35801 h -0.457823 c -0.0294,0.0281 -0.05986,0.0541 -0.08703,0.0874 -0.220443,0.27001 -0.330787,0.63768 -0.330787,1.10249 v 0.5333 c 0,0.19651 0.0201,0.3682 0.05939,0.51515 0.02563,0.10421 0.06728,0.21883 0.125386,0.34358 0.05981,0.12474 0.114601,0.215 0.164156,0.27139 0.07861,0.0906 0.173516,0.1612 0.284592,0.21077 0.11278,0.0512 0.232379,0.0763 0.358833,0.0763 0.0025,0 0.0046,-4.2e-4 0.007,-4.2e-4 l -0.976687,1.68775 c -0.04246,-0.14801 -0.11308,-0.28154 -0.220662,-0.39637 -0.177721,-0.19139 -0.381031,-0.28664 -0.610017,-0.28664 -0.172594,0 -0.330011,0.0466 -0.471846,0.14064 -0.140126,0.094 -0.276687,0.23944 -0.409977,0.43595 -0.01022,-0.11955 -0.01567,-0.20757 -0.01567,-0.26396 0,-0.39475 0.136973,-0.73503 0.41039,-1.02041 0.175185,-0.1828 0.362193,-0.30686 0.560935,-0.37327 h 0.62734 c 0.02451,0.0125 0.04661,0.0198 0.06517,0.0198 0.02905,0 0.05297,-0.01 0.07177,-0.0284 0.0188,-0.0204 0.02805,-0.0459 0.02805,-0.0768 0,-0.0426 -0.02044,-0.077 -0.06146,-0.10272 -0.03052,-0.0186 -0.06442,-0.0328 -0.09982,-0.0454 v -0.0664 c 0,-0.0512 -0.01047,-0.0879 -0.03093,-0.11008 -0.02051,-0.0222 -0.04637,-0.0334 -0.07713,-0.0334 -0.03246,0 -0.05868,0.0112 -0.0792,0.0334 -0.02051,0.0222 -0.03052,0.0588 -0.03052,0.11008 v 0.0268 c -0.0138,-6.4e-4 -0.02655,-0.002 -0.04084,-0.002 -0.140971,0 -0.275265,0.0217 -0.403379,0.0602 h -1.209315 v -0.0157 c 0.317846,-0.27511 0.729475,-0.66166 1.235295,-1.16064 0.201644,-0.19822 0.341329,-0.34599 0.418227,-0.44338 0.07861,-0.0991 0.134162,-0.1902 0.16663,-0.27222 0.03246,-0.0838 0.04826,-0.17518 0.04826,-0.27428 0,-0.23582 -0.09603,-0.44644 -0.289129,-0.63271 -0.0195,-0.0188 -0.04119,-0.0325 -0.06146,-0.0495 h -0.504842 c 0.157549,0.0229 0.296456,0.089 0.414928,0.2021 0.14867,0.14184 0.222725,0.30502 0.222725,0.48958 0,0.0683 -0.01349,0.13622 -0.04083,0.20457 -0.02563,0.0667 -0.07424,0.14458 -0.146009,0.23345 -0.07177,0.0889 -0.204504,0.22815 -0.397605,0.41782 -0.413541,0.4067 -0.838662,0.8068 -1.276127,1.19982 v 0.1258 c -0.02256,-0.0143 -0.05276,-0.0236 -0.09569,-0.0236 h -0.946166 v -1.78632 h 1.007621 c 0.05126,0 0.0875,-0.01 0.109714,-0.0309 0.02221,-0.0204 0.03341,-0.0459 0.03341,-0.0767 0,-0.0325 -0.01122,-0.0591 -0.03341,-0.0797 -0.02221,-0.0205 -0.05844,-0.0309 -0.109714,-0.0309 h -1.007621 v -0.32541 c 0,-0.11793 0.05055,-0.22283 0.15137,-0.31512 0.102533,-0.0923 0.247989,-0.13859 0.435962,-0.13859 0.17772,0 0.395288,0.0197 0.653325,0.059 0.03246,0.005 0.05562,0.007 0.06929,0.007 0.01546,0 0.029,-0.002 0.04166,-0.006 -0.02582,0.0304 -0.04985,0.0622 -0.07177,0.0961 -0.08886,0.14012 -0.132809,0.25165 -0.132809,0.33368 0,0.0273 0.0092,0.0509 0.02805,0.0714 0.02051,0.0188 0.04519,0.0281 0.07424,0.0281 0.02734,0 0.05126,-0.009 0.07177,-0.0252 0.01538,-0.0125 0.02811,-0.0385 0.03836,-0.0797 0.04272,-0.15893 0.136865,-0.29243 0.282118,-0.40009 0.107432,-0.0797 0.226797,-0.12948 0.357597,-0.15013 h -0.513092 c -0.02346,0.0187 -0.04786,0.0368 -0.06929,0.0573 0.0027,-0.01 0.0062,-0.0196 0.0062,-0.0309 0,-0.01 -0.0026,-0.0178 -0.0045,-0.0264 H 19.42553 c -0.02128,0.0153 -0.04394,0.0288 -0.06351,0.0466 -0.146962,0.13328 -0.220662,0.2907 -0.220662,0.47184 v 0.32544 h -0.466484 c -0.05126,0 -0.08791,0.01 -0.110125,0.0309 -0.02221,0.0204 -0.03341,0.046 -0.03341,0.0768 0,0.0325 0.01122,0.0587 0.03341,0.0792 0.02221,0.0205 0.05886,0.0309 0.110125,0.0309 h 0.466484 v 1.78674 h -0.520103 c -0.05018,0 -0.08613,0.01 -0.10848,0.0302 -0.0012,-8.3e-4 -0.0016,-0.002 -0.0029,-0.002 -0.04836,-0.0294 -0.102757,-0.0515 -0.163331,-0.0661 0.155974,-0.21021 0.235097,-0.44044 0.235097,-0.69168 0,-0.28026 -0.08913,-0.51521 -0.266856,-0.70488 -0.17772,-0.19141 -0.380618,-0.28748 -0.609604,-0.28748 -0.172594,0 -0.329599,0.047 -0.471433,0.14105 -0.140127,0.094 -0.2771,0.23945 -0.410391,0.43597 -0.01022,-0.11968 -0.01526,-0.20759 -0.01526,-0.26397 0,-0.39475 0.136562,-0.73504 0.409978,-1.02041 0.232284,-0.24238 0.485261,-0.38096 0.758913,-0.41864 z m 0.878936,0 c 0.04879,0.009 0.09353,0.0208 0.131984,0.0395 0.03075,0.0171 0.05739,0.0252 0.07961,0.0252 0.02905,0 0.05297,-0.009 0.07177,-0.028 0.0098,-0.0112 0.01677,-0.0232 0.02145,-0.0367 z m 7.432393,0 -1.109085,1.91667 v 0.2487 h 1.427497 v 0.65374 c -0.04013,0.009 -0.07943,0.0188 -0.118378,0.0306 h -0.283766 c -0.05297,0 -0.0908,0.01 -0.113005,0.0309 -0.02221,0.0188 -0.033,0.0443 -0.033,0.0767 0,0.0308 0.01072,0.0566 0.033,0.077 7.81e-4,8.5e-4 0.0025,8.5e-4 0.0032,0.001 -0.09843,0.0637 -0.189901,0.13545 -0.272219,0.21777 -0.136708,0.135 -0.246287,0.29241 -0.328313,0.47185 -0.107657,0.2324 -0.161681,0.48313 -0.161681,0.75312 0,0.35887 0.05749,0.68644 0.171993,0.98207 0.09227,0.23752 0.218412,0.41344 0.379044,0.52793 0.05429,0.0383 0.110911,0.0678 0.167868,0.0932 -0.08206,0.0567 -0.158599,0.1198 -0.228911,0.19014 -0.136708,0.135 -0.246287,0.29241 -0.328313,0.47185 -0.107657,0.2324 -0.161681,0.48397 -0.161681,0.75396 0,0.35886 0.05749,0.68601 0.171993,0.98163 0.09227,0.23754 0.218412,0.41345 0.379044,0.52795 0.0543,0.0383 0.110886,0.0678 0.167868,0.0933 -0.08206,0.0567 -0.158602,0.1198 -0.228911,0.19014 -0.136708,0.135 -0.246287,0.29242 -0.328313,0.47184 -0.107657,0.23241 -0.161681,0.48356 -0.161681,0.75355 0,0.35886 0.05749,0.686 0.171993,0.98163 0.07245,0.18651 0.166759,0.33358 0.281293,0.44422 h 0.391417 c -0.09428,-0.0328 -0.181658,-0.0844 -0.260257,-0.15921 -0.138417,-0.1333 -0.239866,-0.3555 -0.304803,-0.66652 0.128165,-0.24266 0.243517,-0.41084 0.346048,-0.50484 0.153797,-0.14183 0.313511,-0.21283 0.47927,-0.21283 0.172594,0 0.327301,0.0733 0.464009,0.22025 0.04458,0.0479 0.07926,0.10147 0.109303,0.15756 -0.01,0.0611 -0.01608,0.12354 -0.01608,0.1885 0,0.16093 0.02805,0.31076 0.08208,0.44956 -0.03151,0.13249 -0.08787,0.24907 -0.175292,0.34522 -0.07951,0.0875 -0.169864,0.14641 -0.26892,0.18231 h 0.392651 c 0.01824,-0.0198 0.03629,-0.0403 0.05321,-0.0623 0.0534,-0.0703 0.09449,-0.1437 0.130335,-0.21859 0.03105,0.0441 0.06666,0.0866 0.104354,0.12827 v -0.39224 c -0.0031,-0.006 -0.0069,-0.013 -0.0099,-0.0198 0.0061,-0.0344 0.0066,-0.0703 0.0099,-0.10558 v -0.20994 -0.21695 h -0.04248 c -0.0095,-0.0302 -0.01916,-0.0603 -0.03135,-0.0891 0.01829,-0.0673 0.04418,-0.12935 0.07382,-0.18891 v -0.37492 c -0.09565,0.0991 -0.172255,0.2054 -0.224375,0.3213 -0.01184,-0.0141 -0.02068,-0.0298 -0.03341,-0.0434 -0.17772,-0.1914 -0.381443,-0.28707 -0.610429,-0.28707 -0.172594,0 -0.3296,0.047 -0.471434,0.14105 -0.140126,0.094 -0.276687,0.23904 -0.409978,0.43555 -0.01022,-0.11967 -0.01526,-0.20758 -0.01526,-0.26397 0,-0.39473 0.136562,-0.73461 0.409978,-1.02 0.12497,-0.13039 0.25611,-0.22991 0.393067,-0.30108 0.01855,0.001 0.03689,0.004 0.05569,0.004 0.18415,0 0.342228,-0.0446 0.475146,-0.13281 0.09874,10e-4 0.183106,0.0172 0.250359,0.0499 0.03077,0.0171 0.05698,0.0257 0.0792,0.0257 0.02905,0 0.05297,-0.009 0.07177,-0.028 0.0188,-0.0205 0.02846,-0.0465 0.02846,-0.077 0,-0.0426 -0.02044,-0.0767 -0.06146,-0.10235 -0.04836,-0.0294 -0.103169,-0.0515 -0.163745,-0.0661 0.132126,-0.17807 0.205914,-0.37162 0.226437,-0.57909 v -0.22107 c -0.02066,-0.23224 -0.103867,-0.43255 -0.257782,-0.59682 -0.177721,-0.1914 -0.381444,-0.28706 -0.61043,-0.28706 -0.172595,0 -0.329599,0.047 -0.471433,0.14105 -0.140126,0.094 -0.276687,0.23944 -0.409978,0.43596 -0.01022,-0.11967 -0.01526,-0.20758 -0.01526,-0.26397 0,-0.39475 0.136562,-0.73503 0.409978,-1.02041 0.124858,-0.13028 0.255831,-0.22951 0.392654,-0.30068 0.01867,0.001 0.03717,0.004 0.0561,0.004 0.184137,0 0.342234,-0.045 0.475146,-0.13322 0.09874,10e-4 0.183106,0.0174 0.250359,0.0502 0.03075,0.0171 0.05697,0.0252 0.07919,0.0252 0.02905,0 0.05297,-0.009 0.07177,-0.0281 0.0188,-0.0204 0.02846,-0.046 0.02846,-0.0767 0,-0.0426 -0.02044,-0.077 -0.06146,-0.10272 -0.04836,-0.0294 -0.103169,-0.0511 -0.163745,-0.0656 0.132241,-0.17814 0.205941,-0.37159 0.226437,-0.57909 v -0.22107 c -0.02066,-0.23225 -0.103868,-0.43255 -0.257783,-0.59683 -0.17772,-0.19139 -0.381443,-0.28707 -0.610429,-0.28707 -0.172594,0 -0.329599,0.047 -0.471433,0.14107 -0.140127,0.094 -0.276687,0.23944 -0.409977,0.43596 -0.01022,-0.11967 -0.01526,-0.20799 -0.01526,-0.26439 0,-0.39474 0.136561,-0.73461 0.409977,-1.01999 0.175196,-0.18281 0.362181,-0.30686 0.560935,-0.37326 h 0.406266 0.07877 0.141884 c 0.02285,0.0112 0.04378,0.0177 0.06146,0.0186 v 0.19055 c 0,0.0512 0.01047,0.0879 0.03093,0.11008 0.02009,0.0217 0.04472,0.0325 0.07466,0.033 v -3.41676 z m 0.5366,0.04 c 0.02261,0.0163 0.05483,0.0259 0.100638,0.0259 h 0.289955 v 2.78364 h -0.0198 c -0.08555,-0.0391 -0.186639,-0.0598 -0.30439,-0.0598 -0.02259,0 -0.04414,0.002 -0.06641,0.004 v -0.62816 h 0.179416 c 0.05298,0 0.09038,-0.01 0.112594,-0.0305 0.02221,-0.0205 0.03341,-0.0465 0.03341,-0.0772 0,-0.0325 -0.01122,-0.0583 -0.03341,-0.077 -0.02221,-0.0204 -0.05963,-0.0305 -0.112594,-0.0305 h -0.179416 z m -0.330786,0.0259 h 0.112593 v 1.88409 h -1.201887 z m -8.200793,1.27654 c 0.172594,0 0.327301,0.0737 0.464009,0.22066 0.136708,0.14697 0.204988,0.33213 0.204988,0.556 0,0.23923 -0.06828,0.43406 -0.204988,0.58444 -0.03139,0.0346 -0.06455,0.0642 -0.09899,0.0908 -0.175055,0.01 -0.340096,0.0506 -0.494531,0.12292 -0.146291,-0.0204 -0.276915,-0.0824 -0.390592,-0.19056 -0.138417,-0.13329 -0.240279,-0.3551 -0.305215,-0.66611 0.128164,-0.24265 0.243517,-0.41127 0.346048,-0.50525 0.153796,-0.14183 0.313512,-0.21284 0.479269,-0.21284 z m -1.431209,1.27861 c -0.03246,0 -0.0591,0.0112 -0.07961,0.0334 -0.02051,0.0222 -0.03052,0.0588 -0.03052,0.11008 v 0.0845 h -1.598254 v 0.21571 h 1.816029 v -0.30027 c 0,-0.0512 -0.01,-0.0879 -0.03052,-0.11008 -0.02051,-0.0222 -0.04637,-0.0334 -0.07713,-0.0334 z m 1.876246,0.38689 v 8.3e-4 c 0.09856,0.001 0.182376,0.0176 0.249533,0.0504 0.03075,0.0171 0.05739,0.0256 0.07961,0.0256 0.02905,0 0.05297,-0.009 0.07177,-0.0281 0.0011,-0.001 0.0015,-0.002 0.0025,-0.004 0.02041,0.007 0.04439,0.0127 0.07548,0.0127 h 0.07177 v 1.22911 c 0,0.0377 0.0092,0.0669 0.02805,0.0874 0.0188,0.0205 0.04348,0.0305 0.07424,0.0305 0.02222,0 0.06039,-0.0136 0.115075,-0.0408 0.22386,-0.11793 0.448025,-0.17694 0.671884,-0.17694 0.218734,0 0.398891,0.074 0.540725,0.22271 0.141836,0.14697 0.212826,0.34179 0.212826,0.58445 0,0.28538 -0.08219,0.51455 -0.246233,0.68714 -0.118179,0.12305 -0.259768,0.20027 -0.423177,0.23469 -0.0085,0.002 -0.01806,0.004 -0.02639,0.006 -0.05541,0.01 -0.11278,0.0153 -0.173231,0.0153 -0.304175,0 -0.585428,-0.12042 -0.843465,-0.36132 -0.03246,-0.0308 -0.06293,-0.0457 -0.09197,-0.0457 -0.0096,0 -0.01806,0.004 -0.02682,0.005 0.04985,-0.12893 0.07713,-0.2634 0.07713,-0.40545 0,-0.28024 -0.08913,-0.51561 -0.266856,-0.70529 -0.177721,-0.1914 -0.380619,-0.28707 -0.609604,-0.28707 -0.172594,0 -0.330012,0.047 -0.471846,0.14106 -0.140127,0.094 -0.276688,0.23945 -0.409979,0.43597 -0.01022,-0.11968 -0.01526,-0.20759 -0.01526,-0.26397 0,-0.39474 0.136562,-0.73503 0.409979,-1.02041 0.12497,-0.13041 0.256109,-0.22993 0.393066,-0.30108 0.0186,10e-4 0.03684,0.004 0.05569,0.004 0.184349,0 0.342552,-0.0444 0.475558,-0.13281 z m 5.742574,0.0767 h 0.08992 v 1.88368 h -1.202297 l 1.081862,-1.87089 h 4.23e-4 c 0.01035,-0.004 0.02001,-0.009 0.03011,-0.0127 z m -8.388045,0.70158 c -0.346896,0 -0.634688,0.11456 -0.863675,0.34358 -0.0272,0.0274 -0.05164,0.0562 -0.07548,0.0854 v 0.45617 c 0.04073,-0.1313 0.104902,-0.25433 0.19839,-0.36709 0.165759,-0.19993 0.408835,-0.29984 0.728391,-0.29984 0.25291,0 0.453511,0.0547 0.60218,0.16415 0.15038,0.10933 0.230619,0.22471 0.240872,0.34605 0.0034,0.0461 0.01461,0.0789 0.03341,0.0993 0.02051,0.0188 0.04519,0.0284 0.07424,0.0284 0.03246,0 0.05833,-0.0112 0.07713,-0.0334 0.02051,-0.0222 0.03129,-0.0596 0.033,-0.11256 v -0.4871 c 0,-0.053 -0.01,-0.0904 -0.03052,-0.11257 -0.02051,-0.0222 -0.04713,-0.0334 -0.07961,-0.0334 -0.03075,0 -0.05621,0.0112 -0.07672,0.0334 -0.02051,0.0222 -0.03093,0.0596 -0.03093,0.11257 v 0.0718 c -0.223861,-0.19646 -0.500871,-0.29485 -0.83068,-0.29485 z m 2.200434,0.57496 c 0.172594,0 0.327301,0.0733 0.464009,0.22025 0.136708,0.14696 0.204988,0.33255 0.204988,0.5564 0,0.23925 -0.06828,0.43407 -0.204988,0.58445 -0.03145,0.0345 -0.06489,0.0642 -0.0994,0.0907 -0.175036,0.01 -0.340113,0.0502 -0.49453,0.12254 -0.146123,-0.0204 -0.276609,-0.0822 -0.39018,-0.19014 -0.138418,-0.13329 -0.240279,-0.3555 -0.305215,-0.66651 0.128164,-0.24267 0.243516,-0.41086 0.346047,-0.50484 0.153797,-0.14185 0.313512,-0.21284 0.47927,-0.21284 z m 4.072143,0 c 0.172594,0 0.327301,0.0733 0.464009,0.22025 0.136708,0.14696 0.204989,0.33255 0.204989,0.5564 0,0.23925 -0.06828,0.43407 -0.204989,0.58445 -0.03145,0.0345 -0.06489,0.0642 -0.0994,0.0907 -0.174974,0.01 -0.340163,0.0502 -0.494531,0.12254 -0.146122,-0.0204 -0.27661,-0.0822 -0.390179,-0.19014 -0.138417,-0.13329 -0.240279,-0.3555 -0.305215,-0.66651 0.128164,-0.24267 0.243516,-0.41086 0.346047,-0.50484 0.153797,-0.14185 0.313511,-0.21284 0.47927,-0.21284 z m 4.072143,0 c 0.172594,0 0.327301,0.0733 0.464009,0.22025 0.136708,0.14696 0.204989,0.33255 0.204989,0.5564 0,0.23925 -0.06828,0.43407 -0.204989,0.58445 -0.03145,0.0345 -0.06489,0.0642 -0.09941,0.0907 -0.174981,0.01 -0.340571,0.0502 -0.494943,0.12254 -0.145966,-0.0204 -0.27671,-0.0822 -0.39018,-0.19014 -0.138417,-0.13329 -0.239866,-0.3555 -0.304802,-0.66651 0.128164,-0.24267 0.243516,-0.41086 0.346047,-0.50484 0.153797,-0.14185 0.313511,-0.21284 0.47927,-0.21284 z m -3.191557,0.82285 h 1.324798 v 0.68424 h -0.402554 c -0.05297,0 -0.09038,0.01 -0.112594,0.0309 -0.02221,0.0188 -0.03341,0.0443 -0.03341,0.0768 0,0.0308 0.01122,0.0566 0.03341,0.0771 0.0026,0.002 0.0076,0.004 0.01072,0.006 -0.01184,0.01 -0.02547,0.0163 -0.03671,0.0264 -0.146961,0.1333 -0.220249,0.29029 -0.220249,0.47144 v 0.32584 h -0.46648 c -0.05126,0 -0.08791,0.01 -0.110125,0.0309 -0.02221,0.0204 -0.03341,0.046 -0.03341,0.0767 0,0.0325 0.01122,0.0587 0.03341,0.0792 0.02222,0.0204 0.05887,0.0309 0.110125,0.0309 h 0.466484 v 1.78674 h -0.520515 c -0.05035,0 -0.08573,0.01 -0.108056,0.03 -0.0012,-8.4e-4 -0.0016,-0.002 -0.0029,-0.002 -0.04836,-0.0294 -0.102758,-0.0515 -0.163332,-0.0661 0.155967,-0.2102 0.235098,-0.44086 0.235098,-0.69209 0,-0.28026 -0.08872,-0.5152 -0.266444,-0.70488 -0.17772,-0.19139 -0.381031,-0.28707 -0.610018,-0.28707 -0.172593,0 -0.330011,0.047 -0.471845,0.14105 -0.140126,0.094 -0.276687,0.23945 -0.409978,0.43597 -0.01022,-0.11968 -0.01567,-0.20757 -0.01567,-0.26397 0,-0.39474 0.136973,-0.73504 0.410389,-1.0204 0.124858,-0.13028 0.256243,-0.22953 0.393067,-0.30068 0.0186,0.001 0.03643,0.004 0.05527,0.004 0.184225,0 0.342607,-0.0454 0.475558,-0.13364 0.09893,0.001 0.182597,0.0178 0.249946,0.0507 0.03075,0.0171 0.05739,0.0251 0.07961,0.0251 0.02905,0 0.05297,-0.009 0.07177,-0.028 0.0188,-0.0205 0.02805,-0.046 0.02805,-0.0767 0,-0.0428 -0.02044,-0.077 -0.06146,-0.10272 -0.04836,-0.0294 -0.102758,-0.0511 -0.163331,-0.0656 0.146366,-0.19717 0.222255,-0.41264 0.231386,-0.64591 z m -8.092317,0.12329 v 0.45122 c 0.02218,0.0265 0.04303,0.0537 0.06805,0.0788 0.05688,0.056 0.117468,0.10509 0.182304,0.14682 -0.09974,0.0647 -0.182812,0.14436 -0.250358,0.23799 v 0.45329 c 0.0047,-0.002 0.01,-0.004 0.01444,-0.009 0.01538,-0.0125 0.02769,-0.0385 0.03795,-0.0797 0.04272,-0.15892 0.136865,-0.29243 0.282117,-0.40009 0.04928,-0.0365 0.102122,-0.0642 0.15632,-0.0883 0.132013,0.0454 0.276171,0.0688 0.433488,0.0688 0.10833,0 0.211892,-0.0126 0.313876,-0.0309 0.04702,0.0288 0.09237,0.0613 0.134459,0.10147 0.14867,0.14184 0.222724,0.30545 0.222724,0.49 0,0.0683 -0.01349,0.13664 -0.04083,0.20499 -0.02563,0.0667 -0.07424,0.14458 -0.146008,0.23345 -0.07177,0.0889 -0.204091,0.22771 -0.397192,0.4174 -0.328801,0.32336 -0.667449,0.64131 -1.011333,0.95606 v 0.28005 c 0.310796,-0.27192 0.700197,-0.63698 1.180438,-1.11072 0.201645,-0.19823 0.340916,-0.34599 0.417815,-0.4434 0.07861,-0.0991 0.133751,-0.18977 0.166219,-0.2718 0.03246,-0.0838 0.04908,-0.17516 0.04908,-0.27427 0,-0.23582 -0.09685,-0.44685 -0.289954,-0.63312 -0.0082,-0.009 -0.01725,-0.013 -0.02557,-0.0207 0.123614,-0.0441 0.243187,-0.099 0.356358,-0.17323 0.172594,-0.11282 0.25902,-0.20617 0.25902,-0.27964 0,-0.029 -0.01047,-0.0526 -0.03093,-0.0714 -0.0188,-0.0205 -0.04272,-0.0309 -0.07177,-0.0309 -0.02734,0 -0.05898,0.0168 -0.09487,0.0511 -0.140125,0.13671 -0.29713,0.23586 -0.471432,0.29738 -0.05882,0.0209 -0.117493,0.0369 -0.175706,0.0507 -0.132916,-0.0658 -0.277299,-0.10272 -0.436786,-0.10272 -0.11237,0 -0.22321,0.0197 -0.332437,0.0565 -0.101648,-0.0446 -0.194417,-0.10397 -0.275105,-0.18395 -0.107844,-0.10683 -0.180121,-0.23264 -0.224375,-0.37327 z m 3.884065,0.37492 c 0.01285,0.0312 0.03726,0.0658 0.08456,0.10683 0.109365,0.094 0.230493,0.17271 0.363783,0.23593 0.133917,0.0644 0.271967,0.10435 0.413689,0.12292 -0.106136,0.11942 -0.162505,0.25482 -0.162505,0.40874 v 0.32585 h -0.466483 c -0.05126,0 -0.08791,0.01 -0.110126,0.0309 -0.02221,0.0205 -0.03341,0.046 -0.03341,0.0767 0,0.0325 0.01122,0.0587 0.03341,0.0792 0.02222,0.0204 0.05887,0.0309 0.110126,0.0309 h 0.466483 v 1.78675 h -0.520102 c -0.05018,0 -0.08613,0.01 -0.10848,0.03 -0.0012,-8.5e-4 -0.0016,-0.002 -0.0029,-0.002 -0.04836,-0.0294 -0.102758,-0.0515 -0.163332,-0.0661 0.155974,-0.21021 0.235098,-0.44084 0.235098,-0.69209 0,-0.28027 -0.08913,-0.51519 -0.266857,-0.70489 -0.17772,-0.19138 -0.380618,-0.28707 -0.609604,-0.28707 -0.172594,0 -0.329599,0.047 -0.471433,0.14107 -0.140126,0.094 -0.2771,0.23945 -0.410391,0.43596 -0.01022,-0.11967 -0.01526,-0.20757 -0.01526,-0.26397 0,-0.39473 0.136562,-0.73503 0.409978,-1.02041 0.124858,-0.13028 0.25583,-0.22951 0.392654,-0.30067 0.01872,0.001 0.03711,0.004 0.0561,0.004 0.184137,0 0.342234,-0.045 0.475146,-0.13321 0.09874,0.001 0.182693,0.0174 0.249946,0.0504 0.03075,0.0171 0.05739,0.0251 0.07961,0.0251 0.02905,0 0.05297,-0.009 0.07177,-0.0281 0.0188,-0.0204 0.02805,-0.046 0.02805,-0.0767 0,-0.0428 -0.02044,-0.077 -0.06146,-0.10272 -0.04836,-0.0294 -0.102757,-0.0511 -0.163331,-0.0656 0.03573,-0.0481 0.06773,-0.0974 0.09528,-0.14766 z m -0.744477,1.69765 c 0.172594,0 0.327301,0.0733 0.464009,0.22025 0.136708,0.14697 0.204988,0.33255 0.204988,0.5564 0,0.23925 -0.06828,0.43366 -0.204988,0.58404 -0.03139,0.0345 -0.06455,0.0647 -0.09899,0.0911 -0.175359,0.01 -0.340688,0.05 -0.495355,0.12254 -0.145976,-0.0205 -0.276291,-0.0827 -0.389768,-0.19056 -0.138417,-0.1333 -0.240279,-0.35551 -0.305215,-0.66654 0.128164,-0.24265 0.243517,-0.41043 0.346048,-0.50442 0.153796,-0.14183 0.313512,-0.21282 0.479269,-0.21282 z m 4.072143,0 c 0.172594,0 0.327301,0.0733 0.464009,0.22025 0.136708,0.14697 0.204989,0.33255 0.204989,0.5564 0,0.23925 -0.06828,0.43366 -0.204989,0.58404 -0.03139,0.0345 -0.06455,0.0647 -0.09899,0.0911 -0.175295,0.01 -0.340739,0.05 -0.495355,0.12254 -0.145976,-0.0205 -0.27629,-0.0827 -0.389768,-0.19056 -0.138417,-0.1333 -0.240279,-0.35551 -0.305214,-0.66654 0.128163,-0.24265 0.243516,-0.41043 0.346047,-0.50442 0.153796,-0.14183 0.313512,-0.21282 0.47927,-0.21282 z m 4.072143,0 c 0.172594,0 0.327301,0.0733 0.464009,0.22025 0.136708,0.14697 0.204989,0.33255 0.204989,0.5564 0,0.23925 -0.06828,0.43366 -0.204989,0.58404 -0.03139,0.0345 -0.06455,0.0647 -0.09899,0.0911 -0.175177,0.01 -0.34083,0.0501 -0.495356,0.12254 -0.145976,-0.0205 -0.276702,-0.0827 -0.39018,-0.19056 -0.138417,-0.1333 -0.239866,-0.35551 -0.304801,-0.66654 0.128163,-0.24265 0.243516,-0.41043 0.346047,-0.50442 0.153796,-0.14183 0.313512,-0.21282 0.479269,-0.21282 z m -9.575495,1.2782 c -0.03246,0 -0.0591,0.0112 -0.07961,0.0334 -0.02051,0.0222 -0.03052,0.0588 -0.03052,0.11007 v 0.0845 h -1.598254 v 0.21573 h 0.06269 v 1.22952 c 0,0.0376 0.0092,0.0669 0.02805,0.0874 0.0188,0.0204 0.04348,0.0306 0.07424,0.0306 0.02222,0 0.06122,-0.0135 0.115897,-0.0408 0.223859,-0.11793 0.447613,-0.17694 0.671473,-0.17694 0.218733,0 0.398891,0.0745 0.540725,0.22314 0.141835,0.14695 0.212826,0.3418 0.212826,0.58445 0,0.28537 -0.08219,0.51455 -0.246235,0.68714 -0.102172,0.10646 -0.223266,0.17565 -0.359245,0.21571 h 0.44916 c 0.02264,-0.0199 0.04489,-0.0405 0.06641,-0.0627 0.205062,-0.2119 0.307689,-0.48889 0.307689,-0.83068 0,-0.30931 -0.09144,-0.5585 -0.27428,-0.74819 -0.181138,-0.18967 -0.406837,-0.28458 -0.676834,-0.28458 -0.104242,0 -0.214585,0.0135 -0.330788,0.0408 -0.116196,0.0256 -0.236915,0.0651 -0.36337,0.11793 v -1.05341 h 1.286439 c 0.03882,0 0.06652,-0.009 0.08868,-0.0198 h 0.162506 v -0.29986 c 0,-0.0512 -0.01,-0.0879 -0.03052,-0.11008 -0.02051,-0.0222 -0.04637,-0.0334 -0.07713,-0.0334 z m 1.875833,0.38812 v 4.1e-4 c 0.09874,0.001 0.182693,0.0171 0.249946,0.0499 0.03075,0.0171 0.05739,0.0256 0.07961,0.0256 0.02905,0 0.05297,-0.009 0.07177,-0.0281 0.0011,-0.001 0.0015,-0.002 0.0025,-0.004 0.02041,0.007 0.04439,0.0125 0.07548,0.0125 h 1.339237 c 0.02248,0.0112 0.05105,0.0198 0.09115,0.0198 h 0.287068 v 1.21509 c -0.256328,-0.34177 -0.572695,-0.51268 -0.948642,-0.51268 -0.196518,0 -0.384805,0.0521 -0.564235,0.15633 -0.17772,0.10421 -0.318523,0.2524 -0.422763,0.44379 -0.01776,0.0329 -0.0315,0.0661 -0.0462,0.0993 -0.01441,-0.0177 -0.02625,-0.0368 -0.04207,-0.0536 -0.17772,-0.19139 -0.380618,-0.28707 -0.609604,-0.28707 -0.172594,0 -0.3296,0.047 -0.471434,0.14107 -0.140126,0.094 -0.277099,0.23903 -0.410391,0.43555 -0.01022,-0.11967 -0.01526,-0.20759 -0.01526,-0.26398 0,-0.39474 0.136563,-0.7346 0.409979,-1.01999 0.12497,-0.13041 0.256109,-0.22951 0.393067,-0.30068 0.0186,0.001 0.03684,0.004 0.05569,0.004 0.18415,0 0.342227,-0.0446 0.475146,-0.13281 z m 5.209687,0.0561 h 0.527115 c 0.07082,0.0314 0.137679,0.0748 0.198801,0.13281 0.134999,0.12474 0.247641,0.36046 0.338211,0.70735 -0.105949,0.19824 -0.186955,0.33403 -0.243346,0.4075 -0.08715,0.10933 -0.18053,0.19113 -0.279643,0.24582 -0.09741,0.0547 -0.196557,0.0825 -0.297379,0.0825 -0.174303,0 -0.330954,-0.0764 -0.46937,-0.22852 -0.138417,-0.15378 -0.207464,-0.34743 -0.207464,-0.58155 0,-0.24095 0.06905,-0.43847 0.207464,-0.59228 0.06954,-0.0773 0.14486,-0.13519 0.225611,-0.17364 z m -8.793899,2.52379 v 0.27717 c 0.0175,0.0127 0.03393,0.0267 0.05197,0.0388 h 0.493293 c -0.191964,-0.0524 -0.373628,-0.15715 -0.545261,-0.31594 z m 8.258536,0.27841 c -0.02905,0 -0.05374,0.01 -0.07425,0.0309 -0.0021,0.001 -0.003,0.004 -0.005,0.006 h 0.195501 c -0.0086,-0.004 -0.01851,-0.005 -0.02682,-0.009 -0.03931,-0.0188 -0.069,-0.0284 -0.08951,-0.0284 z"
         style="font-style:normal;font-variant:normal;font-weight:normal;font-stretch:normal;font-size:6.83323765px;line-height:56.99999928%;font-family:'open sans';-inkscape-font-specification:'open sans';letter-spacing:-1.44693816px;word-spacing:0px;fill:#616161;fill-opacity:1;stroke:none;stroke-width:0.26458332px;stroke-linecap:butt;stroke-linejoin:miter;stroke-opacity:1" />
      <rect
         y="226.47058"
         x="14.557888"
         height="11.942088"
         width="12.159218"
         id="rect6394"
         style="opacity:1;fill:#bdbdbd;fill-opacity:1;stroke:none;stroke-width:1.32291651;stroke-linecap:round;stroke-linejoin:round;stroke-miterlimit:4;stroke-dasharray:none;stroke-dashoffset:35.4368515;stroke-opacity:1;paint-order:normal" />
      <path
         inkscape:connector-curvature="0"
         id="path6398"
         d="m 20.382003,228.73819 c -1.198479,0 -2.175535,0.97705 -2.175535,2.17553 v 0.39563 H 17.77427 c -0.148842,0 -0.268461,0.11961 -0.268461,0.26846 v 0.8324 c -0.207758,0.0543 -0.361135,0.24062 -0.361135,0.46585 0,0.22527 0.153333,0.41202 0.361135,0.46628 v 0.0349 c -0.207802,0.0543 -0.361135,0.24101 -0.361135,0.46628 0,0.22522 0.153377,0.41157 0.361135,0.46585 v 0.0353 c -0.207758,0.0543 -0.361135,0.24063 -0.361135,0.46586 0,0.22526 0.153333,0.41202 0.361135,0.46628 v 0.59967 c 0,0.14884 0.119619,0.26887 0.268461,0.26887 h 5.726207 c 0.148842,0 0.268461,-0.12003 0.268461,-0.26887 v -0.59967 c 0.02244,-0.006 0.04505,-0.0115 0.06608,-0.0204 0.173689,-0.0732 0.295059,-0.24497 0.295059,-0.4459 0,-0.22524 -0.153377,-0.41158 -0.361135,-0.46587 v -0.0353 c 0.207758,-0.0543 0.361135,-0.24063 0.361135,-0.46586 0,-0.22527 -0.153333,-0.41202 -0.361135,-0.46628 v -0.0349 c 0.207802,-0.0543 0.361135,-0.241 0.361135,-0.46627 0,-0.22524 -0.153377,-0.41158 -0.361135,-0.46586 v -0.8324 c 0,-0.14884 -0.119619,-0.26846 -0.268462,-0.26846 h -0.432614 v -0.39563 c 0,-1.19848 -0.977056,-2.17553 -2.175534,-2.17553 z m 0,0.84984 h 0.510326 c 0.741692,0 1.325684,0.584 1.325684,1.32569 v 0.39563 h -3.160032 v -0.39563 c 0,-0.74169 0.582329,-1.32569 1.324022,-1.32569 z"
         style="opacity:1;fill:#000000;fill-opacity:1;stroke:none;stroke-width:1.32291651;stroke-linecap:round;stroke-linejoin:round;stroke-miterlimit:4;stroke-dasharray:none;stroke-dashoffset:35.4368515;stroke-opacity:1;paint-order:normal" />
    </g>
    <g
       id="g6408"
       transform="translate(148.16684,47.624875)">
      <path
         style="font-style:normal;font-variant:normal;font-weight:normal;font-stretch:normal;font-size:6.83323765px;line-height:56.99999928%;font-family:'open sans';-inkscape-font-specification:'open sans';letter-spacing:-1.44693816px;word-spacing:0px;fill:#616161;fill-opacity:1;stroke:none;stroke-width:0.26458332px;stroke-linecap:butt;stroke-linejoin:miter;stroke-opacity:1"
         d="m 14.735825,226.47127 c -0.06843,0.054 -0.127833,0.11581 -0.178179,0.18602 v 0.45245 c 0.0047,-0.002 0.01,-0.004 0.01444,-0.009 0.01538,-0.0125 0.02769,-0.0385 0.03795,-0.0797 0.04272,-0.15892 0.136866,-0.29243 0.282118,-0.40008 0.108006,-0.08 0.228037,-0.1301 0.359659,-0.15055 z m 0.779536,0 c 0.157549,0.0229 0.296456,0.089 0.414927,0.2021 0.148671,0.14184 0.222724,0.30503 0.222724,0.48958 0,0.0683 -0.01349,0.13623 -0.04083,0.20458 -0.02563,0.0667 -0.07424,0.14458 -0.146008,0.23344 -0.07177,0.0889 -0.204091,0.22814 -0.397192,0.41781 -0.328801,0.32338 -0.667449,0.64132 -1.011333,0.95608 v 0.28006 c 0.310821,-0.27195 0.700113,-0.63691 1.180438,-1.11074 0.201645,-0.19823 0.340917,-0.34599 0.417815,-0.4434 0.07861,-0.0991 0.133751,-0.19019 0.166219,-0.27222 0.03246,-0.0838 0.04908,-0.17516 0.04908,-0.27428 0,-0.23582 -0.09685,-0.44643 -0.289954,-0.63269 -0.01992,-0.0192 -0.04197,-0.0332 -0.06269,-0.0504 z m 1.865523,0 c -0.108892,0.0676 -0.208878,0.14536 -0.298617,0.23509 -0.136708,0.13501 -0.246287,0.29242 -0.328311,0.47185 -0.107657,0.23241 -0.161682,0.48356 -0.161682,0.75355 0,0.35886 0.05749,0.68642 0.171992,0.98205 0.09227,0.23753 0.218825,0.41345 0.379457,0.52794 0.05421,0.0383 0.11015,0.0673 0.167043,0.0929 -0.08213,0.0567 -0.158139,0.12017 -0.228499,0.19054 -0.136708,0.135 -0.246287,0.29242 -0.328311,0.47186 -0.107657,0.23239 -0.161682,0.48313 -0.161682,0.75314 0,0.35886 0.05749,0.6864 0.171992,0.98204 0.09227,0.23753 0.218825,0.41345 0.379457,0.52795 0.05425,0.0381 0.110125,0.0678 0.167043,0.0932 -0.08206,0.0567 -0.158186,0.1198 -0.228499,0.19015 -0.136708,0.13498 -0.246287,0.2924 -0.328311,0.47184 -0.107657,0.23239 -0.161682,0.48397 -0.161682,0.75396 0,0.35886 0.05749,0.68601 0.171992,0.98164 0.09227,0.23753 0.218825,0.41344 0.379457,0.52793 0.05421,0.0383 0.11015,0.0673 0.167043,0.0927 -0.08213,0.0567 -0.158139,0.12017 -0.228499,0.19054 -0.136708,0.13501 -0.246287,0.29242 -0.328311,0.47185 -0.107657,0.23241 -0.161682,0.48355 -0.161682,0.75355 0,0.35887 0.05749,0.68601 0.171992,0.98165 0.07245,0.18648 0.166669,0.33356 0.281294,0.4442 h 0.391417 c -0.09418,-0.0328 -0.181247,-0.0844 -0.259845,-0.1592 -0.138417,-0.1333 -0.240279,-0.35551 -0.305215,-0.66653 0.128164,-0.24266 0.243516,-0.41086 0.346047,-0.50484 0.153797,-0.14184 0.313511,-0.21282 0.47927,-0.21282 0.172594,0 0.327301,0.0732 0.464009,0.22024 0.04652,0.0501 0.08192,0.10646 0.112594,0.1654 -0.01508,0.0763 -0.02433,0.15354 -0.02433,0.23221 0,0.14549 0.02711,0.28751 0.07961,0.42688 -0.03301,0.1203 -0.08686,0.22725 -0.167869,0.31636 -0.07948,0.0875 -0.169915,0.14638 -0.268918,0.1823 h 0.392654 c 0.01824,-0.0197 0.03589,-0.0403 0.05279,-0.0623 0.04622,-0.0608 0.08448,-0.12379 0.117543,-0.18809 0.06245,0.0962 0.136022,0.17905 0.219425,0.25037 h 0.442561 c -0.137919,-0.045 -0.26452,-0.12017 -0.376156,-0.23386 -0.0832,-0.0855 -0.144861,-0.18035 -0.190553,-0.28254 0.01831,-0.0813 0.03093,-0.16427 0.03093,-0.25035 0,-0.1531 -0.02905,-0.29135 -0.08208,-0.41742 0.04111,-0.16279 0.118951,-0.30847 0.241697,-0.43348 0.184556,-0.18798 0.405246,-0.2817 0.661574,-0.2817 0.254619,0 0.47413,0.0937 0.658687,0.2817 0.184555,0.18798 0.277167,0.41867 0.277167,0.69211 0,0.27169 -0.09261,0.50199 -0.277167,0.69168 -0.111622,0.11369 -0.237711,0.18883 -0.37492,0.23386 h 0.420702 c 0.08235,-0.0697 0.16009,-0.15146 0.231385,-0.24912 v 0.24912 h 0.621979 c -0.0017,-10e-4 -0.0026,-0.004 -0.0045,-0.006 -0.02221,-0.0205 -0.05963,-0.0304 -0.112594,-0.0304 h -0.287066 v -3.00185 h -0.167457 c -0.02168,-0.01 -0.04769,-0.0173 -0.08372,-0.0173 h -0.946167 v -1.78633 h 1.007621 c 0.05126,0 0.0875,-0.01 0.109714,-0.0309 0.02222,-0.0204 0.03341,-0.046 0.03341,-0.0767 0,-0.0325 -0.01122,-0.0587 -0.03341,-0.0792 -0.02221,-0.0205 -0.05844,-0.0309 -0.109714,-0.0309 h -1.007621 v -0.32584 c 0,-0.11793 0.05055,-0.22283 0.15137,-0.31511 0.04823,-0.0434 0.106497,-0.0759 0.173642,-0.099 0.04372,-0.009 0.08617,-0.0178 0.127448,-0.0305 5.2e-4,-1.6e-4 0.0011,-2.1e-4 0.0016,-4.1e-4 0.04165,-0.006 0.08623,-0.009 0.133223,-0.009 0.17772,0 0.395287,0.0197 0.653324,0.059 0.03247,0.005 0.05562,0.007 0.0693,0.007 0.03418,0 0.06157,-0.01 0.08208,-0.0284 0.02051,-0.0204 0.03093,-0.046 0.03093,-0.0768 0,-0.0308 -0.0097,-0.0555 -0.02846,-0.0743 -0.01709,-0.0188 -0.06917,-0.0354 -0.15632,-0.0491 -0.141785,-0.0232 -0.276458,-0.036 -0.407915,-0.0449 0.01924,-0.0173 0.0381,-0.0345 0.05651,-0.0537 0.205062,-0.21188 0.307689,-0.48889 0.307689,-0.83067 0,-0.3093 -0.09144,-0.5585 -0.274281,-0.74818 -0.181137,-0.18968 -0.406423,-0.28501 -0.676421,-0.28501 -0.104242,0 -0.214586,0.0136 -0.330788,0.0408 -0.116196,0.0256 -0.23774,0.065 -0.364195,0.11793 v -1.053 h 1.286829 c 0.03844,0 0.06616,-0.007 0.08826,-0.0194 h 0.02228 c 0.04293,0 0.07313,-0.009 0.09569,-0.0236 v 0.0236 h 0.979575 c -0.08107,0.0562 -0.156459,0.11892 -0.226024,0.1885 -0.136708,0.13499 -0.246288,0.29201 -0.328312,0.47144 -0.107657,0.2324 -0.161269,0.48355 -0.161269,0.75355 0,0.35886 0.05708,0.68599 0.17158,0.98163 0.09227,0.23753 0.218824,0.41386 0.379456,0.52836 0.05425,0.0383 0.110125,0.0678 0.167043,0.0933 -0.08197,0.0567 -0.158261,0.11992 -0.228498,0.19014 -0.136708,0.13498 -0.246288,0.29199 -0.328312,0.47143 -0.107657,0.23239 -0.161269,0.48396 -0.161269,0.75396 0,0.35885 0.05708,0.68641 0.17158,0.98204 0.09227,0.23754 0.218824,0.41345 0.379456,0.52795 0.05438,0.0383 0.1104,0.0677 0.167456,0.0932 -0.08206,0.0567 -0.158598,0.1198 -0.228911,0.19015 -0.136708,0.13499 -0.246288,0.2924 -0.328312,0.47184 -0.107657,0.2324 -0.161269,0.48313 -0.161269,0.75314 0,0.35884 0.05708,0.6864 0.17158,0.98205 0.07254,0.1867 0.166888,0.33393 0.281705,0.44463 h 0.391004 c -0.09422,-0.0328 -0.18122,-0.0844 -0.259844,-0.15922 -0.138417,-0.1333 -0.240279,-0.35551 -0.305214,-0.66652 0.128163,-0.24267 0.243516,-0.41086 0.346047,-0.50484 0.153796,-0.14184 0.313511,-0.21282 0.47927,-0.21282 0.172594,0 0.3273,0.0732 0.464008,0.22023 0.136708,0.14698 0.204989,0.33255 0.204989,0.55641 0,0.23924 -0.06828,0.43406 -0.204989,0.58444 -0.07948,0.0875 -0.169915,0.14639 -0.268918,0.18232 h 0.391829 c 0.01851,-0.0199 0.03689,-0.0403 0.05403,-0.0627 0.162341,-0.21359 0.243347,-0.44895 0.243347,-0.70528 0,-0.28026 -0.08872,-0.5148 -0.266444,-0.70447 -0.17772,-0.19139 -0.381031,-0.28707 -0.610017,-0.28707 -0.172594,0 -0.330011,0.047 -0.471846,0.14105 -0.140126,0.094 -0.276687,0.23862 -0.409977,0.43515 -0.01022,-0.11968 -0.01567,-0.20758 -0.01567,-0.26397 0,-0.39475 0.136974,-0.73421 0.41039,-1.01959 0.12497,-0.13041 0.256522,-0.22991 0.393479,-0.3011 0.01846,0.001 0.03615,0.004 0.05485,0.004 0.18415,0 0.34264,-0.045 0.475559,-0.13321 0.09892,0.001 0.182604,0.0174 0.249946,0.0504 0.03075,0.0171 0.05738,0.0256 0.07961,0.0256 0.02905,0 0.05297,-0.009 0.07177,-0.0281 0.0011,-0.001 0.0011,-0.002 0.0021,-0.004 0.02042,0.007 0.04435,0.0125 0.07548,0.0125 h 0.296133 c -0.0143,0.0164 -0.02892,0.0323 -0.04248,0.0504 -0.162341,0.21532 -0.243347,0.4545 -0.243347,0.71767 0,0.18114 0.0413,0.35475 0.123327,0.52051 0.08203,0.16406 0.192369,0.28865 0.330786,0.3741 0.140127,0.0854 0.284405,0.12827 0.433076,0.12827 0.160632,0 0.31687,-0.0494 0.468958,-0.14848 0.153797,-0.0991 0.286116,-0.24687 0.397191,-0.44339 0.0069,0.12987 0.01035,0.23056 0.01035,0.30232 0,0.39475 -0.130787,0.72343 -0.392241,0.98659 -0.180399,0.18041 -0.385768,0.29712 -0.614967,0.35307 h 0.522993 c 0.09541,-0.0634 0.184464,-0.13562 0.266033,-0.21943 0.126455,-0.12816 0.222543,-0.2609 0.287479,-0.39761 0.09741,-0.20165 0.14642,-0.45432 0.14642,-0.75849 0,-0.39133 -0.05749,-0.73468 -0.171992,-1.03031 -0.06849,-0.17781 -0.159028,-0.3223 -0.270156,-0.43513 h 0.136521 c 0.05126,0 0.08832,-0.01 0.110537,-0.0305 0.02221,-0.0204 0.03341,-0.0465 0.03341,-0.077 0,-0.0325 -0.01122,-0.058 -0.03341,-0.0767 -0.02222,-0.0205 -0.05928,-0.0309 -0.110537,-0.0309 h -0.461531 c -0.09888,-0.0384 -0.202921,-0.0598 -0.312638,-0.0598 -0.06006,0 -0.116384,0.006 -0.171168,0.0165 v -1.74302 h 1.007208 c 0.05126,0 0.08791,-0.01 0.110125,-0.0309 0.02221,-0.0205 0.03341,-0.046 0.03341,-0.0767 0,-0.0325 -0.01122,-0.0591 -0.03341,-0.0797 -0.02221,-0.0204 -0.05885,-0.0309 -0.110125,-0.0309 H 23.43163 v -0.32541 c 0,-0.11793 0.05014,-0.22284 0.150958,-0.31512 0.102533,-0.0923 0.247575,-0.13858 0.435548,-0.13858 0.177722,0 0.396114,0.0197 0.654151,0.059 0.03246,0.005 0.05521,0.007 0.06887,0.007 0.03417,0 0.06157,-0.01 0.08208,-0.0284 0.02051,-0.0205 0.03052,-0.046 0.03052,-0.0768 0,-0.0308 -0.0092,-0.0555 -0.02805,-0.0743 -0.01709,-0.0188 -0.06916,-0.0354 -0.15632,-0.049 -0.05794,-0.01 -0.112482,-0.014 -0.168694,-0.0211 -0.0049,-0.007 -0.009,-0.0153 -0.01608,-0.0214 -0.02221,-0.0205 -0.05962,-0.0305 -0.112593,-0.0305 h -0.179418 v -0.68427 h 0.179416 c 0.05298,0 0.09038,-0.0112 0.112594,-0.0313 0.02221,-0.0204 0.03341,-0.0456 0.03341,-0.0763 0,-0.0325 -0.01122,-0.0583 -0.03341,-0.077 -0.02222,-0.0204 -0.05963,-0.0309 -0.112594,-0.0309 h -0.179417 v -2.10185 h -0.0037 c 0.01371,-0.015 0.02888,-0.0263 0.04207,-0.0425 0.220443,-0.26999 0.330788,-0.63649 0.330788,-1.09959 v -0.53332 c 0,-0.19822 -0.01891,-0.37065 -0.05651,-0.51761 -0.02734,-0.10247 -0.07017,-0.21635 -0.128272,-0.3411 -0.05811,-0.12475 -0.112482,-0.21619 -0.163745,-0.27429 -0.01855,-0.0214 -0.04109,-0.0379 -0.06146,-0.057 h -0.465653 c 0.07668,0.0131 0.148256,0.0388 0.214062,0.0792 0.06835,0.0426 0.124324,0.0936 0.167043,0.15343 0.07177,0.10422 0.135811,0.24429 0.192203,0.4203 0.0581,0.1743 0.08703,0.36335 0.08703,0.5667 v 0.4739 c 0,0.32811 -0.06828,0.61631 -0.204989,0.8641 -0.0821,0.14777 -0.183253,0.25031 -0.302328,0.30933 h -0.09528 l -0.02474,0.0425 c -0.04519,0.01 -0.09187,0.0173 -0.141471,0.0173 -0.12304,0 -0.233381,-0.0308 -0.330786,-0.0924 -0.06835,-0.0426 -0.122729,-0.0929 -0.163744,-0.15095 -0.07347,-0.10422 -0.139876,-0.24428 -0.197977,-0.42029 -0.0564,-0.17602 -0.08456,-0.36624 -0.08456,-0.5696 v -0.47391 c 0,-0.32809 0.06869,-0.61553 0.205401,-0.86161 0.114775,-0.20658 0.266683,-0.32493 0.454935,-0.35801 h -0.457823 c -0.0294,0.0281 -0.05986,0.0541 -0.08703,0.0874 -0.220443,0.27001 -0.330787,0.63768 -0.330787,1.10249 v 0.5333 c 0,0.19651 0.0201,0.3682 0.05939,0.51515 0.02563,0.10421 0.06728,0.21883 0.125386,0.34358 0.05981,0.12474 0.114601,0.215 0.164156,0.27139 0.07861,0.0906 0.173516,0.1612 0.284592,0.21077 0.11278,0.0512 0.232379,0.0763 0.358833,0.0763 0.0025,0 0.0046,-4.2e-4 0.007,-4.2e-4 l -0.976687,1.68775 c -0.04246,-0.14801 -0.11308,-0.28154 -0.220662,-0.39637 -0.177721,-0.19139 -0.381031,-0.28664 -0.610017,-0.28664 -0.172594,0 -0.330011,0.0466 -0.471846,0.14064 -0.140126,0.094 -0.276687,0.23944 -0.409977,0.43595 -0.01022,-0.11955 -0.01567,-0.20757 -0.01567,-0.26396 0,-0.39475 0.136973,-0.73503 0.41039,-1.02041 0.175185,-0.1828 0.362193,-0.30686 0.560935,-0.37327 h 0.62734 c 0.02451,0.0125 0.04661,0.0198 0.06517,0.0198 0.02905,0 0.05297,-0.01 0.07177,-0.0284 0.0188,-0.0204 0.02805,-0.0459 0.02805,-0.0768 0,-0.0426 -0.02044,-0.077 -0.06146,-0.10272 -0.03052,-0.0186 -0.06442,-0.0328 -0.09982,-0.0454 v -0.0664 c 0,-0.0512 -0.01047,-0.0879 -0.03093,-0.11008 -0.02051,-0.0222 -0.04637,-0.0334 -0.07713,-0.0334 -0.03246,0 -0.05868,0.0112 -0.0792,0.0334 -0.02051,0.0222 -0.03052,0.0588 -0.03052,0.11008 v 0.0268 c -0.0138,-6.4e-4 -0.02655,-0.002 -0.04084,-0.002 -0.140971,0 -0.275265,0.0217 -0.403379,0.0602 h -1.209315 v -0.0157 c 0.317846,-0.27511 0.729475,-0.66166 1.235295,-1.16064 0.201644,-0.19822 0.341329,-0.34599 0.418227,-0.44338 0.07861,-0.0991 0.134162,-0.1902 0.16663,-0.27222 0.03246,-0.0838 0.04826,-0.17518 0.04826,-0.27428 0,-0.23582 -0.09603,-0.44644 -0.289129,-0.63271 -0.0195,-0.0188 -0.04119,-0.0325 -0.06146,-0.0495 h -0.504842 c 0.157549,0.0229 0.296456,0.089 0.414928,0.2021 0.14867,0.14184 0.222725,0.30502 0.222725,0.48958 0,0.0683 -0.01349,0.13622 -0.04083,0.20457 -0.02563,0.0667 -0.07424,0.14458 -0.146009,0.23345 -0.07177,0.0889 -0.204504,0.22815 -0.397605,0.41782 -0.413541,0.4067 -0.838662,0.8068 -1.276127,1.19982 v 0.1258 c -0.02256,-0.0143 -0.05276,-0.0236 -0.09569,-0.0236 h -0.946166 v -1.78632 h 1.007621 c 0.05126,0 0.0875,-0.01 0.109714,-0.0309 0.02221,-0.0204 0.03341,-0.0459 0.03341,-0.0767 0,-0.0325 -0.01122,-0.0591 -0.03341,-0.0797 -0.02221,-0.0205 -0.05844,-0.0309 -0.109714,-0.0309 h -1.007621 v -0.32541 c 0,-0.11793 0.05055,-0.22283 0.15137,-0.31512 0.102533,-0.0923 0.247989,-0.13859 0.435962,-0.13859 0.17772,0 0.395288,0.0197 0.653325,0.059 0.03246,0.005 0.05562,0.007 0.06929,0.007 0.01546,0 0.029,-0.002 0.04166,-0.006 -0.02582,0.0304 -0.04985,0.0622 -0.07177,0.0961 -0.08886,0.14012 -0.132809,0.25165 -0.132809,0.33368 0,0.0273 0.0092,0.0509 0.02805,0.0714 0.02051,0.0188 0.04519,0.0281 0.07424,0.0281 0.02734,0 0.05126,-0.009 0.07177,-0.0252 0.01538,-0.0125 0.02811,-0.0385 0.03836,-0.0797 0.04272,-0.15893 0.136865,-0.29243 0.282118,-0.40009 0.107432,-0.0797 0.226797,-0.12948 0.357597,-0.15013 h -0.513092 c -0.02346,0.0187 -0.04786,0.0368 -0.06929,0.0573 0.0027,-0.01 0.0062,-0.0196 0.0062,-0.0309 0,-0.01 -0.0026,-0.0178 -0.0045,-0.0264 H 19.42553 c -0.02128,0.0153 -0.04394,0.0288 -0.06351,0.0466 -0.146962,0.13328 -0.220662,0.2907 -0.220662,0.47184 v 0.32544 h -0.466484 c -0.05126,0 -0.08791,0.01 -0.110125,0.0309 -0.02221,0.0204 -0.03341,0.046 -0.03341,0.0768 0,0.0325 0.01122,0.0587 0.03341,0.0792 0.02221,0.0205 0.05886,0.0309 0.110125,0.0309 h 0.466484 v 1.78674 h -0.520103 c -0.05018,0 -0.08613,0.01 -0.10848,0.0302 -0.0012,-8.3e-4 -0.0016,-0.002 -0.0029,-0.002 -0.04836,-0.0294 -0.102757,-0.0515 -0.163331,-0.0661 0.155974,-0.21021 0.235097,-0.44044 0.235097,-0.69168 0,-0.28026 -0.08913,-0.51521 -0.266856,-0.70488 -0.17772,-0.19141 -0.380618,-0.28748 -0.609604,-0.28748 -0.172594,0 -0.329599,0.047 -0.471433,0.14105 -0.140127,0.094 -0.2771,0.23945 -0.410391,0.43597 -0.01022,-0.11968 -0.01526,-0.20759 -0.01526,-0.26397 0,-0.39475 0.136562,-0.73504 0.409978,-1.02041 0.232284,-0.24238 0.485261,-0.38096 0.758913,-0.41864 z m 0.878936,0 c 0.04879,0.009 0.09353,0.0208 0.131984,0.0395 0.03075,0.0171 0.05739,0.0252 0.07961,0.0252 0.02905,0 0.05297,-0.009 0.07177,-0.028 0.0098,-0.0112 0.01677,-0.0232 0.02145,-0.0367 z m 7.432393,0 -1.109085,1.91667 v 0.2487 h 1.427497 v 0.65374 c -0.04013,0.009 -0.07943,0.0188 -0.118378,0.0306 h -0.283766 c -0.05297,0 -0.0908,0.01 -0.113005,0.0309 -0.02221,0.0188 -0.033,0.0443 -0.033,0.0767 0,0.0308 0.01072,0.0566 0.033,0.077 7.81e-4,8.5e-4 0.0025,8.5e-4 0.0032,0.001 -0.09843,0.0637 -0.189901,0.13545 -0.272219,0.21777 -0.136708,0.135 -0.246287,0.29241 -0.328313,0.47185 -0.107657,0.2324 -0.161681,0.48313 -0.161681,0.75312 0,0.35887 0.05749,0.68644 0.171993,0.98207 0.09227,0.23752 0.218412,0.41344 0.379044,0.52793 0.05429,0.0383 0.110911,0.0678 0.167868,0.0932 -0.08206,0.0567 -0.158599,0.1198 -0.228911,0.19014 -0.136708,0.135 -0.246287,0.29241 -0.328313,0.47185 -0.107657,0.2324 -0.161681,0.48397 -0.161681,0.75396 0,0.35886 0.05749,0.68601 0.171993,0.98163 0.09227,0.23754 0.218412,0.41345 0.379044,0.52795 0.0543,0.0383 0.110886,0.0678 0.167868,0.0933 -0.08206,0.0567 -0.158602,0.1198 -0.228911,0.19014 -0.136708,0.135 -0.246287,0.29242 -0.328313,0.47184 -0.107657,0.23241 -0.161681,0.48356 -0.161681,0.75355 0,0.35886 0.05749,0.686 0.171993,0.98163 0.07245,0.18651 0.166759,0.33358 0.281293,0.44422 h 0.391417 c -0.09428,-0.0328 -0.181658,-0.0844 -0.260257,-0.15921 -0.138417,-0.1333 -0.239866,-0.3555 -0.304803,-0.66652 0.128165,-0.24266 0.243517,-0.41084 0.346048,-0.50484 0.153797,-0.14183 0.313511,-0.21283 0.47927,-0.21283 0.172594,0 0.327301,0.0733 0.464009,0.22025 0.04458,0.0479 0.07926,0.10147 0.109303,0.15756 -0.01,0.0611 -0.01608,0.12354 -0.01608,0.1885 0,0.16093 0.02805,0.31076 0.08208,0.44956 -0.03151,0.13249 -0.08787,0.24907 -0.175292,0.34522 -0.07951,0.0875 -0.169864,0.14641 -0.26892,0.18231 h 0.392651 c 0.01824,-0.0198 0.03629,-0.0403 0.05321,-0.0623 0.0534,-0.0703 0.09449,-0.1437 0.130335,-0.21859 0.03105,0.0441 0.06666,0.0866 0.104354,0.12827 v -0.39224 c -0.0031,-0.006 -0.0069,-0.013 -0.0099,-0.0198 0.0061,-0.0344 0.0066,-0.0703 0.0099,-0.10558 v -0.20994 -0.21695 h -0.04248 c -0.0095,-0.0302 -0.01916,-0.0603 -0.03135,-0.0891 0.01829,-0.0673 0.04418,-0.12935 0.07382,-0.18891 v -0.37492 c -0.09565,0.0991 -0.172255,0.2054 -0.224375,0.3213 -0.01184,-0.0141 -0.02068,-0.0298 -0.03341,-0.0434 -0.17772,-0.1914 -0.381443,-0.28707 -0.610429,-0.28707 -0.172594,0 -0.3296,0.047 -0.471434,0.14105 -0.140126,0.094 -0.276687,0.23904 -0.409978,0.43555 -0.01022,-0.11967 -0.01526,-0.20758 -0.01526,-0.26397 0,-0.39473 0.136562,-0.73461 0.409978,-1.02 0.12497,-0.13039 0.25611,-0.22991 0.393067,-0.30108 0.01855,0.001 0.03689,0.004 0.05569,0.004 0.18415,0 0.342228,-0.0446 0.475146,-0.13281 0.09874,10e-4 0.183106,0.0172 0.250359,0.0499 0.03077,0.0171 0.05698,0.0257 0.0792,0.0257 0.02905,0 0.05297,-0.009 0.07177,-0.028 0.0188,-0.0205 0.02846,-0.0465 0.02846,-0.077 0,-0.0426 -0.02044,-0.0767 -0.06146,-0.10235 -0.04836,-0.0294 -0.103169,-0.0515 -0.163745,-0.0661 0.132126,-0.17807 0.205914,-0.37162 0.226437,-0.57909 v -0.22107 c -0.02066,-0.23224 -0.103867,-0.43255 -0.257782,-0.59682 -0.177721,-0.1914 -0.381444,-0.28706 -0.61043,-0.28706 -0.172595,0 -0.329599,0.047 -0.471433,0.14105 -0.140126,0.094 -0.276687,0.23944 -0.409978,0.43596 -0.01022,-0.11967 -0.01526,-0.20758 -0.01526,-0.26397 0,-0.39475 0.136562,-0.73503 0.409978,-1.02041 0.124858,-0.13028 0.255831,-0.22951 0.392654,-0.30068 0.01867,0.001 0.03717,0.004 0.0561,0.004 0.184137,0 0.342234,-0.045 0.475146,-0.13322 0.09874,10e-4 0.183106,0.0174 0.250359,0.0502 0.03075,0.0171 0.05697,0.0252 0.07919,0.0252 0.02905,0 0.05297,-0.009 0.07177,-0.0281 0.0188,-0.0204 0.02846,-0.046 0.02846,-0.0767 0,-0.0426 -0.02044,-0.077 -0.06146,-0.10272 -0.04836,-0.0294 -0.103169,-0.0511 -0.163745,-0.0656 0.132241,-0.17814 0.205941,-0.37159 0.226437,-0.57909 v -0.22107 c -0.02066,-0.23225 -0.103868,-0.43255 -0.257783,-0.59683 -0.17772,-0.19139 -0.381443,-0.28707 -0.610429,-0.28707 -0.172594,0 -0.329599,0.047 -0.471433,0.14107 -0.140127,0.094 -0.276687,0.23944 -0.409977,0.43596 -0.01022,-0.11967 -0.01526,-0.20799 -0.01526,-0.26439 0,-0.39474 0.136561,-0.73461 0.409977,-1.01999 0.175196,-0.18281 0.362181,-0.30686 0.560935,-0.37326 h 0.406266 0.07877 0.141884 c 0.02285,0.0112 0.04378,0.0177 0.06146,0.0186 v 0.19055 c 0,0.0512 0.01047,0.0879 0.03093,0.11008 0.02009,0.0217 0.04472,0.0325 0.07466,0.033 v -3.41676 z m 0.5366,0.04 c 0.02261,0.0163 0.05483,0.0259 0.100638,0.0259 h 0.289955 v 2.78364 h -0.0198 c -0.08555,-0.0391 -0.186639,-0.0598 -0.30439,-0.0598 -0.02259,0 -0.04414,0.002 -0.06641,0.004 v -0.62816 h 0.179416 c 0.05298,0 0.09038,-0.01 0.112594,-0.0305 0.02221,-0.0205 0.03341,-0.0465 0.03341,-0.0772 0,-0.0325 -0.01122,-0.0583 -0.03341,-0.077 -0.02221,-0.0204 -0.05963,-0.0305 -0.112594,-0.0305 h -0.179416 z m -0.330786,0.0259 h 0.112593 v 1.88409 h -1.201887 z m -8.200793,1.27654 c 0.172594,0 0.327301,0.0737 0.464009,0.22066 0.136708,0.14697 0.204988,0.33213 0.204988,0.556 0,0.23923 -0.06828,0.43406 -0.204988,0.58444 -0.03139,0.0346 -0.06455,0.0642 -0.09899,0.0908 -0.175055,0.01 -0.340096,0.0506 -0.494531,0.12292 -0.146291,-0.0204 -0.276915,-0.0824 -0.390592,-0.19056 -0.138417,-0.13329 -0.240279,-0.3551 -0.305215,-0.66611 0.128164,-0.24265 0.243517,-0.41127 0.346048,-0.50525 0.153796,-0.14183 0.313512,-0.21284 0.479269,-0.21284 z m -1.431209,1.27861 c -0.03246,0 -0.0591,0.0112 -0.07961,0.0334 -0.02051,0.0222 -0.03052,0.0588 -0.03052,0.11008 v 0.0845 h -1.598254 v 0.21571 h 1.816029 v -0.30027 c 0,-0.0512 -0.01,-0.0879 -0.03052,-0.11008 -0.02051,-0.0222 -0.04637,-0.0334 -0.07713,-0.0334 z m 1.876246,0.38689 v 8.3e-4 c 0.09856,0.001 0.182376,0.0176 0.249533,0.0504 0.03075,0.0171 0.05739,0.0256 0.07961,0.0256 0.02905,0 0.05297,-0.009 0.07177,-0.0281 0.0011,-0.001 0.0015,-0.002 0.0025,-0.004 0.02041,0.007 0.04439,0.0127 0.07548,0.0127 h 0.07177 v 1.22911 c 0,0.0377 0.0092,0.0669 0.02805,0.0874 0.0188,0.0205 0.04348,0.0305 0.07424,0.0305 0.02222,0 0.06039,-0.0136 0.115075,-0.0408 0.22386,-0.11793 0.448025,-0.17694 0.671884,-0.17694 0.218734,0 0.398891,0.074 0.540725,0.22271 0.141836,0.14697 0.212826,0.34179 0.212826,0.58445 0,0.28538 -0.08219,0.51455 -0.246233,0.68714 -0.118179,0.12305 -0.259768,0.20027 -0.423177,0.23469 -0.0085,0.002 -0.01806,0.004 -0.02639,0.006 -0.05541,0.01 -0.11278,0.0153 -0.173231,0.0153 -0.304175,0 -0.585428,-0.12042 -0.843465,-0.36132 -0.03246,-0.0308 -0.06293,-0.0457 -0.09197,-0.0457 -0.0096,0 -0.01806,0.004 -0.02682,0.005 0.04985,-0.12893 0.07713,-0.2634 0.07713,-0.40545 0,-0.28024 -0.08913,-0.51561 -0.266856,-0.70529 -0.177721,-0.1914 -0.380619,-0.28707 -0.609604,-0.28707 -0.172594,0 -0.330012,0.047 -0.471846,0.14106 -0.140127,0.094 -0.276688,0.23945 -0.409979,0.43597 -0.01022,-0.11968 -0.01526,-0.20759 -0.01526,-0.26397 0,-0.39474 0.136562,-0.73503 0.409979,-1.02041 0.12497,-0.13041 0.256109,-0.22993 0.393066,-0.30108 0.0186,10e-4 0.03684,0.004 0.05569,0.004 0.184349,0 0.342552,-0.0444 0.475558,-0.13281 z m 5.742574,0.0767 h 0.08992 v 1.88368 h -1.202297 l 1.081862,-1.87089 h 4.23e-4 c 0.01035,-0.004 0.02001,-0.009 0.03011,-0.0127 z m -8.388045,0.70158 c -0.346896,0 -0.634688,0.11456 -0.863675,0.34358 -0.0272,0.0274 -0.05164,0.0562 -0.07548,0.0854 v 0.45617 c 0.04073,-0.1313 0.104902,-0.25433 0.19839,-0.36709 0.165759,-0.19993 0.408835,-0.29984 0.728391,-0.29984 0.25291,0 0.453511,0.0547 0.60218,0.16415 0.15038,0.10933 0.230619,0.22471 0.240872,0.34605 0.0034,0.0461 0.01461,0.0789 0.03341,0.0993 0.02051,0.0188 0.04519,0.0284 0.07424,0.0284 0.03246,0 0.05833,-0.0112 0.07713,-0.0334 0.02051,-0.0222 0.03129,-0.0596 0.033,-0.11256 v -0.4871 c 0,-0.053 -0.01,-0.0904 -0.03052,-0.11257 -0.02051,-0.0222 -0.04713,-0.0334 -0.07961,-0.0334 -0.03075,0 -0.05621,0.0112 -0.07672,0.0334 -0.02051,0.0222 -0.03093,0.0596 -0.03093,0.11257 v 0.0718 c -0.223861,-0.19646 -0.500871,-0.29485 -0.83068,-0.29485 z m 2.200434,0.57496 c 0.172594,0 0.327301,0.0733 0.464009,0.22025 0.136708,0.14696 0.204988,0.33255 0.204988,0.5564 0,0.23925 -0.06828,0.43407 -0.204988,0.58445 -0.03145,0.0345 -0.06489,0.0642 -0.0994,0.0907 -0.175036,0.01 -0.340113,0.0502 -0.49453,0.12254 -0.146123,-0.0204 -0.276609,-0.0822 -0.39018,-0.19014 -0.138418,-0.13329 -0.240279,-0.3555 -0.305215,-0.66651 0.128164,-0.24267 0.243516,-0.41086 0.346047,-0.50484 0.153797,-0.14185 0.313512,-0.21284 0.47927,-0.21284 z m 4.072143,0 c 0.172594,0 0.327301,0.0733 0.464009,0.22025 0.136708,0.14696 0.204989,0.33255 0.204989,0.5564 0,0.23925 -0.06828,0.43407 -0.204989,0.58445 -0.03145,0.0345 -0.06489,0.0642 -0.0994,0.0907 -0.174974,0.01 -0.340163,0.0502 -0.494531,0.12254 -0.146122,-0.0204 -0.27661,-0.0822 -0.390179,-0.19014 -0.138417,-0.13329 -0.240279,-0.3555 -0.305215,-0.66651 0.128164,-0.24267 0.243516,-0.41086 0.346047,-0.50484 0.153797,-0.14185 0.313511,-0.21284 0.47927,-0.21284 z m 4.072143,0 c 0.172594,0 0.327301,0.0733 0.464009,0.22025 0.136708,0.14696 0.204989,0.33255 0.204989,0.5564 0,0.23925 -0.06828,0.43407 -0.204989,0.58445 -0.03145,0.0345 -0.06489,0.0642 -0.09941,0.0907 -0.174981,0.01 -0.340571,0.0502 -0.494943,0.12254 -0.145966,-0.0204 -0.27671,-0.0822 -0.39018,-0.19014 -0.138417,-0.13329 -0.239866,-0.3555 -0.304802,-0.66651 0.128164,-0.24267 0.243516,-0.41086 0.346047,-0.50484 0.153797,-0.14185 0.313511,-0.21284 0.47927,-0.21284 z m -3.191557,0.82285 h 1.324798 v 0.68424 h -0.402554 c -0.05297,0 -0.09038,0.01 -0.112594,0.0309 -0.02221,0.0188 -0.03341,0.0443 -0.03341,0.0768 0,0.0308 0.01122,0.0566 0.03341,0.0771 0.0026,0.002 0.0076,0.004 0.01072,0.006 -0.01184,0.01 -0.02547,0.0163 -0.03671,0.0264 -0.146961,0.1333 -0.220249,0.29029 -0.220249,0.47144 v 0.32584 h -0.46648 c -0.05126,0 -0.08791,0.01 -0.110125,0.0309 -0.02221,0.0204 -0.03341,0.046 -0.03341,0.0767 0,0.0325 0.01122,0.0587 0.03341,0.0792 0.02222,0.0204 0.05887,0.0309 0.110125,0.0309 h 0.466484 v 1.78674 h -0.520515 c -0.05035,0 -0.08573,0.01 -0.108056,0.03 -0.0012,-8.4e-4 -0.0016,-0.002 -0.0029,-0.002 -0.04836,-0.0294 -0.102758,-0.0515 -0.163332,-0.0661 0.155967,-0.2102 0.235098,-0.44086 0.235098,-0.69209 0,-0.28026 -0.08872,-0.5152 -0.266444,-0.70488 -0.17772,-0.19139 -0.381031,-0.28707 -0.610018,-0.28707 -0.172593,0 -0.330011,0.047 -0.471845,0.14105 -0.140126,0.094 -0.276687,0.23945 -0.409978,0.43597 -0.01022,-0.11968 -0.01567,-0.20757 -0.01567,-0.26397 0,-0.39474 0.136973,-0.73504 0.410389,-1.0204 0.124858,-0.13028 0.256243,-0.22953 0.393067,-0.30068 0.0186,0.001 0.03643,0.004 0.05527,0.004 0.184225,0 0.342607,-0.0454 0.475558,-0.13364 0.09893,0.001 0.182597,0.0178 0.249946,0.0507 0.03075,0.0171 0.05739,0.0251 0.07961,0.0251 0.02905,0 0.05297,-0.009 0.07177,-0.028 0.0188,-0.0205 0.02805,-0.046 0.02805,-0.0767 0,-0.0428 -0.02044,-0.077 -0.06146,-0.10272 -0.04836,-0.0294 -0.102758,-0.0511 -0.163331,-0.0656 0.146366,-0.19717 0.222255,-0.41264 0.231386,-0.64591 z m -8.092317,0.12329 v 0.45122 c 0.02218,0.0265 0.04303,0.0537 0.06805,0.0788 0.05688,0.056 0.117468,0.10509 0.182304,0.14682 -0.09974,0.0647 -0.182812,0.14436 -0.250358,0.23799 v 0.45329 c 0.0047,-0.002 0.01,-0.004 0.01444,-0.009 0.01538,-0.0125 0.02769,-0.0385 0.03795,-0.0797 0.04272,-0.15892 0.136865,-0.29243 0.282117,-0.40009 0.04928,-0.0365 0.102122,-0.0642 0.15632,-0.0883 0.132013,0.0454 0.276171,0.0688 0.433488,0.0688 0.10833,0 0.211892,-0.0126 0.313876,-0.0309 0.04702,0.0288 0.09237,0.0613 0.134459,0.10147 0.14867,0.14184 0.222724,0.30545 0.222724,0.49 0,0.0683 -0.01349,0.13664 -0.04083,0.20499 -0.02563,0.0667 -0.07424,0.14458 -0.146008,0.23345 -0.07177,0.0889 -0.204091,0.22771 -0.397192,0.4174 -0.328801,0.32336 -0.667449,0.64131 -1.011333,0.95606 v 0.28005 c 0.310796,-0.27192 0.700197,-0.63698 1.180438,-1.11072 0.201645,-0.19823 0.340916,-0.34599 0.417815,-0.4434 0.07861,-0.0991 0.133751,-0.18977 0.166219,-0.2718 0.03246,-0.0838 0.04908,-0.17516 0.04908,-0.27427 0,-0.23582 -0.09685,-0.44685 -0.289954,-0.63312 -0.0082,-0.009 -0.01725,-0.013 -0.02557,-0.0207 0.123614,-0.0441 0.243187,-0.099 0.356358,-0.17323 0.172594,-0.11282 0.25902,-0.20617 0.25902,-0.27964 0,-0.029 -0.01047,-0.0526 -0.03093,-0.0714 -0.0188,-0.0205 -0.04272,-0.0309 -0.07177,-0.0309 -0.02734,0 -0.05898,0.0168 -0.09487,0.0511 -0.140125,0.13671 -0.29713,0.23586 -0.471432,0.29738 -0.05882,0.0209 -0.117493,0.0369 -0.175706,0.0507 -0.132916,-0.0658 -0.277299,-0.10272 -0.436786,-0.10272 -0.11237,0 -0.22321,0.0197 -0.332437,0.0565 -0.101648,-0.0446 -0.194417,-0.10397 -0.275105,-0.18395 -0.107844,-0.10683 -0.180121,-0.23264 -0.224375,-0.37327 z m 3.884065,0.37492 c 0.01285,0.0312 0.03726,0.0658 0.08456,0.10683 0.109365,0.094 0.230493,0.17271 0.363783,0.23593 0.133917,0.0644 0.271967,0.10435 0.413689,0.12292 -0.106136,0.11942 -0.162505,0.25482 -0.162505,0.40874 v 0.32585 h -0.466483 c -0.05126,0 -0.08791,0.01 -0.110126,0.0309 -0.02221,0.0205 -0.03341,0.046 -0.03341,0.0767 0,0.0325 0.01122,0.0587 0.03341,0.0792 0.02222,0.0204 0.05887,0.0309 0.110126,0.0309 h 0.466483 v 1.78675 h -0.520102 c -0.05018,0 -0.08613,0.01 -0.10848,0.03 -0.0012,-8.5e-4 -0.0016,-0.002 -0.0029,-0.002 -0.04836,-0.0294 -0.102758,-0.0515 -0.163332,-0.0661 0.155974,-0.21021 0.235098,-0.44084 0.235098,-0.69209 0,-0.28027 -0.08913,-0.51519 -0.266857,-0.70489 -0.17772,-0.19138 -0.380618,-0.28707 -0.609604,-0.28707 -0.172594,0 -0.329599,0.047 -0.471433,0.14107 -0.140126,0.094 -0.2771,0.23945 -0.410391,0.43596 -0.01022,-0.11967 -0.01526,-0.20757 -0.01526,-0.26397 0,-0.39473 0.136562,-0.73503 0.409978,-1.02041 0.124858,-0.13028 0.25583,-0.22951 0.392654,-0.30067 0.01872,0.001 0.03711,0.004 0.0561,0.004 0.184137,0 0.342234,-0.045 0.475146,-0.13321 0.09874,0.001 0.182693,0.0174 0.249946,0.0504 0.03075,0.0171 0.05739,0.0251 0.07961,0.0251 0.02905,0 0.05297,-0.009 0.07177,-0.0281 0.0188,-0.0204 0.02805,-0.046 0.02805,-0.0767 0,-0.0428 -0.02044,-0.077 -0.06146,-0.10272 -0.04836,-0.0294 -0.102757,-0.0511 -0.163331,-0.0656 0.03573,-0.0481 0.06773,-0.0974 0.09528,-0.14766 z m -0.744477,1.69765 c 0.172594,0 0.327301,0.0733 0.464009,0.22025 0.136708,0.14697 0.204988,0.33255 0.204988,0.5564 0,0.23925 -0.06828,0.43366 -0.204988,0.58404 -0.03139,0.0345 -0.06455,0.0647 -0.09899,0.0911 -0.175359,0.01 -0.340688,0.05 -0.495355,0.12254 -0.145976,-0.0205 -0.276291,-0.0827 -0.389768,-0.19056 -0.138417,-0.1333 -0.240279,-0.35551 -0.305215,-0.66654 0.128164,-0.24265 0.243517,-0.41043 0.346048,-0.50442 0.153796,-0.14183 0.313512,-0.21282 0.479269,-0.21282 z m 4.072143,0 c 0.172594,0 0.327301,0.0733 0.464009,0.22025 0.136708,0.14697 0.204989,0.33255 0.204989,0.5564 0,0.23925 -0.06828,0.43366 -0.204989,0.58404 -0.03139,0.0345 -0.06455,0.0647 -0.09899,0.0911 -0.175295,0.01 -0.340739,0.05 -0.495355,0.12254 -0.145976,-0.0205 -0.27629,-0.0827 -0.389768,-0.19056 -0.138417,-0.1333 -0.240279,-0.35551 -0.305214,-0.66654 0.128163,-0.24265 0.243516,-0.41043 0.346047,-0.50442 0.153796,-0.14183 0.313512,-0.21282 0.47927,-0.21282 z m 4.072143,0 c 0.172594,0 0.327301,0.0733 0.464009,0.22025 0.136708,0.14697 0.204989,0.33255 0.204989,0.5564 0,0.23925 -0.06828,0.43366 -0.204989,0.58404 -0.03139,0.0345 -0.06455,0.0647 -0.09899,0.0911 -0.175177,0.01 -0.34083,0.0501 -0.495356,0.12254 -0.145976,-0.0205 -0.276702,-0.0827 -0.39018,-0.19056 -0.138417,-0.1333 -0.239866,-0.35551 -0.304801,-0.66654 0.128163,-0.24265 0.243516,-0.41043 0.346047,-0.50442 0.153796,-0.14183 0.313512,-0.21282 0.479269,-0.21282 z m -9.575495,1.2782 c -0.03246,0 -0.0591,0.0112 -0.07961,0.0334 -0.02051,0.0222 -0.03052,0.0588 -0.03052,0.11007 v 0.0845 h -1.598254 v 0.21573 h 0.06269 v 1.22952 c 0,0.0376 0.0092,0.0669 0.02805,0.0874 0.0188,0.0204 0.04348,0.0306 0.07424,0.0306 0.02222,0 0.06122,-0.0135 0.115897,-0.0408 0.223859,-0.11793 0.447613,-0.17694 0.671473,-0.17694 0.218733,0 0.398891,0.0745 0.540725,0.22314 0.141835,0.14695 0.212826,0.3418 0.212826,0.58445 0,0.28537 -0.08219,0.51455 -0.246235,0.68714 -0.102172,0.10646 -0.223266,0.17565 -0.359245,0.21571 h 0.44916 c 0.02264,-0.0199 0.04489,-0.0405 0.06641,-0.0627 0.205062,-0.2119 0.307689,-0.48889 0.307689,-0.83068 0,-0.30931 -0.09144,-0.5585 -0.27428,-0.74819 -0.181138,-0.18967 -0.406837,-0.28458 -0.676834,-0.28458 -0.104242,0 -0.214585,0.0135 -0.330788,0.0408 -0.116196,0.0256 -0.236915,0.0651 -0.36337,0.11793 v -1.05341 h 1.286439 c 0.03882,0 0.06652,-0.009 0.08868,-0.0198 h 0.162506 v -0.29986 c 0,-0.0512 -0.01,-0.0879 -0.03052,-0.11008 -0.02051,-0.0222 -0.04637,-0.0334 -0.07713,-0.0334 z m 1.875833,0.38812 v 4.1e-4 c 0.09874,0.001 0.182693,0.0171 0.249946,0.0499 0.03075,0.0171 0.05739,0.0256 0.07961,0.0256 0.02905,0 0.05297,-0.009 0.07177,-0.0281 0.0011,-0.001 0.0015,-0.002 0.0025,-0.004 0.02041,0.007 0.04439,0.0125 0.07548,0.0125 h 1.339237 c 0.02248,0.0112 0.05105,0.0198 0.09115,0.0198 h 0.287068 v 1.21509 c -0.256328,-0.34177 -0.572695,-0.51268 -0.948642,-0.51268 -0.196518,0 -0.384805,0.0521 -0.564235,0.15633 -0.17772,0.10421 -0.318523,0.2524 -0.422763,0.44379 -0.01776,0.0329 -0.0315,0.0661 -0.0462,0.0993 -0.01441,-0.0177 -0.02625,-0.0368 -0.04207,-0.0536 -0.17772,-0.19139 -0.380618,-0.28707 -0.609604,-0.28707 -0.172594,0 -0.3296,0.047 -0.471434,0.14107 -0.140126,0.094 -0.277099,0.23903 -0.410391,0.43555 -0.01022,-0.11967 -0.01526,-0.20759 -0.01526,-0.26398 0,-0.39474 0.136563,-0.7346 0.409979,-1.01999 0.12497,-0.13041 0.256109,-0.22951 0.393067,-0.30068 0.0186,0.001 0.03684,0.004 0.05569,0.004 0.18415,0 0.342227,-0.0446 0.475146,-0.13281 z m 5.209687,0.0561 h 0.527115 c 0.07082,0.0314 0.137679,0.0748 0.198801,0.13281 0.134999,0.12474 0.247641,0.36046 0.338211,0.70735 -0.105949,0.19824 -0.186955,0.33403 -0.243346,0.4075 -0.08715,0.10933 -0.18053,0.19113 -0.279643,0.24582 -0.09741,0.0547 -0.196557,0.0825 -0.297379,0.0825 -0.174303,0 -0.330954,-0.0764 -0.46937,-0.22852 -0.138417,-0.15378 -0.207464,-0.34743 -0.207464,-0.58155 0,-0.24095 0.06905,-0.43847 0.207464,-0.59228 0.06954,-0.0773 0.14486,-0.13519 0.225611,-0.17364 z m -8.793899,2.52379 v 0.27717 c 0.0175,0.0127 0.03393,0.0267 0.05197,0.0388 h 0.493293 c -0.191964,-0.0524 -0.373628,-0.15715 -0.545261,-0.31594 z m 8.258536,0.27841 c -0.02905,0 -0.05374,0.01 -0.07425,0.0309 -0.0021,0.001 -0.003,0.004 -0.005,0.006 h 0.195501 c -0.0086,-0.004 -0.01851,-0.005 -0.02682,-0.009 -0.03931,-0.0188 -0.069,-0.0284 -0.08951,-0.0284 z"
         id="path6404"
         inkscape:connector-curvature="0" />
      <rect
         style="opacity:1;fill:#bdbdbd;fill-opacity:1;stroke:none;stroke-width:1.32291651;stroke-linecap:round;stroke-linejoin:round;stroke-miterlimit:4;stroke-dasharray:none;stroke-dashoffset:35.4368515;stroke-opacity:1;paint-order:normal"
         id="rect6402"
         width="12.159218"
         height="11.942088"
         x="14.557888"
         y="226.47058" />
      <path
         style="opacity:1;fill:#000000;fill-opacity:1;stroke:none;stroke-width:1.32291651;stroke-linecap:round;stroke-linejoin:round;stroke-miterlimit:4;stroke-dasharray:none;stroke-dashoffset:35.4368515;stroke-opacity:1;paint-order:normal"
         d="m 20.382003,228.73819 c -1.198479,0 -2.175535,0.97705 -2.175535,2.17553 v 0.39563 H 17.77427 c -0.148842,0 -0.268461,0.11961 -0.268461,0.26846 v 0.8324 c -0.207758,0.0543 -0.361135,0.24062 -0.361135,0.46585 0,0.22527 0.153333,0.41202 0.361135,0.46628 v 0.0349 c -0.207802,0.0543 -0.361135,0.24101 -0.361135,0.46628 0,0.22522 0.153377,0.41157 0.361135,0.46585 v 0.0353 c -0.207758,0.0543 -0.361135,0.24063 -0.361135,0.46586 0,0.22526 0.153333,0.41202 0.361135,0.46628 v 0.59967 c 0,0.14884 0.119619,0.26887 0.268461,0.26887 h 5.726207 c 0.148842,0 0.268461,-0.12003 0.268461,-0.26887 v -0.59967 c 0.02244,-0.006 0.04505,-0.0115 0.06608,-0.0204 0.173689,-0.0732 0.295059,-0.24497 0.295059,-0.4459 0,-0.22524 -0.153377,-0.41158 -0.361135,-0.46587 v -0.0353 c 0.207758,-0.0543 0.361135,-0.24063 0.361135,-0.46586 0,-0.22527 -0.153333,-0.41202 -0.361135,-0.46628 v -0.0349 c 0.207802,-0.0543 0.361135,-0.241 0.361135,-0.46627 0,-0.22524 -0.153377,-0.41158 -0.361135,-0.46586 v -0.8324 c 0,-0.14884 -0.119619,-0.26846 -0.268462,-0.26846 h -0.432614 v -0.39563 c 0,-1.19848 -0.977056,-2.17553 -2.175534,-2.17553 z m 0,0.84984 h 0.510326 c 0.741692,0 1.325684,0.584 1.325684,1.32569 v 0.39563 h -3.160032 v -0.39563 c 0,-0.74169 0.582329,-1.32569 1.324022,-1.32569 z"
         id="path6406"
         inkscape:connector-curvature="0" />
    </g>
    <g
       transform="translate(23.146164,-27.127851)"
       id="g4571">
      <rect
         y="226.47058"
         x="14.557888"
         height="11.942088"
         width="12.159218"
         id="rect4567"
         style="opacity:1;fill:#bdbdbd;fill-opacity:1;stroke:none;stroke-width:1.32291651;stroke-linecap:round;stroke-linejoin:round;stroke-miterlimit:4;stroke-dasharray:none;stroke-dashoffset:35.4368515;stroke-opacity:1;paint-order:normal" />
      <path
         inkscape:connector-curvature="0"
         id="path4569"
         d="m 20.382003,228.73819 c -1.198479,0 -2.175535,0.97705 -2.175535,2.17553 v 0.39563 H 17.77427 c -0.148842,0 -0.268461,0.11961 -0.268461,0.26846 v 0.8324 c -0.207758,0.0543 -0.361135,0.24062 -0.361135,0.46585 0,0.22527 0.153333,0.41202 0.361135,0.46628 v 0.0349 c -0.207802,0.0543 -0.361135,0.24101 -0.361135,0.46628 0,0.22522 0.153377,0.41157 0.361135,0.46585 v 0.0353 c -0.207758,0.0543 -0.361135,0.24063 -0.361135,0.46586 0,0.22526 0.153333,0.41202 0.361135,0.46628 v 0.59967 c 0,0.14884 0.119619,0.26887 0.268461,0.26887 h 5.726207 c 0.148842,0 0.268461,-0.12003 0.268461,-0.26887 v -0.59967 c 0.02244,-0.006 0.04505,-0.0115 0.06608,-0.0204 0.173689,-0.0732 0.295059,-0.24497 0.295059,-0.4459 0,-0.22524 -0.153377,-0.41158 -0.361135,-0.46587 v -0.0353 c 0.207758,-0.0543 0.361135,-0.24063 0.361135,-0.46586 0,-0.22527 -0.153333,-0.41202 -0.361135,-0.46628 v -0.0349 c 0.207802,-0.0543 0.361135,-0.241 0.361135,-0.46627 0,-0.22524 -0.153377,-0.41158 -0.361135,-0.46586 v -0.8324 c 0,-0.14884 -0.119619,-0.26846 -0.268462,-0.26846 h -0.432614 v -0.39563 c 0,-1.19848 -0.977056,-2.17553 -2.175534,-2.17553 z m 0,0.84984 h 0.510326 c 0.741692,0 1.325684,0.584 1.325684,1.32569 v 0.39563 h -3.160032 v -0.39563 c 0,-0.74169 0.582329,-1.32569 1.324022,-1.32569 z"
         style="opacity:1;fill:#000000;fill-opacity:1;stroke:none;stroke-width:1.32291651;stroke-linecap:round;stroke-linejoin:round;stroke-miterlimit:4;stroke-dasharray:none;stroke-dashoffset:35.4368515;stroke-opacity:1;paint-order:normal" />
    </g>
  </g>
</svg>
