<?xml version="1.0" encoding="UTF-8" standalone="no"?>
<!-- Created with Inkscape (http://www.inkscape.org/) -->

<svg
   xmlns:dc="http://purl.org/dc/elements/1.1/"
   xmlns:cc="http://creativecommons.org/ns#"
   xmlns:rdf="http://www.w3.org/1999/02/22-rdf-syntax-ns#"
   xmlns:svg="http://www.w3.org/2000/svg"
   xmlns="http://www.w3.org/2000/svg"
   xmlns:sodipodi="http://sodipodi.sourceforge.net/DTD/sodipodi-0.dtd"
   xmlns:inkscape="http://www.inkscape.org/namespaces/inkscape"
   width="210mm"
   height="297mm"
   viewBox="0 0 210 297"
   version="1.1"
   id="svg4966"
   inkscape:version="0.92.1 r"
   sodipodi:docname="cover.svg">
  <defs
     id="defs4960">
    <marker
       inkscape:stockid="TriangleInM"
       orient="auto"
       refY="0"
       refX="0"
       id="TriangleInM"
       style="overflow:visible"
       inkscape:isstock="true"
       inkscape:collect="always">
      <path
         id="path5115"
         d="M 5.77,0 -2.88,5 V -5 Z"
         style="fill:#ffffff;fill-opacity:1;fill-rule:evenodd;stroke:#ffffff;stroke-width:1.00000003pt;stroke-opacity:1"
         transform="scale(-0.4)"
         inkscape:connector-curvature="0" />
    </marker>
    <marker
       inkscape:isstock="true"
       style="overflow:visible"
       id="marker5247"
       refX="0"
       refY="0"
       orient="auto"
       inkscape:stockid="TriangleInM"
       inkscape:collect="always">
      <path
         transform="scale(-0.4)"
         style="fill:#ffffff;fill-opacity:1;fill-rule:evenodd;stroke:#ffffff;stroke-width:1.00000003pt;stroke-opacity:1"
         d="M 5.77,0 -2.88,5 V -5 Z"
         id="path5245"
         inkscape:connector-curvature="0" />
    </marker>
    <marker
       inkscape:stockid="TriangleInM"
       orient="auto"
       refY="0"
       refX="0"
       id="marker5253"
       style="overflow:visible"
       inkscape:isstock="true"
       inkscape:collect="always">
      <path
         id="path5251"
         d="M 5.77,0 -2.88,5 V -5 Z"
         style="fill:#ffffff;fill-opacity:1;fill-rule:evenodd;stroke:#ffffff;stroke-width:1.00000003pt;stroke-opacity:1"
         transform="scale(-0.4)"
         inkscape:connector-curvature="0" />
    </marker>
    <marker
       inkscape:isstock="true"
       style="overflow:visible"
       id="marker5259"
       refX="0"
       refY="0"
       orient="auto"
       inkscape:stockid="TriangleInM">
      <path
         transform="scale(-0.4)"
         style="fill:#ffffff;fill-opacity:1;fill-rule:evenodd;stroke:#ffffff;stroke-width:1.00000003pt;stroke-opacity:1"
         d="M 5.77,0 -2.88,5 V -5 Z"
         id="path5257"
         inkscape:connector-curvature="0" />
    </marker>
    <marker
       inkscape:isstock="true"
       style="overflow:visible"
       id="marker5290"
       refX="0"
       refY="0"
       orient="auto"
       inkscape:stockid="TriangleInM">
      <path
         transform="scale(-0.4)"
         style="fill:#ffffff;fill-opacity:1;fill-rule:evenodd;stroke:#ffffff;stroke-width:1.00000003pt;stroke-opacity:1"
         d="M 5.77,0 -2.88,5 V -5 Z"
         id="path5288"
         inkscape:connector-curvature="0" />
    </marker>
  </defs>
  <sodipodi:namedview
     id="base"
     pagecolor="#ffffff"
     bordercolor="#666666"
     borderopacity="1.0"
     inkscape:pageopacity="0.0"
     inkscape:pageshadow="2"
     inkscape:zoom="0.49497475"
     inkscape:cx="397.44115"
     inkscape:cy="821.36188"
     inkscape:document-units="mm"
     inkscape:current-layer="g6220"
     showgrid="false"
     inkscape:pagecheckerboard="true"
     inkscape:snap-page="true"
     inkscape:window-width="1916"
     inkscape:window-height="1040"
     inkscape:window-x="0"
     inkscape:window-y="38"
     inkscape:window-maximized="0" />
  <metadata
     id="metadata4963">
    <rdf:RDF>
      <cc:Work
         rdf:about="">
        <dc:format>image/svg+xml</dc:format>
        <dc:type
           rdf:resource="http://purl.org/dc/dcmitype/StillImage" />
        <dc:title></dc:title>
      </cc:Work>
    </rdf:RDF>
  </metadata>
  <g
     inkscape:label="Layer 1"
     inkscape:groupmode="layer"
     id="layer1">
    <rect
       style="display:inline;opacity:1;fill:#039be5;fill-opacity:1;stroke:none;stroke-width:0.17648767;stroke-linecap:round;stroke-linejoin:round;stroke-miterlimit:4;stroke-dasharray:none;stroke-dashoffset:0;stroke-opacity:1"
       id="rect10"
       width="210"
       height="296.99997"
       x="0"
       y="-4.5801468e-08"
       ry="1.4072547e-06" />
    <g
       id="g6178"
       transform="matrix(0.68920471,0,0,0.68920471,4.0790578,256.25935)">
      <path
         style="display:inline;fill:none;fill-rule:evenodd;stroke:#fdd835;stroke-width:2.58800006;stroke-linecap:round;stroke-linejoin:miter;stroke-miterlimit:4;stroke-dasharray:none;stroke-opacity:1"
         d="m 104.8241,-78.420135 c 1.21941,17.418631 1.51831,22.843011 9.20927,29.569521"
         id="path4567"
         inkscape:connector-curvature="0"
         sodipodi:nodetypes="cc" />
      <circle
         r="77.971191"
         cy="-47.467812"
         cx="106.27335"
         id="path4754"
         style="display:inline;opacity:1;fill:#29b6f6;fill-opacity:1;stroke:none;stroke-width:0.80830425;stroke-linecap:round;stroke-linejoin:round;stroke-miterlimit:4;stroke-dasharray:none;stroke-dashoffset:0;stroke-opacity:1" />
      <path
         inkscape:connector-curvature="0"
         id="path5817"
         d="m 62.574473,-118.44703 c -7.557759,0 -14.39374,0.61685 -19.47116,1.65416 -2.538714,0.51866 -4.629362,1.12735 -6.253882,1.91203 -0.812261,0.39234 -1.517994,0.82185 -2.120803,1.42369 -0.602805,0.60184 -1.142566,1.4934 -1.142566,2.543 0,1.04958 0.539761,1.93908 1.142566,2.54092 0.602809,0.60184 1.308542,1.03342 2.120803,1.42576 1.402204,0.6773 3.15329,1.22186 5.23844,1.69188 A 46.556948,46.556948 0 0 0 19.413285,-79.89228 H 16.60002 v 0.479041 c 0,2.119387 0.711396,4.065683 1.906344,5.61826 -2.038817,5.617382 -2.288149,9.976618 -1.767851,13.922148 0.362682,2.750291 1.0596,5.273958 1.734778,7.924583 -1.137671,2.26365 -2.749071,4.187507 -5.215702,6.34483 a 1.2941293,1.2941293 0 1 0 1.703255,1.947169 c 1.656091,-1.448425 3.003247,-2.877802 4.105692,-4.383712 -0.05846,2.857164 0.355157,5.908477 1.478463,9.209773 a 1.2945823,1.2945823 0 0 0 1.075387,0.867648 c -0.08381,0.35483 -0.167083,0.710409 -0.247531,1.068152 a 1.2942789,1.2942789 0 0 0 1.300179,1.576647 1.2941293,1.2941293 0 0 0 2.530078,0.456303 c 0.0692,-0.227897 0.137121,-0.439751 0.206189,-0.665076 a 1.2942789,1.2942789 0 0 0 0.557589,-0.799433 c 0.22146,-0.984819 0.426063,-1.967881 0.617533,-2.948657 2.086112,-6.520023 3.998203,-11.938134 5.181597,-16.752466 0.211392,4.977638 0.184857,10.086983 -0.301273,14.913303 -0.464471,1.700051 -1.053894,3.337406 -1.791107,4.90099 a 1.2948045,1.2948045 0 0 0 0.750858,1.776119 c -0.36648,1.666698 -0.808085,3.269316 -1.346171,4.778521 a 1.2941293,1.2941293 0 1 0 2.437061,0.869198 c 1.313395,-3.683764 2.11332,-7.773543 2.557468,-12.023039 0.303776,-1.150557 0.554741,-2.321267 0.754991,-3.511413 -0.124613,1.85955 -0.301286,3.707588 -0.538985,5.542296 a 1.2941293,1.2941293 0 1 0 2.56677,0.331764 c 0.852766,-6.582201 0.945521,-13.275641 0.633035,-20.019968 0.290536,1.587453 0.610618,3.194302 0.95033,4.807977 -0.123645,2.784684 -0.12079,5.560465 0.05788,8.321455 -0.266552,0.943671 -0.55516,1.929667 -0.871781,2.972427 a 1.2941293,1.2941293 0 0 0 1.350303,1.671733 c 0.0853,0.594119 0.177552,1.187442 0.282671,1.779738 a 1.2941293,1.2941293 0 0 0 2.574004,-0.177252 c 1.214509,4.964422 2.316347,9.483579 2.911967,12.839527 a 1.2941293,1.2941293 0 1 0 2.54713,-0.453201 c -0.157085,-0.885093 -0.347712,-1.841543 -0.560173,-2.846856 a 1.2941293,1.2941293 0 0 0 0.390157,-0.953948 c -0.02958,-2.045893 -0.145232,-4.04356 -0.315224,-6.00325 a 1.2946205,1.2946205 0 0 0 1.866035,-0.975135 c 0.201885,-1.442394 0.359719,-2.887199 0.483174,-4.333584 0.132149,0.451239 0.261345,0.900967 0.389125,1.345137 -0.584364,7.152052 -1.67127,13.967502 -3.253033,18.853629 a 1.2942999,1.2942999 0 1 0 2.4629,0.796851 c 1.270153,-3.923553 2.206342,-8.83493 2.843236,-14.118001 a 1.2941293,1.2941293 0 0 0 1.423686,-0.374139 c 0.470223,2.295165 1.159346,4.217821 2.281515,5.651336 -0.24598,1.678966 -0.523507,3.223522 -0.837676,4.581115 a 1.2941293,1.2941293 0 0 0 0.775147,1.497067 c -0.191082,0.635238 -0.366082,1.20487 -0.515215,1.674316 a 1.2941293,1.2941293 0 1 0 2.466517,0.783415 c 0.577443,-1.817705 1.476576,-4.846226 2.49804,-8.638749 a 1.2941293,1.2941293 0 0 0 1.668113,-1.400431 c -0.144497,-1.226648 -0.27237,-2.389317 -0.392223,-3.522782 0.48891,-1.948913 0.982705,-4.009985 1.471229,-6.15828 0.16501,0.575339 0.330829,1.132223 0.497128,1.655712 a 1.2941293,1.2941293 0 0 0 0.594278,0.74104 c -0.259464,0.969457 -0.52196,1.871811 -0.783931,2.696477 a 1.2941293,1.2941293 0 1 0 2.464964,0.783413 c 0.521435,-1.641422 1.039434,-3.551508 1.531172,-5.705078 0.146887,0.601271 0.291386,1.182129 0.437185,1.763202 -0.119925,1.134247 -0.247619,2.298311 -0.392224,3.525882 a 1.2941293,1.2941293 0 0 0 1.669664,1.400948 c 0.45267,1.680289 0.874813,3.181643 1.261938,4.522205 0.365233,3.458472 0.839684,6.593186 1.439706,9.186001 a 1.2941293,1.2941293 0 1 0 2.521294,-0.583944 c -0.263996,-1.140776 -0.502142,-2.411219 -0.717785,-3.783231 a 1.2941293,1.2941293 0 0 0 0.457853,-1.486214 c -0.293415,-0.923621 -0.678513,-2.202712 -1.120346,-3.735689 -0.113578,-1.113679 -0.216657,-2.262322 -0.30851,-3.44475 a 1.2941293,1.2941293 0 0 0 0.780833,-0.479558 c 0.03333,-0.04129 0.06456,-0.085 0.09715,-0.127124 -0.122597,0.544496 -0.243739,1.085019 -0.378788,1.654162 a 1.2941293,1.2941293 0 0 0 2.43396,0.853178 1.2941293,1.2941293 0 0 0 2.44688,-0.255281 c 0.06149,-0.259048 0.128479,-0.523483 0.194302,-0.786516 0.508664,2.705724 1.114327,5.213416 1.825213,7.409367 a 1.2942987,1.2942987 0 0 0 1.807641,0.759643 c -0.125241,0.622163 -0.243372,1.228042 -0.344681,1.798857 a 1.2941293,1.2941293 0 1 0 2.547131,0.453202 c 0.596733,-3.362251 1.702437,-7.891817 2.920235,-12.86743 a 1.2943963,1.2943963 0 0 0 2.567802,0.205155 c 0.605613,-3.412286 0.872686,-6.855841 0.902788,-10.318234 a 1.2941293,1.2941293 0 0 0 0.712099,-0.759643 c 0.0539,3.877779 0.291248,7.730146 0.785482,11.54503 a 1.2941293,1.2941293 0 1 0 2.566771,-0.332279 c -0.651444,-5.028324 -0.844598,-10.156658 -0.748792,-15.352033 0.135337,0.995823 0.305821,1.978499 0.508494,2.948657 -0.05532,7.82859 0.652066,15.767185 3.015322,22.395531 a 1.2941293,1.2941293 0 1 0 2.437577,-0.869197 c -1.419744,-3.982027 -2.197508,-8.58995 -2.5585,-13.41882 a 1.2948045,1.2948045 0 0 0 1.961121,-1.577163 c -0.982147,-2.083078 -1.704771,-4.29559 -2.213819,-6.615618 0.03075,-3.918484 0.250566,-7.828505 0.547253,-11.546581 0.616662,2.278301 1.374484,4.695587 2.218987,7.299296 0.284429,1.196986 0.598585,2.396654 0.928108,3.599262 0.285624,5.133174 1.043884,10.334064 2.226214,15.591814 a 1.2942784,1.2942784 0 0 0 2.29702,0.491958 1.2942784,1.2942784 0 0 0 2.29702,-1.0604 c -0.46312,-2.059442 -0.9876,-4.065 -1.53066,-6.034772 a 1.2941293,1.2941293 0 0 0 0.17674,-1.124995 c -1.02743,-3.383722 -2.01136,-6.396146 -2.94401,-9.245949 -0.21092,-5.210231 0.0915,-10.33013 0.95705,-15.355652 0.49125,1.177441 0.95854,2.354013 1.36994,3.540871 1.77437,5.118968 2.61108,10.364245 0.34985,17.009813 a 1.2941293,1.2941293 0 0 0 0.67438,1.626257 c -0.0276,0.258492 -0.055,0.499393 -0.0827,0.767913 a 1.2941293,1.2941293 0 1 0 2.574,0.266134 c 0.4418,-4.286322 0.87904,-7.338174 1.09399,-10.589535 1.03765,1.343583 2.28157,2.631948 3.77341,3.936711 a 1.2941293,1.2941293 0 1 0 1.70326,-1.947169 c -2.55797,-2.237195 -4.1996,-4.220927 -5.34335,-6.595462 -0.0333,-3.895905 -0.42848,-8.740235 -1.43764,-16.14992 1.86708,-1.6823 3.03806,-4.120867 3.03806,-6.843509 v -0.479041 h -4.55734 a 46.556948,46.556948 0 0 0 -22.892641,-25.5111 c 1.809028,-0.43612 3.350302,-0.93635 4.608505,-1.54409 0.812257,-0.39234 1.518509,-0.82392 2.121315,-1.42576 0.602808,-0.60184 1.1405,-1.49134 1.1405,-2.54092 0,-1.0496 -0.537692,-1.94116 -1.1405,-2.543 -0.602806,-0.60184 -1.309058,-1.03135 -2.121315,-1.42369 -1.624524,-0.78468 -3.715174,-1.39337 -6.253882,-1.91203 -5.077423,-1.03731 -11.914437,-1.65416 -19.472199,-1.65416 z m 0,4.04678 c 7.334282,0 13.980131,0.61758 18.661912,1.57407 2.340888,0.47824 4.198091,1.05662 5.302517,1.59008 0.27573,0.13319 0.338244,0.20884 0.510048,0.32195 -0.171749,0.11302 -0.234556,0.18732 -0.510048,0.32039 -1.104426,0.53346 -2.961629,1.11338 -5.302517,1.59163 -1.410724,0.28821 -3.002634,0.54493 -4.735113,0.76378 a 46.556948,46.556948 0 0 0 -13.477729,-2.07274 46.556948,46.556948 0 0 0 -13.867371,2.13475 c -1.929807,-0.23177 -3.694943,-0.50971 -5.242057,-0.82579 -2.34089,-0.47825 -4.20016,-1.05817 -5.304586,-1.59163 -0.27549,-0.13307 -0.338296,-0.20737 -0.510045,-0.32039 0.171801,-0.11311 0.234317,-0.18876 0.510045,-0.32195 1.104426,-0.53346 2.963696,-1.11184 5.304586,-1.59008 4.681781,-0.95649 11.326079,-1.57407 18.660358,-1.57407 z m -42.019139,42.555542 c 0.393641,0.272928 0.808444,0.517369 1.243852,0.727085 -0.467052,6.504797 -0.877826,11.21864 -1.749247,14.756207 -0.307256,-1.290405 -0.575246,-2.560775 -0.745174,-3.849378 -0.443103,-3.36014 -0.321177,-6.92009 1.250569,-11.633914 z m 3.783232,1.519285 c 0.02251,0.0036 0.04462,0.0085 0.06718,0.01189 0.193322,0.977633 0.3669,1.958695 0.517281,2.94349 -0.322492,0.795287 -0.659624,1.590966 -1.001489,2.388484 0.143609,-1.604323 0.280989,-3.443484 0.417029,-5.343861 z m 9.523967,0.116789 h 0.139526 c 0.0798,0.806051 0.157472,1.61157 0.230994,2.415874 -0.118409,-0.803685 -0.24289,-1.609291 -0.37052,-2.415874 z m 10.12548,0 h 1.723409 c 0.05933,0.635141 0.120806,1.272802 0.1788,1.907379 -1.005893,3.413059 -1.046824,7.126359 -0.558107,10.844297 0.336103,2.55691 0.90719,5.146471 1.570963,7.707024 -0.01399,3.168743 -0.159766,6.318009 -0.492992,9.442318 -1.273099,-10.542786 -3.674978,-20.058729 -2.422073,-29.901018 z m 7.374742,0 h 1.557528 c -0.31241,1.794092 -0.594482,3.494961 -0.831474,5.075659 -0.190477,-1.842397 -0.432552,-3.544224 -0.726054,-5.075659 z m 4.181657,0 h 0.817521 c 0.637606,10.701068 0.591132,24.92492 -0.474388,35.715133 -0.104031,-0.368276 -0.199059,-0.763889 -0.289388,-1.173054 a 1.2941293,1.2941293 0 0 0 0.05633,-0.819589 c -0.216717,-0.913318 -0.415903,-1.790129 -0.600482,-2.642732 -0.271568,-2.515966 -0.381482,-5.429102 -0.380339,-8.591725 0.0025,-6.806263 0.501685,-14.73327 0.846461,-22.355225 0.0075,-0.04239 0.01676,-0.09027 0.02429,-0.132808 z m 8.62738,0 h 0.04858 c -0.0052,0.146424 -0.0086,0.290463 -0.01447,0.437701 -0.01285,-0.147349 -0.02195,-0.291047 -0.03411,-0.437701 z m 14.824935,0 h 1.229384 c -0.04639,0.485574 -0.092,0.970606 -0.138494,1.456243 -0.331094,-0.497927 -0.695505,-0.983125 -1.09089,-1.456243 z m 3.832841,0 h 1.652096 c 0.292325,9.460715 -2.192227,18.798635 -3.123325,29.238009 -0.07403,-1.515343 -0.111733,-3.035938 -0.118337,-4.560962 0.663543,-2.559883 1.234435,-5.148733 1.570447,-7.704955 0.488509,-3.716401 0.448123,-7.427753 -0.556556,-10.839648 0.186547,-2.04025 0.382154,-4.086063 0.575675,-6.132444 z m 5.831687,0 h 0.83044 c 0.197868,3.082449 -0.0828,6.845748 -0.660427,10.93215 -0.328104,-2.635816 -0.711441,-5.272186 -1.11311,-7.904427 0.233564,-1.015254 0.551908,-2.006926 0.943097,-3.027723 z m 9.298138,0 h 0.416512 c -0.239344,0.991818 -0.429037,1.979004 -0.566888,2.961577 -0.02616,-0.382138 -0.04389,-0.760341 -0.05116,-1.133263 0.06818,-0.617472 0.134416,-1.218473 0.201536,-1.828314 z m -22.551078,0.0093 c 0.233374,0.203629 0.454777,0.411263 0.669727,0.621149 -0.168294,1.583434 -0.298945,3.266178 -0.39274,5.027084 -0.08813,-1.876425 -0.183655,-3.764852 -0.276987,-5.648233 z m 25.607745,0.0894 c 0.20329,0.494983 0.40852,0.988706 0.61701,1.477947 -0.64453,2.815383 -1.11094,5.658427 -1.4087,8.52661 -0.262602,-3.345206 -0.0847,-6.661795 0.79169,-10.004557 z m -34.209804,0.08423 c 0.121918,0.678881 0.242898,1.360366 0.35967,2.053103 -0.108869,4.87494 -0.392261,9.299247 -0.799952,13.255522 -0.225812,-1.200899 -0.441492,-2.406587 -0.645957,-3.612698 0.567357,-4.042264 0.960702,-8.01076 1.086239,-11.695927 z m 5.197615,0.747757 c 0.45148,2.429301 0.843931,4.652532 1.177708,6.69675 0.163079,3.701648 0.286113,7.308054 0.287319,10.63966 0.0014,3.931232 -0.16457,7.488439 -0.605647,10.359573 -0.270549,1.761119 -0.66072,3.253047 -1.131197,4.40645 -0.604562,-10.757728 -0.433078,-23.176124 0.271817,-32.102433 z m -23.10608,0.05943 c 0.886656,5.101124 1.300525,12.525213 1.104326,20.218402 -0.0058,0.226698 -0.0149,0.454909 -0.02171,0.68213 -0.16656,-0.597905 -0.327721,-1.196057 -0.48524,-1.79369 0.0095,-6.020432 -0.443421,-12.055321 -0.993222,-18.074864 0.118816,-0.348872 0.250624,-0.692883 0.395843,-1.031978 z m -20.88348,1.073835 c 0.04279,1.271569 0.0059,2.544524 -0.09457,3.821472 -0.09389,-0.905314 -0.203972,-1.80816 -0.331764,-2.708362 0.144915,-0.368933 0.287822,-0.739643 0.426332,-1.11311 z m 33.735925,5.18e-4 c 0.31565,3.217474 0.77485,6.547819 1.328599,9.875883 -0.208568,1.440852 -0.440684,2.892792 -0.688329,4.344953 -0.481433,-3.39588 -0.873932,-7.215177 -1.132231,-11.447881 0.163927,-0.918204 0.329856,-1.836592 0.491961,-2.772955 z m -22.917465,0.575157 c 0.28099,0.644636 0.536683,1.269661 0.764294,1.88309 -0.09891,0.730239 -0.193331,1.460352 -0.284221,2.190565 -0.198324,-1.401821 -0.358648,-2.761772 -0.480073,-4.073655 z m 39.605333,0.97927 c 0.496091,0.840595 0.893109,1.716456 1.202513,2.625162 -0.549299,6.017524 -1.001824,12.050768 -0.992188,18.069181 -0.03792,0.143878 -0.07465,0.287565 -0.113173,0.431499 -0.196656,-2.574063 -0.329181,-5.183407 -0.394808,-7.756634 -0.120256,-4.715335 -0.0088,-9.326065 0.297656,-13.369208 z m -52.914598,4.472594 c 0.239865,3.143178 0.272887,6.321927 0.114205,9.534302 -0.985017,3.619873 -2.126419,7.342979 -3.158463,11.226189 -0.294246,-1.08322 -0.506301,-2.129806 -0.644922,-3.145546 a 1.2944866,1.2944866 0 0 0 0.564307,-1.25367 c -0.186213,-1.342787 -0.422291,-2.598296 -0.680579,-3.794599 0.220001,-2.477574 0.825301,-4.814371 1.625741,-7.123597 0.632586,-1.824976 1.395714,-3.625622 2.179711,-5.443079 z m 65.129873,7.883239 c -0.117025,2.530575 -0.176302,5.053991 -0.159678,7.56698 -0.282676,-0.932479 -0.541034,-1.817463 -0.783416,-2.670119 -0.0015,-0.03478 -0.0031,-0.0696 -0.0047,-0.104386 0.338524,-1.608321 0.658111,-3.210161 0.947745,-4.792475 z m -4.865851,0.04444 c 0.334872,1.494279 0.745924,3.112863 1.241785,4.888074 -0.13466,0.635304 -0.271931,1.27118 -0.41238,1.90686 -0.960025,4.34513 -2.023848,8.648139 -3.006534,12.66331 0.1021,-6.780877 1.227071,-13.159092 2.177129,-19.458244 z m -25.837184,1.473295 c 0.325898,2.189163 0.685805,4.20827 1.069702,6.05803 -0.254793,1.239956 -0.516405,2.461884 -0.78238,3.667474 -0.254471,-3.83622 -0.332516,-7.009376 -0.287322,-9.725504 z m 4.529958,1.991093 c 0.26857,1.317871 0.545576,2.61716 0.827338,3.895886 -0.235132,1.406144 -0.483401,2.72958 -0.742074,3.970817 -0.302278,-1.142074 -0.598781,-2.392458 -0.885732,-3.732588 0.277458,-1.364396 0.545102,-2.745449 0.800468,-4.134115 z m -22.125265,0.75551 c 0.277436,1.839507 0.567142,3.686333 0.844909,5.547465 -0.361828,-1.500703 -0.719759,-3.020882 -1.072803,-4.553727 0.08065,-0.338786 0.154747,-0.667327 0.227894,-0.993738 z m 34.175175,10.685653 c 0.02345,0.196159 0.04755,0.391419 0.07183,0.586528 -0.132572,0.454327 -0.267485,0.918027 -0.396875,1.368391 0.119386,-0.661075 0.227026,-1.311252 0.325046,-1.954919 z m 6.922574,5.199681 c -0.66526,2.72225 -1.285978,5.296456 -1.794721,7.607289 -0.525214,-1.719976 -0.993296,-3.652713 -1.403533,-5.742286 a 1.2941293,1.2941293 0 0 0 1.796788,-1.212845 1.2941293,1.2941293 0 0 0 1.401466,-0.652158 z"
         style="color:#000000;font-style:normal;font-variant:normal;font-weight:normal;font-stretch:normal;font-size:medium;line-height:normal;font-family:sans-serif;font-variant-ligatures:normal;font-variant-position:normal;font-variant-caps:normal;font-variant-numeric:normal;font-variant-alternates:normal;font-feature-settings:normal;text-indent:0;text-align:start;text-decoration:none;text-decoration-line:none;text-decoration-style:solid;text-decoration-color:#000000;letter-spacing:normal;word-spacing:normal;text-transform:none;writing-mode:lr-tb;direction:ltr;text-orientation:mixed;dominant-baseline:auto;baseline-shift:baseline;text-anchor:start;white-space:normal;shape-padding:0;clip-rule:nonzero;display:inline;overflow:visible;visibility:visible;opacity:1;isolation:auto;mix-blend-mode:normal;color-interpolation:sRGB;color-interpolation-filters:linearRGB;solid-color:#000000;solid-opacity:1;vector-effect:none;fill:#29b6f6;fill-opacity:1;fill-rule:evenodd;stroke:#29b6f6;stroke-width:4;stroke-linecap:round;stroke-linejoin:miter;stroke-miterlimit:4;stroke-dasharray:none;stroke-dashoffset:0;stroke-opacity:1;color-rendering:auto;image-rendering:auto;shape-rendering:auto;text-rendering:auto;enable-background:accumulate" />
      <path
         inkscape:connector-curvature="0"
         id="path5524"
         d="m 133.99677,-32.300384 a 5.8512387,5.8512387 0 0 0 -5.85185,5.8508 5.8512387,5.8512387 0 0 0 0.55862,2.48151 c -2.81755,2.23901 -4.79674,5.5923 -5.52162,10.32339 -0.57258,2.63185 0.84516,4.6284497 3.61733,6.1164297 -1.42692,2.18213 -2.55606,4.28314 -3.54705,6.34638 -0.11023,0.22947001 -0.19013,0.46660001 -0.24133,0.70435001 l -1.8805,0.38137 a 1.2010875,1.2010875 0 0 0 -0.94155,-0.20464 1.2010875,1.2010875 0 0 0 -0.93948,1.41489999 1.2010875,1.2010875 0 0 0 1.41595,0.94052 1.2010875,1.2010875 0 0 0 0.83507,-0.64338 l 1.67072,-0.33796 c 0.0294,0.058 0.0617,0.11433 0.0971,0.1695 l -1.34305,1.84123 a 1.2010875,1.2010875 0 0 0 -0.83304,0.48473 1.2010875,1.2010875 0 0 0 0.26099,1.67793 1.2010875,1.2010875 0 0 0 1.67793,-0.26097 1.2010875,1.2010875 0 0 0 0.18293,-1.03818 l 1.32858,-1.82107 c 0.0741,0.0176 0.14846,0.0312 0.22326,0.0408 l 0.23357,1.49965 a 1.2010875,1.2010875 0 0 0 -0.31263,1.00614 1.2010875,1.2010875 0 0 0 1.372,1.00252 1.2010875,1.2010875 0 0 0 1.0015,-1.37304 1.2010875,1.2010875 0 0 0 -0.51935,-0.81183 l -0.26459,-1.69654 c 0.20929,-0.14706 0.39751,-0.33253 0.54984,-0.55759 0.0707,-0.32026999 0.15234,-0.63815999 0.24495,-0.95446999 0.39777,-0.0824 0.65132,-0.46751 0.57102,-0.86558 l -0.014,-0.0785 c -0.0228,-0.11144 -0.0713,-0.20976 -0.13539,-0.29456 0.67752,-1.76099001 1.67534,-3.46418001 2.89594,-5.12682001 11.14629,3.4075 32.58056,2.57068 47.08499,0.87437 1.93479,1.32467 3.82201,2.86453 5.6596,4.71702001 0.0415,0.37642 0.33168,0.667 0.694,0.71882 0.31752,0.33589 0.63368,0.6796 0.94826,1.03507999 0.21866,0.24706 0.48586,0.41154 0.77619,0.50385 l 0.23616,1.93579 a 1.3317192,1.3317192 0 0 0 -0.30747,1.02268 1.3317192,1.3317192 0 0 0 1.48156,1.16169 1.3317192,1.3317192 0 0 0 1.16324,-1.48312 1.3317192,1.3317192 0 0 0 -0.63873,-0.97927 l -0.22376,-1.84019 c 0.0707,-0.0353 0.13965,-0.0737 0.20723,-0.11524 l 1.90272,1.63194 a 1.3317192,1.3317192 0 0 0 0.46302,0.96273 1.3317192,1.3317192 0 0 0 1.8774,-0.14211 1.3317192,1.3317192 0 0 0 -0.1421,-1.8774 1.3317192,1.3317192 0 0 0 -1.13171,-0.29301 l -1.90325,-1.63245999 c 0.0225,-0.0784 0.0409,-0.15706 0.0543,-0.23667 l 1.69447,-0.12868 a 1.3317192,1.3317192 0 0 0 1.08521,0.43305 1.3317192,1.3317192 0 0 0 1.2273,-1.42937001 1.3317192,1.3317192 0 0 0 -1.42989,-1.22577 1.3317192,1.3317192 0 0 0 -0.94258,0.50282 l -1.97868,0.15089 c -0.13224,-0.23319 -0.29454,-0.45622 -0.48575,-0.66146 -1.36414,-1.4642 -2.92195,-2.8179 -4.62195,-4.09019 0.97985,-16.3134097 -27.39637,-22.0029997 -43.41337,-21.0400597 a 5.8512387,5.8512387 0 0 0 -5.72833,-4.69273 z"
         style="display:inline;opacity:1;fill:#29b6f6;fill-opacity:1;stroke:#29b6f6;stroke-width:4;stroke-linecap:round;stroke-linejoin:round;stroke-miterlimit:4;stroke-dasharray:none;stroke-dashoffset:0;stroke-opacity:1" />
      <path
         inkscape:connector-curvature="0"
         id="circle5261"
         d="M 103.77881,-14.879164 A 156.92711,84.925064 0 0 0 35.095829,-6.2452343 84.925064,84.925064 0 0 0 106.30518,32.440856 84.925064,84.925064 0 0 0 176.73301,-5.0791543 156.92711,84.925064 0 0 0 103.77881,-14.879164 Z"
         style="display:inline;opacity:1;fill:#78909c;fill-opacity:1;stroke:none;stroke-width:0.80830419;stroke-linecap:round;stroke-linejoin:round;stroke-miterlimit:4;stroke-dasharray:none;stroke-dashoffset:0;stroke-opacity:1" />
      <path
         sodipodi:nodetypes="cc"
         inkscape:connector-curvature="0"
         id="path4525"
         d="m 28.101389,-72.696028 c -2.78146,10.880964 -11.05482,19.565184 -6.33092,33.448304"
         style="display:inline;fill:none;fill-rule:evenodd;stroke:#fff176;stroke-width:2.58800006;stroke-linecap:round;stroke-linejoin:miter;stroke-miterlimit:4;stroke-dasharray:none;stroke-opacity:1" />
      <path
         style="display:inline;fill:none;fill-rule:evenodd;stroke:#fdd835;stroke-width:2.58800006;stroke-linecap:round;stroke-linejoin:miter;stroke-miterlimit:4;stroke-dasharray:none;stroke-opacity:1"
         d="m 62.583769,-76.600106 c 0.0206,17.453422 7.34449,43.752332 9.60189,50.858292"
         id="path4583"
         inkscape:connector-curvature="0"
         sodipodi:nodetypes="cc" />
      <path
         sodipodi:nodetypes="cc"
         inkscape:connector-curvature="0"
         id="path4541"
         d="m 70.940549,-71.95742 c -1.38334,14.001236 -1.33784,39.221416 1.47722,51.385866"
         style="display:inline;fill:none;fill-rule:evenodd;stroke:#fff176;stroke-width:2.58800006;stroke-linecap:round;stroke-linejoin:miter;stroke-miterlimit:4;stroke-dasharray:none;stroke-opacity:1" />
      <path
         style="display:inline;fill:none;fill-rule:evenodd;stroke:#fdd835;stroke-width:2.58800006;stroke-linecap:round;stroke-linejoin:miter;stroke-miterlimit:4;stroke-dasharray:none;stroke-opacity:1"
         d="m 46.439949,-76.283566 c 1.21409,12.954452 2.72476,25.935842 0.94962,38.618552"
         id="path4589"
         inkscape:connector-curvature="0"
         sodipodi:nodetypes="cc" />
      <path
         sodipodi:nodetypes="cc"
         inkscape:connector-curvature="0"
         id="path4547"
         d="m 85.607149,-72.379488 c 1.94217,12.655804 4.15414,25.347594 2.0048,37.457884"
         style="display:inline;fill:none;fill-rule:evenodd;stroke:#fff176;stroke-width:2.58800006;stroke-linecap:round;stroke-linejoin:miter;stroke-miterlimit:4;stroke-dasharray:none;stroke-opacity:1" />
      <path
         style="display:inline;fill:none;fill-rule:evenodd;stroke:#fff176;stroke-width:2.58800006;stroke-linecap:round;stroke-linejoin:miter;stroke-miterlimit:4;stroke-dasharray:none;stroke-opacity:1"
         d="m 100.0416,-71.429849 c -3.885751,12.883145 2.3156,25.032355 5.46571,39.040595"
         id="path4565"
         inkscape:connector-curvature="0"
         sodipodi:nodetypes="cc" />
      <path
         sodipodi:nodetypes="cc"
         inkscape:connector-curvature="0"
         id="path4523"
         d="m 23.318939,-74.199486 c -1.21944,17.418602 -1.51834,22.843002 -9.20927,29.569522"
         style="display:inline;fill:none;fill-rule:evenodd;stroke:#fff176;stroke-width:2.58800006;stroke-linecap:round;stroke-linejoin:miter;stroke-miterlimit:4;stroke-dasharray:none;stroke-opacity:1" />
      <path
         inkscape:connector-curvature="0"
         id="path4503"
         d="m 63.023659,-110.31102 a 46.556949,46.556949 0 0 0 -44.03997,31.600545 H 107.05269 A 46.556949,46.556949 0 0 0 63.023659,-110.31102 Z"
         style="display:inline;opacity:1;fill:#616161;fill-opacity:1;stroke:none;stroke-width:0.09983251;stroke-linecap:round;stroke-linejoin:round;stroke-miterlimit:4;stroke-dasharray:none;stroke-dashoffset:0;stroke-opacity:1" />
      <path
         style="display:inline;fill:none;fill-rule:evenodd;stroke:#fdd835;stroke-width:2.58800006;stroke-linecap:round;stroke-linejoin:miter;stroke-miterlimit:4;stroke-dasharray:none;stroke-opacity:1"
         d="m 100.04162,-76.916645 c 2.78149,10.880951 11.05482,19.565181 6.33093,33.448291"
         id="path4569"
         inkscape:connector-curvature="0"
         sodipodi:nodetypes="cc" />
      <path
         sodipodi:nodetypes="cc"
         inkscape:connector-curvature="0"
         id="path4527"
         d="m 32.321999,-71.64088 c 2.18688,13.172446 3.29065,25.868296 -1.47723,35.980676"
         style="display:inline;fill:none;fill-rule:evenodd;stroke:#fff176;stroke-width:2.58800006;stroke-linecap:round;stroke-linejoin:miter;stroke-miterlimit:4;stroke-dasharray:none;stroke-opacity:1" />
      <path
         style="display:inline;fill:none;fill-rule:evenodd;stroke:#fdd835;stroke-width:2.58800006;stroke-linecap:round;stroke-linejoin:miter;stroke-miterlimit:4;stroke-dasharray:none;stroke-opacity:1"
         d="m 95.821019,-75.861506 c -2.18689,13.172452 -3.29063,25.868322 1.47722,35.980672"
         id="path4571"
         inkscape:connector-curvature="0"
         sodipodi:nodetypes="cc" />
      <path
         sodipodi:nodetypes="cc"
         inkscape:connector-curvature="0"
         id="path4529"
         d="m 37.808789,-72.801549 c 4.61174,9.604205 6.5214,12.807895 1.05513,30.810415"
         style="display:inline;fill:none;fill-rule:evenodd;stroke:#fff176;stroke-width:2.58800006;stroke-linecap:round;stroke-linejoin:miter;stroke-miterlimit:4;stroke-dasharray:none;stroke-opacity:1" />
      <path
         style="display:inline;fill:none;fill-rule:evenodd;stroke:#fdd835;stroke-width:2.58800006;stroke-linecap:round;stroke-linejoin:miter;stroke-miterlimit:4;stroke-dasharray:none;stroke-opacity:1"
         d="m 90.334249,-77.022167 c -4.61177,9.604173 -6.5214,12.807883 -1.05516,30.810413"
         id="path4573"
         inkscape:connector-curvature="0"
         sodipodi:nodetypes="cc" />
      <path
         sodipodi:nodetypes="cc"
         inkscape:connector-curvature="0"
         id="path4531"
         d="m 43.084529,-72.801549 c -2.65549,14.102065 2.52249,27.032475 2.74341,42.311575"
         style="display:inline;fill:none;fill-rule:evenodd;stroke:#fff176;stroke-width:2.58800006;stroke-linecap:round;stroke-linejoin:miter;stroke-miterlimit:4;stroke-dasharray:none;stroke-opacity:1" />
      <path
         style="display:inline;fill:none;fill-rule:evenodd;stroke:#fdd835;stroke-width:2.58800006;stroke-linecap:round;stroke-linejoin:miter;stroke-miterlimit:4;stroke-dasharray:none;stroke-opacity:1"
         d="m 85.058509,-77.022167 c 2.65549,14.102063 -2.52249,27.032473 -2.74341,42.311563"
         id="path4575"
         inkscape:connector-curvature="0"
         sodipodi:nodetypes="cc" />
      <path
         sodipodi:nodetypes="cc"
         inkscape:connector-curvature="0"
         id="path4533"
         d="m 49.204419,-73.54016 c 3.25557,9.865996 2.8801,38.224296 -1.68203,52.316886"
         style="display:inline;fill:none;fill-rule:evenodd;stroke:#fff176;stroke-width:2.58800006;stroke-linecap:round;stroke-linejoin:miter;stroke-miterlimit:4;stroke-dasharray:none;stroke-opacity:1" />
      <path
         style="display:inline;fill:none;fill-rule:evenodd;stroke:#fdd835;stroke-width:2.58800006;stroke-linecap:round;stroke-linejoin:miter;stroke-miterlimit:4;stroke-dasharray:none;stroke-opacity:1"
         d="m 78.938619,-77.760775 c -3.25557,9.865991 -2.8801,38.224291 1.68203,52.316871"
         id="path4577"
         inkscape:connector-curvature="0"
         sodipodi:nodetypes="cc" />
      <path
         sodipodi:nodetypes="cc"
         inkscape:connector-curvature="0"
         id="path4535"
         d="m 54.374649,-73.64566 c -0.64657,17.247316 -2.67444,37.464386 2.00482,43.261186"
         style="display:inline;fill:none;fill-rule:evenodd;stroke:#fff176;stroke-width:2.58800006;stroke-linecap:round;stroke-linejoin:miter;stroke-miterlimit:4;stroke-dasharray:none;stroke-opacity:1" />
      <path
         style="display:inline;fill:none;fill-rule:evenodd;stroke:#fdd835;stroke-width:2.58800006;stroke-linecap:round;stroke-linejoin:miter;stroke-miterlimit:4;stroke-dasharray:none;stroke-opacity:1"
         d="m 73.768389,-77.866285 c 0.64657,17.247321 2.67441,37.464391 -2.00482,43.261211"
         id="path4579"
         inkscape:connector-curvature="0"
         sodipodi:nodetypes="cc" />
      <path
         sodipodi:nodetypes="cc"
         inkscape:connector-curvature="0"
         id="path4537"
         d="m 61.127629,-72.696028 c -1.27402,10.474874 -4.23219,14.708484 -1.05516,41.678474"
         style="display:inline;fill:none;fill-rule:evenodd;stroke:#fff176;stroke-width:2.58800006;stroke-linecap:round;stroke-linejoin:miter;stroke-miterlimit:4;stroke-dasharray:none;stroke-opacity:1" />
      <path
         style="display:inline;fill:none;fill-rule:evenodd;stroke:#fdd835;stroke-width:2.58800006;stroke-linecap:round;stroke-linejoin:miter;stroke-miterlimit:4;stroke-dasharray:none;stroke-opacity:1"
         d="m 67.015409,-76.916645 c 1.27402,10.474871 4.23217,14.708481 1.05515,41.678471"
         id="path4581"
         inkscape:connector-curvature="0"
         sodipodi:nodetypes="cc" />
      <path
         sodipodi:nodetypes="cc"
         inkscape:connector-curvature="0"
         id="path4539"
         d="m 65.559269,-72.379488 c -0.0206,17.453424 -7.34449,43.752344 -9.60189,50.858294"
         style="display:inline;fill:none;fill-rule:evenodd;stroke:#fff176;stroke-width:2.58800006;stroke-linecap:round;stroke-linejoin:miter;stroke-miterlimit:4;stroke-dasharray:none;stroke-opacity:1" />
      <path
         style="display:inline;fill:none;fill-rule:evenodd;stroke:#fdd835;stroke-width:2.58800006;stroke-linecap:round;stroke-linejoin:miter;stroke-miterlimit:4;stroke-dasharray:none;stroke-opacity:1"
         d="m 57.202489,-76.178045 c 1.38332,14.001241 1.33784,39.221421 -1.4772,51.385871"
         id="path4585"
         inkscape:connector-curvature="0"
         sodipodi:nodetypes="cc" />
      <path
         sodipodi:nodetypes="cc"
         inkscape:connector-curvature="0"
         id="path4543"
         d="m 75.161159,-72.062949 c 12.59186,9.439525 4.06998,26.950115 0.94964,40.095765"
         style="display:inline;fill:none;fill-rule:evenodd;stroke:#fff176;stroke-width:2.58800006;stroke-linecap:round;stroke-linejoin:miter;stroke-miterlimit:4;stroke-dasharray:none;stroke-opacity:1" />
      <path
         style="display:inline;fill:none;fill-rule:evenodd;stroke:#fdd835;stroke-width:2.58800006;stroke-linecap:round;stroke-linejoin:miter;stroke-miterlimit:4;stroke-dasharray:none;stroke-opacity:1"
         d="m 52.981879,-76.283566 c -12.59189,9.439522 -4.06998,26.950082 -0.94964,40.095762"
         id="path4587"
         inkscape:connector-curvature="0"
         sodipodi:nodetypes="cc" />
      <path
         sodipodi:nodetypes="cc"
         inkscape:connector-curvature="0"
         id="path4545"
         d="m 81.703089,-72.062949 c -1.2141,12.954465 -2.72476,25.935845 -0.94964,38.618555"
         style="display:inline;fill:none;fill-rule:evenodd;stroke:#fff176;stroke-width:2.58800006;stroke-linecap:round;stroke-linejoin:miter;stroke-miterlimit:4;stroke-dasharray:none;stroke-opacity:1" />
      <path
         style="display:inline;fill:none;fill-rule:evenodd;stroke:#fdd835;stroke-width:2.58800006;stroke-linecap:round;stroke-linejoin:miter;stroke-miterlimit:4;stroke-dasharray:none;stroke-opacity:1"
         d="m 42.535889,-76.600106 c -1.94215,12.655802 -4.15414,25.347582 -2.00483,37.457882"
         id="path4591"
         inkscape:connector-curvature="0"
         sodipodi:nodetypes="cc" />
      <path
         sodipodi:nodetypes="cc"
         inkscape:connector-curvature="0"
         id="path4549"
         d="m 93.520779,-72.379488 c -1.45719,12.869204 -2.545,25.671244 -0.94964,37.985454"
         style="display:inline;fill:none;fill-rule:evenodd;stroke:#fff176;stroke-width:2.58800006;stroke-linecap:round;stroke-linejoin:miter;stroke-miterlimit:4;stroke-dasharray:none;stroke-opacity:1" />
      <path
         style="display:inline;fill:none;fill-rule:evenodd;stroke:#fdd835;stroke-width:2.58800006;stroke-linecap:round;stroke-linejoin:miter;stroke-miterlimit:4;stroke-dasharray:none;stroke-opacity:1"
         d="m 34.622229,-76.600106 c 1.45722,12.869202 2.54503,25.671242 0.94964,37.985452"
         id="path4593"
         inkscape:connector-curvature="0"
         sodipodi:nodetypes="cc" />
      <path
         sodipodi:nodetypes="cc"
         inkscape:connector-curvature="0"
         id="path4551"
         d="m 96.791749,-71.429849 c -1.36671,12.237465 -3.8721,32.606925 1.05516,46.426665"
         style="display:inline;fill:none;fill-rule:evenodd;stroke:#fff176;stroke-width:2.58800006;stroke-linecap:round;stroke-linejoin:miter;stroke-miterlimit:4;stroke-dasharray:none;stroke-opacity:1" />
      <path
         style="display:inline;fill:none;fill-rule:evenodd;stroke:#fdd835;stroke-width:2.58800006;stroke-linecap:round;stroke-linejoin:miter;stroke-miterlimit:4;stroke-dasharray:none;stroke-opacity:1"
         d="m 31.351269,-75.650466 c 1.3667,12.237462 3.87209,32.606922 -1.05514,46.426662"
         id="path4595"
         inkscape:connector-curvature="0"
         sodipodi:nodetypes="cc" />
      <path
         sodipodi:nodetypes="cc"
         inkscape:connector-curvature="0"
         id="path4553"
         d="m 104.07234,-72.801549 c -3.8858,12.883145 -3.78322,26.404055 -0.63312,40.412295"
         style="display:inline;fill:none;fill-rule:evenodd;stroke:#fff176;stroke-width:2.58800006;stroke-linecap:round;stroke-linejoin:miter;stroke-miterlimit:4;stroke-dasharray:none;stroke-opacity:1" />
      <path
         style="display:inline;fill:none;fill-rule:evenodd;stroke:#fdd835;stroke-width:2.58800006;stroke-linecap:round;stroke-linejoin:miter;stroke-miterlimit:4;stroke-dasharray:none;stroke-opacity:1"
         d="m 24.070699,-77.022167 c 3.88578,12.883143 3.7832,26.404043 0.63312,40.412293"
         id="path4597"
         inkscape:connector-curvature="0"
         sodipodi:nodetypes="cc" />
      <path
         sodipodi:nodetypes="cc"
         inkscape:connector-curvature="0"
         id="path4555"
         d="m 106.71021,-73.22361 c 2.54741,18.342046 1.44251,20.941646 0.31655,31.865576"
         style="display:inline;fill:none;fill-rule:evenodd;stroke:#fff176;stroke-width:2.58800006;stroke-linecap:round;stroke-linejoin:miter;stroke-miterlimit:4;stroke-dasharray:none;stroke-opacity:1" />
      <path
         style="display:inline;fill:none;fill-rule:evenodd;stroke:#fdd835;stroke-width:2.58800006;stroke-linecap:round;stroke-linejoin:miter;stroke-miterlimit:4;stroke-dasharray:none;stroke-opacity:1"
         d="m 21.432829,-77.444235 c -7.11676,15.143491 -1.87325,20.640101 -0.31655,31.865571"
         id="path4599"
         inkscape:connector-curvature="0"
         sodipodi:nodetypes="cc" />
      <path
         style="display:inline;fill:none;fill-rule:evenodd;stroke:#fff176;stroke-width:2.58800006;stroke-linecap:round;stroke-linejoin:miter;stroke-miterlimit:4;stroke-dasharray:none;stroke-opacity:1"
         d="m 29.874039,-72.696028 c 4.61177,9.604184 -0.44256,19.455344 -5.90883,37.457884"
         id="path4557"
         inkscape:connector-curvature="0"
         sodipodi:nodetypes="cc" />
      <path
         sodipodi:nodetypes="cc"
         inkscape:connector-curvature="0"
         id="path4601"
         d="m 98.268969,-76.916645 c -4.61174,9.604171 0.44259,19.455331 5.908861,37.457851"
         style="display:inline;fill:none;fill-rule:evenodd;stroke:#fdd835;stroke-width:2.58800006;stroke-linecap:round;stroke-linejoin:miter;stroke-miterlimit:4;stroke-dasharray:none;stroke-opacity:1" />
      <path
         style="display:inline;fill:none;fill-rule:evenodd;stroke:#fff176;stroke-width:2.58800006;stroke-linecap:round;stroke-linejoin:miter;stroke-miterlimit:4;stroke-dasharray:none;stroke-opacity:1"
         d="m 68.513719,-72.084039 c -0.0206,17.453425 -2.27979,29.613305 -4.53716,36.719275"
         id="path4559"
         inkscape:connector-curvature="0"
         sodipodi:nodetypes="cc" />
      <path
         sodipodi:nodetypes="cc"
         inkscape:connector-curvature="0"
         id="path4603"
         d="m 59.629299,-76.304656 c 0.0209,17.453422 2.27981,29.613282 4.53718,36.719242"
         style="display:inline;fill:none;fill-rule:evenodd;stroke:#fdd835;stroke-width:2.58800006;stroke-linecap:round;stroke-linejoin:miter;stroke-miterlimit:4;stroke-dasharray:none;stroke-opacity:1" />
      <path
         style="display:inline;fill:none;fill-rule:evenodd;stroke:#fff176;stroke-width:2.58800006;stroke-linecap:round;stroke-linejoin:miter;stroke-miterlimit:4;stroke-dasharray:none;stroke-opacity:1"
         d="m 72.797579,-72.062949 c 3.90009,20.449125 4.06845,26.952065 0.94965,40.095765"
         id="path4561"
         inkscape:connector-curvature="0"
         sodipodi:nodetypes="cc" />
      <path
         sodipodi:nodetypes="cc"
         inkscape:connector-curvature="0"
         id="path4605"
         d="m 55.345429,-76.283566 c -3.90007,20.449122 -4.06842,26.952062 -0.94962,40.095762"
         style="display:inline;fill:none;fill-rule:evenodd;stroke:#fdd835;stroke-width:2.58800006;stroke-linecap:round;stroke-linejoin:miter;stroke-miterlimit:4;stroke-dasharray:none;stroke-opacity:1" />
      <path
         style="display:inline;fill:none;fill-rule:evenodd;stroke:#fff176;stroke-width:2.58800006;stroke-linecap:round;stroke-linejoin:miter;stroke-miterlimit:4;stroke-dasharray:none;stroke-opacity:1"
         d="m 90.566369,-72.379488 c 1.94217,12.655804 -6.29188,38.009414 -8.44122,50.119694"
         id="path4563"
         inkscape:connector-curvature="0"
         sodipodi:nodetypes="cc" />
      <path
         sodipodi:nodetypes="cc"
         inkscape:connector-curvature="0"
         id="path4607"
         d="m 37.576649,-76.600106 c -1.94215,12.655802 6.29189,38.009412 8.44124,50.119692"
         style="display:inline;fill:none;fill-rule:evenodd;stroke:#fdd835;stroke-width:2.58800006;stroke-linecap:round;stroke-linejoin:miter;stroke-miterlimit:4;stroke-dasharray:none;stroke-opacity:1" />
      <path
         sodipodi:nodetypes="cc"
         inkscape:connector-curvature="0"
         id="path4609"
         d="m 28.101419,-75.650466 c 3.88575,12.883142 -2.31561,25.032342 -5.46571,39.040592"
         style="display:inline;fill:none;fill-rule:evenodd;stroke:#fdd835;stroke-width:2.58800006;stroke-linecap:round;stroke-linejoin:miter;stroke-miterlimit:4;stroke-dasharray:none;stroke-opacity:1" />
      <path
         inkscape:connector-curvature="0"
         id="rect4491"
         d="m 16.600219,-79.892242 v 0.479229 c 0,5.099077 4.10493,9.204285 9.20403,9.204285 h 76.133591 c 5.09908,0 9.20398,-4.105209 9.20398,-9.204285 v -0.479229 z"
         style="display:inline;opacity:1;fill:#757575;fill-opacity:1;stroke:none;stroke-width:2.58800006;stroke-linecap:round;stroke-linejoin:round;stroke-miterlimit:4;stroke-dasharray:none;stroke-dashoffset:0;stroke-opacity:1" />
      <circle
         r="7.1750326"
         cy="-79.0271"
         cx="42.045326"
         id="path4505"
         style="display:inline;opacity:1;fill:#fafafa;fill-opacity:1;stroke:none;stroke-width:0.07790327;stroke-linecap:round;stroke-linejoin:round;stroke-miterlimit:4;stroke-dasharray:none;stroke-dashoffset:0;stroke-opacity:1" />
      <circle
         style="display:inline;opacity:1;fill:#039be5;fill-opacity:1;stroke:none;stroke-width:0.04353418;stroke-linecap:round;stroke-linejoin:round;stroke-miterlimit:4;stroke-dasharray:none;stroke-dashoffset:0;stroke-opacity:1"
         id="circle4507"
         cx="43.103676"
         cy="-76.787018"
         r="4.0095773" />
      <circle
         r="2.2158189"
         cy="-76.787018"
         cx="43.103676"
         id="circle4509"
         style="display:inline;opacity:1;fill:#212121;fill-opacity:1;stroke:none;stroke-width:0.02405837;stroke-linecap:round;stroke-linejoin:round;stroke-miterlimit:4;stroke-dasharray:none;stroke-dashoffset:0;stroke-opacity:1" />
      <circle
         transform="scale(-1,1)"
         style="display:inline;opacity:1;fill:#fafafa;fill-opacity:1;stroke:none;stroke-width:0.07790327;stroke-linecap:round;stroke-linejoin:round;stroke-miterlimit:4;stroke-dasharray:none;stroke-dashoffset:0;stroke-opacity:1"
         id="circle4513"
         cx="-85.696754"
         cy="-79.0271"
         r="7.1750326" />
      <circle
         transform="scale(-1,1)"
         r="4.0095773"
         cy="-76.787018"
         cx="-86.755043"
         id="circle4515"
         style="display:inline;opacity:1;fill:#039be5;fill-opacity:1;stroke:none;stroke-width:0.04353418;stroke-linecap:round;stroke-linejoin:round;stroke-miterlimit:4;stroke-dasharray:none;stroke-dashoffset:0;stroke-opacity:1" />
      <circle
         transform="scale(-1,1)"
         style="display:inline;opacity:1;fill:#212121;fill-opacity:1;stroke:none;stroke-width:0.02405837;stroke-linecap:round;stroke-linejoin:round;stroke-miterlimit:4;stroke-dasharray:none;stroke-dashoffset:0;stroke-opacity:1"
         id="circle4517"
         cx="-86.755043"
         cy="-76.787018"
         r="2.2158189" />
      <path
         inkscape:connector-curvature="0"
         id="path4697"
         d="m 138.10792,-136.53231 a 28.013009,24.136207 0 0 0 -28.01226,24.13618 28.013009,24.136207 0 0 0 4.77848,13.448535 l -9.26925,11.007506 16.94172,-4.400389 a 28.013009,24.136207 0 0 0 15.56131,4.080568 28.013009,24.136207 0 0 0 28.01342,-24.13622 28.013009,24.136207 0 0 0 -28.01342,-24.13618 z"
         style="display:inline;fill:#fafafa;fill-rule:evenodd;stroke:#29b6f6;stroke-width:1.05799997;stroke-linecap:round;stroke-linejoin:round;stroke-miterlimit:4;stroke-dasharray:none;stroke-opacity:1" />
      <text
         id="text4704"
         y="-105.85746"
         x="119.66019"
         style="font-style:normal;font-variant:normal;font-weight:normal;font-stretch:normal;font-size:21.33049393px;line-height:125%;font-family:'open sans';-inkscape-font-specification:'open sans';letter-spacing:0px;word-spacing:0px;display:inline;fill:#000000;fill-opacity:1;stroke:none;stroke-width:0.53326231px;stroke-linecap:butt;stroke-linejoin:miter;stroke-opacity:1"
         xml:space="preserve"><tspan
           dx="0 0"
           dy="0 1.5185317"
           style="font-style:normal;font-variant:normal;font-weight:normal;font-stretch:normal;font-family:'pt sans';-inkscape-font-specification:'pt sans';stroke-width:0.53326231px"
           y="-105.85746"
           x="119.66019"
           id="tspan4702"
           sodipodi:role="line">x=</tspan></text>
      <text
         xml:space="preserve"
         style="font-style:normal;font-variant:normal;font-weight:normal;font-stretch:normal;font-size:21.33049393px;line-height:125%;font-family:'open sans';-inkscape-font-specification:'open sans';letter-spacing:0px;word-spacing:0px;display:inline;fill:#689f38;fill-opacity:1;stroke:none;stroke-width:0.53326231px;stroke-linecap:butt;stroke-linejoin:miter;stroke-opacity:1"
         x="141.66216"
         y="-104.29213"
         id="text4708"><tspan
           sodipodi:role="line"
           id="tspan4706"
           x="141.66216"
           y="-104.29213"
           style="font-style:normal;font-variant:normal;font-weight:normal;font-stretch:normal;font-family:'pt sans';-inkscape-font-specification:'pt sans';fill:#689f38;stroke:none;stroke-width:0.53326231px"
           dy="-0.13804834"
           dx="-0.55219334">✔</tspan></text>
      <path
         sodipodi:nodetypes="ccccccccccccccccccccccccccccccc"
         inkscape:connector-curvature="0"
         id="rect4724"
         d="m 125.36056,-2.6688443 c -0.15209,-0.11011 -0.34687,-0.16325 -0.54835,-0.13186 l -0.0759,0.014 c -0.40302,0.0633 -0.67728,0.4396 -0.61442,0.84253 l 0.18799,1.20307001 -3.17953,0.64477 c -0.27156,-0.19645 -0.61285,-0.2705 -0.94138,-0.20425 -0.65001,0.13132 -1.07059,0.76455 -0.93957,1.41459999 0.13089,0.65094 0.7651,1.07219 1.41587,0.94042 0.36266,-0.0743 0.67082,-0.31166 0.83518,-0.64337 l 1.92985,-0.39068 -1.50527,2.06347 c -0.33308,0.0382 -0.635,0.21395 -0.8328,0.48465 -0.39116,0.5354 -0.27445,1.28649 0.26072,1.67796 0.53538,0.39116 1.28648,0.27447 1.67796,-0.26069 0.21791,-0.2994 0.28554,-0.68257 0.18328,-1.03847 l 1.50696,-2.06592 0.27813,1.78563 c -0.25358,0.26937 -0.36889,0.64056 -0.31256,1.00619 0.1019,0.65581 0.71634,1.10471 1.37208,1.00237 0.65569,-0.10243 1.10405,-0.71723 1.00118,-1.37287 -0.0521,-0.33123 -0.24034,-0.62559 -0.51911,-0.8119 l -0.46945,-3.00563999 0.68855,-1.72058001 -0.0793,0.0171 -0.28168,-0.45228 -0.0626,-0.0492 c -0.18862,-0.13859 -0.41799,-0.16122 -0.6264,-0.10324 l -0.0565,-0.36037 c -0.0316,-0.20145 -0.14076,-0.37101 -0.29289,-0.48195 z"
         style="display:inline;opacity:1;fill:#558b2f;fill-opacity:1;stroke:none;stroke-width:1.6540935;stroke-linecap:round;stroke-linejoin:round;stroke-miterlimit:4;stroke-dasharray:none;stroke-dashoffset:0;stroke-opacity:1" />
      <path
         inkscape:transform-center-y="-3.7026764"
         inkscape:transform-center-x="30.140598"
         sodipodi:nodetypes="ccc"
         style="display:inline;fill:#f0f4c3;fill-rule:evenodd;stroke:none;stroke-width:0.37112325px;stroke-linecap:butt;stroke-linejoin:miter;stroke-opacity:1"
         d="m 123.18214,-13.645144 59.90989,7.6875497 c -19.48598,2.97786 -62.66529,4.97271001 -59.90989,-7.6875497 z"
         id="path4712"
         inkscape:connector-curvature="0" />
      <path
         inkscape:connector-curvature="0"
         id="path4710"
         d="m 133.99656,-32.300364 a 5.8512387,5.8512387 0 0 0 -5.85171,5.85097 5.8512387,5.8512387 0 0 0 0.55887,2.48119 c -2.81765,2.2391 -4.79708,5.59193 -5.5219,10.3233 l 59.91029,7.6870397 C 184.8269,-22.740424 155.94046,-28.582574 139.72508,-27.607704 a 5.8512387,5.8512387 0 0 0 -5.72852,-4.69266 z"
         style="display:inline;fill:#558b2f;fill-rule:evenodd;stroke:none;stroke-width:0.37112325px;stroke-linecap:butt;stroke-linejoin:miter;stroke-opacity:1" />
      <path
         sodipodi:nodetypes="ccccscc"
         inkscape:connector-curvature="0"
         id="rect4718"
         d="m 136.32394,-16.192294 c 0.98996,0.66999 1.24756,2.00633 0.57756,2.99626 -4.8065,4.5487097 -8.92517,9.2219997 -10.07552,14.4328497 -0.66998,0.98995 -2.00629,1.24755 -2.99625,0.57755 -0.98997,-0.66998 -1.09511,-1.91874999 -0.57756,-2.99627 2.15284,-4.48212 4.93937,-9.1370997 10.07552,-14.4328497 0.66998,-0.98994 2.00631,-1.24754 2.99625,-0.57754 z"
         style="display:inline;opacity:1;fill:#689f38;fill-opacity:1;stroke:none;stroke-width:2.30290246;stroke-linecap:round;stroke-linejoin:round;stroke-miterlimit:4;stroke-dasharray:none;stroke-dashoffset:0;stroke-opacity:1" />
      <path
         style="display:inline;opacity:1;fill:#558b2f;fill-opacity:1;stroke:none;stroke-width:1.83399451;stroke-linecap:round;stroke-linejoin:round;stroke-miterlimit:4;stroke-dasharray:none;stroke-dashoffset:0;stroke-opacity:1"
         d="m 183.31571,-1.1980043 c -0.13478,0.15846 -0.21082,0.36918001 -0.19309,0.59466001 l 0.006,0.0847 c 0.0346,0.45097 0.42688,0.78691 0.87768,0.75252 l 1.34625,-0.1031 0.43561,3.57059999 a 1.3317192,1.3317192 0 0 0 -0.30771,1.02274 1.3317192,1.3317192 0 0 0 1.48172,1.16178 1.3317192,1.3317192 0 0 0 1.16287,-1.48307 1.3317192,1.3317192 0 0 0 -0.63839,-0.97921 l -0.26352,-2.16714 2.14966,1.8436 a 1.3317192,1.3317192 0 0 0 0.46315,0.9627 1.3317192,1.3317192 0 0 0 1.87743,-0.14216 1.3317192,1.3317192 0 0 0 -0.14216,-1.87741 1.3317192,1.3317192 0 0 0 -1.13186,-0.29299 l -2.15228,-1.84567999 1.99798,-0.15199 a 1.3317192,1.3317192 0 0 0 1.08495,0.43312 1.3317192,1.3317192 0 0 0 1.22748,-1.42930001 1.3317192,1.3317192 0 0 0 -1.43026,-1.22622 1.3317192,1.3317192 0 0 0 -0.94263,0.50305 l -3.36315,0.25697 -0.13605,-1.11738 c -0.0541,-0.44977 -0.45902,-0.76637 -0.90786,-0.71204 l -0.0881,0.006 c -0.44799,0.0553 -0.76356,0.46121 -0.70948,0.90986 l 0.0127,0.0892 c -0.19582,0.023 -0.38529,0.11025 -0.52446,0.27202 l -0.0599,0.0647 c -0.16954,0.19646 -0.21479,0.44797 -0.16891,0.68334 l -0.40328,0.0294 c -0.22521,0.0167 -0.42233,0.12344 -0.55822,0.28184 z"
         id="path4736"
         inkscape:connector-curvature="0" />
      <path
         sodipodi:nodetypes="sssssss"
         inkscape:connector-curvature="0"
         id="rect4738"
         d="m 165.54317,-14.296024 c 0.8268,-1.03584 2.16392,-0.94361 3.36219,-0.37733 7.33399,3.46587 14.20001,7.1991197 18.85519,12.1957497 0.90342,0.9697 1.20412,2.32634001 0.37732,3.36220001 -0.82679,1.03583999 -2.4838,1.36981999 -3.36219,0.37732999 -5.78493,-6.53643 -12.05817,-9.68624 -18.85516,-12.1957397 -1.24333,-0.45906 -1.20415,-2.32635 -0.37735,-3.36221 z"
         style="display:inline;opacity:1;fill:#689f38;fill-opacity:1;stroke:none;stroke-width:2.55336881;stroke-linecap:round;stroke-linejoin:round;stroke-miterlimit:4;stroke-dasharray:none;stroke-dashoffset:0;stroke-opacity:1" />
      <circle
         style="display:inline;opacity:1;fill:#ffffff;fill-opacity:1;stroke:none;stroke-width:1.09401083;stroke-linecap:round;stroke-linejoin:round;stroke-miterlimit:4;stroke-dasharray:none;stroke-dashoffset:0;stroke-opacity:1"
         id="circle4747"
         cx="133.99632"
         cy="-26.449549"
         r="4.9286551" />
      <circle
         r="2.77596"
         cy="-27.507883"
         cx="132.93797"
         id="circle4750"
         style="display:inline;opacity:1;fill:#f57c00;fill-opacity:1;stroke:none;stroke-width:0.61617833;stroke-linecap:round;stroke-linejoin:round;stroke-miterlimit:4;stroke-dasharray:none;stroke-dashoffset:0;stroke-opacity:1" />
      <circle
         style="display:inline;opacity:1;fill:#424242;fill-opacity:1;stroke:none;stroke-width:0.34313115;stroke-linecap:round;stroke-linejoin:round;stroke-miterlimit:4;stroke-dasharray:none;stroke-dashoffset:0;stroke-opacity:1"
         id="circle4752"
         cx="132.93797"
         cy="-27.507883"
         r="1.5458485" />
      <circle
         r="3.1893404"
         cy="-34.463585"
         cx="145.20781"
         id="path4760"
         style="display:inline;opacity:1;fill:#fafafa;fill-opacity:1;stroke:#29b6f6;stroke-width:1.80365896;stroke-linecap:round;stroke-linejoin:round;stroke-miterlimit:4;stroke-dasharray:none;stroke-dashoffset:0;stroke-opacity:1" />
      <circle
         style="display:inline;opacity:1;fill:#fafafa;fill-opacity:1;stroke:#29b6f6;stroke-width:1.80365896;stroke-linecap:round;stroke-linejoin:round;stroke-miterlimit:4;stroke-dasharray:none;stroke-dashoffset:0;stroke-opacity:1"
         id="circle4762"
         cx="153.28984"
         cy="-40.510216"
         r="5.5088606" />
      <ellipse
         ry="17.686344"
         rx="21.020655"
         cy="-59.421341"
         cx="173.4771"
         id="circle4775"
         style="display:inline;opacity:1;fill:#fafafa;fill-opacity:1;stroke:#29b6f6;stroke-width:1.05833328;stroke-linecap:round;stroke-linejoin:round;stroke-miterlimit:4;stroke-dasharray:none;stroke-dashoffset:0;stroke-opacity:1" />
      <text
         xml:space="preserve"
         style="font-style:normal;font-variant:normal;font-weight:normal;font-stretch:normal;font-size:15.16097927px;line-height:125%;font-family:'open sans';-inkscape-font-specification:'open sans';letter-spacing:0px;word-spacing:0px;display:inline;fill:#000000;fill-opacity:1;stroke:none;stroke-width:0.37902457px;stroke-linecap:butt;stroke-linejoin:miter;stroke-opacity:1"
         x="161.5844"
         y="-55.813766"
         id="text4927"><tspan
           sodipodi:role="line"
           id="tspan4925"
           x="161.5844"
           y="-55.813766"
           style="font-style:normal;font-variant:normal;font-weight:normal;font-stretch:normal;font-family:'pt sans';-inkscape-font-specification:'pt sans';stroke-width:0.37902457px"
           dy="0 1.0793201"
           dx="0 0">x=</tspan></text>
      <text
         id="text4931"
         y="-54.701157"
         x="177.2227"
         style="font-style:normal;font-variant:normal;font-weight:normal;font-stretch:normal;font-size:15.16097927px;line-height:125%;font-family:'open sans';-inkscape-font-specification:'open sans';letter-spacing:0px;word-spacing:0px;display:inline;fill:#689f38;fill-opacity:1;stroke:none;stroke-width:0.37902457px;stroke-linecap:butt;stroke-linejoin:miter;stroke-opacity:1"
         xml:space="preserve"><tspan
           dx="-0.39248002"
           dy="-0.098120004"
           style="font-style:normal;font-variant:normal;font-weight:normal;font-stretch:normal;font-family:'pt sans';-inkscape-font-specification:'pt sans';fill:#689f38;stroke:none;stroke-width:0.37902457px"
           y="-54.701157"
           x="177.2227"
           id="tspan4929"
           sodipodi:role="line">✔</tspan></text>
      <ellipse
         ry="5.5088606"
         rx="26.964426"
         cy="-110.91476"
         cx="62.574867"
         id="path4967"
         style="display:inline;opacity:1;fill:#ffca28;fill-opacity:0;stroke:#ffd54f;stroke-width:4.04810715;stroke-linecap:round;stroke-linejoin:round;stroke-miterlimit:4;stroke-dasharray:none;stroke-dashoffset:0;stroke-opacity:1" />
    </g>
    <path
       style="display:inline;opacity:1;fill:#ffecb3;fill-opacity:1;stroke:none;stroke-width:0.12381927;stroke-linecap:round;stroke-linejoin:round;stroke-miterlimit:4;stroke-dasharray:none;stroke-dashoffset:0;stroke-opacity:1"
       d="m 145.60053,147.33983 c 0.0434,52.33401 5.07639,103.79895 14.63609,149.66014 H 210 V -4.5801414e-8 H 159.66924 C 150.44871,45.306698 145.61592,95.919925 145.60053,147.33983 Z"
       id="rect5281"
       inkscape:connector-curvature="0"
       sodipodi:nodetypes="cccccc" />
    <g
       id="g6220"
       transform="matrix(0.68920471,0,0,0.68920471,13.08255,-67.006217)">
      <path
         sodipodi:nodetypes="ccccccccccccccccccccccccccccccccccccccccccccccccccccccc"
         inkscape:connector-curvature="0"
         id="path5562"
         d="m 56.2278,208.95059 c -2.78234,0.003 -5.17742,1.96547 -5.72834,4.69273 -22.8954,-4.68852 -49.69827,1.97568 -43.53481,21.13308 -1.65203,1.24552 -3.16928,2.5678 -4.50048,3.99666 -0.19121,0.20523 -0.35353,0.42878 -0.48577,0.66197 L 2.4e-4,239.28414 c -0.23016,-0.292 -0.57192,-0.47449 -0.94258,-0.50333 -0.73374,-0.0567 -1.37432,0.49251 -1.43042,1.22628 -0.0561,0.73371 0.49358,1.37382 1.22733,1.42937 0.40912,0.0305 0.80949,-0.12924 1.08519,-0.43305 l 1.69447,0.12867 c 0.0132,0.0795 0.0317,0.15839 0.0543,0.23668 l -1.90322,1.63246 c -0.40225,-0.082 -0.81982,0.0261 -1.13173,0.29301 -0.55745,0.47929 -0.62106,1.31966 -0.14211,1.8774 0.47929,0.55746 1.31966,0.62107 1.8774,0.14211 0.28194,-0.24223 0.44979,-0.59126 0.46302,-0.96273 l 1.90273,-1.63194 c 0.0676,0.0416 0.13655,0.08 0.20722,0.11524 l -0.22376,1.8402 c -0.35226,0.21063 -0.58774,0.57193 -0.6382,0.97926 -0.089,0.73077 0.43185,1.39509 1.16271,1.48312 0.73004,0.0881 1.39327,-0.43221 1.48156,-1.16221 0.0447,-0.36885 -0.0668,-0.7396 -0.30747,-1.02267 l 0.23617,-1.93528 c 2.65176,-2.00142 5.10902,-4.89397 7.79333,-6.77995 12.25761,1.68073 34.78696,2.29854 46.73666,-1.9017 2.03901,2.60151 3.56499,5.29592 4.19563,8.15248 0.15242,0.22524 0.34086,0.41047 0.55033,0.55759 l -0.26509,1.69653 c -0.27879,0.18631 -0.46664,0.48061 -0.51882,0.81184 -0.10287,0.65564 0.34526,1.27064 1.00098,1.37304 0.65574,0.10234 1.27015,-0.3467 1.37199,-1.00252 0.0563,-0.36563 -0.0591,-0.73677 -0.31263,-1.00614 l 0.23357,-1.49965 c 0.0748,-0.01 0.1492,-0.0237 0.22323,-0.0413 l 1.32861,1.82108 c -0.10224,0.3559 -0.0349,0.73929 0.18293,1.03869 0.39151,0.53516 1.14255,0.65161 1.67794,0.26045 0.53517,-0.39147 0.65211,-1.14253 0.26095,-1.67793 -0.19777,-0.2707 -0.49995,-0.44643 -0.83301,-0.48473 l -1.34308,-1.84123 c 0.0354,-0.0551 0.0678,-0.11162 0.0972,-0.1695 l 1.67071,0.33797 c 0.16436,0.3317 0.47241,0.56907 0.83508,0.64337 0.65077,0.13177 1.28508,-0.28956 1.41594,-0.94051 0.131,-0.65005 -0.28948,-1.28309 -0.93948,-1.41439 -0.32853,-0.0662 -0.67001,0.008 -0.94155,0.20413 l -1.8805,-0.38086 c -0.0512,-0.23775 -0.13112,-0.47488 -0.24132,-0.70435 -1.13784,-2.36894 -2.45711,-4.78794 -4.20233,-7.32255 2.37509,-1.35437 3.9179,-3.04571 4.2726,-5.14077 -0.72483,-4.73138 -2.70399,-8.0843 -5.52162,-10.3234 0.36595,-0.77608 0.55563,-1.62296 0.55862,-2.48099 -1.3e-4,-3.23163 -2.62022,-5.85107 -5.85184,-5.8508 z"
         style="display:inline;opacity:1;fill:#29b6f6;fill-opacity:1;stroke:#29b6f6;stroke-width:4;stroke-linecap:round;stroke-linejoin:round;stroke-miterlimit:4;stroke-dasharray:none;stroke-dashoffset:0;stroke-opacity:1" />
      <path
         sodipodi:nodetypes="cccccccccccccccccccccccccccccccccccccccccccccccccccccccccccc"
         inkscape:connector-curvature="0"
         id="path5543"
         d="m 120.64455,213.09245 c -3.23181,-2.6e-4 -5.85189,2.61951 -5.85184,5.85133 0.003,0.85795 0.19277,1.70494 0.55861,2.48098 -2.81754,2.23902 -4.79673,5.59229 -5.52161,10.3234 -0.57259,2.6319 0.84505,4.62896 3.61733,6.11694 -1.42682,2.18201 -2.55612,4.28274 -3.54706,6.34587 -0.11023,0.22946 -0.19013,0.46659 -0.24133,0.70435 l -1.88052,0.38137 c -0.27162,-0.19645 -0.61296,-0.27045 -0.94155,-0.20412 -0.64984,0.13137 -1.07034,0.76444 -0.93945,1.41438 0.13086,0.651 0.76512,1.0723 1.41591,0.94051 0.36264,-0.0743 0.67075,-0.31168 0.83511,-0.64337 l 1.67068,-0.33796 c 0.0294,0.0579 0.0618,0.1144 0.0972,0.16949 l -1.34305,1.84124 c -0.33317,0.0382 -0.63522,0.21394 -0.83304,0.48472 -0.39108,0.53546 -0.27427,1.28654 0.26095,1.67794 0.53547,0.39108 1.28654,0.27427 1.67794,-0.26097 0.2177,-0.29938 0.28519,-0.68242 0.18293,-1.03818 l 1.3281,-1.82108 c 0.074,0.0177 0.14844,0.0312 0.22323,0.0408 l 0.23411,1.49965 c -0.25361,0.26933 -0.36896,0.6405 -0.31266,1.00614 0.10178,0.65586 0.71625,1.10483 1.37202,1.00252 0.65545,-0.10254 1.10363,-0.71709 1.00097,-1.37253 -0.0519,-0.33134 -0.24005,-0.62588 -0.51882,-0.81235 l -0.26511,-1.69602 c 0.20952,-0.14712 0.39791,-0.33232 0.55036,-0.55759 0.0707,-0.32026 0.15235,-0.63868 0.24495,-0.95498 0.39778,-0.0824 0.65133,-0.46699 0.57102,-0.86506 l -0.014,-0.0791 c -0.0228,-0.11132 -0.0709,-0.20982 -0.13486,-0.29455 0.67755,-1.76093 1.67537,-3.46372 2.89595,-5.12631 11.14647,3.40729 32.58029,2.57014 47.08445,0.87385 3.32349,1.2455 8.01066,7.29466 8.07808,6.97477 l 0.23614,1.9358 c -0.24067,0.28307 -0.35214,0.65382 -0.30748,1.02268 0.0886,0.72978 0.75174,1.24975 1.48157,1.16168 0.73088,-0.088 1.25171,-0.75234 1.16273,-1.48311 -0.0505,-0.40733 -0.28593,-0.76864 -0.6382,-0.97927 l -0.22376,-1.8402 c 0.0707,-0.0353 0.13957,-0.0736 0.20723,-0.11523 l 1.90272,1.63194 c 0.0132,0.37146 0.18108,0.7205 0.46302,0.96273 0.55774,0.47896 1.39811,0.41535 1.8774,-0.14211 0.47898,-0.55775 0.41535,-1.39811 -0.1421,-1.87741 -0.31192,-0.26688 -0.72949,-0.37498 -1.13173,-0.293 l -1.90323,-1.63194 c 0.0225,-0.0783 0.0409,-0.15716 0.0542,-0.23668 l 1.69447,-0.12919 c 0.27562,0.304 0.67601,0.46395 1.08522,0.43356 0.73374,-0.0556 1.28338,-0.69566 1.22732,-1.42937 -0.0561,-0.73377 -0.6967,-1.28296 -1.43042,-1.22628 -0.3706,0.0287 -0.71233,0.21101 -0.94258,0.50281 l -1.97765,0.15141 c -0.13229,-0.23341 -0.2949,-0.45656 -0.48628,-0.66197 -1.36406,-1.46413 -2.92256,-2.81744 -4.62245,-4.08967 0.98049,-16.31382 -27.39568,-22.00353 -43.41286,-21.04058 -0.55087,-2.72722 -2.94601,-4.68936 -5.72831,-4.69274 z"
         style="display:inline;opacity:1;fill:#29b6f6;fill-opacity:1;stroke:#29b6f6;stroke-width:4;stroke-linecap:round;stroke-linejoin:round;stroke-miterlimit:4;stroke-dasharray:none;stroke-dashoffset:0;stroke-opacity:1" />
      <circle
         style="display:inline;opacity:1;fill:#29b6f6;fill-opacity:1;stroke:none;stroke-width:0.80830425;stroke-linecap:round;stroke-linejoin:round;stroke-miterlimit:4;stroke-dasharray:none;stroke-dashoffset:0;stroke-opacity:1"
         id="circle4781"
         cx="92.921135"
         cy="200.15178"
         r="77.971191" />
      <path
         inkscape:connector-curvature="0"
         id="circle5266"
         d="M 58.47906,229.72517 A 216.67179,84.402311 0 0 0 15.41354,231.49846 84.402311,84.402311 0 0 0 93.100366,283.12674 84.402311,84.402311 0 0 0 166.09118,240.9494 216.67179,84.402311 0 0 0 58.47906,229.72517 Z"
         style="display:inline;opacity:1;fill:#78909c;fill-opacity:1;stroke:none;stroke-width:0.80830419;stroke-linecap:round;stroke-linejoin:round;stroke-miterlimit:4;stroke-dasharray:none;stroke-dashoffset:0;stroke-opacity:1" />
      <path
         sodipodi:nodetypes="ccccccccccccccccccccccccccccccc"
         style="display:inline;opacity:1;fill:#558b2f;fill-opacity:1;stroke:none;stroke-width:1.6540935;stroke-linecap:round;stroke-linejoin:round;stroke-miterlimit:4;stroke-dasharray:none;stroke-dashoffset:0;stroke-opacity:1"
         d="m 112.00831,242.7241 c -0.15208,-0.11011 -0.34689,-0.16324 -0.54837,-0.13185 l -0.0759,0.014 c -0.40302,0.0633 -0.67731,0.43959 -0.61442,0.84252 l 0.18799,1.20307 -3.17953,0.64477 c -0.27156,-0.19644 -0.61285,-0.27049 -0.94138,-0.20424 -0.64998,0.13132 -1.07059,0.76454 -0.93956,1.41459 0.13088,0.65094 0.76509,1.07219 1.41586,0.94042 0.36266,-0.0743 0.67082,-0.31166 0.83518,-0.64336 l 1.92985,-0.39069 -1.50527,2.06347 c -0.33308,0.0382 -0.635,0.21395 -0.8328,0.48465 -0.39116,0.5354 -0.27445,1.28649 0.26072,1.67796 0.53538,0.39116 1.28648,0.27447 1.67796,-0.26069 0.21791,-0.29939 0.28554,-0.68256 0.18328,-1.03846 l 1.50696,-2.06593 0.27813,1.78563 c -0.25358,0.26937 -0.36888,0.64056 -0.31253,1.00619 0.10184,0.65582 0.71631,1.10472 1.37205,1.00238 0.65572,-0.10243 1.10408,-0.71724 1.00118,-1.37288 -0.0521,-0.33123 -0.24034,-0.62558 -0.51911,-0.81189 l -0.46945,-3.00564 0.68855,-1.72059 -0.0793,0.0171 -0.28168,-0.45227 -0.0626,-0.0492 c -0.18862,-0.13858 -0.41799,-0.16122 -0.6264,-0.10323 l -0.0565,-0.36038 c -0.0316,-0.20145 -0.14076,-0.371 -0.29289,-0.48194 z"
         id="path4897"
         inkscape:connector-curvature="0" />
      <path
         inkscape:connector-curvature="0"
         id="path4899"
         d="m 109.82987,231.74781 59.90989,7.68755 c -19.48598,2.97785 -62.66529,4.9727 -59.90989,-7.68755 z"
         style="display:inline;fill:#f0f4c3;fill-rule:evenodd;stroke:none;stroke-width:0.37112325px;stroke-linecap:butt;stroke-linejoin:miter;stroke-opacity:1"
         sodipodi:nodetypes="ccc"
         inkscape:transform-center-x="30.140599"
         inkscape:transform-center-y="-3.7026754" />
      <path
         style="display:inline;fill:#558b2f;fill-rule:evenodd;stroke:none;stroke-width:0.37112325px;stroke-linecap:butt;stroke-linejoin:miter;stroke-opacity:1"
         d="m 120.64431,213.09259 a 5.8512387,5.8512387 0 0 0 -5.85173,5.85097 5.8512387,5.8512387 0 0 0 0.55888,2.48118 c -2.81766,2.2391 -4.79709,5.59193 -5.52191,10.32331 l 59.91029,7.68704 c 1.73477,-16.78256 -27.15165,-22.62471 -43.36706,-21.64984 a 5.8512387,5.8512387 0 0 0 -5.72847,-4.69266 z"
         id="path4901"
         inkscape:connector-curvature="0" />
      <path
         style="display:inline;opacity:1;fill:#689f38;fill-opacity:1;stroke:none;stroke-width:2.30290246;stroke-linecap:round;stroke-linejoin:round;stroke-miterlimit:4;stroke-dasharray:none;stroke-dashoffset:0;stroke-opacity:1"
         d="m 122.97167,229.20066 c 0.98996,0.66998 1.24753,2.00632 0.57758,2.99626 -4.8065,4.5487 -8.92516,9.222 -10.07554,14.43285 -0.66995,0.98995 -2.00629,1.24755 -2.99625,0.57755 -0.98994,-0.66999 -1.09508,-1.91876 -0.57756,-2.99628 2.15284,-4.48212 4.93937,-9.13709 10.07552,-14.43285 0.66998,-0.98993 2.00631,-1.24753 2.99625,-0.57753 z"
         id="path4903"
         inkscape:connector-curvature="0"
         sodipodi:nodetypes="ccccscc" />
      <path
         sodipodi:nodetypes="cccccccccccccccccccccccccccccccccc"
         inkscape:connector-curvature="0"
         id="path4905"
         d="m 169.96344,244.19494 c -0.13478,0.15846 -0.21082,-0.15999 -0.19309,0.0655 l 0.006,0.0847 c 0.0346,0.45098 0.42685,0.78692 0.87768,0.75252 l 1.34622,0.42608 0.43564,3.57059 c -0.24077,0.28305 -0.35232,0.65383 -0.30771,1.02275 0.0885,0.72987 0.75179,1.24992 1.48169,1.16177 0.73094,-0.0879 1.25183,-0.75227 1.16287,-1.48307 -0.0505,-0.40734 -0.28604,-0.76862 -0.63836,-0.9792 l -0.26352,-2.16714 2.14966,1.8436 c 0.0132,0.37147 0.18119,0.72049 0.46315,0.96269 0.55777,0.47896 1.39814,0.41533 1.87743,-0.14216 0.47895,-0.55776 0.41529,-1.39812 -0.14216,-1.8774 -0.31197,-0.26692 -0.72961,-0.37502 -1.13189,-0.29299 l -2.15225,-1.84568 1.99795,-0.15199 c 0.27567,0.30376 0.6759,0.46353 1.08498,0.43311 0.73377,-0.0555 1.28349,-0.69555 1.22748,-1.42929 -0.0561,-0.7337 -0.69662,-1.28283 -1.43029,-1.22623 -0.37065,0.0288 -0.71239,0.21115 -0.9426,0.50306 l -3.36315,0.25696 -0.13607,-1.11738 c -0.0541,-0.44976 -0.459,-0.76636 -0.90784,-0.71203 l -0.0881,0.006 c -0.44796,0.0553 -0.76353,0.46121 -0.70948,0.90985 l 0.0127,0.0892 c -0.19579,0.023 -0.38526,0.11025 -0.52445,0.27202 l -0.0599,0.0647 c -0.16951,0.19645 -0.21476,0.44797 -0.16888,0.68333 l -0.40328,0.0295 c -0.22521,0.0167 -0.42232,0.12344 -0.55821,0.28184 z"
         style="display:inline;opacity:1;fill:#558b2f;fill-opacity:1;stroke:none;stroke-width:1.83399451;stroke-linecap:round;stroke-linejoin:round;stroke-miterlimit:4;stroke-dasharray:none;stroke-dashoffset:0;stroke-opacity:1" />
      <path
         style="display:inline;opacity:1;fill:#689f38;fill-opacity:1;stroke:none;stroke-width:2.55336881;stroke-linecap:round;stroke-linejoin:round;stroke-miterlimit:4;stroke-dasharray:none;stroke-dashoffset:0;stroke-opacity:1"
         d="m 152.1909,231.09693 c 0.8268,-1.03585 2.16392,-0.94362 3.36219,-0.37733 7.33399,3.46587 14.20001,7.19912 18.85519,12.19574 0.90342,0.96971 1.20412,2.32634 0.37732,3.3622 -0.82679,1.03585 -2.4838,1.36982 -3.36219,0.37733 -5.78493,-6.53643 -12.05817,-9.68624 -18.85516,-12.19574 -1.24333,-0.45905 -1.20417,-2.32634 -0.37735,-3.3622 z"
         id="path4907"
         inkscape:connector-curvature="0"
         sodipodi:nodetypes="sssssss" />
      <circle
         r="4.9286551"
         cy="218.94331"
         cx="120.64404"
         id="circle4909"
         style="display:inline;opacity:1;fill:#ffffff;fill-opacity:1;stroke:none;stroke-width:1.09401083;stroke-linecap:round;stroke-linejoin:round;stroke-miterlimit:4;stroke-dasharray:none;stroke-dashoffset:0;stroke-opacity:1" />
      <circle
         style="display:inline;opacity:1;fill:#f57c00;fill-opacity:1;stroke:none;stroke-width:0.61617833;stroke-linecap:round;stroke-linejoin:round;stroke-miterlimit:4;stroke-dasharray:none;stroke-dashoffset:0;stroke-opacity:1"
         id="circle4911"
         cx="119.05646"
         cy="219.47249"
         r="2.77596" />
      <circle
         r="1.5458485"
         cy="219.47249"
         cx="119.05646"
         id="circle4913"
         style="display:inline;opacity:1;fill:#424242;fill-opacity:1;stroke:none;stroke-width:0.34313115;stroke-linecap:round;stroke-linejoin:round;stroke-miterlimit:4;stroke-dasharray:none;stroke-dashoffset:0;stroke-opacity:1" />
      <circle
         style="display:inline;opacity:1;fill:#fafafa;fill-opacity:1;stroke:#29b6f6;stroke-width:1.80365896;stroke-linecap:round;stroke-linejoin:round;stroke-miterlimit:4;stroke-dasharray:none;stroke-dashoffset:0;stroke-opacity:1"
         id="circle4915"
         cx="132.54742"
         cy="213.2782"
         r="3.1893404" />
      <circle
         r="5.5088606"
         cy="210.66029"
         cx="143.19629"
         id="circle4917"
         style="display:inline;opacity:1;fill:#fafafa;fill-opacity:1;stroke:#29b6f6;stroke-width:1.80365896;stroke-linecap:round;stroke-linejoin:round;stroke-miterlimit:4;stroke-dasharray:none;stroke-dashoffset:0;stroke-opacity:1" />
      <ellipse
         style="display:inline;opacity:1;fill:#fafafa;fill-opacity:1;stroke:#29b6f6;stroke-width:1.80365896;stroke-linecap:round;stroke-linejoin:round;stroke-miterlimit:4;stroke-dasharray:none;stroke-dashoffset:0;stroke-opacity:1"
         id="ellipse4919"
         cx="160.12476"
         cy="190.84407"
         rx="21.020655"
         ry="17.686344" />
      <path
         sodipodi:nodetypes="ccccccccccccccccccccccccccccccc"
         inkscape:connector-curvature="0"
         id="path4933"
         d="m 64.86403,238.58193 c 0.15209,-0.11011 0.34687,-0.16324 0.54838,-0.13185 l 0.0759,0.014 c 0.40302,0.0633 0.67731,0.43959 0.61442,0.84251 l -0.18796,1.20308 3.17952,0.64477 c 0.27154,-0.19645 0.61283,-0.27049 0.94136,-0.20425 0.65,0.1313 1.07059,0.76454 0.93959,1.4146 -0.13089,0.65095 -0.76512,1.07219 -1.41589,0.94042 -0.36266,-0.0743 -0.67082,-0.31167 -0.83518,-0.64337 l -1.92985,-0.39068 1.5053,2.06347 c 0.33305,0.0383 0.63497,0.21395 0.83277,0.48465 0.39114,0.5354 0.27445,1.28648 -0.26072,1.67796 -0.53541,0.39116 -1.28648,0.27446 -1.67796,-0.26069 -0.21791,-0.2994 -0.28551,-0.68256 -0.18328,-1.03846 l -1.50696,-2.06594 -0.2781,1.78564 c 0.25355,0.26937 0.36885,0.64055 0.31252,1.00618 -0.10183,0.65582 -0.71633,1.10472 -1.37207,1.00239 -0.65569,-0.10241 -1.10405,-0.71724 -1.00118,-1.37288 0.0522,-0.33123 0.24032,-0.6256 0.51911,-0.81189 l 0.46945,-3.00564 -0.68853,-1.72062 0.0793,0.0171 0.28165,-0.45227 0.0626,-0.0492 c 0.18865,-0.13858 0.41801,-0.16122 0.62643,-0.10323 l 0.0565,-0.36038 c 0.0316,-0.20145 0.14076,-0.371 0.2929,-0.48194 z"
         style="display:inline;opacity:1;fill:#1b5e20;fill-opacity:1;stroke:none;stroke-width:1.6540935;stroke-linecap:round;stroke-linejoin:round;stroke-miterlimit:4;stroke-dasharray:none;stroke-dashoffset:0;stroke-opacity:1" />
      <path
         inkscape:transform-center-y="-3.702675"
         inkscape:transform-center-x="-30.140602"
         sodipodi:nodetypes="ccc"
         style="display:inline;fill:#f0f4c3;fill-rule:evenodd;stroke:none;stroke-width:0.37112325px;stroke-linecap:butt;stroke-linejoin:miter;stroke-opacity:1"
         d="m 67.04248,227.60564 -59.90989,7.68755 c 12.43996,2.97785 57.76647,4.9727 59.90989,-7.68755 z"
         id="path4935"
         inkscape:connector-curvature="0" />
      <path
         sodipodi:nodetypes="ccccccc"
         inkscape:connector-curvature="0"
         id="path4937"
         d="m 56.22803,208.95042 c 3.23165,-2.6e-4 5.85158,2.61934 5.85174,5.85097 -0.003,0.85803 -0.19293,1.7051 -0.55888,2.48118 2.81763,2.2391 4.79708,5.59193 5.52191,10.32331 l -59.91032,7.68704 c -6.81913,-19.55585 20.26613,-26.38046 43.36706,-21.64984 0.55092,-2.72726 2.94616,-4.68938 5.72849,-4.69266 z"
         style="display:inline;fill:#1b5e20;fill-rule:evenodd;stroke:none;stroke-width:0.37112325px;stroke-linecap:butt;stroke-linejoin:miter;stroke-opacity:1" />
      <path
         sodipodi:nodetypes="ccccscc"
         inkscape:connector-curvature="0"
         id="path4939"
         d="m 53.90065,225.05849 c -0.98996,0.66998 -1.24753,2.00632 -0.57756,2.99626 4.8065,4.5487 8.92517,9.222 10.07552,14.43285 0.66998,0.98995 2.00631,1.24755 2.99628,0.57755 0.98994,-0.66999 1.09508,-1.91876 0.57753,-2.99628 -2.15281,-4.48212 -4.93935,-9.13709 -10.07549,-14.43285 -0.66998,-0.98993 -2.00631,-1.24753 -2.99628,-0.57753 z"
         style="display:inline;opacity:1;fill:#2e7d32;fill-opacity:1;stroke:none;stroke-width:2.30290246;stroke-linecap:round;stroke-linejoin:round;stroke-miterlimit:4;stroke-dasharray:none;stroke-dashoffset:0;stroke-opacity:1" />
      <path
         sodipodi:nodetypes="cccccccccccccccccccccccccccc"
         style="display:inline;opacity:1;fill:#1b5e20;fill-opacity:1;stroke:none;stroke-width:1.83399451;stroke-linecap:round;stroke-linejoin:round;stroke-miterlimit:4;stroke-dasharray:none;stroke-dashoffset:0;stroke-opacity:1"
         d="m 4.87207,241.38156 -0.43561,3.57059 c 0.24077,0.28305 0.35231,0.65383 0.30768,1.02275 -0.0885,0.72987 -0.75176,1.24991 -1.48169,1.16177 -0.73092,-0.088 -1.2518,-0.75227 -1.16287,-1.48307 0.0505,-0.40734 0.28606,-0.76862 0.63838,-0.9792 l 0.26353,-2.16714 -2.14969,1.8436 c -0.0132,0.37147 -0.18116,0.72049 -0.46315,0.96269 -0.55774,0.47895 -1.39811,0.41532 -1.87741,-0.14216 -0.47895,-0.55776 -0.41531,-1.39812 0.14216,-1.8774 0.31197,-0.26692 0.72959,-0.37502 1.13187,-0.29299 l 2.15227,-1.84568 -1.99797,-0.15199 c -0.27564,0.30375 -0.6759,0.46353 -1.08495,0.43311 -0.73377,-0.0555 -1.28349,-0.69555 -1.22748,-1.42929 0.0561,-0.73369 0.69662,-1.28283 1.43026,-1.22623 0.37065,0.0288 0.71239,0.21115 0.9426,0.50305 l 3.36317,0.25697 0.13605,-1.11738 c 0.0541,-0.44976 0.45903,-0.76636 0.90787,-0.71204 l 0.0881,0.006 c 0.44799,0.0553 0.76356,0.46121 0.70948,0.90984 l -0.0127,0.0892 c 0.19581,0.023 0.38528,0.11025 0.52445,0.27202 l 0.0599,0.0647 c 0.16951,0.19646 0.21476,0.44798 0.16888,0.68334 z"
         id="path4941"
         inkscape:connector-curvature="0" />
      <path
         sodipodi:nodetypes="sssssss"
         inkscape:connector-curvature="0"
         id="path4943"
         d="m 24.68145,226.95476 c -0.8268,-1.03585 -2.16393,-0.94362 -3.36222,-0.37733 -7.33396,3.46587 -14.19998,7.19912 -18.85516,12.19574 -0.90342,0.96971 -1.20415,2.32634 -0.37733,3.3622 0.8268,1.03585 2.48381,1.36982 3.36217,0.37733 5.78496,-6.53643 12.0582,-9.68624 18.85519,-12.19574 1.2433,-0.45905 1.20414,-2.32634 0.37735,-3.3622 z"
         style="display:inline;opacity:1;fill:#2e7d32;fill-opacity:1;stroke:none;stroke-width:2.55336881;stroke-linecap:round;stroke-linejoin:round;stroke-miterlimit:4;stroke-dasharray:none;stroke-dashoffset:0;stroke-opacity:1" />
      <circle
         transform="scale(-1,1)"
         style="display:inline;opacity:1;fill:#ffffff;fill-opacity:1;stroke:none;stroke-width:1.09401083;stroke-linecap:round;stroke-linejoin:round;stroke-miterlimit:4;stroke-dasharray:none;stroke-dashoffset:0;stroke-opacity:1"
         id="circle4945"
         cx="-56.228447"
         cy="214.80115"
         r="4.9286551" />
      <circle
         transform="scale(-1,1)"
         r="2.77596"
         cy="215.56715"
         cx="-57.81591"
         id="circle4947"
         style="display:inline;opacity:1;fill:#fdd835;fill-opacity:1;stroke:none;stroke-width:0.61617833;stroke-linecap:round;stroke-linejoin:round;stroke-miterlimit:4;stroke-dasharray:none;stroke-dashoffset:0;stroke-opacity:1" />
      <circle
         transform="scale(-1,1)"
         style="display:inline;opacity:1;fill:#424242;fill-opacity:1;stroke:none;stroke-width:0.34313115;stroke-linecap:round;stroke-linejoin:round;stroke-miterlimit:4;stroke-dasharray:none;stroke-dashoffset:0;stroke-opacity:1"
         id="circle4949"
         cx="-57.81591"
         cy="215.56715"
         r="1.5458485" />
      <text
         id="text4961"
         y="194.86168"
         x="147.48993"
         style="font-style:normal;font-variant:normal;font-weight:normal;font-stretch:normal;font-size:15.16097927px;line-height:125%;font-family:'open sans';-inkscape-font-specification:'open sans';letter-spacing:0px;word-spacing:0px;display:inline;fill:#000000;fill-opacity:1;stroke:none;stroke-width:0.37902457px;stroke-linecap:butt;stroke-linejoin:miter;stroke-opacity:1"
         xml:space="preserve"><tspan
           dx="0 0"
           dy="0 1.0793201"
           style="font-style:normal;font-variant:normal;font-weight:normal;font-stretch:normal;font-family:'pt sans';-inkscape-font-specification:'pt sans';stroke-width:0.37902457px"
           y="194.86168"
           x="147.48993"
           id="tspan4959"
           sodipodi:role="line">x=</tspan></text>
      <text
         xml:space="preserve"
         style="font-style:normal;font-variant:normal;font-weight:normal;font-stretch:normal;font-size:15.16097927px;line-height:125%;font-family:'open sans';-inkscape-font-specification:'open sans';letter-spacing:0px;word-spacing:0px;display:inline;fill:#689f38;fill-opacity:1;stroke:none;stroke-width:0.37902457px;stroke-linecap:butt;stroke-linejoin:miter;stroke-opacity:1"
         x="163.12811"
         y="195.97429"
         id="text4965"><tspan
           sodipodi:role="line"
           id="tspan4963"
           x="163.12811"
           y="195.97429"
           style="font-style:normal;font-variant:normal;font-weight:normal;font-stretch:normal;font-family:'pt sans';-inkscape-font-specification:'pt sans';fill:#689f38;stroke:none;stroke-width:0.37902457px"
           dy="-0.098120004"
           dx="-0.39248002">✔</tspan></text>
      <path
         sodipodi:nodetypes="cc"
         inkscape:connector-curvature="0"
         id="path4975"
         d="m 44.91771,199.35987 c 17.06501,-34.75883 63.01848,-31.37879 78.42403,0"
         style="display:inline;opacity:0.52999998;fill:none;fill-opacity:1;fill-rule:evenodd;stroke:#ffffff;stroke-width:2.05491257;stroke-linecap:round;stroke-linejoin:round;stroke-miterlimit:4;stroke-dasharray:4.10982494, 8.21964988;stroke-dashoffset:7.76450014;stroke-opacity:1;marker-start:url(#TriangleInM);paint-order:normal" />
      <path
         style="display:inline;opacity:0.52999998;fill:none;fill-opacity:1;fill-rule:evenodd;stroke:#ffffff;stroke-width:2.05491257;stroke-linecap:round;stroke-linejoin:round;stroke-miterlimit:4;stroke-dasharray:4.10982521, 8.21965041;stroke-dashoffset:9.3760004;stroke-opacity:1;marker-start:url(#marker5247);paint-order:normal"
         d="m 112.62175,197.95622 c -12.657034,-20.51279 -46.7405,-18.51807 -58.16669,0"
         id="path5243"
         inkscape:connector-curvature="0"
         sodipodi:nodetypes="cc" />
      <path
         sodipodi:nodetypes="cc"
         inkscape:connector-curvature="0"
         id="path5249"
         d="m 64.87078,202.77203 c 8.40698,-15.60566 31.045706,-14.08812 38.63515,0"
         style="display:inline;opacity:0.52999998;fill:none;fill-opacity:1;fill-rule:evenodd;stroke:#ffffff;stroke-width:2.05491233;stroke-linecap:round;stroke-linejoin:round;stroke-miterlimit:4;stroke-dasharray:4.10982485, 8.21964972;stroke-dashoffset:7.76450014;stroke-opacity:1;marker-start:url(#marker5253);paint-order:normal" />
      <path
         style="display:inline;opacity:0.52999998;fill:none;fill-opacity:1;fill-rule:evenodd;stroke:#ffffff;stroke-width:2.05491257;stroke-linecap:round;stroke-linejoin:round;stroke-miterlimit:4;stroke-dasharray:4.10982475, 8.21964954;stroke-dashoffset:7.76450014;stroke-opacity:1;marker-start:url(#marker5259);paint-order:normal"
         d="m 93.172696,206.8251 c -4.59046,-7.02574 -16.951896,-6.34253 -21.095986,0"
         id="path5255"
         inkscape:connector-curvature="0"
         sodipodi:nodetypes="cc" />
      <path
         style="display:inline;opacity:0.52999998;fill:none;fill-opacity:1;fill-rule:evenodd;stroke:#ffffff;stroke-width:2.05491257;stroke-linecap:round;stroke-linejoin:round;stroke-miterlimit:4;stroke-dasharray:4.10982502, 8.21965002;stroke-dashoffset:7.76450014;stroke-opacity:1;marker-start:url(#marker5290);paint-order:normal"
         d="m 133.18144,202.45037 c -21.91642,-51.74687 -80.93398,-46.71488 -100.71921,0"
         id="path5286"
         inkscape:connector-curvature="0"
         sodipodi:nodetypes="cc" />
    </g>
    <path
       style="color:#000000;font-style:normal;font-variant:normal;font-weight:normal;font-stretch:normal;font-size:medium;line-height:normal;font-family:sans-serif;font-variant-ligatures:normal;font-variant-position:normal;font-variant-caps:normal;font-variant-numeric:normal;font-variant-alternates:normal;font-feature-settings:normal;text-indent:0;text-align:start;text-decoration:none;text-decoration-line:none;text-decoration-style:solid;text-decoration-color:#000000;letter-spacing:normal;word-spacing:normal;text-transform:none;writing-mode:lr-tb;direction:ltr;text-orientation:mixed;dominant-baseline:auto;baseline-shift:baseline;text-anchor:start;white-space:normal;shape-padding:0;clip-rule:nonzero;display:inline;overflow:visible;visibility:visible;opacity:1;isolation:auto;mix-blend-mode:normal;color-interpolation:sRGB;color-interpolation-filters:linearRGB;solid-color:#000000;solid-opacity:1;vector-effect:none;fill:#ffffff;fill-opacity:1;fill-rule:evenodd;stroke:none;stroke-width:4.4391036;stroke-linecap:round;stroke-linejoin:miter;stroke-miterlimit:4;stroke-dasharray:none;stroke-dashoffset:0;stroke-opacity:1;color-rendering:auto;image-rendering:auto;shape-rendering:auto;text-rendering:auto;enable-background:accumulate"
       d="m 84.372826,163.36275 a 2.2197738,2.2197738 0 1 1 -4.439127,0 v -26.5163 a 2.2197738,2.2197738 0 1 1 4.439127,0 z m -7.158287,0 a 2.2197738,2.2197738 0 1 1 -4.439127,0 v -26.5163 a 2.2197738,2.2197738 0 1 1 4.439127,0 z m -7.160957,0 a 2.2197738,2.2197738 0 1 1 -4.439127,0 v -26.5163 a 2.2197738,2.2197738 0 1 1 4.439127,0 z"
       id="path5304"
       inkscape:connector-curvature="0" />
    <text
       xml:space="preserve"
       style="font-style:normal;font-variant:normal;font-weight:normal;font-stretch:normal;font-size:20.67094231px;line-height:125%;font-family:'open sans';-inkscape-font-specification:'open sans';letter-spacing:0px;word-spacing:0px;display:inline;fill:#424242;fill-opacity:1;stroke:none;stroke-width:0.13297291px;stroke-linecap:butt;stroke-linejoin:miter;stroke-opacity:1"
       x="-148.46895"
       y="191.64494"
       id="text5316"
       transform="rotate(-90)"><tspan
         sodipodi:role="line"
         id="tspan5314"
         x="-148.46895"
         y="191.64494"
         style="font-style:normal;font-variant:normal;font-weight:bold;font-stretch:normal;font-family:'pt sans caption';-inkscape-font-specification:'pt sans caption Bold';text-align:center;text-anchor:middle;fill:#424242;stroke-width:0.13297291px">Z<tspan
   id="tspan5310"
   style="font-size:19.2928791px;text-align:center;text-anchor:middle;fill:#424242;stroke-width:0.13297291px">ERO</tspan> K<tspan
   id="tspan5312"
   style="font-size:19.2928791px;text-align:center;text-anchor:middle;fill:#424242;stroke-width:0.13297291px">NOWLEDGE <tspan
   style="font-size:20.67094231px;stroke-width:0.13297291px"
   id="tspan6222">P</tspan>ROOFS</tspan></tspan></text>
    <text
       id="text5324"
       y="173.0433"
       x="-148.74612"
       style="font-style:normal;font-variant:normal;font-weight:normal;font-stretch:normal;font-size:35.00729752px;line-height:125%;font-family:'open sans';-inkscape-font-specification:'open sans';letter-spacing:0px;word-spacing:0px;display:inline;fill:#e65100;fill-opacity:1;stroke:none;stroke-width:0.22519644px;stroke-linecap:butt;stroke-linejoin:miter;stroke-opacity:1"
       xml:space="preserve"
       transform="rotate(-90)"><tspan
         style="font-style:normal;font-variant:normal;font-weight:normal;font-stretch:normal;font-size:14.41257191px;font-family:'pt sans';-inkscape-font-specification:'pt sans';text-align:center;text-anchor:middle;fill:#e65100;stroke-width:0.22519644px"
         y="173.0433"
         x="-148.74612"
         id="tspan5322"
         sodipodi:role="line">Seminar für Internetsicherheit</tspan></text>
    <text
       transform="rotate(-90)"
       xml:space="preserve"
       style="font-style:normal;font-variant:normal;font-weight:normal;font-stretch:normal;font-size:22.25615692px;line-height:125%;font-family:'open sans';-inkscape-font-specification:'open sans';letter-spacing:0px;word-spacing:0px;display:inline;fill:#e65100;fill-opacity:1;stroke:none;stroke-width:0.14317036px;stroke-linecap:butt;stroke-linejoin:miter;stroke-opacity:1"
       x="-148.74867"
       y="202.96645"
       id="text6226"><tspan
         sodipodi:role="line"
         id="tspan6224"
         x="-148.74867"
         y="202.96645"
         style="font-style:normal;font-variant:normal;font-weight:normal;font-stretch:normal;font-size:9.16290283px;font-family:'pt sans';-inkscape-font-specification:'pt sans';text-align:center;text-anchor:middle;fill:#757575;stroke-width:0.14317036px">von Konstantin Fickel</tspan></text>
  </g>
</svg>
