<?xml version="1.0" encoding="UTF-8" standalone="no"?>
<!-- Created with Inkscape (http://www.inkscape.org/) -->

<svg
   xmlns:dc="http://purl.org/dc/elements/1.1/"
   xmlns:cc="http://creativecommons.org/ns#"
   xmlns:rdf="http://www.w3.org/1999/02/22-rdf-syntax-ns#"
   xmlns:svg="http://www.w3.org/2000/svg"
   xmlns="http://www.w3.org/2000/svg"
   xmlns:sodipodi="http://sodipodi.sourceforge.net/DTD/sodipodi-0.dtd"
   xmlns:inkscape="http://www.inkscape.org/namespaces/inkscape"
   width="500"
   height="250"
   viewBox="0 0 132.29167 66.145833"
   version="1.1"
   id="svg4104"
   inkscape:version="0.92.4 (5da689c313, 2019-01-14)"
   sodipodi:docname="github-image.svg">
  <defs
     id="defs4098">
    <marker
       inkscape:collect="always"
       inkscape:isstock="true"
       style="overflow:visible"
       id="TriangleInM"
       refX="0"
       refY="0"
       orient="auto"
       inkscape:stockid="TriangleInM">
      <path
         inkscape:connector-curvature="0"
         transform="scale(-0.4)"
         style="fill:#ffffff;fill-opacity:1;fill-rule:evenodd;stroke:#ffffff;stroke-width:1.00000003pt;stroke-opacity:1"
         d="M 5.77,0 -2.88,5 V -5 Z"
         id="path5115" />
    </marker>
    <marker
       inkscape:collect="always"
       inkscape:stockid="TriangleInM"
       orient="auto"
       refY="0"
       refX="0"
       id="marker5247"
       style="overflow:visible"
       inkscape:isstock="true">
      <path
         inkscape:connector-curvature="0"
         id="path5245"
         d="M 5.77,0 -2.88,5 V -5 Z"
         style="fill:#ffffff;fill-opacity:1;fill-rule:evenodd;stroke:#ffffff;stroke-width:1.00000003pt;stroke-opacity:1"
         transform="scale(-0.4)" />
    </marker>
    <marker
       inkscape:collect="always"
       inkscape:isstock="true"
       style="overflow:visible"
       id="marker5253"
       refX="0"
       refY="0"
       orient="auto"
       inkscape:stockid="TriangleInM">
      <path
         inkscape:connector-curvature="0"
         transform="scale(-0.4)"
         style="fill:#ffffff;fill-opacity:1;fill-rule:evenodd;stroke:#ffffff;stroke-width:1.00000003pt;stroke-opacity:1"
         d="M 5.77,0 -2.88,5 V -5 Z"
         id="path5251" />
    </marker>
    <marker
       inkscape:stockid="TriangleInM"
       orient="auto"
       refY="0"
       refX="0"
       id="marker5259"
       style="overflow:visible"
       inkscape:isstock="true">
      <path
         inkscape:connector-curvature="0"
         id="path5257"
         d="M 5.77,0 -2.88,5 V -5 Z"
         style="fill:#ffffff;fill-opacity:1;fill-rule:evenodd;stroke:#ffffff;stroke-width:1.00000003pt;stroke-opacity:1"
         transform="scale(-0.4)" />
    </marker>
    <marker
       inkscape:stockid="TriangleInM"
       orient="auto"
       refY="0"
       refX="0"
       id="marker5290"
       style="overflow:visible"
       inkscape:isstock="true">
      <path
         inkscape:connector-curvature="0"
         id="path5288"
         d="M 5.77,0 -2.88,5 V -5 Z"
         style="fill:#ffffff;fill-opacity:1;fill-rule:evenodd;stroke:#ffffff;stroke-width:1.00000003pt;stroke-opacity:1"
         transform="scale(-0.4)" />
    </marker>
  </defs>
  <sodipodi:namedview
     id="base"
     pagecolor="#ffffff"
     bordercolor="#666666"
     borderopacity="1.0"
     inkscape:pageopacity="0.0"
     inkscape:pageshadow="2"
     inkscape:zoom="0.7"
     inkscape:cx="196.68021"
     inkscape:cy="298.96026"
     inkscape:document-units="mm"
     inkscape:current-layer="layer1"
     showgrid="false"
     units="px"
     inkscape:window-width="1366"
     inkscape:window-height="746"
     inkscape:window-x="0"
     inkscape:window-y="22"
     inkscape:window-maximized="0" />
  <metadata
     id="metadata4101">
    <rdf:RDF>
      <cc:Work
         rdf:about="">
        <dc:format>image/svg+xml</dc:format>
        <dc:type
           rdf:resource="http://purl.org/dc/dcmitype/StillImage" />
        <dc:title></dc:title>
      </cc:Work>
    </rdf:RDF>
  </metadata>
  <g
     inkscape:label="Layer 1"
     inkscape:groupmode="layer"
     id="layer1"
     transform="translate(0,-230.85417)">
    <g
       id="g4484"
       transform="matrix(1.0495592,0,0,1.0495592,2.5926821,-16.742284)">
      <g
         transform="matrix(0.31209638,0,0,0.31209638,-5.5208523,237.30938)"
         id="g7569"
         style="display:inline">
        <path
           style="color:#000000;font-style:normal;font-variant:normal;font-weight:normal;font-stretch:normal;font-size:medium;line-height:normal;font-family:sans-serif;font-variant-ligatures:normal;font-variant-position:normal;font-variant-caps:normal;font-variant-numeric:normal;font-variant-alternates:normal;font-feature-settings:normal;text-indent:0;text-align:start;text-decoration:none;text-decoration-line:none;text-decoration-style:solid;text-decoration-color:#000000;letter-spacing:normal;word-spacing:normal;text-transform:none;writing-mode:lr-tb;direction:ltr;text-orientation:mixed;dominant-baseline:auto;baseline-shift:baseline;text-anchor:start;white-space:normal;shape-padding:0;clip-rule:nonzero;display:inline;overflow:visible;visibility:visible;opacity:1;isolation:auto;mix-blend-mode:normal;color-interpolation:sRGB;color-interpolation-filters:linearRGB;solid-color:#000000;solid-opacity:1;vector-effect:none;fill:#29b6f6;fill-opacity:1;fill-rule:evenodd;stroke:#29b6f6;stroke-width:24.94488144;stroke-linecap:round;stroke-linejoin:miter;stroke-miterlimit:4;stroke-dasharray:none;stroke-dashoffset:0;stroke-opacity:1;color-rendering:auto;image-rendering:auto;shape-rendering:auto;text-rendering:auto;enable-background:accumulate"
           d="m 259.80469,186.94727 c -28.56476,0 -54.39959,2.33136 -73.58985,6.25195 -9.59512,1.96029 -17.49679,4.26084 -23.63672,7.22656 -3.06995,1.48286 -5.73729,3.10619 -8.01562,5.38086 -2.27833,2.27467 -4.31836,5.64438 -4.31836,9.61133 0,3.96695 2.04003,7.33666 4.31836,9.61133 2.27833,2.27467 4.94567,3.898 8.01562,5.38086 5.29747,2.55878 11.91256,4.62283 19.78907,6.40039 A 175.96327,175.96327 0 0 0 96.675781,332.66797 H 86.044922 v 1.8125 c 0,8.88637 3.303407,16.96925 8.748047,23.10547 -7.22444,20.36355 -8.060521,36.10428 -6.166016,50.4707 1.377339,10.44465 4.096245,20.12141 6.707031,30.42774 -4.464223,9.13226 -10.842088,16.84715 -20.554687,25.34179 a 2.8120864,2.8120864 0 1 0 3.705078,4.23047 c 8.124116,-7.10535 14.196202,-13.98141 18.792969,-21.54297 0.129505,0.56484 0.265947,1.11292 0.392578,1.6836 -0.860667,11.96281 0.433347,24.81925 5.255858,38.99218 a 2.8120864,2.8120864 0 0 0 5.00586,0.77344 c -0.62552,2.54111 -1.23678,5.09433 -1.81641,7.67188 a 2.8120864,2.8120864 0 1 0 5.48438,1.24023 c 2.17218,-9.65949 4.75536,-19.11302 7.42578,-28.42578 -0.78301,5.24686 -1.68853,10.51567 -2.71484,15.80469 -1.68441,5.27608 -3.38861,10.6782 -5.11719,16.37109 a 2.8120864,2.8120864 0 1 0 5.38086,1.63086 c 0.34379,-1.13225 0.68255,-2.18734 1.02539,-3.30274 a 2.8120864,2.8120864 0 0 0 1.81641,-2.07812 c 0.84121,-3.74083 1.61972,-7.47318 2.3457,-11.19727 8.34681,-26.10378 15.95393,-47.49104 20.31055,-66.29101 1.02178,-4.40926 1.85524,-8.68621 2.48046,-12.85938 1.62126,23.79605 2.17973,49.21506 -0.23242,72.95704 -1.79991,6.63717 -4.0939,13.03985 -6.98047,19.1621 a 2.8120864,2.8120864 0 0 0 3.52149,3.86524 c -1.49768,7.24463 -3.37283,14.19183 -5.69922,20.7168 a 2.8120864,2.8120864 0 1 0 5.29297,1.89062 c 4.89207,-13.72109 7.87198,-29.02598 9.52734,-44.96875 8.85578,-33.29076 5.48186,-71.55442 -0.79687,-110.88281 h 4.72265 c 4.0148,40.47618 6.05035,80.47756 1.05274,119.05273 a 2.8120864,2.8120864 0 1 0 5.57226,0.72266 c 5.06278,-39.07818 3.03014,-79.30746 -0.9707,-119.77539 h 2.00977 c 0.82212,18.72098 4.48086,40.3993 9.10742,62.38672 -0.48228,10.66899 -0.47203,21.29052 0.22461,31.83984 -1.03683,3.67839 -2.16633,7.53283 -3.40235,11.60352 a 2.8120864,2.8120864 0 0 0 4.79102,2.71289 c 0.40767,3.12936 0.87905,6.25169 1.43164,9.36523 a 2.8120864,2.8120864 0 1 0 5.53711,-0.98242 c -1.29732,-7.30964 -2.16099,-14.68704 -2.67774,-22.12109 0.26803,-0.95683 0.51822,-1.87759 0.77344,-2.81055 6.77476,28.56968 13.84641,55.41761 17.10352,73.76953 a 2.8120864,2.8120864 0 1 0 5.53711,-0.98047 c -0.65967,-3.71686 -1.48079,-7.7776 -2.40235,-12.07226 a 2.812793,2.812793 0 0 0 1.73047,-2.63282 C 198.53244,464.44998 181.29666,418.13338 187.45508,369.26758 h 10.70117 c 0.2272,2.43147 0.46345,4.86884 0.68555,7.29883 -3.83801,12.67541 -3.99509,26.55069 -2.14453,40.6289 1.26521,9.62523 3.43484,19.41084 5.96093,29.11719 -0.0583,15.30166 -0.92122,30.50305 -3.02929,45.56445 a 2.8139947,2.8139947 0 1 0 5.57226,0.78321 c 1.29822,-9.27533 2.13377,-18.5837 2.60742,-27.91407 1.65578,5.66725 3.29605,11.24432 4.85743,16.68946 -2.20096,27.26141 -6.33284,53.28804 -12.42579,72.10937 a 2.8128259,2.8128259 0 1 0 5.35352,1.72852 c 5.15464,-15.92288 8.86774,-36.36339 11.26367,-58.26367 0.1207,0.49481 0.25253,0.99897 0.36914,1.49023 a 2.8120864,2.8120864 0 1 0 5.47071,-1.30078 c -1.25289,-5.27827 -2.75262,-10.74803 -4.33008,-16.30274 0.46091,-5.88165 0.83779,-11.80787 1.12109,-17.73632 0.97721,7.9122 2.40511,15.99406 4.27344,24.72461 0.25364,2.3006 0.53116,4.55196 0.86133,6.70117 1.76662,11.49963 4.5966,20.79067 9.58203,26.96679 a 2.8135835,2.8135835 0 0 0 0.31836,0.33008 c -0.97293,6.7558 -2.08435,12.95369 -3.34571,18.4043 a 2.8120864,2.8120864 0 0 0 3.61133,3.36523 c -1.00334,3.37857 -1.93313,6.44768 -2.67383,8.7793 a 2.8120864,2.8120864 0 1 0 5.35938,1.70508 c 2.3207,-7.30525 6.04727,-19.96487 10.23242,-35.70899 a 2.8120864,2.8120864 0 0 0 5.43359,-1.36328 c -0.565,-4.7964 -1.06388,-9.34064 -1.52929,-13.76367 2.49029,-9.92694 5.03376,-20.58978 7.48242,-31.79883 1.32667,5.24301 2.68458,10.06483 4.04883,14.35938 a 2.8120864,2.8120864 0 0 0 2.79101,1.97656 c -1.15642,4.45307 -2.33222,8.5689 -3.50781,12.26953 a 2.8123347,2.8123347 0 0 0 5.35938,1.70703 c 2.64457,-8.32482 5.27674,-18.44651 7.66406,-30.34961 1.29315,5.50128 2.58455,10.76987 3.86719,15.88282 -0.46545,4.42332 -0.96425,8.96691 -1.5293,13.76367 a 2.8120864,2.8120864 0 0 0 5.43164,1.36523 c 2.03636,7.66057 3.95372,14.56266 5.66016,20.47461 1.36942,13.05307 3.14668,24.85358 5.39257,34.5586 a 2.8120864,2.8120864 0 1 0 5.47657,-1.26954 c -1.11818,-4.83189 -2.11298,-10.27033 -3.00391,-16.14257 a 2.8120864,2.8120864 0 0 0 2.06641,-3.61914 c -1.1312,-3.56085 -2.62296,-8.5059 -4.32813,-14.41993 -0.52243,-5.08196 -0.98251,-10.36549 -1.38476,-15.80859 a 2.8135835,2.8135835 0 0 0 3.625,-0.65039 c 3.61742,-4.48141 6.0906,-10.62021 7.85546,-18.03516 -1.31882,7.97416 -3.08249,16.32982 -5.27929,25.58789 a 2.8120864,2.8120864 0 1 0 5.4707,1.29883 c 4.30805,-18.15561 6.95333,-33.07358 7.87695,-48.43164 0.61384,7.64275 1.37902,15.18786 2.30079,22.52735 -2.46927,8.44196 -4.84509,16.72017 -6.7168,24.60546 a 2.8120864,2.8120864 0 1 0 5.4707,1.29883 c 0.93723,-3.94844 2.03823,-8.04656 3.19336,-12.20312 2.19798,13.76084 4.99448,26.43061 8.43945,37.07226 a 2.8120864,2.8120864 0 1 0 5.35157,-1.72656 c -4.30567,-13.30037 -7.62997,-30.20397 -9.99024,-48.5918 0.80683,-2.74499 1.60795,-5.51022 2.42383,-8.30273 0.47366,9.33036 1.3092,18.63679 2.60742,27.91211 a 2.8139929,2.8139929 0 1 0 5.57227,-0.78125 c -2.10807,-15.06135 -2.97101,-30.26285 -3.0293,-45.56446 2.5261,-9.70634 4.69572,-19.4939 5.96094,-29.11914 1.85058,-14.07842 1.69168,-27.95139 -2.14649,-40.62695 0.70757,-7.74147 1.45135,-15.49621 2.18555,-23.25195 h 10.42188 c 1.35354,43.14439 -12.38289,85.23158 -13.08985,134.125 a 2.812799,2.812799 0 0 0 5.625,0.082 c 0.43878,-30.34623 6.18497,-58.41887 9.96485,-86.20508 1.45993,8.81722 3.80846,18.92833 7.18164,30.96094 -0.54381,2.56941 -1.09789,5.14149 -1.66602,7.71289 -7.85655,35.55927 -17.66664,70.89716 -21.77734,94.05859 a 2.8120864,2.8120864 0 1 0 5.53711,0.98243 c 3.44895,-19.43289 11.17803,-48.37207 18.29882,-78.81836 -0.37442,10.09974 -1.34628,20.10152 -3.0996,29.98046 a 2.8120864,2.8120864 0 1 0 5.5371,0.98047 c 2.3637,-13.31806 3.34602,-26.78781 3.38086,-40.35351 a 2.8126994,2.8126994 0 0 0 2.8418,-3.62696 c -1.13629,-3.74224 -2.17297,-7.28383 -3.14062,-10.69336 -0.0121,-0.28375 -0.0243,-0.56772 -0.0371,-0.85156 6.01125,-28.56886 10.40339,-56.63051 9.03515,-78.33398 h 3.76368 c -5.01326,45.83469 -8.37991,91.51103 -2.65235,135.7207 a 2.8120864,2.8120864 0 1 0 5.57227,-0.7168 c -5.65309,-43.63483 -2.29479,-89.09578 2.73828,-135.0039 h 0.65039 c -4.2175,30.91858 -5.80637,60.83318 -0.11524,87.79101 -0.21378,29.4877 2.42396,59.30609 11.23243,84.01172 a 2.8120864,2.8120864 0 1 0 5.29296,-1.88867 c -6.45144,-18.09479 -9.45449,-39.41166 -10.42578,-61.44922 0.97065,2.4876 2.0219,4.943 3.16211,7.36133 a 2.8120864,2.8120864 0 1 0 5.08594,-2.39844 c -3.838,-8.14018 -6.64778,-16.76697 -8.60937,-25.79687 0.14906,-19.46059 1.53134,-38.8284 3.20117,-56.53711 0.21935,1.0204 0.43609,2.03989 0.67578,3.07422 2.62816,11.34124 6.43595,23.5995 10.875,37.26953 1.03983,4.34835 2.18487,8.71129 3.38281,13.08984 1.05485,19.41821 3.91794,39.10884 8.39844,59.0332 a 2.8120864,2.8120864 0 1 0 5.48437,-1.24023 c -2.0518,-9.12421 -3.75053,-18.18647 -5.09375,-27.1875 2.67083,9.31275 5.25361,18.76826 7.42578,28.42773 a 2.8120864,2.8120864 0 1 0 5.48438,-1.24023 c -1.82446,-8.11321 -3.9128,-16.02229 -6.07617,-23.79883 a 2.8120864,2.8120864 0 0 0 0.99805,-3.11718 c -3.90318,-12.85468 -7.64837,-24.30128 -11.19532,-35.13477 -0.92496,-22.29946 0.61248,-44.18226 4.89844,-65.61523 2.83591,6.59558 5.59917,13.17195 7.91992,19.86718 6.78845,19.58441 10.03053,40.04801 1.32227,65.64063 a 2.8120864,2.8120864 0 0 0 2.85547,3.79101 c -0.17156,1.57741 -0.34277,3.12373 -0.51563,4.80078 a 2.8120864,2.8120864 0 1 0 5.58789,0.57618 c 1.93837,-18.80576 3.85316,-31.23687 4.45703,-45.79493 4.41028,6.69314 10.06369,12.90289 17.37891,19.30079 a 2.8120864,2.8120864 0 1 0 3.70508,-4.22852 c -9.95731,-8.70867 -16.40825,-16.59992 -20.88672,-26.03711 -0.0982,-14.4629 -1.5482,-32.43476 -5.26172,-59.91992 8.143,-6.35621 13.36719,-16.26071 13.36719,-27.4375 v -1.8125 h -17.22461 a 175.96327,175.96327 0 0 0 -86.51367,-96.41602 c 6.83392,-1.64999 12.65654,-3.5457 17.41015,-5.84179 3.06996,-1.48286 5.73925,-3.10619 8.01758,-5.38086 2.27833,-2.27467 4.31055,-5.64438 4.31055,-9.61133 0,-3.96695 -2.03222,-7.33666 -4.31055,-9.61133 -2.27833,-2.27467 -4.94762,-3.898 -8.01758,-5.38086 -6.13992,-2.96572 -14.04159,-5.26627 -23.63672,-7.22656 -19.19026,-3.92059 -45.03289,-6.25195 -73.59765,-6.25195 z m 0,15.30273 c 27.72011,0 52.84024,2.32632 70.53515,5.94141 8.84746,1.80754 15.86681,3.99353 20.04102,6.00976 1.04212,0.50337 1.2784,0.78934 1.92773,1.2168 -0.64933,0.42746 -0.88561,0.71538 -1.92773,1.21875 -4.17421,2.01624 -11.19356,4.20027 -20.04102,6.00781 -5.33344,1.08963 -11.35188,2.05942 -17.90234,2.88672 a 175.96327,175.96327 0 0 0 -50.93359,-7.83203 175.96327,175.96327 0 0 0 -52.41016,8.0664 c -7.29761,-0.87618 -13.97286,-1.92605 -19.82227,-3.12109 -8.84745,-1.80754 -15.8668,-3.99157 -20.04101,-6.00781 -1.04213,-0.50337 -1.2784,-0.79129 -1.92774,-1.21875 0.64934,-0.42746 0.88561,-0.71343 1.92774,-1.2168 4.17421,-2.01623 11.19356,-4.20222 20.04101,-6.00976 17.69492,-3.61509 42.8131,-5.94141 70.53321,-5.94141 z M 99.255859,361.79492 c 2.553461,2.01678 5.395701,3.68191 8.460941,4.92383 -1.84106,25.63495 -3.46532,43.9404 -7.22071,57.76172 -0.48627,1.78968 -1.010647,3.50565 -1.570309,5.17383 -1.94034,-7.5713 -3.730372,-14.83306 -4.71875,-22.32813 -1.727831,-13.10249 -1.17351,-27.11544 5.048828,-45.53125 z m 325.515621,3.49805 c 1.91295,14.40316 3.2073,26.17066 3.9668,36.01172 -1.98047,-9.712 -3.25085,-21.32693 -4.42578,-35.77735 0.15333,-0.0775 0.30698,-0.15463 0.45898,-0.23437 z m -5.92578,2.44531 c 0.56506,6.8446 1.16163,13.12703 1.86328,18.83984 -1.70815,-4.07633 -3.45974,-8.11193 -5.18945,-12.14062 0.49804,-2.07763 1.03098,-4.14997 1.58399,-6.21875 0.58669,-0.14674 1.16791,-0.30451 1.74218,-0.48047 z m -305.59375,0.69727 c 1.45061,0.32008 2.93559,0.55163 4.44922,0.68554 0.72269,3.70329 1.38239,7.4165 1.94336,11.14649 -2.98863,7.41702 -6.28787,14.77534 -9.42578,22.26367 1.19444,-9.72471 2.08606,-20.89559 3.0332,-34.0957 z m 10.2168,0.83203 h 0.28906 c -0.061,0.17937 -0.11808,0.35986 -0.17969,0.53906 -0.0339,-0.18012 -0.0751,-0.359 -0.10937,-0.53906 z m 6.20898,0 h 1.07032 c 1.45758,14.17818 0.1458,28.29285 -2.62891,42.62304 -0.32852,-10.38453 -1.21343,-20.68408 -2.68555,-30.89257 1.52265,-3.84947 2.95171,-7.75561 4.24414,-11.73047 z m 6.73047,0 h 0.53907 c 4.85869,14.84276 3.96054,30.23331 -0.35352,48.84961 -2.38391,10.28721 -5.84271,21.56136 -9.87891,34.06836 0.47414,-4.79983 0.84074,-9.584 1.09961,-14.35157 6.30211,-23.04206 10.89255,-45.58043 8.59375,-68.5664 z m 30.86524,0 h 0.5039 c 2.89607,6.09551 5.38199,11.56787 7.31836,16.86523 -1.09129,8.03269 -2.06281,16.05948 -2.84375,24.07031 -2.57252,-14.57907 -4.39814,-28.52898 -4.97851,-40.93554 z m 6.71484,0 h 3.54688 c -0.29167,1.94353 -0.59418,3.88639 -0.87891,5.83008 -0.84045,-1.8984 -1.74035,-3.84791 -2.66797,-5.83008 z m 33.61524,0 h 1.92968 c 3.86506,19.60023 5.61911,49.27649 4.83008,80.21484 -0.13103,5.13772 -0.33758,10.31442 -0.60547,15.48828 -1.88354,-6.43526 -3.75857,-12.93366 -5.46875,-19.4414 0.0489,-22.85508 -1.67897,-45.8105 -3.77539,-68.7461 0.84743,-2.57107 1.87462,-5.07738 3.08985,-7.51562 z m 7.69336,0 h 10.13085 c -2.63987,15.11038 -4.59718,28.09275 -5.83593,39.63867 -0.73464,-15.03049 -2.16702,-28.60979 -4.29492,-39.63867 z m 15.82812,0 h 7.28711 c 2.60119,43.53041 2.22727,102.21226 -2.76367,144.00781 -1.78953,-3.64938 -3.26089,-8.31937 -4.40821,-13.78125 a 2.8120864,2.8120864 0 0 0 0.38868,-2.29492 c -0.83038,-3.4995 -1.59094,-6.85904 -2.29688,-10.12891 -1.05009,-9.64924 -1.47312,-20.76395 -1.46875,-32.81054 0.01,-25.85797 1.90465,-55.88189 3.20703,-84.69336 0.017,-0.0966 0.0376,-0.20208 0.0547,-0.29883 z m 12.94141,0 h 2.20117 c 0.20556,6.15848 0.47478,12.14351 0.81836,17.91406 -0.61961,3.51683 -1.2202,7.11358 -1.78516,10.85156 -0.27664,-10.03211 -0.69396,-19.70411 -1.23437,-28.76562 z m 11.79297,0 h 2.22656 c 1.15855,14.4857 3.19607,29.77767 5.74804,45.05859 -1.38988,9.6669 -3.0382,19.45869 -4.85156,29.1543 -2.71082,-15.85747 -4.93869,-34.52372 -6.24219,-56.03125 1.05906,-5.95215 2.14265,-11.84611 3.11915,-18.18164 z m 7.89257,0 h 4.37305 c -0.25879,7.73783 -0.84949,15.86302 -1.70508,24.2207 -1.11325,-8.24233 -2.02013,-16.35945 -2.66797,-24.2207 z m 9.99024,0 h 4.04883 c 0.49335,2.74996 0.98318,5.50486 1.45507,8.32031 -0.53501,24.2372 -2.23099,45.46562 -4.59961,63.75195 -1.8205,-8.93106 -3.535,-18.04053 -5.07226,-27.14648 2.19858,-15.56391 3.71279,-30.82479 4.16797,-44.92578 z m 11.27343,0 H 288 c -0.52539,6.26042 -0.97964,12.98911 -1.36719,20.03125 -0.52836,-4.21909 -1.12146,-8.18614 -1.75195,-12.00977 0.0566,-2.64439 0.10195,-5.31869 0.13476,-8.02148 z m 8.62891,0 h 3.25586 c 1.97115,10.52834 3.66288,20.04326 5.07813,28.75 0.61624,13.99903 1.08134,27.65282 1.08593,40.28906 0.005,14.9163 -0.62442,28.44423 -2.31836,39.4707 -1.63204,10.62363 -4.33919,18.87518 -7.98437,23.73828 -2.91471,-43.71924 -2.19596,-96.19461 0.88281,-132.24804 z m 12.58985,0 h 5.12109 c 0.57679,0.54202 1.14,1.08961 1.68555,1.64258 -1.57583,14.38368 -2.33973,31.11695 -2.29688,48.75781 -0.81881,-6.78866 -1.88107,-14.11208 -3.15039,-22.00977 -0.41401,-9.38829 -0.8916,-18.90265 -1.35937,-28.39062 z m 12.93164,0 h 9.44921 c -0.38004,3.99354 -0.75852,7.98567 -1.13867,11.98242 -2.21642,-4.19839 -4.96239,-8.20729 -8.31054,-11.98242 z m 37.02343,0 h 7.4375 c 1.00034,15.69111 -1.20318,35.64816 -4.95117,56.88867 -1.47554,-15.13683 -3.64305,-30.32953 -5.95898,-45.50977 0.86101,-3.8402 2.0443,-7.57163 3.47265,-11.3789 z m 28.875,0 h 0.2168 c -0.13225,2.02544 -0.19424,4.06715 -0.17773,6.13281 -1.31325,11.72887 -2.70604,24.61604 -3.82813,38.56055 0.24678,-14.40473 1.69329,-29.38725 3.78906,-44.69336 z m 6.38477,0 h 5.78516 c -2.58378,10.44553 -3.53197,20.75528 -3.31641,31.01562 -1.92986,-8.70338 -3.08785,-16.71416 -3.21094,-24.29882 0.25153,-2.26933 0.49436,-4.47113 0.74219,-6.7168 z m 11.58984,0 h 4.16797 c 0.79242,1.92128 1.58879,3.83973 2.40235,5.74414 -4.01849,17.33861 -6.23544,34.9589 -6.80079,52.83203 -3.81257,-19.69032 -4.88087,-38.97606 0.23047,-58.57617 z m -84.875,7.57422 c 3.70755,4.95402 6.39717,10.27307 8.25,15.89453 -2.09628,22.93431 -3.82421,45.89035 -3.77539,68.74414 -1.13667,4.32536 -2.34249,8.64822 -3.58008,12.95312 -1.30957,-13.4115 -2.14687,-27.28581 -2.49414,-40.90234 -0.51659,-20.25589 0.0616,-39.96833 1.59961,-56.68945 z m -197.08008,14.66406 c 1.57946,14.76935 1.9424,29.73993 1.17383,44.90234 -4.35442,15.98243 -9.53057,32.40028 -13.85351,49.62891 a 2.8120864,2.8120864 0 0 0 -0.15625,-0.65625 c -2.42155,-7.1167 -3.91766,-13.83524 -4.67188,-20.25 a 2.8129751,2.8129751 0 0 0 0.002,0 2.8129751,2.8129751 0 0 0 2.32227,-3.1582 c -0.70594,-5.09061 -1.60666,-9.85473 -2.5957,-14.40235 0.81751,-9.72834 3.16168,-18.87344 6.26562,-27.82812 3.29951,-9.51889 7.47399,-18.79957 11.51367,-28.23633 z m 57.88672,8.92578 c 0.30488,1.82255 0.54363,3.68205 0.71094,5.60156 0.72916,8.36546 0.10295,17.98706 -2.23633,30.38868 -0.3711,-1.71167 -0.73609,-3.42137 -1.0957,-5.13086 0.48291,-10.2174 1.41709,-20.51191 2.62109,-30.85938 z M 249.10352,412.5 c 1.80613,17.58573 4.24342,32.81369 6.96289,45.83008 -1.95643,9.54173 -4.02469,18.83951 -6.10938,27.73047 -2.95715,-34.47891 -2.56512,-56.42946 -0.85351,-73.56055 z m 33.90625,2.71484 c 0.42571,14.18707 -0.0507,31.70937 -2.03907,54.89258 -0.98851,-4.21592 -1.97018,-8.52723 -2.9414,-12.91601 2.02347,-12.39808 3.74427,-26.38513 4.98047,-41.97657 z m -16.11133,16.20313 c 1.68738,8.86614 3.49845,17.61076 5.36914,26.0918 -1.4441,8.69058 -3.02675,16.56808 -4.6836,23.62695 -1.96153,-6.50341 -3.90738,-14.04714 -5.73828,-22.6543 1.81271,-8.89332 3.51931,-17.97335 5.05274,-27.06445 z m -83.16211,1.80078 c 3.01327,22.15161 7.25908,44.48845 9.09179,68.01172 -3.80609,-15.84666 -8.27435,-33.59125 -12.4414,-51.71485 1.41879,-5.92182 2.525,-11.31748 3.34961,-16.29687 z m 102.13086,45.06445 c 0.18057,4.88829 0.40302,9.72643 0.66406,14.49414 -0.49629,-1.93458 -1.00435,-3.98873 -1.50781,-5.99609 0.30184,-2.90793 0.58293,-5.74057 0.84375,-8.49805 z m -41.82031,4.48242 c 0.49932,6.21712 1.12229,12.88663 1.85742,19.96876 -2.30103,9.17435 -4.53079,17.6105 -6.57618,25.02148 2.13759,-13.1091 3.6824,-28.51906 4.71876,-44.99024 z"
           id="path7413"
           transform="matrix(0.26458333,0,0,0.26458333,0,-20.50002)"
           inkscape:connector-curvature="0" />
        <circle
           style="opacity:1;fill:#29b6f6;fill-opacity:1;stroke:none;stroke-width:0.80830425;stroke-linecap:round;stroke-linejoin:round;stroke-miterlimit:4;stroke-dasharray:none;stroke-dashoffset:0;stroke-opacity:1"
           id="circle7415"
           cx="112.43913"
           cy="99.942879"
           r="77.971191" />
        <path
           style="opacity:1;fill:#29b6f6;fill-opacity:1;stroke:#29b6f6;stroke-width:15.11811066;stroke-linecap:round;stroke-linejoin:round;stroke-miterlimit:4;stroke-dasharray:none;stroke-dashoffset:0;stroke-opacity:1"
           d="m 529.74805,512.54297 a 22.114918,22.114918 0 0 0 -22.11719,22.11328 22.114918,22.114918 0 0 0 2.11133,9.37891 c -10.649,8.46243 -18.12939,21.13625 -20.86914,39.01757 -2.16403,9.94715 3.19433,17.49334 13.67187,23.11719 -5.39316,8.24744 -9.66074,16.18827 -13.40625,23.98633 -0.41656,0.86727 -0.71858,1.76351 -0.91211,2.66211 l -7.10742,1.44141 a 4.5395433,4.5395433 0 0 0 -3.55859,-0.77344 4.5395433,4.5395433 0 0 0 -3.55078,5.34765 4.5395433,4.5395433 0 0 0 5.35156,3.55469 4.5395433,4.5395433 0 0 0 3.15625,-2.43164 l 6.31445,-1.27734 c 0.11109,0.2191 0.23319,0.4321 0.36719,0.64062 l -5.07617,6.95899 a 4.5395433,4.5395433 0 0 0 -3.14844,1.83203 4.5395433,4.5395433 0 0 0 0.98633,6.34179 4.5395433,4.5395433 0 0 0 6.34179,-0.98632 4.5395433,4.5395433 0 0 0 0.69141,-3.92383 l 5.02148,-6.88281 c 0.27983,0.0666 0.56105,0.11798 0.84376,0.15429 l 0.88281,5.66797 a 4.5395433,4.5395433 0 0 0 -1.18164,3.80274 4.5395433,4.5395433 0 0 0 5.18554,3.78906 4.5395433,4.5395433 0 0 0 3.78516,-5.18945 4.5395433,4.5395433 0 0 0 -1.96289,-3.06836 l -1,-6.41211 c 0.79103,-0.55582 1.50245,-1.25681 2.07812,-2.10742 0.26722,-1.21045 0.57581,-2.41196 0.92579,-3.60743 1.50345,-0.3113 2.46173,-1.76699 2.1582,-3.27148 l -0.0527,-0.29688 c -0.0861,-0.42118 -0.26944,-0.79279 -0.51171,-1.11328 2.56071,-6.65571 6.33204,-13.09296 10.94531,-19.37695 42.12767,12.87874 123.13908,9.71596 177.95898,3.30469 7.31258,5.00664 14.44547,10.82658 21.39063,17.82812 0.15682,1.4227 1.25364,2.52095 2.62304,2.7168 1.20001,1.26949 2.39492,2.56857 3.58399,3.91211 0.82641,0.93376 1.83627,1.55543 2.93359,1.9043 l 0.89258,7.3164 a 5.0332694,5.0332694 0 0 0 -1.16211,3.86524 5.0332694,5.0332694 0 0 0 5.59961,4.39062 5.0332694,5.0332694 0 0 0 4.39648,-5.60547 5.0332694,5.0332694 0 0 0 -2.41406,-3.70117 l -0.8457,-6.95508 c 0.26702,-0.13329 0.52774,-0.2785 0.7832,-0.43554 l 7.19141,6.16796 a 5.0332694,5.0332694 0 0 0 1.75,3.63868 5.0332694,5.0332694 0 0 0 7.0957,-0.53711 5.0332694,5.0332694 0 0 0 -0.53711,-7.09571 5.0332694,5.0332694 0 0 0 -4.27734,-1.10742 l -7.19336,-6.16992 c 0.0854,-0.29625 0.15457,-0.59362 0.20508,-0.89453 l 6.40429,-0.48633 a 5.0332694,5.0332694 0 0 0 4.10157,1.63672 5.0332694,5.0332694 0 0 0 4.63867,-5.40234 5.0332694,5.0332694 0 0 0 -5.4043,-4.63282 5.0332694,5.0332694 0 0 0 -3.5625,1.90039 l -7.47851,0.57032 c -0.49979,-0.88134 -1.11327,-1.72432 -1.83594,-2.5 -5.15581,-5.534 -11.04362,-10.65034 -17.46875,-15.45899 3.70337,-61.65701 -103.54533,-83.16095 -164.08203,-79.52148 a 22.114918,22.114918 0 0 0 -21.65039,-17.73633 z"
           transform="matrix(0.26458333,0,0,0.26458333,0,-20.50002)"
           id="path7417"
           inkscape:connector-curvature="0" />
        <path
           style="opacity:1;fill:#78909c;fill-opacity:1;stroke:none;stroke-width:0.80830419;stroke-linecap:round;stroke-linejoin:round;stroke-miterlimit:4;stroke-dasharray:none;stroke-dashoffset:0;stroke-opacity:1"
           d="m 109.94456,132.53153 a 156.92711,84.925063 0 0 0 -68.68299,8.63393 84.925063,84.925063 0 0 0 71.20937,38.68609 84.925063,84.925063 0 0 0 70.4278,-37.52001 156.92711,84.925063 0 0 0 -72.95418,-9.80001 z"
           id="path7419"
           inkscape:connector-curvature="0" />
        <path
           sodipodi:nodetypes="cc"
           inkscape:connector-curvature="0"
           id="path7421"
           d="m 110.98983,68.990558 c 1.21943,17.418631 1.51832,22.843008 9.20928,29.569525"
           style="fill:none;fill-rule:evenodd;stroke:#fdd835;stroke-width:3.28800011;stroke-linecap:round;stroke-linejoin:miter;stroke-miterlimit:4;stroke-dasharray:none;stroke-opacity:1" />
        <path
           style="fill:none;fill-rule:evenodd;stroke:#fff176;stroke-width:3.28800011;stroke-linecap:round;stroke-linejoin:miter;stroke-miterlimit:4;stroke-dasharray:none;stroke-opacity:1"
           d="M 34.26714,74.714665 C 31.485671,85.595629 23.212313,94.279846 27.936213,108.16297"
           id="path7423"
           inkscape:connector-curvature="0"
           sodipodi:nodetypes="cc" />
        <path
           sodipodi:nodetypes="cc"
           inkscape:connector-curvature="0"
           id="path7425"
           d="m 68.749511,70.810588 c 0.02076,17.453421 7.344495,43.752332 9.601883,50.858292"
           style="fill:none;fill-rule:evenodd;stroke:#fdd835;stroke-width:3.28800011;stroke-linecap:round;stroke-linejoin:miter;stroke-miterlimit:4;stroke-dasharray:none;stroke-opacity:1" />
        <path
           style="fill:none;fill-rule:evenodd;stroke:#fff176;stroke-width:3.28800011;stroke-linecap:round;stroke-linejoin:miter;stroke-miterlimit:4;stroke-dasharray:none;stroke-opacity:1"
           d="m 77.1063,75.453275 c -1.383342,14.001231 -1.337839,39.221415 1.477208,51.385865"
           id="path7427"
           inkscape:connector-curvature="0"
           sodipodi:nodetypes="cc" />
        <path
           sodipodi:nodetypes="cc"
           inkscape:connector-curvature="0"
           id="path7429"
           d="m 52.605684,71.127128 c 1.214109,12.954454 2.724772,25.935845 0.949636,38.618552"
           style="fill:none;fill-rule:evenodd;stroke:#fdd835;stroke-width:3.28800011;stroke-linecap:round;stroke-linejoin:miter;stroke-miterlimit:4;stroke-dasharray:none;stroke-opacity:1" />
        <path
           style="fill:none;fill-rule:evenodd;stroke:#fff176;stroke-width:3.28800011;stroke-linecap:round;stroke-linejoin:miter;stroke-miterlimit:4;stroke-dasharray:none;stroke-opacity:1"
           d="m 91.77289,75.031205 c 1.942166,12.655804 4.154149,25.347595 2.004809,37.457885"
           id="path7431"
           inkscape:connector-curvature="0"
           sodipodi:nodetypes="cc" />
        <path
           sodipodi:nodetypes="cc"
           inkscape:connector-curvature="0"
           id="path7433"
           d="m 106.20735,75.980845 c -3.88576,12.883144 2.3156,25.032355 5.46571,39.040595"
           style="fill:none;fill-rule:evenodd;stroke:#fff176;stroke-width:3.28800011;stroke-linecap:round;stroke-linejoin:miter;stroke-miterlimit:4;stroke-dasharray:none;stroke-opacity:1" />
        <path
           style="opacity:1;fill:#616161;fill-opacity:1;stroke:none;stroke-width:0.09983251;stroke-linecap:round;stroke-linejoin:round;stroke-miterlimit:4;stroke-dasharray:none;stroke-dashoffset:0;stroke-opacity:1"
           d="M 69.189403,37.099676 A 46.556949,46.556949 0 0 0 25.149429,68.700218 H 113.21842 A 46.556949,46.556949 0 0 0 69.189403,37.099676 Z"
           id="path7435"
           inkscape:connector-curvature="0" />
        <path
           style="fill:none;fill-rule:evenodd;stroke:#fff176;stroke-width:3.28800011;stroke-linecap:round;stroke-linejoin:miter;stroke-miterlimit:4;stroke-dasharray:none;stroke-opacity:1"
           d="M 29.484678,73.211208 C 28.265252,90.629806 27.966356,96.054213 20.275401,102.78073"
           id="path7437"
           inkscape:connector-curvature="0"
           sodipodi:nodetypes="cc" />
        <path
           sodipodi:nodetypes="cc"
           inkscape:connector-curvature="0"
           id="path7439"
           d="m 106.20738,70.494048 c 2.78147,10.880954 11.05482,19.565178 6.33091,33.448292"
           style="fill:none;fill-rule:evenodd;stroke:#fdd835;stroke-width:3.28800011;stroke-linecap:round;stroke-linejoin:miter;stroke-miterlimit:4;stroke-dasharray:none;stroke-opacity:1" />
        <path
           style="fill:none;fill-rule:evenodd;stroke:#fff176;stroke-width:3.28800011;stroke-linecap:round;stroke-linejoin:miter;stroke-miterlimit:4;stroke-dasharray:none;stroke-opacity:1"
           d="m 38.487733,75.769815 c 2.18689,13.172444 3.290651,25.868295 -1.477209,35.980675"
           id="path7441"
           inkscape:connector-curvature="0"
           sodipodi:nodetypes="cc" />
        <path
           sodipodi:nodetypes="cc"
           inkscape:connector-curvature="0"
           id="path7443"
           d="m 101.98677,71.549188 c -2.186887,13.172451 -3.290641,25.868325 1.47721,35.980672"
           style="fill:none;fill-rule:evenodd;stroke:#fdd835;stroke-width:3.28800011;stroke-linecap:round;stroke-linejoin:miter;stroke-miterlimit:4;stroke-dasharray:none;stroke-opacity:1" />
        <path
           style="fill:none;fill-rule:evenodd;stroke:#fff176;stroke-width:3.28800011;stroke-linecap:round;stroke-linejoin:miter;stroke-miterlimit:4;stroke-dasharray:none;stroke-opacity:1"
           d="m 43.974532,74.609145 c 4.611757,9.604204 6.521409,12.807894 1.055145,30.810415"
           id="path7445"
           inkscape:connector-curvature="0"
           sodipodi:nodetypes="cc" />
        <path
           sodipodi:nodetypes="cc"
           inkscape:connector-curvature="0"
           id="path7447"
           d="m 96.499988,70.388528 c -4.611756,9.604174 -6.521394,12.807884 -1.055145,30.810412"
           style="fill:none;fill-rule:evenodd;stroke:#fdd835;stroke-width:3.28800011;stroke-linecap:round;stroke-linejoin:miter;stroke-miterlimit:4;stroke-dasharray:none;stroke-opacity:1" />
        <path
           style="fill:none;fill-rule:evenodd;stroke:#fff176;stroke-width:3.28800011;stroke-linecap:round;stroke-linejoin:miter;stroke-miterlimit:4;stroke-dasharray:none;stroke-opacity:1"
           d="m 49.250285,74.609145 c -2.655508,14.102064 2.522479,27.032475 2.743399,42.311575"
           id="path7449"
           inkscape:connector-curvature="0"
           sodipodi:nodetypes="cc" />
        <path
           sodipodi:nodetypes="cc"
           inkscape:connector-curvature="0"
           id="path7451"
           d="m 91.224249,70.388528 c 2.655494,14.102061 -2.522492,27.032475 -2.743413,42.311562"
           style="fill:none;fill-rule:evenodd;stroke:#fdd835;stroke-width:3.28800011;stroke-linecap:round;stroke-linejoin:miter;stroke-miterlimit:4;stroke-dasharray:none;stroke-opacity:1" />
        <path
           style="fill:none;fill-rule:evenodd;stroke:#fff176;stroke-width:3.28800011;stroke-linecap:round;stroke-linejoin:miter;stroke-miterlimit:4;stroke-dasharray:none;stroke-opacity:1"
           d="m 55.370165,73.870535 c 3.255571,9.865997 2.880104,38.224295 -1.682027,52.316885"
           id="path7453"
           inkscape:connector-curvature="0"
           sodipodi:nodetypes="cc" />
        <path
           sodipodi:nodetypes="cc"
           inkscape:connector-curvature="0"
           id="path7455"
           d="m 85.104356,69.649918 c -3.255571,9.865994 -2.880104,38.224292 1.682026,52.316872"
           style="fill:none;fill-rule:evenodd;stroke:#fdd835;stroke-width:3.28800011;stroke-linecap:round;stroke-linejoin:miter;stroke-miterlimit:4;stroke-dasharray:none;stroke-opacity:1" />
        <path
           style="fill:none;fill-rule:evenodd;stroke:#fff176;stroke-width:3.28800011;stroke-linecap:round;stroke-linejoin:miter;stroke-miterlimit:4;stroke-dasharray:none;stroke-opacity:1"
           d="m 60.540395,73.765035 c -0.646561,17.247311 -2.67443,37.464385 2.004809,43.261185"
           id="path7457"
           inkscape:connector-curvature="0"
           sodipodi:nodetypes="cc" />
        <path
           sodipodi:nodetypes="cc"
           inkscape:connector-curvature="0"
           id="path7459"
           d="m 79.934126,69.544408 c 0.646575,17.247321 2.67443,37.464392 -2.004809,43.261212"
           style="fill:none;fill-rule:evenodd;stroke:#fdd835;stroke-width:3.28800011;stroke-linecap:round;stroke-linejoin:miter;stroke-miterlimit:4;stroke-dasharray:none;stroke-opacity:1" />
        <path
           style="fill:none;fill-rule:evenodd;stroke:#fff176;stroke-width:3.28800011;stroke-linecap:round;stroke-linejoin:miter;stroke-miterlimit:4;stroke-dasharray:none;stroke-opacity:1"
           d="M 67.293385,74.714665 C 66.019353,85.189539 63.061191,89.423146 66.238226,116.39314"
           id="path7461"
           inkscape:connector-curvature="0"
           sodipodi:nodetypes="cc" />
        <path
           sodipodi:nodetypes="cc"
           inkscape:connector-curvature="0"
           id="path7463"
           d="m 73.181137,70.494048 c 1.274031,10.474874 4.232193,14.708481 1.055158,41.678472"
           style="fill:none;fill-rule:evenodd;stroke:#fdd835;stroke-width:3.28800011;stroke-linecap:round;stroke-linejoin:miter;stroke-miterlimit:4;stroke-dasharray:none;stroke-opacity:1" />
        <path
           style="fill:none;fill-rule:evenodd;stroke:#fff176;stroke-width:3.28800011;stroke-linecap:round;stroke-linejoin:miter;stroke-miterlimit:4;stroke-dasharray:none;stroke-opacity:1"
           d="M 71.72501,75.031205 C 71.70425,92.484626 64.380515,118.78355 62.123127,125.8895"
           id="path7465"
           inkscape:connector-curvature="0"
           sodipodi:nodetypes="cc" />
        <path
           sodipodi:nodetypes="cc"
           inkscape:connector-curvature="0"
           id="path7467"
           d="m 63.368235,71.232648 c 1.383328,14.001241 1.337826,39.221422 -1.477208,51.385872"
           style="fill:none;fill-rule:evenodd;stroke:#fdd835;stroke-width:3.28800011;stroke-linecap:round;stroke-linejoin:miter;stroke-miterlimit:4;stroke-dasharray:none;stroke-opacity:1" />
        <path
           style="fill:none;fill-rule:evenodd;stroke:#fff176;stroke-width:3.28800011;stroke-linecap:round;stroke-linejoin:miter;stroke-miterlimit:4;stroke-dasharray:none;stroke-opacity:1"
           d="m 81.326894,75.347745 c 12.591886,9.439524 4.069989,26.950115 0.94965,40.095765"
           id="path7469"
           inkscape:connector-curvature="0"
           sodipodi:nodetypes="cc" />
        <path
           sodipodi:nodetypes="cc"
           inkscape:connector-curvature="0"
           id="path7471"
           d="m 59.147627,71.127128 c -12.591886,9.439524 -4.069989,26.950085 -0.94965,40.095762"
           style="fill:none;fill-rule:evenodd;stroke:#fdd835;stroke-width:3.28800011;stroke-linecap:round;stroke-linejoin:miter;stroke-miterlimit:4;stroke-dasharray:none;stroke-opacity:1" />
        <path
           style="fill:none;fill-rule:evenodd;stroke:#fff176;stroke-width:3.28800011;stroke-linecap:round;stroke-linejoin:miter;stroke-miterlimit:4;stroke-dasharray:none;stroke-opacity:1"
           d="M 87.868837,75.347745 C 86.654727,88.302209 85.144065,101.28359 86.919201,113.9663"
           id="path7473"
           inkscape:connector-curvature="0"
           sodipodi:nodetypes="cc" />
        <path
           sodipodi:nodetypes="cc"
           inkscape:connector-curvature="0"
           id="path7475"
           d="M 48.70163,70.810588 C 46.759478,83.466392 44.547481,96.158173 46.696821,108.26847"
           style="fill:none;fill-rule:evenodd;stroke:#fdd835;stroke-width:3.28800011;stroke-linecap:round;stroke-linejoin:miter;stroke-miterlimit:4;stroke-dasharray:none;stroke-opacity:1" />
        <path
           style="fill:none;fill-rule:evenodd;stroke:#fff176;stroke-width:3.28800011;stroke-linecap:round;stroke-linejoin:miter;stroke-miterlimit:4;stroke-dasharray:none;stroke-opacity:1"
           d="M 99.686523,75.031205 C 98.229322,87.900409 97.141528,100.70245 98.736889,113.01666"
           id="path7477"
           inkscape:connector-curvature="0"
           sodipodi:nodetypes="cc" />
        <path
           sodipodi:nodetypes="cc"
           inkscape:connector-curvature="0"
           id="path7479"
           d="m 40.787987,70.810588 c 1.457206,12.869204 2.545005,25.671245 0.949636,37.985452"
           style="fill:none;fill-rule:evenodd;stroke:#fdd835;stroke-width:3.28800011;stroke-linecap:round;stroke-linejoin:miter;stroke-miterlimit:4;stroke-dasharray:none;stroke-opacity:1" />
        <path
           style="fill:none;fill-rule:evenodd;stroke:#fff176;stroke-width:3.28800011;stroke-linecap:round;stroke-linejoin:miter;stroke-miterlimit:4;stroke-dasharray:none;stroke-opacity:1"
           d="m 102.95749,75.980845 c -1.36671,12.237464 -3.872094,32.606925 1.05515,46.426665"
           id="path7481"
           inkscape:connector-curvature="0"
           sodipodi:nodetypes="cc" />
        <path
           sodipodi:nodetypes="cc"
           inkscape:connector-curvature="0"
           id="path7483"
           d="m 37.517014,71.760228 c 1.366706,12.237464 3.872101,32.606922 -1.055145,46.426662"
           style="fill:none;fill-rule:evenodd;stroke:#fdd835;stroke-width:3.28800011;stroke-linecap:round;stroke-linejoin:miter;stroke-miterlimit:4;stroke-dasharray:none;stroke-opacity:1" />
        <path
           style="fill:none;fill-rule:evenodd;stroke:#fff176;stroke-width:3.28800011;stroke-linecap:round;stroke-linejoin:miter;stroke-miterlimit:4;stroke-dasharray:none;stroke-opacity:1"
           d="m 110.23807,74.609145 c -3.88579,12.883144 -3.78321,26.404055 -0.63311,40.412295"
           id="path7485"
           inkscape:connector-curvature="0"
           sodipodi:nodetypes="cc" />
        <path
           sodipodi:nodetypes="cc"
           inkscape:connector-curvature="0"
           id="path7487"
           d="m 30.236439,70.388528 c 3.885791,12.883144 3.783214,26.404045 0.633123,40.412292"
           style="fill:none;fill-rule:evenodd;stroke:#fdd835;stroke-width:3.28800011;stroke-linecap:round;stroke-linejoin:miter;stroke-miterlimit:4;stroke-dasharray:none;stroke-opacity:1" />
        <path
           style="fill:none;fill-rule:evenodd;stroke:#fff176;stroke-width:3.28800011;stroke-linecap:round;stroke-linejoin:miter;stroke-miterlimit:4;stroke-dasharray:none;stroke-opacity:1"
           d="m 112.87594,74.187085 c 2.54743,18.342041 1.44251,20.941648 0.31655,31.865575"
           id="path7489"
           inkscape:connector-curvature="0"
           sodipodi:nodetypes="cc" />
        <path
           sodipodi:nodetypes="cc"
           inkscape:connector-curvature="0"
           id="path7491"
           d="M 27.598576,69.966458 C 20.481804,85.109949 25.725324,90.606566 27.282022,101.83203"
           style="fill:none;fill-rule:evenodd;stroke:#fdd835;stroke-width:3.28800011;stroke-linecap:round;stroke-linejoin:miter;stroke-miterlimit:4;stroke-dasharray:none;stroke-opacity:1" />
        <path
           sodipodi:nodetypes="cc"
           inkscape:connector-curvature="0"
           id="path7493"
           d="m 36.039792,74.714665 c 4.611757,9.604184 -0.442585,19.455341 -5.908834,37.457885"
           style="fill:none;fill-rule:evenodd;stroke:#fff176;stroke-width:3.28800011;stroke-linecap:round;stroke-linejoin:miter;stroke-miterlimit:4;stroke-dasharray:none;stroke-opacity:1" />
        <path
           style="fill:none;fill-rule:evenodd;stroke:#fdd835;stroke-width:3.28800011;stroke-linecap:round;stroke-linejoin:miter;stroke-miterlimit:4;stroke-dasharray:none;stroke-opacity:1"
           d="m 104.43471,70.494048 c -4.611747,9.604174 0.44259,19.455328 5.90885,37.457852"
           id="path7495"
           inkscape:connector-curvature="0"
           sodipodi:nodetypes="cc" />
        <path
           sodipodi:nodetypes="cc"
           inkscape:connector-curvature="0"
           id="path7497"
           d="m 74.679469,75.326655 c -0.02076,17.453421 -2.279788,29.613305 -4.537162,36.719275"
           style="fill:none;fill-rule:evenodd;stroke:#fff176;stroke-width:3.28800011;stroke-linecap:round;stroke-linejoin:miter;stroke-miterlimit:4;stroke-dasharray:none;stroke-opacity:1" />
        <path
           style="fill:none;fill-rule:evenodd;stroke:#fdd835;stroke-width:3.28800011;stroke-linecap:round;stroke-linejoin:miter;stroke-miterlimit:4;stroke-dasharray:none;stroke-opacity:1"
           d="m 65.795052,71.106038 c 0.02076,17.453421 2.279803,29.613282 4.537162,36.719242"
           id="path7499"
           inkscape:connector-curvature="0"
           sodipodi:nodetypes="cc" />
        <path
           sodipodi:nodetypes="cc"
           inkscape:connector-curvature="0"
           id="path7501"
           d="m 78.963337,75.347745 c 3.900084,20.449128 4.068433,26.952065 0.949637,40.095765"
           style="fill:none;fill-rule:evenodd;stroke:#fff176;stroke-width:3.28800011;stroke-linecap:round;stroke-linejoin:miter;stroke-miterlimit:4;stroke-dasharray:none;stroke-opacity:1" />
        <path
           style="fill:none;fill-rule:evenodd;stroke:#fdd835;stroke-width:3.28800011;stroke-linecap:round;stroke-linejoin:miter;stroke-miterlimit:4;stroke-dasharray:none;stroke-opacity:1"
           d="m 61.511184,71.127128 c -3.90007,20.449118 -4.068433,26.952065 -0.949636,40.095762"
           id="path7503"
           inkscape:connector-curvature="0"
           sodipodi:nodetypes="cc" />
        <path
           sodipodi:nodetypes="cc"
           inkscape:connector-curvature="0"
           id="path7505"
           d="M 96.732116,75.031205 C 98.674279,87.687009 90.440241,113.04062 88.290901,125.1509"
           style="fill:none;fill-rule:evenodd;stroke:#fff176;stroke-width:3.28800011;stroke-linecap:round;stroke-linejoin:miter;stroke-miterlimit:4;stroke-dasharray:none;stroke-opacity:1" />
        <path
           style="fill:none;fill-rule:evenodd;stroke:#fdd835;stroke-width:3.28800011;stroke-linecap:round;stroke-linejoin:miter;stroke-miterlimit:4;stroke-dasharray:none;stroke-opacity:1"
           d="M 43.742404,70.810588 C 41.800252,83.466392 50.03428,108.82 52.18362,120.93028"
           id="path7507"
           inkscape:connector-curvature="0"
           sodipodi:nodetypes="cc" />
        <path
           style="fill:none;fill-rule:evenodd;stroke:#fdd835;stroke-width:3.28800011;stroke-linecap:round;stroke-linejoin:miter;stroke-miterlimit:4;stroke-dasharray:none;stroke-opacity:1"
           d="m 34.267154,71.760228 c 3.885761,12.883141 -2.3156,25.032345 -5.465703,39.040592"
           id="path7509"
           inkscape:connector-curvature="0"
           sodipodi:nodetypes="cc" />
        <path
           style="opacity:1;fill:#757575;fill-opacity:1;stroke:none;stroke-width:3.28800011;stroke-linecap:round;stroke-linejoin:round;stroke-miterlimit:4;stroke-dasharray:none;stroke-dashoffset:0;stroke-opacity:1"
           d="m 22.765955,67.518451 v 0.47923 c 0,5.099077 4.104944,9.204284 9.20403,9.204284 h 76.133585 c 5.09908,0 9.204,-4.105207 9.204,-9.204284 v -0.47923 z"
           id="path7511"
           inkscape:connector-curvature="0" />
        <circle
           style="opacity:1;fill:#fafafa;fill-opacity:1;stroke:none;stroke-width:0.07790327;stroke-linecap:round;stroke-linejoin:round;stroke-miterlimit:4;stroke-dasharray:none;stroke-dashoffset:0;stroke-opacity:1"
           id="circle7513"
           cx="48.211067"
           cy="68.383598"
           r="7.1750321" />
        <circle
           r="4.0095773"
           cy="70.623672"
           cx="49.269402"
           id="circle7515"
           style="opacity:1;fill:#039be5;fill-opacity:1;stroke:none;stroke-width:0.04353418;stroke-linecap:round;stroke-linejoin:round;stroke-miterlimit:4;stroke-dasharray:none;stroke-dashoffset:0;stroke-opacity:1" />
        <circle
           style="opacity:1;fill:#212121;fill-opacity:1;stroke:none;stroke-width:0.02405837;stroke-linecap:round;stroke-linejoin:round;stroke-miterlimit:4;stroke-dasharray:none;stroke-dashoffset:0;stroke-opacity:1"
           id="circle7517"
           cx="49.269402"
           cy="70.623672"
           r="2.2158189" />
        <circle
           r="7.1750321"
           cy="68.383598"
           cx="-91.862488"
           id="circle7519"
           style="opacity:1;fill:#fafafa;fill-opacity:1;stroke:none;stroke-width:0.07790327;stroke-linecap:round;stroke-linejoin:round;stroke-miterlimit:4;stroke-dasharray:none;stroke-dashoffset:0;stroke-opacity:1"
           transform="scale(-1,1)" />
        <circle
           style="opacity:1;fill:#039be5;fill-opacity:1;stroke:none;stroke-width:0.04353418;stroke-linecap:round;stroke-linejoin:round;stroke-miterlimit:4;stroke-dasharray:none;stroke-dashoffset:0;stroke-opacity:1"
           id="circle7521"
           cx="-92.920822"
           cy="70.623672"
           r="4.0095773"
           transform="scale(-1,1)" />
        <circle
           r="2.2158189"
           cy="70.623672"
           cx="-92.920822"
           id="circle7523"
           style="opacity:1;fill:#212121;fill-opacity:1;stroke:none;stroke-width:0.02405837;stroke-linecap:round;stroke-linejoin:round;stroke-miterlimit:4;stroke-dasharray:none;stroke-dashoffset:0;stroke-opacity:1"
           transform="scale(-1,1)" />
        <path
           style="fill:#fafafa;fill-rule:evenodd;stroke:#29b6f6;stroke-width:1.05833328;stroke-linecap:round;stroke-linejoin:round;stroke-miterlimit:4;stroke-dasharray:none;stroke-opacity:1"
           d="m 144.27365,10.878382 a 28.013008,24.136207 0 0 0 -28.01224,24.136187 28.013008,24.136207 0 0 0 4.77848,13.448531 l -9.26925,11.007504 16.9417,-4.400387 a 28.013008,24.136207 0 0 0 15.56131,4.080567 28.013008,24.136207 0 0 0 28.01343,-24.136215 28.013008,24.136207 0 0 0 -28.01343,-24.136187 z"
           id="path7525"
           inkscape:connector-curvature="0" />
        <g
           id="text7529"
           style="font-style:normal;font-variant:normal;font-weight:normal;font-stretch:normal;font-size:21.33049202px;line-height:125%;font-family:'open sans';-inkscape-font-specification:'open sans';letter-spacing:0px;word-spacing:0px;fill:#000000;fill-opacity:1;stroke:none;stroke-width:0.53326231px;stroke-linecap:butt;stroke-linejoin:miter;stroke-opacity:1"
           aria-label="x=">
          <path
             inkscape:connector-curvature="0"
             id="path13250"
             style="font-style:normal;font-variant:normal;font-weight:normal;font-stretch:normal;font-family:'pt sans';-inkscape-font-specification:'pt sans';stroke-width:0.53326231px"
             d="m 130.26272,36.092628 -3.58353,-5.20464 h 2.09039 l 2.0264,2.943608 0.59725,1.215838 0.61859,-1.215838 2.06905,-2.943608 h 1.91975 l -3.60485,5.119318 3.81815,5.545928 h -2.02639 l -2.26104,-3.242235 -0.63991,-1.279829 -0.66125,1.279829 -2.30369,3.242235 h -1.89841 z" />
          <path
             inkscape:connector-curvature="0"
             id="path13252"
             style="font-style:normal;font-variant:normal;font-weight:normal;font-stretch:normal;font-family:'pt sans';-inkscape-font-specification:'pt sans';stroke-width:0.53326231px"
             d="m 137.67773,33.323731 h 9.04413 v 1.535795 h -9.04413 z m 0,3.540862 h 9.04413 v 1.535795 h -9.04413 z" />
        </g>
        <g
           id="text7533"
           style="font-style:normal;font-variant:normal;font-weight:normal;font-stretch:normal;font-size:21.33049202px;line-height:125%;font-family:'open sans';-inkscape-font-specification:'open sans';letter-spacing:0px;word-spacing:0px;fill:#689f38;fill-opacity:1;stroke:none;stroke-width:0.53326231px;stroke-linecap:butt;stroke-linejoin:miter;stroke-opacity:1"
           aria-label="✔">
          <path
             inkscape:connector-curvature="0"
             id="path13247"
             style="font-style:normal;font-variant:normal;font-weight:normal;font-stretch:normal;font-family:'pt sans';-inkscape-font-specification:'pt sans';fill:#689f38;stroke:none;stroke-width:0.53326231px"
             d="m 151.99385,34.710788 q 0.4062,0 0.61451,0.666578 0.41661,1.249834 0.59367,1.249834 0.1354,0 0.28121,-0.208306 2.92669,-4.30151 5.41594,-6.124184 1.05195,-0.770731 2.05182,-0.770731 1.32274,0 1.59353,0.08332 0.11457,0.03125 0.11457,0.260382 0,0.187475 -0.23955,0.468688 -6.69703,7.686476 -7.9781,9.998668 -0.43745,0.791561 -2.02057,0.791561 -0.52076,0 -1.0936,-0.270797 -0.23955,-0.124983 -0.83323,-1.593538 -0.7499,-1.853919 -0.7499,-3.249567 0,-0.510348 0.72907,-0.843637 0.99987,-0.458273 1.4998,-0.458273 z" />
        </g>
        <path
           style="opacity:1;fill:#558b2f;fill-opacity:1;stroke:none;stroke-width:1.6540935;stroke-linecap:round;stroke-linejoin:round;stroke-miterlimit:4;stroke-dasharray:none;stroke-dashoffset:0;stroke-opacity:1"
           d="m 131.52631,144.74185 c -0.15209,-0.11011 -0.34688,-0.16325 -0.54837,-0.13186 l -0.0759,0.014 c -0.40302,0.0633 -0.67729,0.4396 -0.61441,0.84253 l 0.18797,1.20307 -3.17952,0.64477 c -0.27155,-0.19645 -0.61284,-0.2705 -0.94139,-0.20425 -0.64999,0.13132 -1.07057,0.76455 -0.93956,1.4146 0.13089,0.65094 0.76511,1.07219 1.41588,0.94042 0.36267,-0.0743 0.67081,-0.31166 0.83518,-0.64337 l 1.92984,-0.39068 -1.50528,2.06347 c -0.33307,0.0382 -0.63499,0.21395 -0.83278,0.48465 -0.39116,0.5354 -0.27446,1.28649 0.26071,1.67796 0.53539,0.39116 1.28648,0.27447 1.67796,-0.26069 0.21791,-0.2994 0.28554,-0.68257 0.18328,-1.03847 l 1.50697,-2.06592 0.27811,1.78563 c -0.25357,0.26937 -0.36887,0.64056 -0.31253,1.00619 0.10187,0.65581 0.71632,1.10471 1.37206,1.00237 0.6557,-0.10243 1.10406,-0.71723 1.00119,-1.37287 -0.0521,-0.33123 -0.24034,-0.62559 -0.51912,-0.8119 l -0.46944,-3.00564 0.68854,-1.72058 -0.0793,0.0171 -0.28166,-0.45228 -0.0626,-0.0492 c -0.18863,-0.13859 -0.41799,-0.16122 -0.6264,-0.10324 l -0.0565,-0.36037 c -0.0316,-0.20145 -0.14076,-0.37101 -0.29289,-0.48195 z"
           id="path7535"
           inkscape:connector-curvature="0"
           sodipodi:nodetypes="ccccccccccccccccccccccccccccccc" />
        <path
           inkscape:connector-curvature="0"
           id="path7537"
           d="m 129.34787,133.76555 59.90991,7.68755 c -19.48598,2.97786 -62.66531,4.97271 -59.90991,-7.68755 z"
           style="fill:#f0f4c3;fill-rule:evenodd;stroke:none;stroke-width:0.37112325px;stroke-linecap:butt;stroke-linejoin:miter;stroke-opacity:1"
           sodipodi:nodetypes="ccc"
           inkscape:transform-center-x="30.140598"
           inkscape:transform-center-y="-3.7026764" />
        <path
           style="fill:#558b2f;fill-rule:evenodd;stroke:none;stroke-width:0.37112325px;stroke-linecap:butt;stroke-linejoin:miter;stroke-opacity:1"
           d="m 140.16231,115.11033 a 5.8512387,5.8512387 0 0 0 -5.85172,5.85097 5.8512387,5.8512387 0 0 0 0.55887,2.48119 c -2.81765,2.2391 -4.79708,5.59193 -5.52191,10.3233 l 59.91031,7.68704 c 1.73478,-16.78256 -27.15166,-22.62471 -43.36705,-21.64984 a 5.8512387,5.8512387 0 0 0 -5.7285,-4.69266 z"
           id="path7539"
           inkscape:connector-curvature="0" />
        <path
           style="opacity:1;fill:#689f38;fill-opacity:1;stroke:none;stroke-width:2.30290246;stroke-linecap:round;stroke-linejoin:round;stroke-miterlimit:4;stroke-dasharray:none;stroke-dashoffset:0;stroke-opacity:1"
           d="m 142.48969,131.2184 c 0.98996,0.66999 1.24754,2.00633 0.57756,2.99626 -4.8065,4.54871 -8.92517,9.222 -10.07552,14.43285 -0.66998,0.98995 -2.0063,1.24755 -2.99626,0.57755 -0.98995,-0.66998 -1.0951,-1.91875 -0.57755,-2.99627 2.15282,-4.48212 4.93936,-9.1371 10.0755,-14.43285 0.66998,-0.98994 2.00632,-1.24754 2.99627,-0.57754 z"
           id="path7541"
           inkscape:connector-curvature="0"
           sodipodi:nodetypes="ccccscc" />
        <path
           inkscape:connector-curvature="0"
           id="path7543"
           d="m 189.48146,146.21269 c -0.13479,0.15846 -0.21082,0.36918 -0.1931,0.59466 l 0.006,0.0847 c 0.0346,0.45097 0.42687,0.78691 0.87769,0.75252 l 1.34623,-0.1031 0.43563,3.5706 a 1.3317192,1.3317192 0 0 0 -0.30771,1.02274 1.3317192,1.3317192 0 0 0 1.4817,1.16178 1.3317192,1.3317192 0 0 0 1.16287,-1.48307 1.3317192,1.3317192 0 0 0 -0.63837,-0.97921 l -0.26353,-2.16714 2.14967,1.8436 a 1.3317192,1.3317192 0 0 0 0.46315,0.9627 1.3317192,1.3317192 0 0 0 1.87742,-0.14216 1.3317192,1.3317192 0 0 0 -0.14216,-1.87741 1.3317192,1.3317192 0 0 0 -1.13187,-0.29299 l -2.15226,-1.84568 1.99796,-0.15199 a 1.3317192,1.3317192 0 0 0 1.08496,0.43312 1.3317192,1.3317192 0 0 0 1.22749,-1.4293 1.3317192,1.3317192 0 0 0 -1.43028,-1.22622 1.3317192,1.3317192 0 0 0 -0.94261,0.50305 l -3.36315,0.25697 -0.13606,-1.11738 c -0.0541,-0.44977 -0.45901,-0.76637 -0.90785,-0.71204 l -0.0881,0.006 c -0.44797,0.0553 -0.76354,0.46121 -0.70948,0.90986 l 0.0126,0.0892 c -0.19581,0.023 -0.38527,0.11025 -0.52446,0.27202 l -0.0599,0.0647 c -0.16953,0.19646 -0.21477,0.44797 -0.1689,0.68334 l -0.40328,0.0294 c -0.22521,0.0167 -0.42233,0.12344 -0.55822,0.28184 z"
           style="opacity:1;fill:#558b2f;fill-opacity:1;stroke:none;stroke-width:1.83399451;stroke-linecap:round;stroke-linejoin:round;stroke-miterlimit:4;stroke-dasharray:none;stroke-dashoffset:0;stroke-opacity:1" />
        <path
           style="opacity:1;fill:#689f38;fill-opacity:1;stroke:none;stroke-width:2.55336881;stroke-linecap:round;stroke-linejoin:round;stroke-miterlimit:4;stroke-dasharray:none;stroke-dashoffset:0;stroke-opacity:1"
           d="m 171.70891,133.11467 c 0.82681,-1.03584 2.16392,-0.94361 3.3622,-0.37733 7.33398,3.46587 14.20001,7.19912 18.85518,12.19575 0.90343,0.9697 1.20413,2.32634 0.37733,3.3622 -0.8268,1.03584 -2.48381,1.36982 -3.36219,0.37733 -5.78493,-6.53643 -12.05818,-9.68624 -18.85517,-12.19574 -1.24332,-0.45906 -1.20415,-2.32635 -0.37735,-3.36221 z"
           id="path7545"
           inkscape:connector-curvature="0"
           sodipodi:nodetypes="sssssss" />
        <circle
           r="4.9286551"
           cy="120.96114"
           cx="140.16202"
           id="circle7547"
           style="opacity:1;fill:#ffffff;fill-opacity:1;stroke:none;stroke-width:1.09401083;stroke-linecap:round;stroke-linejoin:round;stroke-miterlimit:4;stroke-dasharray:none;stroke-dashoffset:0;stroke-opacity:1" />
        <circle
           style="opacity:1;fill:#f57c00;fill-opacity:1;stroke:none;stroke-width:0.61617833;stroke-linecap:round;stroke-linejoin:round;stroke-miterlimit:4;stroke-dasharray:none;stroke-dashoffset:0;stroke-opacity:1"
           id="circle7549"
           cx="139.1037"
           cy="119.90281"
           r="2.77596" />
        <circle
           r="1.5458485"
           cy="119.90281"
           cx="139.1037"
           id="circle7551"
           style="opacity:1;fill:#424242;fill-opacity:1;stroke:none;stroke-width:0.34313115;stroke-linecap:round;stroke-linejoin:round;stroke-miterlimit:4;stroke-dasharray:none;stroke-dashoffset:0;stroke-opacity:1" />
        <circle
           style="opacity:1;fill:#fafafa;fill-opacity:1;stroke:#29b6f6;stroke-width:1.80365896;stroke-linecap:round;stroke-linejoin:round;stroke-miterlimit:4;stroke-dasharray:none;stroke-dashoffset:0;stroke-opacity:1"
           id="circle7553"
           cx="151.3736"
           cy="112.94711"
           r="3.1893404" />
        <circle
           r="5.5088606"
           cy="106.90048"
           cx="159.4556"
           id="circle7555"
           style="opacity:1;fill:#fafafa;fill-opacity:1;stroke:#29b6f6;stroke-width:1.80365896;stroke-linecap:round;stroke-linejoin:round;stroke-miterlimit:4;stroke-dasharray:none;stroke-dashoffset:0;stroke-opacity:1" />
        <ellipse
           style="opacity:1;fill:#fafafa;fill-opacity:1;stroke:#29b6f6;stroke-width:1.05833328;stroke-linecap:round;stroke-linejoin:round;stroke-miterlimit:4;stroke-dasharray:none;stroke-dashoffset:0;stroke-opacity:1"
           id="ellipse7557"
           cx="179.64281"
           cy="87.989349"
           rx="21.020655"
           ry="17.686344" />
        <g
           id="text7561"
           style="font-style:normal;font-variant:normal;font-weight:normal;font-stretch:normal;font-size:15.16097927px;line-height:125%;font-family:'open sans';-inkscape-font-specification:'open sans';letter-spacing:0px;word-spacing:0px;fill:#000000;fill-opacity:1;stroke:none;stroke-width:0.37902454px;stroke-linecap:butt;stroke-linejoin:miter;stroke-opacity:1"
           aria-label="x=">
          <path
             inkscape:connector-curvature="0"
             id="path13242"
             style="font-style:normal;font-variant:normal;font-weight:normal;font-stretch:normal;font-family:'pt sans';-inkscape-font-specification:'pt sans';stroke-width:0.37902454px"
             d="m 170.90365,87.715721 -2.54704,-3.699279 h 1.48577 l 1.4403,2.092215 0.4245,0.864176 0.43967,-0.864176 1.47062,-2.092215 h 1.36448 l -2.5622,3.638635 2.71381,3.941854 h -1.44029 l -1.60706,-2.304468 -0.45483,-0.909659 -0.46999,0.909659 -1.63739,2.304468 h -1.34932 z" />
          <path
             inkscape:connector-curvature="0"
             id="path13244"
             style="font-style:normal;font-variant:normal;font-weight:normal;font-stretch:normal;font-family:'pt sans';-inkscape-font-specification:'pt sans';stroke-width:0.37902454px"
             d="m 176.17399,85.747684 h 6.42825 v 1.091591 h -6.42825 z m 0,2.516723 h 6.42825 v 1.09159 h -6.42825 z" />
        </g>
        <g
           id="text7565"
           style="font-style:normal;font-variant:normal;font-weight:normal;font-stretch:normal;font-size:15.16097927px;line-height:125%;font-family:'open sans';-inkscape-font-specification:'open sans';letter-spacing:0px;word-spacing:0px;fill:#689f38;fill-opacity:1;stroke:none;stroke-width:0.37902454px;stroke-linecap:butt;stroke-linejoin:miter;stroke-opacity:1"
           aria-label="✔">
          <path
             inkscape:connector-curvature="0"
             id="path13239"
             style="font-style:normal;font-variant:normal;font-weight:normal;font-stretch:normal;font-family:'pt sans';-inkscape-font-specification:'pt sans';fill:#689f38;stroke:none;stroke-width:0.37902454px"
             d="m 186.34938,86.733573 q 0.28871,0 0.43677,0.473781 0.29611,0.888338 0.42196,0.888338 0.0962,0 0.19987,-0.148056 2.0802,-3.057366 3.84947,-4.352859 0.74769,-0.547809 1.45836,-0.547809 0.94016,0 1.13263,0.05922 0.0814,0.02221 0.0814,0.185071 0,0.133251 -0.17027,0.333127 -4.76001,5.463282 -5.67056,7.106709 -0.31092,0.562614 -1.43614,0.562614 -0.37015,0 -0.7773,-0.192473 -0.17027,-0.08883 -0.59223,-1.132632 -0.533,-1.317702 -0.533,-2.30968 0,-0.362738 0.5182,-0.599629 0.71067,-0.325724 1.066,-0.325724 z" />
        </g>
        <ellipse
           style="opacity:1;fill:#ffca28;fill-opacity:0;stroke:#ffd54f;stroke-width:4.04810715;stroke-linecap:round;stroke-linejoin:round;stroke-miterlimit:4;stroke-dasharray:none;stroke-dashoffset:0;stroke-opacity:1"
           id="ellipse7567"
           cx="68.740623"
           cy="36.495934"
           rx="26.964424"
           ry="5.5088606" />
      </g>
      <g
         transform="matrix(0.31209638,0,0,0.31209638,-5.5208523,237.30938)"
         id="g7639"
         style="display:inline">
        <path
           style="opacity:1;fill:#29b6f6;fill-opacity:1;stroke:#29b6f6;stroke-width:15.11811066;stroke-linecap:round;stroke-linejoin:round;stroke-miterlimit:4;stroke-dasharray:none;stroke-dashoffset:0;stroke-opacity:1"
           d="m 1063.5039,487.21484 c -10.5159,0.0124 -19.5682,7.42858 -21.6504,17.73633 -86.5338,-17.72042 -187.83604,7.46712 -164.541,79.87305 -6.24394,4.70747 -11.97841,9.70507 -17.00977,15.10547 -0.72267,0.77569 -1.33615,1.62061 -1.83593,2.50195 l -7.47657,-0.57031 c -0.86988,-1.10362 -2.16151,-1.79334 -3.5625,-1.90235 -2.77313,-0.2142 -5.1943,1.86147 -5.40625,4.63477 -0.21187,2.77308 1.86546,5.19239 4.63868,5.40234 1.54631,0.11534 3.05947,-0.48848 4.10156,-1.63671 l 6.4043,0.48632 c 0.0505,0.30056 0.11977,0.59863 0.20507,0.89453 l -7.19336,6.16993 c -1.52026,-0.30984 -3.09845,0.0988 -4.27734,1.10742 -2.10694,1.81151 -2.34736,4.98768 -0.53711,7.0957 1.81151,2.10694 4.98768,2.34736 7.0957,0.53711 1.06557,-0.91552 1.70003,-2.23471 1.75,-3.63867 l 7.19141,-6.16797 c 0.25557,0.15712 0.51606,0.3022 0.7832,0.43555 l -0.8457,6.95508 c -1.33144,0.79609 -2.2214,2.16165 -2.41211,3.70117 -0.33627,2.76195 1.63215,5.27278 4.39453,5.60547 2.75913,0.33282 5.26585,-1.63356 5.59961,-4.39258 0.1688,-1.39411 -0.2525,-2.79536 -1.16211,-3.86524 l 0.89258,-7.31445 c 10.02234,-7.56441 19.30971,-18.49687 29.45508,-25.625 46.32798,6.35239 131.47833,8.68741 176.64253,-7.1875 7.7065,9.83247 13.474,20.01604 15.8575,30.8125 0.5761,0.85129 1.2883,1.5514 2.08,2.10742 l -1.0019,6.41211 c -1.0537,0.70413 -1.7637,1.81647 -1.9609,3.06836 -0.3888,2.47801 1.3049,4.80243 3.7832,5.18945 2.4784,0.3868 4.8006,-1.31037 5.1855,-3.78906 0.2129,-1.38191 -0.2233,-2.78464 -1.1816,-3.80273 l 0.8828,-5.66797 c 0.2827,-0.0363 0.5639,-0.0896 0.8437,-0.15625 l 5.0215,6.88281 c -0.3864,1.34513 -0.1321,2.79419 0.6914,3.92578 1.4797,2.02265 4.3183,2.46278 6.3418,0.98438 2.0227,-1.47957 2.4647,-4.31824 0.9863,-6.3418 -0.7475,-1.02312 -1.8896,-1.68728 -3.1484,-1.83203 l -5.0762,-6.95899 c 0.1338,-0.20818 0.2563,-0.42188 0.3672,-0.64062 l 6.3145,1.27734 c 0.6212,1.25367 1.7855,2.15082 3.1562,2.43164 2.4596,0.49803 4.857,-1.0944 5.3516,-3.55468 0.4951,-2.45689 -1.0941,-4.84949 -3.5508,-5.34571 -1.2417,-0.25039 -2.5323,0.029 -3.5586,0.77149 l -7.1074,-1.43946 c -0.1935,-0.89859 -0.4956,-1.79484 -0.9121,-2.66211 -4.3005,-8.95349 -9.2867,-18.09617 -15.8828,-27.67578 8.9767,-5.11886 14.8078,-11.51134 16.1484,-19.42968 -2.7395,-17.88238 -10.2198,-30.55484 -20.8691,-39.01758 1.3831,-2.93322 2.1,-6.13401 2.1113,-9.37696 -5e-4,-12.21403 -9.9032,-22.1143 -22.1172,-22.11328 z"
           transform="matrix(0.26458333,0,0,0.26458333,0,-20.50002)"
           id="path7571"
           inkscape:connector-curvature="0"
           sodipodi:nodetypes="ccccccccccccccccccccccccccccccccccccccccccccccccccccccc" />
        <path
           style="opacity:1;fill:#29b6f6;fill-opacity:1;stroke:#29b6f6;stroke-width:15.11811066;stroke-linecap:round;stroke-linejoin:round;stroke-miterlimit:4;stroke-dasharray:none;stroke-dashoffset:0;stroke-opacity:1"
           d="m 1306.9688,502.86914 c -12.2147,-0.001 -22.1174,9.90049 -22.1172,22.11524 0.01,3.24264 0.7286,6.44389 2.1113,9.37695 -10.649,8.46243 -18.1294,21.13621 -20.8691,39.01758 -2.1641,9.94731 3.1939,17.49526 13.6718,23.11914 -5.3927,8.24694 -9.6609,16.18674 -13.4062,23.98437 -0.4166,0.86727 -0.7186,1.76352 -0.9121,2.66211 l -7.1075,1.44141 c -1.0266,-0.74248 -2.3167,-1.02218 -3.5586,-0.77149 -2.4561,0.49652 -4.0454,2.88923 -3.5507,5.34571 0.4946,2.46047 2.8918,4.05278 5.3515,3.55468 1.3706,-0.28086 2.5351,-1.17802 3.1563,-2.43164 l 6.3144,-1.27734 c 0.111,0.21881 0.2334,0.43237 0.3672,0.64062 l -5.0761,6.95899 c -1.2592,0.14435 -2.4008,0.80859 -3.1485,1.83203 -1.4781,2.02378 -1.0366,4.86251 0.9863,6.3418 2.0238,1.47812 4.8625,1.03661 6.3418,-0.98633 0.8228,-1.13152 1.0779,-2.57922 0.6914,-3.92383 l 5.0196,-6.88281 c 0.2798,0.0667 0.561,0.11791 0.8437,0.15429 l 0.8848,5.66797 c -0.9585,1.01795 -1.3945,2.42082 -1.1817,3.80274 0.3847,2.47884 2.7071,4.17574 5.1856,3.78906 2.4773,-0.38757 4.1712,-2.71025 3.7832,-5.1875 -0.1963,-1.25233 -0.9073,-2.36554 -1.9609,-3.07031 l -1.002,-6.41016 c 0.7919,-0.55606 1.5039,-1.25601 2.0801,-2.10742 0.2672,-1.21045 0.5758,-2.41391 0.9258,-3.60938 1.5034,-0.3113 2.4617,-1.76499 2.1582,-3.26953 l -0.053,-0.29882 c -0.086,-0.42075 -0.2678,-0.79302 -0.5097,-1.11329 2.5608,-6.65546 6.3321,-13.09122 10.9453,-19.375 42.1284,12.87795 123.1381,9.7139 177.957,3.30274 12.5612,4.70739 30.2765,27.57034 30.5313,26.36133 l 0.8925,7.3164 c -0.9096,1.06988 -1.3309,2.47113 -1.1621,3.86524 0.3347,2.75822 2.8412,4.72348 5.5996,4.39062 2.7624,-0.33266 4.7309,-2.8435 4.3946,-5.60547 -0.1907,-1.53951 -1.0807,-2.90508 -2.4121,-3.70117 l -0.8457,-6.95508 c 0.2672,-0.13339 0.5275,-0.27836 0.7832,-0.43554 l 7.1914,6.16797 c 0.05,1.40396 0.6844,2.72315 1.75,3.63867 2.108,1.81025 5.2842,1.56983 7.0957,-0.53711 1.8103,-2.10802 1.5698,-5.28419 -0.5371,-7.0957 -1.1789,-1.00868 -2.7571,-1.41728 -4.2774,-1.10743 l -7.1933,-6.16797 c 0.085,-0.2959 0.1545,-0.59397 0.205,-0.89453 l 6.4043,-0.48828 c 1.0417,1.14897 2.555,1.75353 4.1016,1.63867 2.7732,-0.20994 4.8506,-2.62926 4.6387,-5.40234 -0.212,-2.77332 -2.6332,-4.849 -5.4063,-4.63477 -1.4007,0.10852 -2.6923,0.79751 -3.5625,1.90039 l -7.4746,0.57227 c -0.5,-0.88218 -1.1146,-1.72558 -1.8379,-2.50195 -5.1555,-5.53371 -11.0459,-10.64859 -17.4707,-15.45703 3.7058,-61.65852 -103.5427,-83.16295 -164.0801,-79.52344 -2.082,-10.30761 -11.1345,-17.72357 -21.6503,-17.73633 z"
           transform="matrix(0.26458333,0,0,0.26458333,0,-20.50002)"
           id="path7573"
           inkscape:connector-curvature="0"
           sodipodi:nodetypes="cccccccccccccccccccccccccccccccccccccccccccccccccccccccccccc" />
        <circle
           r="77.971191"
           cy="99.610085"
           cx="318.0788"
           id="circle7575"
           style="opacity:1;fill:#29b6f6;fill-opacity:1;stroke:none;stroke-width:0.80830425;stroke-linecap:round;stroke-linejoin:round;stroke-miterlimit:4;stroke-dasharray:none;stroke-dashoffset:0;stroke-opacity:1" />
        <path
           style="opacity:1;fill:#78909c;fill-opacity:1;stroke:none;stroke-width:0.80830419;stroke-linecap:round;stroke-linejoin:round;stroke-miterlimit:4;stroke-dasharray:none;stroke-dashoffset:0;stroke-opacity:1"
           d="m 283.63667,129.18349 a 216.67179,84.40231 0 0 0 -43.06553,1.77329 84.40231,84.40231 0 0 0 77.68682,51.62828 84.40231,84.40231 0 0 0 72.99082,-42.17734 216.67179,84.40231 0 0 0 -107.61211,-11.22423 z"
           id="path7577"
           inkscape:connector-curvature="0" />
        <path
           inkscape:connector-curvature="0"
           id="path7579"
           d="m 337.16591,142.18242 c -0.15209,-0.11011 -0.34688,-0.16324 -0.54838,-0.13185 l -0.0759,0.014 c -0.40302,0.0633 -0.6773,0.43959 -0.61441,0.84252 l 0.18797,1.20307 -3.17952,0.64477 c -0.27156,-0.19644 -0.61284,-0.27049 -0.94139,-0.20424 -0.64998,0.13132 -1.07057,0.76454 -0.93956,1.41459 0.13089,0.65094 0.76511,1.07219 1.41588,0.94042 0.36266,-0.0743 0.67081,-0.31166 0.83518,-0.64336 l 1.92984,-0.39069 -1.50528,2.06347 c -0.33307,0.0382 -0.63499,0.21395 -0.83278,0.48465 -0.39116,0.5354 -0.27446,1.28649 0.26071,1.67796 0.53539,0.39116 1.28648,0.27447 1.67796,-0.26069 0.21791,-0.29939 0.28553,-0.68256 0.18328,-1.03846 l 1.50697,-2.06593 0.27811,1.78563 c -0.25357,0.26937 -0.36887,0.64056 -0.31253,1.00619 0.10186,0.65582 0.71632,1.10472 1.37206,1.00238 0.65571,-0.10243 1.10407,-0.71724 1.00119,-1.37288 -0.0521,-0.33123 -0.24034,-0.62558 -0.51912,-0.81189 l -0.46944,-3.00564 0.68854,-1.72059 -0.0793,0.0171 -0.28166,-0.45227 -0.0626,-0.0492 c -0.18863,-0.13858 -0.41799,-0.16122 -0.6264,-0.10323 l -0.0565,-0.36038 c -0.0316,-0.20145 -0.14076,-0.371 -0.29289,-0.48194 z"
           style="opacity:1;fill:#558b2f;fill-opacity:1;stroke:none;stroke-width:1.6540935;stroke-linecap:round;stroke-linejoin:round;stroke-miterlimit:4;stroke-dasharray:none;stroke-dashoffset:0;stroke-opacity:1"
           sodipodi:nodetypes="ccccccccccccccccccccccccccccccc" />
        <path
           inkscape:transform-center-y="-3.7026754"
           inkscape:transform-center-x="30.140599"
           sodipodi:nodetypes="ccc"
           style="fill:#f0f4c3;fill-rule:evenodd;stroke:none;stroke-width:0.37112325px;stroke-linecap:butt;stroke-linejoin:miter;stroke-opacity:1"
           d="m 334.98746,131.20613 59.9099,7.68755 c -19.48598,2.97785 -62.66529,4.9727 -59.9099,-7.68755 z"
           id="path7581"
           inkscape:connector-curvature="0" />
        <path
           inkscape:connector-curvature="0"
           id="path7583"
           d="m 345.8019,112.55091 a 5.8512387,5.8512387 0 0 0 -5.85172,5.85097 5.8512387,5.8512387 0 0 0 0.55887,2.48118 c -2.81765,2.2391 -4.79708,5.59193 -5.52191,10.32331 l 59.9103,7.68704 c 1.73478,-16.78256 -27.15166,-22.62471 -43.36705,-21.64984 a 5.8512387,5.8512387 0 0 0 -5.72849,-4.69266 z"
           style="fill:#558b2f;fill-rule:evenodd;stroke:none;stroke-width:0.37112325px;stroke-linecap:butt;stroke-linejoin:miter;stroke-opacity:1" />
        <path
           sodipodi:nodetypes="ccccscc"
           inkscape:connector-curvature="0"
           id="path7585"
           d="m 348.12928,128.65898 c 0.98996,0.66998 1.24753,2.00632 0.57756,2.99626 -4.8065,4.5487 -8.92516,9.222 -10.07552,14.43285 -0.66997,0.98995 -2.0063,1.24755 -2.99626,0.57755 -0.98995,-0.66999 -1.09509,-1.91876 -0.57755,-2.99628 2.15282,-4.48212 4.93936,-9.13709 10.0755,-14.43285 0.66998,-0.98993 2.00632,-1.24753 2.99627,-0.57753 z"
           style="opacity:1;fill:#689f38;fill-opacity:1;stroke:none;stroke-width:2.30290246;stroke-linecap:round;stroke-linejoin:round;stroke-miterlimit:4;stroke-dasharray:none;stroke-dashoffset:0;stroke-opacity:1" />
        <path
           style="opacity:1;fill:#558b2f;fill-opacity:1;stroke:none;stroke-width:1.83399451;stroke-linecap:round;stroke-linejoin:round;stroke-miterlimit:4;stroke-dasharray:none;stroke-dashoffset:0;stroke-opacity:1"
           d="m 395.12104,143.65326 c -0.13479,0.15846 -0.21082,-0.15999 -0.1931,0.0655 l 0.006,0.0847 c 0.0346,0.45098 0.42687,0.78692 0.87769,0.75252 l 1.34623,0.42608 0.43563,3.57059 c -0.24077,0.28305 -0.35233,0.65383 -0.30771,1.02275 0.0885,0.72987 0.75178,1.24992 1.4817,1.16177 0.73092,-0.0879 1.25181,-0.75227 1.16287,-1.48307 -0.0505,-0.40734 -0.28605,-0.76862 -0.63837,-0.9792 l -0.26353,-2.16714 2.14967,1.8436 c 0.0133,0.37147 0.18118,0.72049 0.46315,0.96269 0.55776,0.47896 1.39814,0.41533 1.87742,-0.14216 0.47895,-0.55776 0.41531,-1.39812 -0.14216,-1.8774 -0.31196,-0.26692 -0.72959,-0.37502 -1.13187,-0.29299 l -2.15226,-1.84568 1.99796,-0.15199 c 0.27565,0.30376 0.6759,0.46353 1.08496,0.43311 0.73378,-0.0555 1.2835,-0.69555 1.22749,-1.42929 -0.0561,-0.7337 -0.69662,-1.28283 -1.43028,-1.22623 -0.37065,0.0288 -0.7124,0.21115 -0.94261,0.50306 l -3.36315,0.25696 -0.13606,-1.11738 c -0.0541,-0.44976 -0.45901,-0.76636 -0.90785,-0.71203 l -0.0881,0.006 c -0.44797,0.0553 -0.76354,0.46121 -0.70948,0.90985 l 0.0126,0.0892 c -0.19581,0.023 -0.38527,0.11025 -0.52446,0.27202 l -0.0599,0.0647 c -0.16953,0.19645 -0.21477,0.44797 -0.1689,0.68333 l -0.40328,0.0295 c -0.22521,0.0167 -0.42233,0.12344 -0.55822,0.28184 z"
           id="path7587"
           inkscape:connector-curvature="0"
           sodipodi:nodetypes="cccccccccccccccccccccccccccccccccc" />
        <path
           sodipodi:nodetypes="sssssss"
           inkscape:connector-curvature="0"
           id="path7589"
           d="m 377.34849,130.55525 c 0.82681,-1.03585 2.16392,-0.94362 3.3622,-0.37733 7.33398,3.46587 14.20001,7.19912 18.85518,12.19574 0.90343,0.96971 1.20414,2.32634 0.37733,3.3622 -0.8268,1.03585 -2.48381,1.36982 -3.36219,0.37733 -5.78493,-6.53643 -12.05818,-9.68624 -18.85517,-12.19574 -1.24331,-0.45905 -1.20415,-2.32634 -0.37735,-3.3622 z"
           style="opacity:1;fill:#689f38;fill-opacity:1;stroke:none;stroke-width:2.55336881;stroke-linecap:round;stroke-linejoin:round;stroke-miterlimit:4;stroke-dasharray:none;stroke-dashoffset:0;stroke-opacity:1" />
        <circle
           style="opacity:1;fill:#ffffff;fill-opacity:1;stroke:none;stroke-width:1.09401083;stroke-linecap:round;stroke-linejoin:round;stroke-miterlimit:4;stroke-dasharray:none;stroke-dashoffset:0;stroke-opacity:1"
           id="circle7591"
           cx="345.80161"
           cy="118.40163"
           r="4.9286551" />
        <circle
           r="2.77596"
           cy="118.93079"
           cx="344.21408"
           id="circle7593"
           style="opacity:1;fill:#f57c00;fill-opacity:1;stroke:none;stroke-width:0.61617833;stroke-linecap:round;stroke-linejoin:round;stroke-miterlimit:4;stroke-dasharray:none;stroke-dashoffset:0;stroke-opacity:1" />
        <circle
           style="opacity:1;fill:#424242;fill-opacity:1;stroke:none;stroke-width:0.34313115;stroke-linecap:round;stroke-linejoin:round;stroke-miterlimit:4;stroke-dasharray:none;stroke-dashoffset:0;stroke-opacity:1"
           id="circle7595"
           cx="344.21408"
           cy="118.93079"
           r="1.5458485" />
        <circle
           r="3.1893404"
           cy="112.7365"
           cx="357.70505"
           id="circle7597"
           style="opacity:1;fill:#fafafa;fill-opacity:1;stroke:#29b6f6;stroke-width:1.80365896;stroke-linecap:round;stroke-linejoin:round;stroke-miterlimit:4;stroke-dasharray:none;stroke-dashoffset:0;stroke-opacity:1" />
        <circle
           style="opacity:1;fill:#fafafa;fill-opacity:1;stroke:#29b6f6;stroke-width:1.80365896;stroke-linecap:round;stroke-linejoin:round;stroke-miterlimit:4;stroke-dasharray:none;stroke-dashoffset:0;stroke-opacity:1"
           id="circle7599"
           cx="368.35385"
           cy="110.11861"
           r="5.5088606" />
        <ellipse
           ry="17.686344"
           rx="21.020655"
           cy="90.302376"
           cx="385.28238"
           id="ellipse7601"
           style="opacity:1;fill:#fafafa;fill-opacity:1;stroke:#29b6f6;stroke-width:1.80365896;stroke-linecap:round;stroke-linejoin:round;stroke-miterlimit:4;stroke-dasharray:none;stroke-dashoffset:0;stroke-opacity:1" />
        <path
           style="opacity:1;fill:#1b5e20;fill-opacity:1;stroke:none;stroke-width:1.6540935;stroke-linecap:round;stroke-linejoin:round;stroke-miterlimit:4;stroke-dasharray:none;stroke-dashoffset:0;stroke-opacity:1"
           d="m 290.02163,138.04025 c 0.15209,-0.11011 0.34688,-0.16324 0.54837,-0.13185 l 0.0759,0.014 c 0.40301,0.0633 0.67729,0.43959 0.61441,0.84252 l -0.18797,1.20307 3.17952,0.64477 c 0.27155,-0.19644 0.61284,-0.27049 0.94138,-0.20424 0.64999,0.13129 1.07058,0.76454 0.93957,1.41459 -0.13087,0.65095 -0.76512,1.07219 -1.41589,0.94042 -0.36266,-0.0743 -0.67081,-0.31166 -0.83517,-0.64336 l -1.92984,-0.39069 1.50528,2.06347 c 0.33306,0.0383 0.63499,0.21395 0.83278,0.48465 0.39114,0.5354 0.27446,1.28649 -0.26072,1.67796 -0.5354,0.39116 -1.28647,0.27447 -1.67796,-0.26069 -0.2179,-0.2994 -0.28552,-0.68256 -0.18327,-1.03846 l -1.50697,-2.06593 -0.27811,1.78563 c 0.25357,0.26937 0.36887,0.64056 0.31253,1.00619 -0.10184,0.65582 -0.71632,1.10472 -1.37207,1.00238 -0.6557,-0.1024 -1.10405,-0.71724 -1.00118,-1.37288 0.0522,-0.33123 0.24033,-0.62559 0.51911,-0.81189 l 0.46945,-3.00564 -0.68852,-1.72062 0.0793,0.0171 0.28165,-0.45227 0.0626,-0.0492 c 0.18863,-0.13858 0.418,-0.16122 0.62641,-0.10323 l 0.0565,-0.36038 c 0.0316,-0.20145 0.14076,-0.371 0.2929,-0.48194 z"
           id="path7603"
           inkscape:connector-curvature="0"
           sodipodi:nodetypes="ccccccccccccccccccccccccccccccc" />
        <path
           inkscape:connector-curvature="0"
           id="path7605"
           d="m 292.20007,127.06396 -59.90989,7.68755 c 12.43997,2.97785 57.76649,4.9727 59.90989,-7.68755 z"
           style="fill:#f0f4c3;fill-rule:evenodd;stroke:none;stroke-width:0.37112325px;stroke-linecap:butt;stroke-linejoin:miter;stroke-opacity:1"
           sodipodi:nodetypes="ccc"
           inkscape:transform-center-x="-30.140602"
           inkscape:transform-center-y="-3.702675" />
        <path
           style="fill:#1b5e20;fill-rule:evenodd;stroke:none;stroke-width:0.37112325px;stroke-linecap:butt;stroke-linejoin:miter;stroke-opacity:1"
           d="m 281.38564,108.40874 c 3.23163,-2.7e-4 5.85158,2.61934 5.85172,5.85097 -0.003,0.85803 -0.19291,1.7051 -0.55887,2.48118 2.81764,2.2391 4.79708,5.59193 5.52191,10.32331 l -59.91031,7.68704 c -6.81915,-19.55585 20.26611,-26.38046 43.36706,-21.64984 0.55091,-2.72726 2.94615,-4.68938 5.72849,-4.69266 z"
           id="path7607"
           inkscape:connector-curvature="0"
           sodipodi:nodetypes="ccccccc" />
        <path
           style="opacity:1;fill:#2e7d32;fill-opacity:1;stroke:none;stroke-width:2.30290246;stroke-linecap:round;stroke-linejoin:round;stroke-miterlimit:4;stroke-dasharray:none;stroke-dashoffset:0;stroke-opacity:1"
           d="m 279.05826,124.51681 c -0.98997,0.66998 -1.24754,2.00632 -0.57757,2.99626 4.80651,4.5487 8.92517,9.222 10.07553,14.43285 0.66997,0.98995 2.00629,1.24755 2.99626,0.57755 0.98994,-0.66999 1.09509,-1.91876 0.57755,-2.99628 -2.15282,-4.48212 -4.93937,-9.13709 -10.0755,-14.43285 -0.66999,-0.98993 -2.00632,-1.24753 -2.99627,-0.57753 z"
           id="path7609"
           inkscape:connector-curvature="0"
           sodipodi:nodetypes="ccccscc" />
        <path
           inkscape:connector-curvature="0"
           id="path7611"
           d="m 230.02968,140.83988 -0.43563,3.57059 c 0.24077,0.28305 0.35232,0.65383 0.3077,1.02275 -0.0885,0.72987 -0.75177,1.24991 -1.48169,1.16177 -0.73092,-0.088 -1.25181,-0.75227 -1.16287,-1.48307 0.0505,-0.40734 0.28605,-0.76862 0.63837,-0.9792 l 0.26353,-2.16714 -2.14968,1.8436 c -0.0133,0.37147 -0.18118,0.72049 -0.46315,0.96269 -0.55776,0.47895 -1.39813,0.41532 -1.87741,-0.14216 -0.47895,-0.55776 -0.41531,-1.39812 0.14216,-1.8774 0.31196,-0.26692 0.72959,-0.37502 1.13187,-0.29299 l 2.15226,-1.84568 -1.99797,-0.15199 c -0.27565,0.30375 -0.6759,0.46353 -1.08495,0.43311 -0.73378,-0.0555 -1.2835,-0.69555 -1.22749,-1.42929 0.0561,-0.73369 0.69662,-1.28283 1.43027,-1.22623 0.37065,0.0288 0.71239,0.21115 0.94261,0.50305 l 3.36316,0.25697 0.13606,-1.11738 c 0.0541,-0.44976 0.45901,-0.76636 0.90785,-0.71204 l 0.0881,0.006 c 0.44797,0.0553 0.76354,0.46121 0.70948,0.90985 l -0.0126,0.0892 c 0.19581,0.023 0.38527,0.11025 0.52445,0.27202 l 0.0599,0.0647 c 0.16953,0.19646 0.21476,0.44798 0.16889,0.68334 z"
           style="opacity:1;fill:#1b5e20;fill-opacity:1;stroke:none;stroke-width:1.83399451;stroke-linecap:round;stroke-linejoin:round;stroke-miterlimit:4;stroke-dasharray:none;stroke-dashoffset:0;stroke-opacity:1"
           sodipodi:nodetypes="cccccccccccccccccccccccccccc" />
        <path
           style="opacity:1;fill:#2e7d32;fill-opacity:1;stroke:none;stroke-width:2.55336881;stroke-linecap:round;stroke-linejoin:round;stroke-miterlimit:4;stroke-dasharray:none;stroke-dashoffset:0;stroke-opacity:1"
           d="m 249.83904,126.41308 c -0.8268,-1.03585 -2.16391,-0.94362 -3.3622,-0.37733 -7.33397,3.46587 -14.2,7.19912 -18.85517,12.19574 -0.90343,0.96971 -1.20414,2.32634 -0.37733,3.3622 0.8268,1.03585 2.4838,1.36982 3.36218,0.37733 5.78494,-6.53643 12.05819,-9.68624 18.85518,-12.19574 1.24331,-0.45905 1.20415,-2.32634 0.37734,-3.3622 z"
           id="path7613"
           inkscape:connector-curvature="0"
           sodipodi:nodetypes="sssssss" />
        <circle
           r="4.9286551"
           cy="114.25945"
           cx="-281.38605"
           id="circle7615"
           style="opacity:1;fill:#ffffff;fill-opacity:1;stroke:none;stroke-width:1.09401083;stroke-linecap:round;stroke-linejoin:round;stroke-miterlimit:4;stroke-dasharray:none;stroke-dashoffset:0;stroke-opacity:1"
           transform="scale(-1,1)" />
        <circle
           style="opacity:1;fill:#fdd835;fill-opacity:1;stroke:none;stroke-width:0.61617833;stroke-linecap:round;stroke-linejoin:round;stroke-miterlimit:4;stroke-dasharray:none;stroke-dashoffset:0;stroke-opacity:1"
           id="circle7617"
           cx="-282.97357"
           cy="115.02547"
           r="2.77596"
           transform="scale(-1,1)" />
        <circle
           r="1.5458485"
           cy="115.02547"
           cx="-282.97357"
           id="circle7619"
           style="opacity:1;fill:#424242;fill-opacity:1;stroke:none;stroke-width:0.34313115;stroke-linecap:round;stroke-linejoin:round;stroke-miterlimit:4;stroke-dasharray:none;stroke-dashoffset:0;stroke-opacity:1"
           transform="scale(-1,1)" />
        <g
           id="text7623"
           style="font-style:normal;font-variant:normal;font-weight:normal;font-stretch:normal;font-size:15.16097927px;line-height:125%;font-family:'open sans';-inkscape-font-specification:'open sans';letter-spacing:0px;word-spacing:0px;fill:#000000;fill-opacity:1;stroke:none;stroke-width:0.37902454px;stroke-linecap:butt;stroke-linejoin:miter;stroke-opacity:1"
           aria-label="x=">
          <path
             inkscape:connector-curvature="0"
             id="path13234"
             style="font-style:normal;font-variant:normal;font-weight:normal;font-stretch:normal;font-family:'pt sans';-inkscape-font-specification:'pt sans';stroke-width:0.37902454px"
             d="m 375.80101,90.438789 -2.54705,-3.699279 h 1.48578 l 1.44029,2.092215 0.42451,0.864176 0.43967,-0.864176 1.47061,-2.092215 h 1.36449 l -2.56221,3.638635 2.71382,3.941855 h -1.44029 l -1.60707,-2.304469 -0.45483,-0.909659 -0.46999,0.909659 -1.63738,2.304469 h -1.34933 z" />
          <path
             inkscape:connector-curvature="0"
             id="path13236"
             style="font-style:normal;font-variant:normal;font-weight:normal;font-stretch:normal;font-family:'pt sans';-inkscape-font-specification:'pt sans';stroke-width:0.37902454px"
             d="m 381.07134,88.470752 h 6.42826 v 1.091591 h -6.42826 z m 0,2.516723 h 6.42826 v 1.09159 h -6.42826 z" />
        </g>
        <g
           id="text7627"
           style="font-style:normal;font-variant:normal;font-weight:normal;font-stretch:normal;font-size:15.16097927px;line-height:125%;font-family:'open sans';-inkscape-font-specification:'open sans';letter-spacing:0px;word-spacing:0px;fill:#689f38;fill-opacity:1;stroke:none;stroke-width:0.37902454px;stroke-linecap:butt;stroke-linejoin:miter;stroke-opacity:1"
           aria-label="✔">
          <path
             inkscape:connector-curvature="0"
             id="path13231"
             style="font-style:normal;font-variant:normal;font-weight:normal;font-stretch:normal;font-family:'pt sans';-inkscape-font-specification:'pt sans';fill:#689f38;stroke:none;stroke-width:0.37902454px"
             d="m 391.2467,89.456641 q 0.28871,0 0.43677,0.473781 0.29611,0.888339 0.42196,0.888339 0.0962,0 0.19988,-0.148057 2.08019,-3.057365 3.84946,-4.352859 0.74769,-0.547809 1.45836,-0.547809 0.94016,0 1.13263,0.05922 0.0814,0.02221 0.0814,0.18507 0,0.133251 -0.17026,0.333127 -4.76002,5.463283 -5.67056,7.106709 -0.31092,0.562615 -1.43615,0.562615 -0.37014,0 -0.7773,-0.192474 -0.17026,-0.08883 -0.59222,-1.132631 -0.53301,-1.317703 -0.53301,-2.309681 0,-0.362738 0.5182,-0.599629 0.71067,-0.325724 1.06601,-0.325724 z" />
        </g>
        <path
           style="opacity:0.52999998;fill:none;fill-opacity:1;fill-rule:evenodd;stroke:#ffffff;stroke-width:2.05491257;stroke-linecap:round;stroke-linejoin:round;stroke-miterlimit:4;stroke-dasharray:4.1098249, 8.21964979;stroke-dashoffset:7.76450014;stroke-opacity:1;marker-start:url(#TriangleInM);paint-order:normal"
           d="m 270.0753,98.818187 c 17.06501,-34.758829 63.01849,-31.378793 78.42405,0"
           id="path7629"
           inkscape:connector-curvature="0"
           sodipodi:nodetypes="cc" />
        <path
           sodipodi:nodetypes="cc"
           inkscape:connector-curvature="0"
           id="path7631"
           d="m 337.77934,97.414543 c -12.65703,-20.512793 -46.74048,-18.518073 -58.16669,0"
           style="opacity:0.52999998;fill:none;fill-opacity:1;fill-rule:evenodd;stroke:#ffffff;stroke-width:2.05491257;stroke-linecap:round;stroke-linejoin:round;stroke-miterlimit:4;stroke-dasharray:4.10982517, 8.21965032;stroke-dashoffset:9.3760004;stroke-opacity:1;marker-start:url(#marker5247);paint-order:normal" />
        <path
           style="opacity:0.52999998;fill:none;fill-opacity:1;fill-rule:evenodd;stroke:#ffffff;stroke-width:2.05491233;stroke-linecap:round;stroke-linejoin:round;stroke-miterlimit:4;stroke-dasharray:4.10982481, 8.21964963;stroke-dashoffset:7.76450014;stroke-opacity:1;marker-start:url(#marker5253);paint-order:normal"
           d="m 290.02839,102.23035 c 8.40698,-15.605656 31.04569,-14.088118 38.63514,0"
           id="path7633"
           inkscape:connector-curvature="0"
           sodipodi:nodetypes="cc" />
        <path
           sodipodi:nodetypes="cc"
           inkscape:connector-curvature="0"
           id="path7635"
           d="m 318.33031,106.28342 c -4.59047,-7.025737 -16.95192,-6.342527 -21.09601,0"
           style="opacity:0.52999998;fill:none;fill-opacity:1;fill-rule:evenodd;stroke:#ffffff;stroke-width:2.05491257;stroke-linecap:round;stroke-linejoin:round;stroke-miterlimit:4;stroke-dasharray:4.10982471, 8.21964945;stroke-dashoffset:7.76450014;stroke-opacity:1;marker-start:url(#marker5259);paint-order:normal" />
        <path
           sodipodi:nodetypes="cc"
           inkscape:connector-curvature="0"
           id="path7637"
           d="m 358.33904,101.90869 c -21.91642,-51.746878 -80.93399,-46.714883 -100.71921,0"
           style="opacity:0.52999998;fill:none;fill-opacity:1;fill-rule:evenodd;stroke:#ffffff;stroke-width:2.05491257;stroke-linecap:round;stroke-linejoin:round;stroke-miterlimit:4;stroke-dasharray:4.10982497, 8.21964993;stroke-dashoffset:7.76450014;stroke-opacity:1;marker-start:url(#marker5290);paint-order:normal" />
      </g>
      <path
         style="color:#000000;font-style:normal;font-variant:normal;font-weight:normal;font-stretch:normal;font-size:medium;line-height:normal;font-family:sans-serif;font-variant-ligatures:normal;font-variant-position:normal;font-variant-caps:normal;font-variant-numeric:normal;font-variant-alternates:normal;font-feature-settings:normal;text-indent:0;text-align:start;text-decoration:none;text-decoration-line:none;text-decoration-style:solid;text-decoration-color:#000000;letter-spacing:normal;word-spacing:normal;text-transform:none;writing-mode:lr-tb;direction:ltr;text-orientation:mixed;dominant-baseline:auto;baseline-shift:baseline;text-anchor:start;white-space:normal;shape-padding:0;clip-rule:nonzero;display:inline;overflow:visible;visibility:visible;opacity:1;isolation:auto;mix-blend-mode:normal;color-interpolation:sRGB;color-interpolation-filters:linearRGB;solid-color:#000000;solid-opacity:1;vector-effect:none;fill:#000000;fill-opacity:1;fill-rule:evenodd;stroke:none;stroke-width:1.06976616;stroke-linecap:round;stroke-linejoin:miter;stroke-miterlimit:4;stroke-dasharray:none;stroke-dashoffset:0;stroke-opacity:1;color-rendering:auto;image-rendering:auto;shape-rendering:auto;text-rendering:auto;enable-background:accumulate"
         d="m 58.391781,267.41687 a 0.53493658,0.53493658 0 1 0 0,1.06977 h 6.390086 a 0.53493658,0.53493658 0 1 0 0,-1.06977 z m 0,1.72571 a 0.53493658,0.53493658 0 1 0 0,1.06976 h 6.390086 a 0.53493658,0.53493658 0 1 0 0,-1.06976 z m 0,1.72504 a 0.53493658,0.53493658 0 1 0 0,1.06977 h 6.390086 a 0.53493658,0.53493658 0 1 0 0,-1.06977 z"
         id="path7641"
         inkscape:connector-curvature="0" />
    </g>
  </g>
</svg>
