<?xml version="1.0" encoding="UTF-8" standalone="no"?>
<!-- Created with Inkscape (http://www.inkscape.org/) -->

<svg
   xmlns:dc="http://purl.org/dc/elements/1.1/"
   xmlns:cc="http://creativecommons.org/ns#"
   xmlns:rdf="http://www.w3.org/1999/02/22-rdf-syntax-ns#"
   xmlns:svg="http://www.w3.org/2000/svg"
   xmlns="http://www.w3.org/2000/svg"
   xmlns:xlink="http://www.w3.org/1999/xlink"
   xmlns:sodipodi="http://sodipodi.sourceforge.net/DTD/sodipodi-0.dtd"
   xmlns:inkscape="http://www.inkscape.org/namespaces/inkscape"
   width="800"
   height="400"
   viewBox="0 0 211.66666 105.83333"
   version="1.1"
   id="svg8"
   inkscape:version="0.92.1 r"
   sodipodi:docname="isomorphism-example.svg">
  <defs
     id="defs2">
    <pattern
       inkscape:collect="always"
       xlink:href="#pattern5277"
       id="pattern5291"
       patternTransform="matrix(0.26458333,0,0,0.26458333,-185.32463,56.53669)" />
    <pattern
       inkscape:collect="always"
       xlink:href="#pattern12244"
       id="pattern5277"
       patternTransform="matrix(0.26458333,0,0,0.26458333,-180.1424,-6.4239397)" />
    <pattern
       inkscape:collect="always"
       xlink:href="#pattern12262"
       id="pattern5268"
       patternTransform="matrix(0.26458333,0,0,0.26458333,67.919501,154.41114)" />
    <pattern
       inkscape:collect="always"
       xlink:href="#pattern6182"
       id="pattern12262"
       patternTransform="matrix(0.26458333,0,0,0.26458333,67.919501,154.41114)" />
    <pattern
       inkscape:collect="always"
       xlink:href="#pattern12234"
       id="pattern12244"
       patternTransform="matrix(0.26458333,0,0,0.26458333,-180.1424,-6.4239397)" />
    <pattern
       patternUnits="userSpaceOnUse"
       width="14.14214"
       height="14.142111"
       patternTransform="matrix(0.26458333,0,0,0.26458333,68.888725,181.80681)"
       id="pattern6182">
      <g
         id="g6180"
         transform="matrix(3.7795276,0,0,3.7795276,-260.36684,-687.14384)">
        <rect
           y="181.80681"
           x="68.888725"
           height="1.8708867"
           width="1.8708867"
           id="rect6127"
           style="opacity:1;fill:#b3b3b3;fill-opacity:1;stroke:none;stroke-width:0.79374999;stroke-miterlimit:4;stroke-dasharray:none;stroke-opacity:1" />
        <rect
           style="opacity:1;fill:#666666;fill-opacity:1;stroke:none;stroke-width:0.79374999;stroke-miterlimit:4;stroke-dasharray:none;stroke-opacity:1"
           id="rect6129"
           width="1.8708867"
           height="1.8708867"
           x="70.759613"
           y="181.80681" />
        <rect
           style="opacity:1;fill:#666666;fill-opacity:1;stroke:none;stroke-width:0.79374999;stroke-miterlimit:4;stroke-dasharray:none;stroke-opacity:1"
           id="rect6131"
           width="1.8708867"
           height="1.8708867"
           x="68.888725"
           y="183.67769" />
        <rect
           y="183.67769"
           x="70.759613"
           height="1.8708867"
           width="1.8708867"
           id="rect6133"
           style="opacity:1;fill:#b3b3b3;fill-opacity:1;stroke:none;stroke-width:0.79374999;stroke-miterlimit:4;stroke-dasharray:none;stroke-opacity:1" />
      </g>
    </pattern>
    <pattern
       patternUnits="userSpaceOnUse"
       width="14.14214"
       height="14.142111"
       patternTransform="matrix(0.26458333,0,0,0.26458333,75.904549,176.46141)"
       id="pattern6215">
      <g
         id="g6213"
         transform="matrix(3.7795276,0,0,3.7795276,-286.88333,-666.94076)">
        <rect
           style="opacity:1;fill:#000000;fill-opacity:1;stroke:none;stroke-width:0.79374999;stroke-miterlimit:4;stroke-dasharray:none;stroke-opacity:1"
           id="rect6119"
           width="1.8708867"
           height="1.8708867"
           x="75.904549"
           y="176.46141" />
        <rect
           y="176.46141"
           x="77.775436"
           height="1.8708867"
           width="1.8708867"
           id="rect6121"
           style="opacity:1;fill:#cccccc;fill-opacity:1;stroke:none;stroke-width:0.79374999;stroke-miterlimit:4;stroke-dasharray:none;stroke-opacity:1" />
        <rect
           y="178.33229"
           x="75.904549"
           height="1.8708867"
           width="1.8708867"
           id="rect6123"
           style="opacity:1;fill:#cccccc;fill-opacity:1;stroke:none;stroke-width:0.79374999;stroke-miterlimit:4;stroke-dasharray:none;stroke-opacity:1" />
        <rect
           style="opacity:1;fill:#000000;fill-opacity:1;stroke:none;stroke-width:0.79374999;stroke-miterlimit:4;stroke-dasharray:none;stroke-opacity:1"
           id="rect6125"
           width="1.8708867"
           height="1.8708867"
           x="77.775436"
           y="178.33229" />
      </g>
    </pattern>
    <pattern
       patternUnits="userSpaceOnUse"
       width="14.14214"
       height="7.0710678"
       patternTransform="matrix(0.26458333,0,0,0.26458333,68.688271,173.52145)"
       id="pattern12234">
      <g
         id="g12232"
         transform="matrix(3.7795276,0,0,3.7795276,-259.60921,-655.82912)">
        <g
           id="g6226">
          <rect
             y="173.52145"
             x="68.688271"
             height="1.8708867"
             width="1.8708867"
             id="rect6135"
             style="opacity:1;fill:#ececec;fill-opacity:1;stroke:none;stroke-width:0.79374999;stroke-miterlimit:4;stroke-dasharray:none;stroke-opacity:1" />
          <rect
             style="opacity:1;fill:#000000;fill-opacity:1;stroke:none;stroke-width:0.79374999;stroke-miterlimit:4;stroke-dasharray:none;stroke-opacity:1"
             id="rect6137"
             width="1.8708867"
             height="1.8708867"
             x="70.559158"
             y="173.52145" />
        </g>
      </g>
    </pattern>
  </defs>
  <sodipodi:namedview
     id="base"
     pagecolor="#ffffff"
     bordercolor="#666666"
     borderopacity="1.0"
     inkscape:pageopacity="0.0"
     inkscape:pageshadow="2"
     inkscape:zoom="0.49497475"
     inkscape:cx="417.11798"
     inkscape:cy="201.86468"
     inkscape:document-units="mm"
     inkscape:current-layer="layer1"
     showgrid="false"
     units="px"
     inkscape:snap-grids="true"
     inkscape:snap-bbox="true"
     inkscape:bbox-nodes="true"
     inkscape:snap-bbox-edge-midpoints="false"
     inkscape:snap-bbox-midpoints="false"
     inkscape:object-paths="true"
     inkscape:snap-intersection-paths="true"
     inkscape:snap-smooth-nodes="false"
     inkscape:object-nodes="false"
     inkscape:snap-object-midpoints="true"
     inkscape:window-width="1362"
     inkscape:window-height="728"
     inkscape:window-x="0"
     inkscape:window-y="38"
     inkscape:window-maximized="0"
     inkscape:snap-global="true">
    <inkscape:grid
       type="xygrid"
       id="grid4485" />
  </sodipodi:namedview>
  <metadata
     id="metadata5">
    <rdf:RDF>
      <cc:Work
         rdf:about="">
        <dc:format>image/svg+xml</dc:format>
        <dc:type
           rdf:resource="http://purl.org/dc/dcmitype/StillImage" />
        <dc:title></dc:title>
      </cc:Work>
    </rdf:RDF>
  </metadata>
  <g
     inkscape:label="Layer 1"
     inkscape:groupmode="layer"
     id="layer1"
     transform="translate(0,-191.16664)">
    <g
       id="g5477"
       transform="translate(111.6841,5.4656171)">
      <ellipse
         style="opacity:1;fill:#cccccc;fill-opacity:1;stroke:none;stroke-width:1.32291663;stroke-linecap:round;stroke-linejoin:round;stroke-miterlimit:4;stroke-dasharray:none;stroke-dashoffset:35.4368515;stroke-opacity:1;paint-order:normal"
         id="ellipse5429"
         cx="46.504581"
         cy="197.72267"
         ry="3.968749"
         rx="3.96875" />
      <path
         id="ellipse5433"
         transform="matrix(0.26458333,0,0,0.26458333,0,191.16664)"
         d="m 175.76562,9.7792969 a 15,14.999996 0 0 0 -2.65429,0.2402341 v 1.494141 h 5.30664 v -1.484375 a 15,14.999996 0 0 0 -2.65235,-0.2500001 z m 2.65235,1.7343751 v 5.30664 h 5.30664 v -4.734374 a 15,14.999996 0 0 0 -0.97852,-0.572266 z m 5.30664,5.30664 V 22.125 h 5.30469 v -4.330078 a 15,14.999996 0 0 0 -0.5586,-0.97461 z M 189.0293,22.125 v 5.306641 h 1.48632 a 15,14.999996 0 0 0 0.25,-2.652344 15,14.999996 0 0 0 -0.24218,-2.654297 z m 0,5.306641 h -5.30469 v 5.304687 h 4.73437 a 15,14.999996 0 0 0 0.57032,-0.972656 z m -5.30469,5.304687 h -5.30664 v 5.306641 h 4.33008 a 15,14.999996 0 0 0 0.97656,-0.560547 z m -5.30664,5.306641 h -5.30664 v 1.486328 a 15,14.999996 0 0 0 2.65429,0.25 15,14.999996 0 0 0 2.65235,-0.242188 z m -5.30664,0 v -5.306641 h -5.30469 v 4.736328 a 15,14.999996 0 0 0 0.97461,0.570313 z m -5.30469,-5.306641 V 27.431641 H 162.5 v 4.330078 a 15,14.999996 0 0 0 0.55859,0.974609 z M 162.5,27.431641 V 22.125 h -1.48438 a 15,14.999996 0 0 0 -0.25,2.654297 15,14.999996 0 0 0 0.24219,2.652344 z m 0,-5.306641 h 5.30664 v -5.304688 h -4.73437 A 15,14.999996 0 0 0 162.5,17.798828 Z m 5.30664,-5.304688 h 5.30469 v -5.30664 h -4.33008 a 15,14.999996 0 0 0 -0.97461,0.558594 z m 5.30469,0 V 22.125 h 5.30664 v -5.304688 z m 5.30664,5.304688 v 5.306641 h 5.30664 V 22.125 Z m 0,5.306641 h -5.30664 v 5.304687 h 5.30664 z m -5.30664,0 V 22.125 h -5.30469 v 5.306641 z"
         style="opacity:1;fill:#ececec;fill-opacity:1;stroke:none;stroke-width:5;stroke-linecap:round;stroke-linejoin:round;stroke-miterlimit:4;stroke-dasharray:none;stroke-dashoffset:35.4368515;stroke-opacity:1;paint-order:normal"
         inkscape:connector-curvature="0" />
      <ellipse
         rx="3.96875"
         ry="3.968749"
         cy="197.72267"
         cx="46.504581"
         id="ellipse5436"
         style="opacity:1;fill:none;fill-opacity:1;stroke:#000000;stroke-width:1.32291663;stroke-linecap:round;stroke-linejoin:round;stroke-miterlimit:4;stroke-dasharray:none;stroke-dashoffset:35.4368515;stroke-opacity:1;paint-order:normal" />
    </g>
    <g
       id="g5472"
       transform="translate(59.830302,34.113241)">
      <ellipse
         transform="rotate(-30)"
         rx="3.96875"
         ry="3.968749"
         cy="216.40727"
         cx="-31.05435"
         id="ellipse5438"
         style="opacity:1;fill:#1a1a1a;fill-opacity:1;stroke:none;stroke-width:1.32291663;stroke-linecap:round;stroke-linejoin:round;stroke-miterlimit:4;stroke-dasharray:none;stroke-dashoffset:35.4368515;stroke-opacity:1;paint-order:normal" />
      <path
         inkscape:connector-curvature="0"
         style="opacity:1;fill:#666666;fill-opacity:1;stroke:none;stroke-width:1.32291663;stroke-linecap:round;stroke-linejoin:round;stroke-miterlimit:4;stroke-dasharray:none;stroke-dashoffset:35.4368515;stroke-opacity:1;paint-order:normal"
         d="m 79.325548,199.50443 a 3.9687489,3.9687499 60 0 0 -0.576393,0.40622 l 0.19766,0.34236 1.215942,-0.70202 -0.19637,-0.34013 a 3.9687489,3.9687499 60 0 0 -0.640799,0.29364 z m 0.837194,0.0465 0.702025,1.21594 1.215942,-0.70202 -0.62632,-1.08482 a 3.9687489,3.9687499 60 0 0 -0.299919,-0.002 z m 1.917967,0.51392 0.701765,1.21549 1.215495,-0.70176 -0.57283,-0.99217 a 3.9687489,3.9687499 60 0 0 -0.25693,-0.14943 z m 1.91726,0.51373 0.702025,1.21594 0.340569,-0.19663 a 3.9687489,3.9687499 60 0 0 -0.293598,-0.64082 3.9687489,3.9687499 60 0 0 -0.406635,-0.57616 z m 0.702025,1.21594 -1.215495,0.70177 0.701765,1.21549 1.084814,-0.62632 a 3.9687489,3.9687499 60 0 0 0.002,-0.29832 z m -0.51373,1.91726 -1.215942,0.70202 0.702025,1.21595 0.992177,-0.57284 a 3.9687489,3.9687499 60 0 0 0.14961,-0.25763 z m -0.513917,1.91797 -1.215942,0.70202 0.19663,0.34057 a 3.9687489,3.9687499 60 0 0 0.641243,-0.29389 3.9687489,3.9687499 60 0 0 0.575699,-0.4064 z m -1.215942,0.70202 -0.702025,-1.21594 -1.215494,0.70176 0.62658,1.08527 a 3.9687489,3.9687499 60 0 0 0.298763,0.002 z m -1.917519,-0.51418 -0.701765,-1.21549 -1.215942,0.70202 0.572835,0.99218 a 3.9687489,3.9687499 60 0 0 0.256923,0.14942 z m -1.917707,-0.51347 -0.702025,-1.21594 -0.340125,0.19637 a 3.9687489,3.9687499 60 0 0 0.293853,0.64127 3.9687489,3.9687499 60 0 0 0.40638,0.57571 z m -0.702025,-1.21594 1.215942,-0.70202 -0.701765,-1.2155 -1.084815,0.62632 a 3.9687489,3.9687499 60 0 0 -0.0017,0.29992 z m 0.514177,-1.91752 1.215494,-0.70176 -0.702025,-1.21594 -0.992176,0.57283 a 3.9687489,3.9687499 60 0 0 -0.149418,0.25693 z m 1.215494,-0.70176 0.701765,1.21549 1.215942,-0.70202 -0.701765,-1.2155 z m 1.917707,0.51347 0.702025,1.21594 1.215942,-0.70202 -0.702025,-1.21595 z m 0.702025,1.21594 -1.215942,0.70202 0.701765,1.2155 1.215942,-0.70203 z m -1.215942,0.70202 -0.702025,-1.21594 -1.215494,0.70177 0.702025,1.21594 z"
         id="path5440" />
      <ellipse
         transform="rotate(-30)"
         style="opacity:1;fill:none;fill-opacity:1;stroke:#000000;stroke-width:1.32291663;stroke-linecap:round;stroke-linejoin:round;stroke-miterlimit:4;stroke-dasharray:none;stroke-dashoffset:35.4368515;stroke-opacity:1;paint-order:normal"
         id="ellipse5442"
         cx="-31.05435"
         cy="216.40727"
         ry="3.968749"
         rx="3.96875" />
    </g>
    <g
       id="g5467"
       transform="translate(-24.847247,39.333863)">
      <ellipse
         style="opacity:1;fill:#1a1a1a;fill-opacity:1;stroke:none;stroke-width:1.32291663;stroke-linecap:round;stroke-linejoin:round;stroke-miterlimit:4;stroke-dasharray:none;stroke-dashoffset:35.4368515;stroke-opacity:1;paint-order:normal"
         id="ellipse5444"
         cx="-27.451582"
         cy="202.2296"
         ry="3.968749"
         rx="3.96875"
         transform="rotate(-30)" />
      <path
         id="rect5450"
         transform="matrix(0.26458333,0,0,0.26458333,0,191.16664)"
         d="m 291.95898,-23.707031 a 14.999996,15 60 0 0 -0.39453,0.0293 l 15.71485,15.7148434 a 14.999996,15 60 0 0 -0.98828,-6.1367184 l -8.61329,-8.613282 a 14.999996,15 60 0 0 -5.71875,-0.99414 z m -5.5625,1.222656 a 14.999996,15 60 0 0 -1.58398,0.783203 14.999996,15 60 0 0 -1.6543,1.126953 l 21.01953,21.0195315 a 14.999996,15 60 0 0 1.9043,-3.2441406 z m -6.34765,5.164063 a 14.999996,15 60 0 0 -1.7793,3.36914 l 19.2793,19.279297 a 14.999996,15 60 0 0 2.26367,-1.0488281 14.999996,15 60 0 0 1.11328,-0.7226563 z m -2.72852,8.7812495 a 14.999996,15 60 0 0 1.81446,6.9628906 l 6.05078,6.0507813 a 14.999996,15 60 0 0 6.94336,1.7949218 z"
         style="opacity:1;fill:#e6e6e6;fill-opacity:1;stroke:none;stroke-width:5.81177139;stroke-miterlimit:4;stroke-dasharray:none;stroke-opacity:1"
         inkscape:connector-curvature="0" />
      <ellipse
         rx="3.96875"
         ry="3.968749"
         cy="202.2296"
         cx="-27.451582"
         id="ellipse5448"
         style="opacity:1;fill:none;fill-opacity:1;stroke:#000000;stroke-width:1.32291663;stroke-linecap:round;stroke-linejoin:round;stroke-miterlimit:4;stroke-dasharray:none;stroke-dashoffset:35.4368515;stroke-opacity:1;paint-order:normal"
         transform="rotate(-30)" />
    </g>
    <g
       transform="translate(12.851189,7.323288)"
       id="g5553">
      <ellipse
         rx="3.96875"
         ry="3.968749"
         cy="197.72267"
         cx="46.504581"
         id="ellipse5547"
         style="opacity:1;fill:#cccccc;fill-opacity:1;stroke:none;stroke-width:1.32291663;stroke-linecap:round;stroke-linejoin:round;stroke-miterlimit:4;stroke-dasharray:none;stroke-dashoffset:35.4368515;stroke-opacity:1;paint-order:normal" />
      <path
         inkscape:connector-curvature="0"
         style="opacity:1;fill:#ececec;fill-opacity:1;stroke:none;stroke-width:5;stroke-linecap:round;stroke-linejoin:round;stroke-miterlimit:4;stroke-dasharray:none;stroke-dashoffset:35.4368515;stroke-opacity:1;paint-order:normal"
         d="m 175.76562,9.7792969 a 15,14.999996 0 0 0 -2.65429,0.2402341 v 1.494141 h 5.30664 v -1.484375 a 15,14.999996 0 0 0 -2.65235,-0.2500001 z m 2.65235,1.7343751 v 5.30664 h 5.30664 v -4.734374 a 15,14.999996 0 0 0 -0.97852,-0.572266 z m 5.30664,5.30664 V 22.125 h 5.30469 v -4.330078 a 15,14.999996 0 0 0 -0.5586,-0.97461 z M 189.0293,22.125 v 5.306641 h 1.48632 a 15,14.999996 0 0 0 0.25,-2.652344 15,14.999996 0 0 0 -0.24218,-2.654297 z m 0,5.306641 h -5.30469 v 5.304687 h 4.73437 a 15,14.999996 0 0 0 0.57032,-0.972656 z m -5.30469,5.304687 h -5.30664 v 5.306641 h 4.33008 a 15,14.999996 0 0 0 0.97656,-0.560547 z m -5.30664,5.306641 h -5.30664 v 1.486328 a 15,14.999996 0 0 0 2.65429,0.25 15,14.999996 0 0 0 2.65235,-0.242188 z m -5.30664,0 v -5.306641 h -5.30469 v 4.736328 a 15,14.999996 0 0 0 0.97461,0.570313 z m -5.30469,-5.306641 V 27.431641 H 162.5 v 4.330078 a 15,14.999996 0 0 0 0.55859,0.974609 z M 162.5,27.431641 V 22.125 h -1.48438 a 15,14.999996 0 0 0 -0.25,2.654297 15,14.999996 0 0 0 0.24219,2.652344 z m 0,-5.306641 h 5.30664 v -5.304688 h -4.73437 A 15,14.999996 0 0 0 162.5,17.798828 Z m 5.30664,-5.304688 h 5.30469 v -5.30664 h -4.33008 a 15,14.999996 0 0 0 -0.97461,0.558594 z m 5.30469,0 V 22.125 h 5.30664 v -5.304688 z m 5.30664,5.304688 v 5.306641 h 5.30664 V 22.125 Z m 0,5.306641 h -5.30664 v 5.304687 h 5.30664 z m -5.30664,0 V 22.125 h -5.30469 v 5.306641 z"
         transform="matrix(0.26458333,0,0,0.26458333,0,191.16664)"
         id="path5549" />
      <ellipse
         style="opacity:1;fill:none;fill-opacity:1;stroke:#000000;stroke-width:1.32291663;stroke-linecap:round;stroke-linejoin:round;stroke-miterlimit:4;stroke-dasharray:none;stroke-dashoffset:35.4368515;stroke-opacity:1;paint-order:normal"
         id="ellipse5551"
         cx="46.504581"
         cy="197.72267"
         ry="3.968749"
         rx="3.96875" />
    </g>
    <g
       transform="translate(-65.883453,81.637218)"
       id="g5545">
      <ellipse
         style="opacity:1;fill:#1a1a1a;fill-opacity:1;stroke:none;stroke-width:1.32291663;stroke-linecap:round;stroke-linejoin:round;stroke-miterlimit:4;stroke-dasharray:none;stroke-dashoffset:35.4368515;stroke-opacity:1;paint-order:normal"
         id="ellipse5539"
         cx="-31.05435"
         cy="216.40727"
         ry="3.968749"
         rx="3.96875"
         transform="rotate(-30)" />
      <path
         id="path5541"
         d="m 79.325548,199.50443 a 3.9687489,3.9687499 60 0 0 -0.576393,0.40622 l 0.19766,0.34236 1.215942,-0.70202 -0.19637,-0.34013 a 3.9687489,3.9687499 60 0 0 -0.640799,0.29364 z m 0.837194,0.0465 0.702025,1.21594 1.215942,-0.70202 -0.62632,-1.08482 a 3.9687489,3.9687499 60 0 0 -0.299919,-0.002 z m 1.917967,0.51392 0.701765,1.21549 1.215495,-0.70176 -0.57283,-0.99217 a 3.9687489,3.9687499 60 0 0 -0.25693,-0.14943 z m 1.91726,0.51373 0.702025,1.21594 0.340569,-0.19663 a 3.9687489,3.9687499 60 0 0 -0.293598,-0.64082 3.9687489,3.9687499 60 0 0 -0.406635,-0.57616 z m 0.702025,1.21594 -1.215495,0.70177 0.701765,1.21549 1.084814,-0.62632 a 3.9687489,3.9687499 60 0 0 0.002,-0.29832 z m -0.51373,1.91726 -1.215942,0.70202 0.702025,1.21595 0.992177,-0.57284 a 3.9687489,3.9687499 60 0 0 0.14961,-0.25763 z m -0.513917,1.91797 -1.215942,0.70202 0.19663,0.34057 a 3.9687489,3.9687499 60 0 0 0.641243,-0.29389 3.9687489,3.9687499 60 0 0 0.575699,-0.4064 z m -1.215942,0.70202 -0.702025,-1.21594 -1.215494,0.70176 0.62658,1.08527 a 3.9687489,3.9687499 60 0 0 0.298763,0.002 z m -1.917519,-0.51418 -0.701765,-1.21549 -1.215942,0.70202 0.572835,0.99218 a 3.9687489,3.9687499 60 0 0 0.256923,0.14942 z m -1.917707,-0.51347 -0.702025,-1.21594 -0.340125,0.19637 a 3.9687489,3.9687499 60 0 0 0.293853,0.64127 3.9687489,3.9687499 60 0 0 0.40638,0.57571 z m -0.702025,-1.21594 1.215942,-0.70202 -0.701765,-1.2155 -1.084815,0.62632 a 3.9687489,3.9687499 60 0 0 -0.0017,0.29992 z m 0.514177,-1.91752 1.215494,-0.70176 -0.702025,-1.21594 -0.992176,0.57283 a 3.9687489,3.9687499 60 0 0 -0.149418,0.25693 z m 1.215494,-0.70176 0.701765,1.21549 1.215942,-0.70202 -0.701765,-1.2155 z m 1.917707,0.51347 0.702025,1.21594 1.215942,-0.70202 -0.702025,-1.21595 z m 0.702025,1.21594 -1.215942,0.70202 0.701765,1.2155 1.215942,-0.70203 z m -1.215942,0.70202 -0.702025,-1.21594 -1.215494,0.70177 0.702025,1.21594 z"
         style="opacity:1;fill:#666666;fill-opacity:1;stroke:none;stroke-width:1.32291663;stroke-linecap:round;stroke-linejoin:round;stroke-miterlimit:4;stroke-dasharray:none;stroke-dashoffset:35.4368515;stroke-opacity:1;paint-order:normal"
         inkscape:connector-curvature="0" />
      <ellipse
         rx="3.96875"
         ry="3.968749"
         cy="216.40727"
         cx="-31.05435"
         id="ellipse5543"
         style="opacity:1;fill:none;fill-opacity:1;stroke:#000000;stroke-width:1.32291663;stroke-linecap:round;stroke-linejoin:round;stroke-miterlimit:4;stroke-dasharray:none;stroke-dashoffset:35.4368515;stroke-opacity:1;paint-order:normal"
         transform="rotate(-30)" />
    </g>
    <ellipse
       ry="3.968749"
       rx="3.96875"
       cy="222.47475"
       cx="19.734224"
       id="ellipse4503"
       style="opacity:1;fill:#f2f2f2;fill-opacity:1;stroke:#000000;stroke-width:1.32291663;stroke-linecap:round;stroke-linejoin:round;stroke-miterlimit:4;stroke-dasharray:none;stroke-dashoffset:35.4368515;stroke-opacity:1;paint-order:normal" />
    <ellipse
       ry="3.968749"
       rx="3.96875"
       cy="226.93033"
       cx="78.82312"
       id="ellipse4507"
       style="opacity:1;fill:#808080;fill-opacity:1;stroke:#000000;stroke-width:1.32291663;stroke-linecap:round;stroke-linejoin:round;stroke-miterlimit:4;stroke-dasharray:none;stroke-dashoffset:35.4368515;stroke-opacity:1;paint-order:normal" />
    <ellipse
       ry="3.968749"
       rx="3.96875"
       cy="269.08774"
       cx="69.991608"
       id="ellipse4511"
       style="opacity:1;fill:#1a1a1a;fill-opacity:1;stroke:#000000;stroke-width:1.32291663;stroke-linecap:round;stroke-linejoin:round;stroke-miterlimit:4;stroke-dasharray:none;stroke-dashoffset:35.4368515;stroke-opacity:1;paint-order:normal" />
    <ellipse
       transform="rotate(-90)"
       ry="3.968749"
       rx="3.96875"
       cy="115.45685"
       cx="-233.37538"
       id="ellipse5279"
       style="opacity:1;fill:url(#pattern5291);fill-opacity:1;stroke:#000000;stroke-width:1.32291663;stroke-linecap:round;stroke-linejoin:round;stroke-miterlimit:4;stroke-dasharray:none;stroke-dashoffset:35.4368515;stroke-opacity:1;paint-order:normal" />
    <ellipse
       style="opacity:1;fill:#f2f2f2;fill-opacity:1;stroke:#000000;stroke-width:1.32291663;stroke-linecap:round;stroke-linejoin:round;stroke-miterlimit:4;stroke-dasharray:none;stroke-dashoffset:35.4368515;stroke-opacity:1;paint-order:normal"
       id="ellipse5281"
       cx="170.27965"
       cy="236.64673"
       rx="3.96875"
       ry="3.968749" />
    <ellipse
       style="opacity:1;fill:#808080;fill-opacity:1;stroke:#000000;stroke-width:1.32291663;stroke-linecap:round;stroke-linejoin:round;stroke-miterlimit:4;stroke-dasharray:none;stroke-dashoffset:35.4368515;stroke-opacity:1;paint-order:normal"
       id="ellipse5283"
       cx="200.36641"
       cy="242.3333"
       rx="3.96875"
       ry="3.968749" />
    <ellipse
       style="opacity:1;fill:#1a1a1a;fill-opacity:1;stroke:#000000;stroke-width:1.32291663;stroke-linecap:round;stroke-linejoin:round;stroke-miterlimit:4;stroke-dasharray:none;stroke-dashoffset:35.4368515;stroke-opacity:1;paint-order:normal"
       id="ellipse5287"
       cx="155.36447"
       cy="285.05612"
       rx="3.96875"
       ry="3.968749" />
    <path
       style="fill:none;fill-rule:evenodd;stroke:#000000;stroke-width:1.32291663;stroke-linecap:butt;stroke-linejoin:miter;stroke-miterlimit:4;stroke-dasharray:none;stroke-opacity:1"
       d="M 19.459593,226.43391 15.70096,280.61942"
       id="path5297"
       inkscape:connector-type="polyline"
       inkscape:connector-curvature="0"
       inkscape:connection-start="#ellipse4503" />
    <path
       style="fill:none;fill-rule:evenodd;stroke:#000000;stroke-width:1.32291663;stroke-linecap:butt;stroke-linejoin:miter;stroke-miterlimit:4;stroke-dasharray:none;stroke-opacity:1"
       d="M 19.244173,283.49472 66.173802,270.1716"
       id="path5299"
       inkscape:connector-type="polyline"
       inkscape:connector-curvature="0"
       inkscape:connection-end="#ellipse4511" />
    <path
       style="fill:none;fill-rule:evenodd;stroke:#000000;stroke-width:1.32291663;stroke-linecap:butt;stroke-linejoin:miter;stroke-miterlimit:4;stroke-dasharray:none;stroke-opacity:1"
       d="M 68.430574,265.4389 54.057265,231.84201"
       id="path5301"
       inkscape:connector-type="polyline"
       inkscape:connector-curvature="0"
       inkscape:connection-start="#ellipse4511" />
    <path
       style="fill:none;fill-rule:evenodd;stroke:#000000;stroke-width:1.32291663;stroke-linecap:butt;stroke-linejoin:miter;stroke-miterlimit:4;stroke-dasharray:none;stroke-opacity:1"
       d="m 53.623852,224.38807 4.604297,-15.537"
       id="path5303"
       inkscape:connector-type="polyline"
       inkscape:connector-curvature="0" />
    <path
       style="fill:none;fill-rule:evenodd;stroke:#000000;stroke-width:1.32291663;stroke-linecap:butt;stroke-linejoin:miter;stroke-miterlimit:4;stroke-dasharray:none;stroke-opacity:1"
       d="M 76.18536,223.96507 61.99353,208.01122"
       id="path5305"
       inkscape:connector-type="polyline"
       inkscape:connector-curvature="0"
       inkscape:connection-start="#ellipse4507" />
    <path
       style="fill:none;fill-rule:evenodd;stroke:#000000;stroke-width:1.32291663;stroke-linecap:butt;stroke-linejoin:miter;stroke-miterlimit:4;stroke-dasharray:none;stroke-opacity:1"
       d="M 55.723004,206.64395 23.366991,220.87676"
       id="path5307"
       inkscape:connector-type="polyline"
       inkscape:connector-curvature="0"
       inkscape:connection-end="#ellipse4503" />
    <path
       style="fill:none;fill-rule:evenodd;stroke:#000000;stroke-width:1.32291663;stroke-linecap:butt;stroke-linejoin:miter;stroke-miterlimit:4;stroke-dasharray:none;stroke-opacity:1"
       d="m 78.009384,230.81472 -7.20404,34.38863"
       id="path5309"
       inkscape:connector-type="polyline"
       inkscape:connector-curvature="0"
       inkscape:connection-start="#ellipse4507"
       inkscape:connection-end="#ellipse4511" />
    <path
       style="fill:none;fill-rule:evenodd;stroke:#000000;stroke-width:1.32291663;stroke-linecap:butt;stroke-linejoin:miter;stroke-miterlimit:4;stroke-dasharray:none;stroke-opacity:1"
       d="m 166.31144,236.70856 -21.20306,0.2915"
       id="path5311"
       inkscape:connector-type="polyline"
       inkscape:connector-curvature="0"
       inkscape:connection-start="#ellipse5281" />
    <path
       style="fill:none;fill-rule:evenodd;stroke:#000000;stroke-width:1.32291663;stroke-linecap:butt;stroke-linejoin:miter;stroke-miterlimit:4;stroke-dasharray:none;stroke-opacity:1"
       d="M 50.316037,231.50937 17.606551,281.26235"
       id="path5313"
       inkscape:connector-type="polyline"
       inkscape:connector-curvature="0" />
    <path
       style="fill:none;fill-rule:evenodd;stroke:#000000;stroke-width:1.32291663;stroke-linecap:butt;stroke-linejoin:miter;stroke-miterlimit:4;stroke-dasharray:none;stroke-opacity:1"
       d="m 142.13289,240.89716 12.09246,40.35727"
       id="path5315"
       inkscape:connector-type="polyline"
       inkscape:connector-curvature="0"
       inkscape:connection-end="#ellipse5287" />
    <path
       style="fill:none;fill-rule:evenodd;stroke:#000000;stroke-width:1.32291663;stroke-linecap:butt;stroke-linejoin:miter;stroke-miterlimit:4;stroke-dasharray:none;stroke-opacity:1"
       d="m 197.25393,244.79558 -39.0281,37.51045"
       id="path5317"
       inkscape:connector-type="polyline"
       inkscape:connector-curvature="0"
       inkscape:connection-end="#ellipse5287"
       inkscape:connection-start="#ellipse5283" />
    <path
       style="fill:none;fill-rule:evenodd;stroke:#000000;stroke-width:1.32291663;stroke-linecap:butt;stroke-linejoin:miter;stroke-miterlimit:4;stroke-dasharray:none;stroke-opacity:1"
       d="M 152.63795,282.17228 117.86218,236.53216"
       id="path5319"
       inkscape:connector-type="polyline"
       inkscape:connector-curvature="0"
       inkscape:connection-end="#ellipse5279"
       inkscape:connection-start="#ellipse5287" />
    <path
       style="fill:none;fill-rule:evenodd;stroke:#000000;stroke-width:1.32291663;stroke-linecap:butt;stroke-linejoin:miter;stroke-miterlimit:4;stroke-dasharray:none;stroke-opacity:1"
       d="M 118.71721,231.11255 155.19587,205.7948"
       id="path5321"
       inkscape:connector-type="polyline"
       inkscape:connector-curvature="0"
       inkscape:connection-start="#ellipse5279" />
    <path
       style="fill:none;fill-rule:evenodd;stroke:#000000;stroke-width:1.32291663;stroke-linecap:butt;stroke-linejoin:miter;stroke-miterlimit:4;stroke-dasharray:none;stroke-opacity:1"
       d="M 197.717,239.37847 161.11591,205.8684"
       id="path5323"
       inkscape:connector-type="polyline"
       inkscape:connector-curvature="0"
       inkscape:connection-start="#ellipse5283" />
    <path
       style="fill:none;fill-rule:evenodd;stroke:#000000;stroke-width:1.32291663;stroke-linecap:butt;stroke-linejoin:miter;stroke-miterlimit:4;stroke-dasharray:none;stroke-opacity:1"
       d="m 159.58937,206.90176 9.76385,25.88591"
       id="path5325"
       inkscape:connector-type="polyline"
       inkscape:connector-curvature="0"
       inkscape:connection-end="#ellipse5281" />
    <path
       style="fill:none;fill-rule:evenodd;stroke:#000000;stroke-width:1.32291663;stroke-linecap:butt;stroke-linejoin:miter;stroke-miterlimit:4;stroke-dasharray:none;stroke-opacity:1;"
       d="m 119.37331,234.01713 17.7999,2.91665"
       id="path5327"
       inkscape:connector-type="polyline"
       inkscape:connector-curvature="0"
       inkscape:connection-start="#ellipse5279" />
    <g
       transform="translate(38.115816,44.51362)"
       id="g5561">
      <ellipse
         transform="rotate(-30)"
         rx="3.96875"
         ry="3.968749"
         cy="202.2296"
         cx="-27.451582"
         id="ellipse5555"
         style="opacity:1;fill:#1a1a1a;fill-opacity:1;stroke:none;stroke-width:1.32291663;stroke-linecap:round;stroke-linejoin:round;stroke-miterlimit:4;stroke-dasharray:none;stroke-dashoffset:35.4368515;stroke-opacity:1;paint-order:normal" />
      <path
         inkscape:connector-curvature="0"
         style="opacity:1;fill:#e6e6e6;fill-opacity:1;stroke:none;stroke-width:5.81177139;stroke-miterlimit:4;stroke-dasharray:none;stroke-opacity:1"
         d="m 291.95898,-23.707031 a 14.999996,15 60 0 0 -0.39453,0.0293 l 15.71485,15.7148434 a 14.999996,15 60 0 0 -0.98828,-6.1367184 l -8.61329,-8.613282 a 14.999996,15 60 0 0 -5.71875,-0.99414 z m -5.5625,1.222656 a 14.999996,15 60 0 0 -1.58398,0.783203 14.999996,15 60 0 0 -1.6543,1.126953 l 21.01953,21.0195315 a 14.999996,15 60 0 0 1.9043,-3.2441406 z m -6.34765,5.164063 a 14.999996,15 60 0 0 -1.7793,3.36914 l 19.2793,19.279297 a 14.999996,15 60 0 0 2.26367,-1.0488281 14.999996,15 60 0 0 1.11328,-0.7226563 z m -2.72852,8.7812495 a 14.999996,15 60 0 0 1.81446,6.9628906 l 6.05078,6.0507813 a 14.999996,15 60 0 0 6.94336,1.7949218 z"
         transform="matrix(0.26458333,0,0,0.26458333,0,191.16664)"
         id="path5557" />
      <ellipse
         transform="rotate(-30)"
         style="opacity:1;fill:none;fill-opacity:1;stroke:#000000;stroke-width:1.32291663;stroke-linecap:round;stroke-linejoin:round;stroke-miterlimit:4;stroke-dasharray:none;stroke-dashoffset:35.4368515;stroke-opacity:1;paint-order:normal"
         id="ellipse5559"
         cx="-27.451582"
         cy="202.2296"
         ry="3.968749"
         rx="3.96875" />
    </g>
  </g>
</svg>
